<svg width="656" height="656" viewBox="0 0 656 656" fill="none" xmlns="http://www.w3.org/2000/svg">
<rect width="656" height="656" rx="328" fill="#51483D"/>
<path d="M280.667 273.523C304.69 270.293 339.633 270.302 378.589 271.101C417.636 271.902 460.782 273.5 501.5 273.5L499.5 278.5C458.718 278.5 417.414 276.899 378.486 276.1C339.467 275.299 304.91 275.308 281.333 278.478C234.61 284.76 197.234 318.503 184.456 334.557L180.544 331.443C193.766 314.83 232.19 280.041 280.667 273.523Z" fill="#F5F4EF"/>
<path d="M336.846 390.104H313.273L285.66 317.029H285.53L282.939 310.294H282.966L237.841 188.727L193.09 309.283L193.053 309.284L190.148 317.029H190.022L162.408 390.104H155L245.586 150L336.846 390.104Z" fill="#F5F4EF"/>
<path d="M396.552 276V504.991H375V276H396.552Z" fill="#F5F4EF"/>
</svg>
