<svg width="604" height="120" viewBox="0 0 604 120" fill="none" xmlns="http://www.w3.org/2000/svg">
<path d="M104.526 102V16.0625H138.901V32.6641H122.006V49.4121H138.217V65.5742H122.006V85.252H140.024V102H104.526ZM143.737 102V16.0625H160.924V87.3516H178.6V102H143.737ZM202.92 102V16.0625H225.625C230.378 16.0625 234.138 17.1204 236.905 19.2363C239.704 21.3522 241.706 24.3633 242.911 28.2695C244.115 32.1758 244.717 36.8307 244.717 42.2344C244.717 47.4427 244.213 51.9837 243.204 55.8574C242.194 59.6986 240.388 62.6771 237.784 64.793C235.212 66.9089 231.55 67.9668 226.797 67.9668H219.815V102H202.92ZM219.815 52.5371H220.792C223.982 52.5371 225.935 51.6419 226.651 49.8516C227.367 48.0612 227.725 45.4245 227.725 41.9414C227.725 38.6862 227.367 36.1797 226.651 34.4219C225.967 32.6315 224.323 31.7363 221.719 31.7363H219.815V52.5371ZM248.186 102V16.0625H274.553C278.948 16.0625 282.268 17.0716 284.514 19.0898C286.76 21.0755 288.258 23.875 289.006 27.4883C289.788 31.069 290.178 35.2845 290.178 40.1348C290.178 44.8223 289.576 48.5658 288.372 51.3652C287.2 54.1647 284.97 56.1016 281.682 57.1758C284.384 57.7292 286.272 59.0801 287.346 61.2285C288.453 63.3444 289.006 66.0951 289.006 69.4805V102H272.063V68.3574C272.063 65.8509 271.542 64.3047 270.5 63.7188C269.491 63.1003 267.847 62.791 265.569 62.791V102H248.186ZM265.667 47.8984H269.817C272.193 47.8984 273.381 45.3105 273.381 40.1348C273.381 36.7819 273.121 34.5846 272.6 33.543C272.079 32.5013 271.103 31.9805 269.67 31.9805H265.667V47.8984ZM314.35 102.781C307.482 102.781 302.224 100.714 298.579 96.5801C294.965 92.4134 293.159 86.4076 293.159 78.5625V37.7422C293.159 30.3854 294.949 24.8027 298.53 20.9941C302.143 17.1855 307.417 15.2812 314.35 15.2812C321.284 15.2812 326.541 17.1855 330.122 20.9941C333.735 24.8027 335.542 30.3854 335.542 37.7422V78.5625C335.542 86.4076 333.719 92.4134 330.073 96.5801C326.459 100.714 321.219 102.781 314.35 102.781ZM314.497 86.9609C317.101 86.9609 318.403 84.4382 318.403 79.3926V37.4492C318.403 33.2174 317.133 31.1016 314.594 31.1016C311.73 31.1016 310.297 33.2663 310.297 37.5957V79.4902C310.297 82.1595 310.623 84.0801 311.274 85.252C311.925 86.3913 312.999 86.9609 314.497 86.9609ZM360.495 102.781C354.277 102.781 349.264 100.844 345.456 96.9707C341.68 93.097 339.792 87.6771 339.792 80.7109V41.0625C339.792 32.7292 341.435 26.349 344.723 21.9219C348.043 17.4948 353.431 15.2812 360.885 15.2812C364.954 15.2812 368.568 16.0299 371.725 17.5273C374.915 19.0247 377.422 21.2708 379.245 24.2656C381.068 27.2279 381.979 30.9714 381.979 35.4961V50.3398H364.889V37.6445C364.889 35.0729 364.564 33.3477 363.913 32.4688C363.262 31.5573 362.252 31.1016 360.885 31.1016C359.29 31.1016 358.216 31.6875 357.663 32.8594C357.109 33.9987 356.833 35.5286 356.833 37.4492V80.4668C356.833 82.8431 357.174 84.5195 357.858 85.4961C358.574 86.4727 359.583 86.9609 360.885 86.9609C362.35 86.9609 363.375 86.3587 363.961 85.1543C364.58 83.9499 364.889 82.3874 364.889 80.4668V64.9883H382.174V81.248C382.174 88.8001 380.27 94.2852 376.461 97.7031C372.653 101.089 367.331 102.781 360.495 102.781ZM385.936 102V16.0625H420.311V32.6641H403.417V49.4121H419.627V65.5742H403.417V85.252H421.434V102H385.936ZM445.557 102.781C437.712 102.781 432.048 100.828 428.565 96.9219C425.114 93.0156 423.389 86.7982 423.389 78.2695V69.8711H440.381V80.6133C440.381 82.599 440.674 84.1615 441.26 85.3008C441.879 86.4076 442.937 86.9609 444.434 86.9609C445.997 86.9609 447.071 86.5052 447.657 85.5938C448.275 84.6823 448.584 83.1849 448.584 81.1016C448.584 78.4648 448.324 76.2676 447.803 74.5098C447.282 72.7194 446.371 71.0267 445.069 69.4316C443.799 67.804 442.025 65.916 439.747 63.7676L432.032 56.4434C426.27 51.0072 423.389 44.7897 423.389 37.791C423.389 30.4668 425.082 24.8841 428.467 21.043C431.885 17.2018 436.817 15.2812 443.262 15.2812C451.14 15.2812 456.722 17.3809 460.01 21.5801C463.331 25.7793 464.991 32.1595 464.991 40.7207H447.51V34.8125C447.51 33.6406 447.168 32.7292 446.485 32.0781C445.834 31.4271 444.939 31.1016 443.799 31.1016C442.432 31.1016 441.423 31.4922 440.772 32.2734C440.153 33.0221 439.844 33.9987 439.844 35.2031C439.844 36.4076 440.17 37.7096 440.821 39.1094C441.472 40.5091 442.758 42.1204 444.678 43.9434L454.59 53.4648C456.576 55.3529 458.399 57.3548 460.059 59.4707C461.719 61.554 463.054 63.9954 464.063 66.7949C465.072 69.5618 465.577 72.9473 465.577 76.9512C465.577 85.0241 464.079 91.3555 461.084 95.9453C458.122 100.503 452.946 102.781 445.557 102.781ZM489.846 102.781C482.978 102.781 477.721 100.714 474.075 96.5801C470.461 92.4134 468.655 86.4076 468.655 78.5625V37.7422C468.655 30.3854 470.445 24.8027 474.026 20.9941C477.639 17.1855 482.913 15.2812 489.846 15.2812C496.78 15.2812 502.037 17.1855 505.618 20.9941C509.231 24.8027 511.038 30.3854 511.038 37.7422V78.5625C511.038 86.4076 509.215 92.4134 505.569 96.5801C501.956 100.714 496.715 102.781 489.846 102.781ZM489.993 86.9609C492.597 86.9609 493.899 84.4382 493.899 79.3926V37.4492C493.899 33.2174 492.629 31.1016 490.09 31.1016C487.226 31.1016 485.793 33.2663 485.793 37.5957V79.4902C485.793 82.1595 486.119 84.0801 486.77 85.252C487.421 86.3913 488.495 86.9609 489.993 86.9609Z" fill="url(#paint0_linear_210_1881)"/>
<path d="M17.9999 71.1968C18.9599 71.1968 20.1066 70.5568 21.4399 69.2768C22.8266 67.9968 24.0266 66.6101 25.0399 65.1168C26.1066 63.6768 26.6399 62.6901 26.6399 62.1568C26.6399 62.1035 26.6133 62.0501 26.5599 61.9968C26.5599 61.9968 26.5599 61.9701 26.5599 61.9168H26.4799C26.1066 61.9168 25.1733 62.4235 23.6799 63.4368C22.2399 64.5035 20.8533 65.7035 19.5199 67.0368C18.1866 68.4235 17.5199 69.6501 17.5199 70.7168V70.7968C17.5199 70.8501 17.5199 70.8768 17.5199 70.8768C17.5199 70.9301 17.5466 70.9835 17.5999 71.0368C17.6533 71.0901 17.7066 71.1168 17.7599 71.1168C17.8666 71.1701 17.9466 71.1968 17.9999 71.1968ZM43.3599 56.3968C44.5866 56.3968 45.6266 56.4501 46.4799 56.5568C47.3333 56.6101 47.7599 56.7701 47.7599 57.0368C47.7599 57.1968 47.4399 57.3035 46.7999 57.3568C46.2133 57.4101 45.4133 57.4635 44.3999 57.5168C41.8399 57.5168 39.0399 57.7835 35.9999 58.3168C33.0133 58.8501 31.0133 60.0235 29.9999 61.8368C28.3999 65.1968 26.2933 67.9435 23.6799 70.0768C21.0666 72.2101 19.1466 73.2768 17.9199 73.2768H17.6799C17.1999 73.2768 16.7733 73.1168 16.3999 72.7968C16.0266 72.3701 15.8399 71.8901 15.8399 71.3568C15.8399 69.9168 16.8266 68.1301 18.7999 65.9968C20.8266 63.9168 23.3066 62.0501 26.2399 60.3968C26.2933 60.3968 26.3199 60.3701 26.3199 60.3168C26.7999 60.1035 27.1733 59.8635 27.4399 59.5968C27.7066 59.3301 27.9733 58.8501 28.2399 58.1568C28.5599 57.4635 28.9599 56.3435 29.4399 54.7968C30.1333 52.7168 30.5866 50.5568 30.7999 48.3168V47.3568C30.7999 46.1835 30.5333 45.5968 29.9999 45.5968H29.9199C28.4799 45.5968 25.8399 48.5568 21.9999 54.4768C18.1599 60.3968 14.3466 67.8901 10.5599 76.9568C6.77327 86.0235 4.02661 95.5701 2.31994 105.597C2.10661 106.877 1.94661 107.997 1.83994 108.957C1.73327 110.663 1.54661 111.517 1.27994 111.517C0.906607 111.517 0.559941 111.303 0.239941 110.877C0.0799406 110.557 -5.96046e-05 110.21 -5.96046e-05 109.837V109.517C-5.96046e-05 106.637 1.01327 101.09 3.03994 92.8768C5.06661 84.7168 7.46661 76.0768 10.2399 66.9568C13.0133 57.8368 15.6799 49.9168 18.2399 43.1968C20.7999 36.4768 22.5866 33.1168 23.5999 33.1168C23.8133 33.1168 23.9199 33.2235 23.9199 33.4368V33.5968C23.9199 33.9168 23.4133 35.5435 22.3999 38.4768C21.4399 41.4101 20.3199 44.8501 19.0399 48.7968C17.4399 53.4901 15.9733 57.8368 14.6399 61.8368C13.3066 65.8368 12.6399 68.1035 12.6399 68.6368C12.6933 68.6368 13.0666 67.9168 13.7599 66.4768C14.7199 64.2901 16.1066 61.4101 17.9199 57.8368C19.7866 54.3168 21.7599 51.0901 23.8399 48.1568C25.9733 45.2235 27.9199 43.7568 29.6799 43.7568C30.7466 43.7568 31.6266 44.1568 32.3199 44.9568C33.0666 45.7568 33.4399 47.0901 33.4399 48.9568C33.4399 50.3968 33.2533 51.8368 32.8799 53.2768C32.5066 54.7168 32.1866 55.8635 31.9199 56.7168C31.7066 57.3568 31.5999 57.7301 31.5999 57.8368C35.2266 56.8768 38.8533 56.3968 42.4799 56.3968H43.3599ZM45.7799 66.8768C45.7799 66.9301 45.8066 66.9568 45.8599 66.9568C45.9666 66.9568 46.4199 66.4235 47.2199 65.3568C48.0199 64.3435 49.0066 63.0101 50.1799 61.3568C51.8333 59.0101 53.6199 56.5301 55.5399 53.9168C57.5133 51.3035 59.3266 49.0635 60.9799 47.1968C62.6866 45.2768 63.9399 44.3168 64.7399 44.3168C65.2199 44.3168 65.5133 44.7968 65.6199 45.7568C65.6199 45.9701 65.5933 46.2368 65.5399 46.5568C65.4866 47.0368 65.4599 47.8635 65.4599 49.0368C65.4599 52.0768 66.1266 54.4501 67.4599 56.1568C68.7933 57.8635 70.4733 58.7168 72.4999 58.7168C73.8866 58.7168 75.2733 58.5301 76.6599 58.1568C78.0466 57.8368 79.2466 57.5168 80.2599 57.1968C81.2199 56.8768 81.8599 56.7168 82.1799 56.7168C82.6599 56.7168 82.9266 56.8501 82.9799 57.1168C82.9799 57.3301 82.3133 57.6501 80.9799 58.0768C79.6999 58.5568 78.1533 58.9835 76.3399 59.3568C74.5266 59.7835 72.8999 59.9968 71.4599 59.9968C69.2733 59.9968 67.5133 59.4901 66.1799 58.4768C64.8999 57.5168 63.9666 56.2901 63.3799 54.7968C62.8466 53.3035 62.5799 51.8368 62.5799 50.3968C62.5799 49.1701 62.7399 48.0501 63.0599 47.0368C62.8466 47.0368 62.0466 47.9435 60.6599 49.7568C59.3266 51.5701 57.7533 53.7835 55.9399 56.3968C53.3266 60.0768 50.7933 63.5435 48.3399 66.7968C45.8866 70.1035 44.3399 71.7568 43.6999 71.7568C43.5933 71.7568 43.4599 71.7301 43.2999 71.6768C43.1399 71.6235 43.0066 71.5435 42.8999 71.4368C42.5799 71.1168 42.4199 70.5301 42.4199 69.6768C42.4199 68.2368 42.8733 66.0501 43.7799 63.1168C44.6333 60.1835 45.5933 57.4901 46.6599 55.0368C47.7799 52.5835 48.6599 51.3568 49.2999 51.3568H49.4599C49.7266 51.4101 49.9399 51.5435 50.0999 51.7568C50.2599 51.9168 50.3399 52.1035 50.3399 52.3168V52.4768C50.3399 53.0635 50.0199 54.2635 49.3799 56.0768C48.7933 57.8901 48.1533 59.7568 47.4599 61.6768C46.9799 63.0101 46.5799 64.1568 46.2599 65.1168C45.9399 66.0768 45.7799 66.6635 45.7799 66.8768ZM91.5743 52.0768C90.881 52.1301 90.0543 52.3968 89.0943 52.8768C88.1877 53.3568 87.3343 53.9168 86.5343 54.5568C85.7876 55.1435 85.4143 55.6501 85.4143 56.0768C85.4143 56.1835 85.4676 56.2368 85.5743 56.2368H85.7343C86.1077 56.2368 86.8277 56.1035 87.8943 55.8368C88.961 55.5701 89.9743 55.1701 90.9343 54.6368C91.8943 54.1035 92.3743 53.4368 92.3743 52.6368C92.3743 52.5301 92.2943 52.4235 92.1343 52.3168C92.0277 52.1568 91.841 52.0768 91.5743 52.0768ZM109.094 56.7168H109.334C109.388 56.7168 109.441 56.7168 109.494 56.7168C109.548 56.7168 109.574 56.7435 109.574 56.7968C109.574 56.9568 108.374 57.7835 105.974 59.2768C103.574 60.7701 100.721 62.2101 97.4143 63.5968C94.161 64.9835 91.0677 65.7835 88.1343 65.9968H87.4143C85.5476 65.9968 84.1076 65.6768 83.0943 65.0368C82.1343 64.3968 81.4676 63.5968 81.0943 62.6368C80.6676 61.7301 80.4543 60.8235 80.4543 59.9168C80.4543 57.9968 81.0943 56.2901 82.3743 54.7968C83.7076 53.2501 85.2277 52.0501 86.9343 51.1968C88.641 50.2901 90.1343 49.8368 91.4143 49.8368C92.2143 49.8368 92.801 49.9701 93.1743 50.2368C93.5477 50.5035 93.761 50.7968 93.8143 51.1168C93.921 51.4368 93.9743 51.7035 93.9743 51.9168C93.9743 53.2501 93.1477 54.5835 91.4943 55.9168C89.8943 57.1968 87.761 57.8368 85.0943 57.8368C84.1343 57.8368 83.5743 58.6368 83.4143 60.2368C83.4143 62.8501 85.0943 64.1835 88.4543 64.2368C88.8277 64.2368 89.201 64.2101 89.5743 64.1568C92.881 63.7835 96.1077 62.9035 99.2543 61.5168C102.401 60.1835 104.961 58.9568 106.934 57.8368C107.894 57.3035 108.614 56.9301 109.094 56.7168ZM100.516 108.237C102.65 108.077 105.156 106.157 108.036 102.477C110.863 98.7968 113.636 94.4768 116.356 89.5168C119.13 84.5568 121.423 80.0501 123.236 75.9968C125.103 71.9968 126.063 69.5435 126.116 68.6368C126.116 68.5835 126.09 68.5568 126.036 68.5568C125.45 68.5568 123.13 70.4501 119.076 74.2368C115.023 78.0235 110.97 82.6368 106.916 88.0768C102.81 93.5701 100.116 99.0368 98.8362 104.477V105.197C98.8362 107.223 99.3695 108.237 100.436 108.237H100.516ZM108.516 63.9168C109.21 63.9168 110.41 63.3035 112.116 62.0768C113.876 60.8501 115.53 59.5168 117.076 58.0768C118.623 56.6368 119.396 55.6501 119.396 55.1168C119.29 54.7435 119.076 54.4501 118.756 54.2368C118.49 53.9701 118.17 53.8368 117.796 53.8368H117.636C116.25 53.8368 114.81 54.4768 113.316 55.7568C111.823 56.9835 110.57 58.3435 109.556 59.8368C108.543 61.3835 108.036 62.5568 108.036 63.3568C108.036 63.7301 108.196 63.9168 108.516 63.9168ZM148.196 56.7168C148.73 56.7168 149.023 56.8235 149.076 57.0368C149.076 57.0901 148.623 57.2235 147.716 57.4368C146.01 57.9168 143.556 58.7435 140.356 59.9168C137.156 61.0901 134.09 62.6101 131.156 64.4768C130.73 64.7435 130.41 64.9835 130.196 65.1968C129.983 65.4101 129.77 65.7568 129.556 66.2368C129.396 66.7168 129.156 67.4635 128.836 68.4768C124.943 79.9435 120.09 89.6235 114.276 97.5168C108.516 105.463 104.17 109.437 101.236 109.437C101.076 109.437 100.783 109.41 100.356 109.357C99.9295 109.303 99.4762 109.143 98.9962 108.877C98.4629 108.61 98.0362 108.157 97.7162 107.517C97.3429 106.877 97.1562 105.97 97.1562 104.797C97.1562 100.53 99.8762 94.6368 105.316 87.1168C110.703 79.6501 117.343 72.9568 125.236 67.0368C125.823 66.6101 126.25 66.2635 126.516 65.9968C126.783 65.7301 126.996 65.3835 127.156 64.9568C127.37 64.5301 127.61 63.8635 127.876 62.9568C129.956 56.3968 130.996 52.1568 130.996 50.2368C130.996 50.1835 130.996 50.0768 130.996 49.9168C130.996 49.7568 130.943 49.5968 130.836 49.4368C130.783 49.2768 130.703 49.1968 130.596 49.1968C130.17 49.1968 129.263 49.6501 127.876 50.5568C126.543 51.4635 125.263 52.4235 124.036 53.4368C122.863 54.4501 122.223 55.1701 122.116 55.5968C122.063 56.5568 121.823 57.3835 121.396 58.0768C120.97 58.8235 120.57 59.1968 120.196 59.1968C119.93 59.1968 119.743 59.0901 119.636 58.8768C119.53 58.6635 119.45 58.4768 119.396 58.3168C119.343 58.1568 119.29 58.0768 119.236 58.0768C119.183 58.0768 118.81 58.3968 118.116 59.0368C116.89 60.2101 115.183 61.6235 112.996 63.2768C110.863 64.9301 109.05 65.7568 107.556 65.7568C106.49 65.7568 105.956 65.0901 105.956 63.7568C105.956 60.8768 107.343 57.9968 110.116 55.1168C112.943 52.2368 115.663 50.7968 118.276 50.7968C119.396 50.7968 120.196 51.0635 120.676 51.5968C121.156 52.1301 121.476 52.5568 121.636 52.8768C121.69 53.0901 121.743 53.1968 121.796 53.1968C122.01 53.1968 122.383 53.0101 122.916 52.6368C123.45 52.2635 124.09 51.8101 124.836 51.2768C126.01 50.4235 127.21 49.5968 128.436 48.7968C129.716 47.9435 130.756 47.5168 131.556 47.5168C132.57 47.5168 133.076 48.4235 133.076 50.2368C133.076 51.7301 132.836 53.5701 132.356 55.7568C131.876 57.8901 131.423 59.7035 130.996 61.1968C130.676 62.2635 130.516 62.8768 130.516 63.0368C130.516 63.1435 130.57 63.1968 130.676 63.1968L131.076 62.9568C131.823 62.5301 133.156 61.8101 135.076 60.7968C137.05 59.8368 139.236 58.9035 141.636 57.9968C144.09 57.1435 146.276 56.7168 148.196 56.7168ZM179.184 56.7168C179.238 56.7168 179.264 56.7168 179.264 56.7168C179.318 56.7701 179.344 56.7968 179.344 56.7968C179.344 56.8501 179.344 56.9035 179.344 56.9568C179.344 57.4368 178.678 58.6368 177.344 60.5568C176.064 62.4768 174.464 64.5568 172.544 66.7968C170.678 69.0901 168.784 71.0901 166.864 72.7968C164.944 74.5035 163.398 75.3568 162.224 75.3568C162.171 75.3568 162.011 75.3301 161.744 75.2768C161.478 75.2235 161.184 75.0635 160.864 74.7968C160.544 74.5301 160.251 74.1301 159.984 73.5968C159.718 73.0635 159.584 72.3168 159.584 71.3568C159.584 68.8501 160.278 65.8368 161.664 62.3168C163.104 58.8501 164.304 56.1568 165.264 54.2368C165.691 53.3301 165.904 52.8235 165.904 52.7168C165.744 52.7168 164.944 53.4635 163.504 54.9568C162.171 56.3435 160.571 57.9168 158.704 59.6768C156.838 61.4901 154.998 63.0635 153.184 64.3968C151.371 65.7835 149.878 66.4768 148.704 66.4768C148.011 66.4768 147.371 66.1568 146.784 65.5168C146.198 64.8768 145.904 63.9435 145.904 62.7168C145.904 61.3835 146.198 59.9435 146.784 58.3968C147.318 56.8501 147.984 55.5168 148.784 54.3968C149.584 53.2235 150.331 52.6368 151.024 52.6368C151.184 52.6368 151.371 52.6901 151.584 52.7968C151.851 52.9035 151.984 53.0901 151.984 53.3568C151.984 53.5701 151.691 54.3168 151.104 55.5968C150.571 56.8768 149.984 58.3168 149.344 59.9168C148.758 61.5701 148.464 62.8768 148.464 63.8368C148.464 64.6368 148.758 65.0368 149.344 65.0368C150.464 65.0368 152.251 63.8901 154.704 61.5968C157.211 59.3568 159.664 57.0101 162.064 54.5568C163.558 53.0101 164.838 51.7301 165.904 50.7168C167.024 49.6501 167.744 49.1168 168.064 49.1168C168.171 49.1701 168.278 49.2235 168.384 49.2768C168.491 49.3301 168.571 49.4101 168.624 49.5168C168.838 49.6235 168.944 49.8101 168.944 50.0768V50.2368C168.944 50.8768 168.251 52.8501 166.864 56.1568C165.744 58.9835 164.624 61.9701 163.504 65.1168C162.384 68.3168 161.824 70.8235 161.824 72.6368C161.824 73.3835 162.118 73.7568 162.704 73.7568H162.944C163.798 73.7568 165.078 72.9035 166.784 71.1968C168.544 69.4901 170.358 67.5435 172.224 65.3568C174.091 63.1701 175.691 61.1968 177.024 59.4368C178.358 57.7301 179.024 56.8501 179.024 56.7968L179.104 56.7168H179.184ZM211.167 56.7168C211.221 56.7168 211.247 56.7435 211.247 56.7968V56.8768H211.167C211.007 57.1435 210.501 57.9168 209.647 59.1968C208.527 60.7968 207.114 62.6101 205.407 64.6368C203.701 66.6635 201.887 68.4501 199.967 69.9968C198.047 71.5968 196.287 72.3968 194.687 72.3968C193.407 72.3968 192.581 71.9168 192.207 70.9568C191.887 70.0501 191.727 69.1968 191.727 68.3968C191.727 65.8901 192.314 62.9835 193.487 59.6768C194.714 56.4235 195.861 53.6235 196.927 51.2768C197.781 49.4101 198.207 48.3168 198.207 47.9968C198.207 47.7835 198.101 47.6768 197.887 47.6768C196.981 47.6768 195.434 48.7168 193.247 50.7968C191.114 52.8768 188.874 55.1435 186.527 57.5968C184.607 59.6235 182.901 61.3568 181.407 62.7968C179.914 64.2901 178.901 65.0368 178.367 65.0368C177.407 65.0368 176.927 64.4235 176.927 63.1968V62.7968C176.927 61.4101 177.247 59.7301 177.887 57.7568C178.474 55.8368 179.194 54.1301 180.047 52.6368C180.901 51.1435 181.701 50.3968 182.447 50.3968C183.247 50.3968 183.647 50.6901 183.647 51.2768C183.647 51.5435 183.461 52.0768 183.087 52.8768C182.767 53.6768 182.394 54.5835 181.967 55.5968C181.327 56.9301 180.767 58.2101 180.287 59.4368C179.807 60.6635 179.567 61.5435 179.567 62.0768V62.1568C179.727 62.1568 180.207 61.7568 181.007 60.9568C181.807 60.1568 182.821 59.1435 184.047 57.9168C186.607 55.2501 189.354 52.5568 192.287 49.8368C195.221 47.1168 197.301 45.7568 198.527 45.7568C199.061 45.8101 199.487 46.0235 199.807 46.3968C200.181 46.7168 200.367 47.1435 200.367 47.6768C200.367 48.3701 200.101 49.4901 199.567 51.0368C199.087 52.5301 198.474 54.2101 197.727 56.0768C196.821 58.5301 195.967 60.9568 195.167 63.3568C194.367 65.7568 193.967 67.6768 193.967 69.1168C193.967 69.7568 194.047 70.1835 194.207 70.3968C194.367 70.6635 194.527 70.8235 194.687 70.8768C194.901 70.9835 195.061 71.0368 195.167 71.0368C196.714 71.0368 198.554 69.9435 200.687 67.7568C202.874 65.5701 204.927 63.3568 206.847 61.1168C207.914 59.8368 208.821 58.7701 209.567 57.9168C210.367 57.1168 210.901 56.7168 211.167 56.7168ZM239.117 28.7968C240.237 28.7968 241.117 28.8235 241.757 28.8768C242.397 28.8768 242.85 28.9301 243.117 29.0368C243.437 29.0901 243.623 29.1701 243.677 29.2768C243.783 29.3835 243.837 29.4901 243.837 29.5968C243.837 29.7035 243.81 29.8635 243.757 30.0768C243.757 30.2368 243.703 30.3968 243.597 30.5568C243.543 30.7168 243.41 30.7968 243.197 30.7968C243.09 30.7968 242.983 30.7968 242.877 30.7968C242.77 30.7435 242.663 30.6901 242.557 30.6368C242.397 30.5835 242.13 30.5035 241.757 30.3968C241.437 30.2901 240.903 30.2101 240.157 30.1568C239.41 30.1035 238.343 30.0768 236.957 30.0768C236.21 30.0768 234.557 30.1301 231.997 30.2368C229.437 30.2901 226.343 30.4501 222.717 30.7168C220.797 35.4635 218.85 40.6368 216.877 46.2368C214.957 51.7835 213.303 57.1701 211.917 62.3968C210.53 67.6235 209.837 71.9701 209.837 75.4368C209.837 76.7701 209.97 77.5968 210.237 77.9168C210.557 78.2368 210.983 78.3968 211.517 78.3968C212.903 78.3968 214.663 77.3568 216.797 75.2768C218.983 73.2501 221.197 70.8768 223.437 68.1568C225.677 65.4901 227.65 63.0368 229.357 60.7968C231.437 58.0235 232.61 56.6368 232.877 56.6368C232.93 56.6368 232.957 56.6635 232.957 56.7168C233.01 56.7168 233.037 56.7435 233.037 56.7968C233.037 57.1701 232.183 58.5568 230.477 60.9568C228.77 63.4101 226.663 66.1301 224.157 69.1168C221.703 72.1035 219.197 74.7168 216.637 76.9568C214.13 79.2501 212.05 80.3968 210.397 80.3968C208.37 80.3968 207.357 78.3968 207.357 74.3968C207.357 70.1301 208.05 65.3035 209.437 59.9168C210.77 54.5835 212.343 49.3835 214.157 44.3168C215.97 39.1968 217.65 34.7968 219.197 31.1168C210.877 32.1301 205.623 32.9301 203.437 33.5168L202.717 33.6768C202.557 33.6768 202.423 33.6235 202.317 33.5168L202.397 33.5968C202.343 33.5968 202.29 33.5701 202.237 33.5168C202.13 33.4101 202.077 33.2768 202.077 33.1168C202.077 32.5835 202.823 32.1035 204.317 31.6768C205.81 31.2501 207.597 30.9035 209.677 30.6368C211.757 30.3701 213.703 30.1568 215.517 29.9968C217.383 29.8368 218.743 29.7301 219.597 29.6768C219.65 29.6235 219.73 29.5968 219.837 29.5968L222.557 23.3568C223.943 20.2635 224.957 18.1835 225.597 17.1168C226.237 16.0501 226.823 15.5168 227.357 15.5168C228.103 15.5168 228.477 15.8101 228.477 16.3968C228.477 16.5035 227.997 17.6768 227.037 19.9168C226.077 22.3168 224.797 25.4901 223.197 29.4368C224.69 29.3301 227.143 29.1968 230.557 29.0368C233.97 28.8768 236.823 28.7968 239.117 28.7968ZM237.472 57.7568C238.485 56.9568 239.205 56.3435 239.632 55.9168C240.005 55.5435 240.192 55.1701 240.192 54.7968V54.6368C240.192 54.3168 240.165 54.0235 240.112 53.7568C240.058 53.6501 240.005 53.5701 239.952 53.5168C239.898 53.4635 239.818 53.4368 239.712 53.4368C239.232 53.4368 238.645 53.7568 237.952 54.3968C237.258 55.0368 236.565 55.7835 235.872 56.6368C235.232 57.4901 234.672 58.2635 234.192 58.9568C233.765 59.7035 233.552 60.1568 233.552 60.3168C233.552 60.3701 233.578 60.3968 233.632 60.3968C233.952 60.3968 235.232 59.5168 237.472 57.7568ZM272.192 56.7168C272.245 56.7168 272.298 56.7168 272.352 56.7168C272.405 56.7168 272.458 56.7435 272.512 56.7968C272.565 56.8501 272.592 56.9301 272.592 57.0368C272.592 57.1435 271.605 57.7035 269.632 58.7168C267.712 59.7835 265.365 60.7968 262.592 61.7568C259.818 62.7701 257.152 63.2768 254.592 63.2768C251.818 63.2768 249.818 62.5568 248.592 61.1168C247.365 59.7301 246.752 57.6501 246.752 54.8768C246.752 54.2901 246.512 53.9968 246.032 53.9968H245.952C245.365 53.9968 244.592 54.3968 243.632 55.1968C242.725 55.9435 242.005 56.9035 241.472 58.0768C240.778 59.5168 240.272 60.2368 239.952 60.2368C239.898 60.2368 239.845 60.2101 239.792 60.1568C239.792 60.1035 239.792 59.9968 239.792 59.8368C239.792 59.6235 239.818 59.4368 239.872 59.2768V58.9568C239.872 58.9035 239.872 58.8501 239.872 58.7968C239.872 58.7968 239.845 58.7968 239.792 58.7968C239.685 58.7968 239.445 58.9301 239.072 59.1968C238.752 59.4635 238.352 59.8101 237.872 60.2368C236.858 61.0901 235.765 61.9435 234.592 62.7968C233.418 63.6501 232.485 64.0768 231.792 64.0768C231.258 64.0768 230.805 63.8635 230.432 63.4368C230.112 63.0635 229.952 62.6635 229.952 62.2368V61.9968C229.952 60.8768 230.512 59.3835 231.632 57.5168C232.698 55.7035 233.978 54.0768 235.472 52.6368C237.018 51.1435 238.458 50.3968 239.792 50.3968C240.698 50.3968 241.312 50.6901 241.632 51.2768C241.952 51.8635 242.165 52.4235 242.272 52.9568C242.325 53.1701 242.378 53.3568 242.432 53.5168C242.485 53.6235 242.538 53.6768 242.592 53.6768C242.752 53.6768 243.072 53.4901 243.552 53.1168C244.032 52.7968 244.538 52.4768 245.072 52.1568C245.605 51.8368 246.138 51.6768 246.672 51.6768C247.525 51.6768 248.085 52.0501 248.352 52.7968C248.672 53.4901 248.938 54.3435 249.152 55.3568C249.312 56.3168 249.578 57.2768 249.952 58.2368C250.325 59.2501 250.912 60.0768 251.712 60.7168C252.565 61.4101 253.845 61.7568 255.552 61.7568C257.738 61.7568 259.978 61.3301 262.272 60.4768C264.565 59.6768 266.592 58.8768 268.352 58.0768C270.272 57.1701 271.552 56.7168 272.192 56.7168ZM269.971 77.8368C271.037 77.7301 272.237 77.0901 273.571 75.9168C274.904 74.7435 276.077 73.4368 277.091 71.9968C278.104 70.5568 278.637 69.4101 278.691 68.5568V68.2368H278.611C278.397 68.2368 277.837 68.6635 276.931 69.5168C276.024 70.3701 275.037 71.3568 273.971 72.4768C272.904 73.6501 271.971 74.7435 271.171 75.7568C270.317 76.7701 269.891 77.4368 269.891 77.7568L269.971 77.8368ZM273.491 55.9168C273.491 56.1301 273.571 56.2368 273.731 56.2368C274.104 56.2368 275.037 55.8368 276.531 55.0368C278.024 54.1835 279.624 53.1968 281.331 52.0768C283.091 50.9035 284.611 49.7835 285.891 48.7168C287.171 47.6501 287.811 46.8768 287.811 46.3968C287.811 46.0768 287.651 45.9168 287.331 45.9168H287.171C286.371 45.9168 284.851 46.5301 282.611 47.7568C280.424 48.9301 278.344 50.3168 276.371 51.9168C274.451 53.4635 273.491 54.7968 273.491 55.9168ZM299.651 56.7168C299.917 56.7168 300.157 56.7435 300.371 56.7968C300.371 56.8501 299.944 57.0101 299.091 57.2768C297.651 57.7035 295.357 58.5835 292.211 59.9168C289.064 61.3035 285.464 63.3568 281.411 66.0768C281.197 69.1168 280.344 71.6501 278.851 73.6768C277.357 75.7035 275.757 77.2235 274.051 78.2368C272.344 79.2501 271.144 79.7568 270.451 79.7568C269.811 79.7568 269.277 79.5435 268.851 79.1168C268.531 78.7435 268.371 78.3168 268.371 77.8368V77.5168C268.371 76.4501 269.064 75.1968 270.451 73.7568C271.784 72.3168 273.224 70.9301 274.771 69.5968C275.837 68.6368 276.744 67.7835 277.491 67.0368C278.237 66.2901 278.611 65.7301 278.611 65.3568C278.611 64.9301 278.317 64.4235 277.731 63.8368C277.197 63.3035 276.531 62.7168 275.731 62.0768C274.611 61.2235 273.544 60.2635 272.531 59.1968C271.571 58.1835 271.091 57.0635 271.091 55.8368C271.091 53.7035 272.104 51.7568 274.131 49.9968C276.211 48.2368 278.504 46.8235 281.011 45.7568C283.571 44.6368 285.571 44.0768 287.011 44.0768C288.611 44.0768 289.491 44.7168 289.651 45.9968C289.651 46.7435 288.904 47.8368 287.411 49.2768C285.917 50.7168 284.104 52.1568 281.971 53.5968C279.891 55.0368 277.837 56.1568 275.811 56.9568C275.704 57.0101 275.624 57.0368 275.571 57.0368C275.037 57.2501 274.771 57.4635 274.771 57.6768C274.771 58.1035 275.331 58.6901 276.451 59.4368C277.197 60.0235 277.997 60.7168 278.851 61.5168C279.704 62.3168 280.397 63.2768 280.931 64.3968H281.011C281.011 64.3435 281.037 64.3168 281.091 64.3168C281.357 64.1568 282.024 63.7835 283.091 63.1968C284.477 62.4501 286.184 61.5701 288.211 60.5568C290.237 59.5435 292.237 58.6368 294.211 57.8368C296.237 57.0368 297.837 56.6368 299.011 56.6368C299.224 56.6368 299.437 56.6635 299.651 56.7168ZM317.226 76.5568C317.226 75.0635 317.146 73.8368 316.986 72.8768C316.826 71.9168 316.612 71.1701 316.346 70.6368C316.132 70.1568 315.919 69.8101 315.706 69.5968C315.546 69.4368 315.439 69.3568 315.386 69.3568C315.119 69.3568 314.586 70.8501 313.786 73.8368C312.986 76.8235 312.159 80.4235 311.306 84.6368C310.399 88.8501 309.626 92.9568 308.986 96.9568C308.292 101.01 307.946 104.103 307.946 106.237C307.946 106.77 307.999 107.277 308.106 107.757C308.212 108.237 308.319 108.53 308.426 108.637H308.666C309.679 108.637 310.852 106.77 312.186 103.037C313.519 99.3035 314.692 94.9301 315.706 89.9168C316.719 84.9035 317.226 80.4501 317.226 76.5568ZM331.866 25.8368C331.599 25.8368 331.066 26.6101 330.266 28.1568C329.466 29.6501 328.612 31.4101 327.706 33.4368C326.799 35.4635 326.026 37.2768 325.386 38.8768C324.746 40.4768 324.399 41.4368 324.346 41.7568C324.932 41.1168 325.412 40.4235 325.786 39.6768C326.692 38.1301 327.599 36.3968 328.506 34.4768C329.466 32.5035 330.266 30.7168 330.906 29.1168C331.599 27.4635 331.946 26.4235 331.946 25.9968C331.946 25.8901 331.919 25.8368 331.866 25.8368ZM337.706 56.7168C337.812 56.7168 337.892 56.7435 337.946 56.7968C337.999 56.8501 338.052 56.9035 338.106 56.9568C338.106 57.2768 337.172 57.8901 335.306 58.7968C333.439 59.7568 331.172 60.7701 328.506 61.8368C325.839 62.9035 323.199 63.8101 320.586 64.5568C317.492 65.4101 315.946 66.1035 315.946 66.6368C315.946 66.6901 316.026 66.8235 316.186 67.0368C316.559 67.4101 317.066 68.3968 317.706 69.9968C318.346 71.6501 318.666 74.3968 318.666 78.2368C318.666 82.7168 318.106 87.4635 316.986 92.4768C315.919 97.4901 314.559 101.73 312.906 105.197C311.252 108.717 309.626 110.477 308.026 110.477C307.599 110.477 307.226 110.343 306.906 110.077C305.946 109.223 305.466 107.17 305.466 103.917C305.466 98.4768 306.532 91.2235 308.666 82.1568C310.746 73.0901 313.279 64.0235 316.266 54.9568C319.306 45.8368 322.346 38.1301 325.386 31.8368C328.426 25.4901 330.879 22.3168 332.746 22.3168C333.012 22.3168 333.279 22.4235 333.546 22.6368C333.866 22.7968 334.026 23.2501 334.026 23.9968C334.026 25.8635 333.066 28.8235 331.146 32.8768C329.226 36.9301 326.666 41.3035 323.466 45.9968C322.666 47.2768 321.866 48.9035 321.066 50.8768C320.266 52.8501 319.546 54.8235 318.906 56.7968C318.266 58.8235 317.732 60.5301 317.306 61.9168C316.932 63.3568 316.746 64.1035 316.746 64.1568C316.746 64.2635 316.746 64.3168 316.746 64.3168C316.799 64.3701 316.852 64.3968 316.906 64.3968C316.959 64.3968 318.079 64.1035 320.266 63.5168C322.452 62.9301 325.012 62.1035 327.946 61.0368C330.932 59.9701 333.759 58.6901 336.426 57.1968C336.799 56.9301 337.226 56.7701 337.706 56.7168ZM336.171 66.8768C336.171 66.9301 336.197 66.9568 336.251 66.9568C336.357 66.9568 336.811 66.4235 337.611 65.3568C338.411 64.3435 339.397 63.0101 340.571 61.3568C342.224 59.0101 344.011 56.5301 345.931 53.9168C347.904 51.3035 349.717 49.0635 351.371 47.1968C353.077 45.2768 354.331 44.3168 355.131 44.3168C355.611 44.3168 355.904 44.7968 356.011 45.7568C356.011 45.9701 355.984 46.2368 355.931 46.5568C355.877 47.0368 355.851 47.8635 355.851 49.0368C355.851 52.0768 356.517 54.4501 357.851 56.1568C359.184 57.8635 360.864 58.7168 362.891 58.7168C364.277 58.7168 365.664 58.5301 367.051 58.1568C368.437 57.8368 369.637 57.5168 370.651 57.1968C371.611 56.8768 372.251 56.7168 372.571 56.7168C373.051 56.7168 373.317 56.8501 373.371 57.1168C373.371 57.3301 372.704 57.6501 371.371 58.0768C370.091 58.5568 368.544 58.9835 366.731 59.3568C364.917 59.7835 363.291 59.9968 361.851 59.9968C359.664 59.9968 357.904 59.4901 356.571 58.4768C355.291 57.5168 354.357 56.2901 353.771 54.7968C353.237 53.3035 352.971 51.8368 352.971 50.3968C352.971 49.1701 353.131 48.0501 353.451 47.0368C353.237 47.0368 352.437 47.9435 351.051 49.7568C349.717 51.5701 348.144 53.7835 346.331 56.3968C343.717 60.0768 341.184 63.5435 338.731 66.7968C336.277 70.1035 334.731 71.7568 334.091 71.7568C333.984 71.7568 333.851 71.7301 333.691 71.6768C333.531 71.6235 333.397 71.5435 333.291 71.4368C332.971 71.1168 332.811 70.5301 332.811 69.6768C332.811 68.2368 333.264 66.0501 334.171 63.1168C335.024 60.1835 335.984 57.4901 337.051 55.0368C338.171 52.5835 339.051 51.3568 339.691 51.3568H339.851C340.117 51.4101 340.331 51.5435 340.491 51.7568C340.651 51.9168 340.731 52.1035 340.731 52.3168V52.4768C340.731 53.0635 340.411 54.2635 339.771 56.0768C339.184 57.8901 338.544 59.7568 337.851 61.6768C337.371 63.0101 336.971 64.1568 336.651 65.1168C336.331 66.0768 336.171 66.6635 336.171 66.8768ZM381.965 52.0768C381.272 52.1301 380.445 52.3968 379.485 52.8768C378.578 53.3568 377.725 53.9168 376.925 54.5568C376.178 55.1435 375.805 55.6501 375.805 56.0768C375.805 56.1835 375.858 56.2368 375.965 56.2368H376.125C376.498 56.2368 377.218 56.1035 378.285 55.8368C379.352 55.5701 380.365 55.1701 381.325 54.6368C382.285 54.1035 382.765 53.4368 382.765 52.6368C382.765 52.5301 382.685 52.4235 382.525 52.3168C382.418 52.1568 382.232 52.0768 381.965 52.0768ZM399.485 56.7168H399.725C399.778 56.7168 399.832 56.7168 399.885 56.7168C399.938 56.7168 399.965 56.7435 399.965 56.7968C399.965 56.9568 398.765 57.7835 396.365 59.2768C393.965 60.7701 391.112 62.2101 387.805 63.5968C384.552 64.9835 381.458 65.7835 378.525 65.9968H377.805C375.938 65.9968 374.498 65.6768 373.485 65.0368C372.525 64.3968 371.858 63.5968 371.485 62.6368C371.058 61.7301 370.845 60.8235 370.845 59.9168C370.845 57.9968 371.485 56.2901 372.765 54.7968C374.098 53.2501 375.618 52.0501 377.325 51.1968C379.032 50.2901 380.525 49.8368 381.805 49.8368C382.605 49.8368 383.192 49.9701 383.565 50.2368C383.938 50.5035 384.152 50.7968 384.205 51.1168C384.312 51.4368 384.365 51.7035 384.365 51.9168C384.365 53.2501 383.538 54.5835 381.885 55.9168C380.285 57.1968 378.152 57.8368 375.485 57.8368C374.525 57.8368 373.965 58.6368 373.805 60.2368C373.805 62.8501 375.485 64.1835 378.845 64.2368C379.218 64.2368 379.592 64.2101 379.965 64.1568C383.272 63.7835 386.498 62.9035 389.645 61.5168C392.792 60.1835 395.352 58.9568 397.325 57.8368C398.285 57.3035 399.005 56.9301 399.485 56.7168ZM435.707 56.7168C435.813 56.7168 435.867 56.7168 435.867 56.7168C435.92 56.7701 435.973 56.8235 436.027 56.8768C436.027 57.0901 434.693 58.1035 432.027 59.9168C429.413 61.7301 426.16 63.7301 422.267 65.9168C418.427 68.1568 414.56 70.1035 410.667 71.7568C406.773 73.4635 403.547 74.3168 400.987 74.3168C400.293 74.3168 399.627 74.2101 398.987 73.9968C397.76 73.5168 396.853 72.7435 396.267 71.6768C395.68 70.6635 395.387 69.4101 395.387 67.9168C395.387 64.4501 396.48 60.8235 398.667 57.0368C400.853 53.3035 403.467 50.1301 406.507 47.5168C409.547 44.9035 412.347 43.5968 414.907 43.5968C416.24 43.5968 417.253 44.0235 417.947 44.8768C418.64 45.7301 418.987 46.7968 418.987 48.0768C418.987 49.3568 418.667 50.6368 418.027 51.9168C417.44 53.1968 416.747 54.2635 415.947 55.1168C415.2 55.9701 414.56 56.3968 414.027 56.3968C413.92 56.3968 413.813 56.3701 413.707 56.3168C413.6 56.2635 413.52 56.1835 413.467 56.0768C413.307 55.8635 413.227 55.6501 413.227 55.4368C413.227 54.6901 413.76 53.7568 414.827 52.6368C415.467 51.8901 416.08 51.0635 416.667 50.1568C417.253 49.1968 417.547 48.1568 417.547 47.0368V46.7968C417.547 46.3168 417.36 45.8901 416.987 45.5168C416.613 45.1435 416.187 44.9568 415.707 44.9568H415.467C413.067 44.9568 410.48 46.3435 407.707 49.1168C404.933 51.8901 402.56 55.1168 400.587 58.7968C398.667 62.5301 397.707 65.8635 397.707 68.7968C397.707 70.3968 398.053 71.4901 398.747 72.0768C399.44 72.6635 400.4 72.9568 401.627 72.9568C405.467 72.6901 410.16 71.0901 415.707 68.1568C421.253 65.2235 426.08 62.4501 430.187 59.8368C433.44 57.7568 435.28 56.7168 435.707 56.7168ZM466.372 56.7168C466.425 56.7168 466.452 56.7168 466.452 56.7168C466.505 56.7701 466.532 56.7968 466.532 56.7968C466.532 56.8501 466.532 56.9035 466.532 56.9568C466.532 57.4368 465.865 58.6368 464.532 60.5568C463.252 62.4768 461.652 64.5568 459.732 66.7968C457.865 69.0901 455.972 71.0901 454.052 72.7968C452.132 74.5035 450.585 75.3568 449.412 75.3568C449.358 75.3568 449.198 75.3301 448.932 75.2768C448.665 75.2235 448.372 75.0635 448.052 74.7968C447.732 74.5301 447.438 74.1301 447.172 73.5968C446.905 73.0635 446.772 72.3168 446.772 71.3568C446.772 68.8501 447.465 65.8368 448.852 62.3168C450.292 58.8501 451.492 56.1568 452.452 54.2368C452.878 53.3301 453.092 52.8235 453.092 52.7168C452.932 52.7168 452.132 53.4635 450.692 54.9568C449.358 56.3435 447.758 57.9168 445.892 59.6768C444.025 61.4901 442.185 63.0635 440.372 64.3968C438.558 65.7835 437.065 66.4768 435.892 66.4768C435.198 66.4768 434.558 66.1568 433.972 65.5168C433.385 64.8768 433.092 63.9435 433.092 62.7168C433.092 61.3835 433.385 59.9435 433.972 58.3968C434.505 56.8501 435.172 55.5168 435.972 54.3968C436.772 53.2235 437.518 52.6368 438.212 52.6368C438.372 52.6368 438.558 52.6901 438.772 52.7968C439.038 52.9035 439.172 53.0901 439.172 53.3568C439.172 53.5701 438.878 54.3168 438.292 55.5968C437.758 56.8768 437.172 58.3168 436.532 59.9168C435.945 61.5701 435.652 62.8768 435.652 63.8368C435.652 64.6368 435.945 65.0368 436.532 65.0368C437.652 65.0368 439.438 63.8901 441.892 61.5968C444.398 59.3568 446.852 57.0101 449.252 54.5568C450.745 53.0101 452.025 51.7301 453.092 50.7168C454.212 49.6501 454.932 49.1168 455.252 49.1168C455.358 49.1701 455.465 49.2235 455.572 49.2768C455.678 49.3301 455.758 49.4101 455.812 49.5168C456.025 49.6235 456.132 49.8101 456.132 50.0768V50.2368C456.132 50.8768 455.438 52.8501 454.052 56.1568C452.932 58.9835 451.812 61.9701 450.692 65.1168C449.572 68.3168 449.012 70.8235 449.012 72.6368C449.012 73.3835 449.305 73.7568 449.892 73.7568H450.132C450.985 73.7568 452.265 72.9035 453.972 71.1968C455.732 69.4901 457.545 67.5435 459.412 65.3568C461.278 63.1701 462.878 61.1968 464.212 59.4368C465.545 57.7301 466.212 56.8501 466.212 56.7968L466.292 56.7168H466.372ZM475.715 52.0768C475.022 52.1301 474.195 52.3968 473.235 52.8768C472.328 53.3568 471.475 53.9168 470.675 54.5568C469.928 55.1435 469.555 55.6501 469.555 56.0768C469.555 56.1835 469.608 56.2368 469.715 56.2368H469.875C470.248 56.2368 470.968 56.1035 472.035 55.8368C473.102 55.5701 474.115 55.1701 475.075 54.6368C476.035 54.1035 476.515 53.4368 476.515 52.6368C476.515 52.5301 476.435 52.4235 476.275 52.3168C476.168 52.1568 475.982 52.0768 475.715 52.0768ZM493.235 56.7168H493.475C493.528 56.7168 493.582 56.7168 493.635 56.7168C493.688 56.7168 493.715 56.7435 493.715 56.7968C493.715 56.9568 492.515 57.7835 490.115 59.2768C487.715 60.7701 484.862 62.2101 481.555 63.5968C478.302 64.9835 475.208 65.7835 472.275 65.9968H471.555C469.688 65.9968 468.248 65.6768 467.235 65.0368C466.275 64.3968 465.608 63.5968 465.235 62.6368C464.808 61.7301 464.595 60.8235 464.595 59.9168C464.595 57.9968 465.235 56.2901 466.515 54.7968C467.848 53.2501 469.368 52.0501 471.075 51.1968C472.782 50.2901 474.275 49.8368 475.555 49.8368C476.355 49.8368 476.942 49.9701 477.315 50.2368C477.688 50.5035 477.902 50.7968 477.955 51.1168C478.062 51.4368 478.115 51.7035 478.115 51.9168C478.115 53.2501 477.288 54.5835 475.635 55.9168C474.035 57.1968 471.902 57.8368 469.235 57.8368C468.275 57.8368 467.715 58.6368 467.555 60.2368C467.555 62.8501 469.235 64.1835 472.595 64.2368C472.968 64.2368 473.342 64.2101 473.715 64.1568C477.022 63.7835 480.248 62.9035 483.395 61.5168C486.542 60.1835 489.102 58.9568 491.075 57.8368C492.035 57.3035 492.755 56.9301 493.235 56.7168ZM525.777 56.7168C525.83 56.7168 525.857 56.7435 525.857 56.7968V56.8768H525.777C525.617 57.1435 525.11 57.9168 524.257 59.1968C523.137 60.7968 521.723 62.6101 520.017 64.6368C518.31 66.6635 516.497 68.4501 514.577 69.9968C512.657 71.5968 510.897 72.3968 509.297 72.3968C508.017 72.3968 507.19 71.9168 506.817 70.9568C506.497 70.0501 506.337 69.1968 506.337 68.3968C506.337 65.8901 506.923 62.9835 508.097 59.6768C509.323 56.4235 510.47 53.6235 511.537 51.2768C512.39 49.4101 512.817 48.3168 512.817 47.9968C512.817 47.7835 512.71 47.6768 512.497 47.6768C511.59 47.6768 510.043 48.7168 507.857 50.7968C505.723 52.8768 503.483 55.1435 501.137 57.5968C499.217 59.6235 497.51 61.3568 496.017 62.7968C494.523 64.2901 493.51 65.0368 492.977 65.0368C492.017 65.0368 491.537 64.4235 491.537 63.1968V62.7968C491.537 61.4101 491.857 59.7301 492.497 57.7568C493.083 55.8368 493.803 54.1301 494.657 52.6368C495.51 51.1435 496.31 50.3968 497.057 50.3968C497.857 50.3968 498.257 50.6901 498.257 51.2768C498.257 51.5435 498.07 52.0768 497.697 52.8768C497.377 53.6768 497.003 54.5835 496.577 55.5968C495.937 56.9301 495.377 58.2101 494.897 59.4368C494.417 60.6635 494.177 61.5435 494.177 62.0768V62.1568C494.337 62.1568 494.817 61.7568 495.617 60.9568C496.417 60.1568 497.43 59.1435 498.657 57.9168C501.217 55.2501 503.963 52.5568 506.897 49.8368C509.83 47.1168 511.91 45.7568 513.137 45.7568C513.67 45.8101 514.097 46.0235 514.417 46.3968C514.79 46.7168 514.977 47.1435 514.977 47.6768C514.977 48.3701 514.71 49.4901 514.177 51.0368C513.697 52.5301 513.083 54.2101 512.337 56.0768C511.43 58.5301 510.577 60.9568 509.777 63.3568C508.977 65.7568 508.577 67.6768 508.577 69.1168C508.577 69.7568 508.657 70.1835 508.817 70.3968C508.977 70.6635 509.137 70.8235 509.297 70.8768C509.51 70.9835 509.67 71.0368 509.777 71.0368C511.323 71.0368 513.163 69.9435 515.297 67.7568C517.483 65.5701 519.537 63.3568 521.457 61.1168C522.523 59.8368 523.43 58.7701 524.177 57.9168C524.977 57.1168 525.51 56.7168 525.777 56.7168ZM553.726 28.7968C554.846 28.7968 555.726 28.8235 556.366 28.8768C557.006 28.8768 557.46 28.9301 557.726 29.0368C558.046 29.0901 558.233 29.1701 558.286 29.2768C558.393 29.3835 558.446 29.4901 558.446 29.5968C558.446 29.7035 558.42 29.8635 558.366 30.0768C558.366 30.2368 558.313 30.3968 558.206 30.5568C558.153 30.7168 558.02 30.7968 557.806 30.7968C557.7 30.7968 557.593 30.7968 557.486 30.7968C557.38 30.7435 557.273 30.6901 557.166 30.6368C557.006 30.5835 556.74 30.5035 556.366 30.3968C556.046 30.2901 555.513 30.2101 554.766 30.1568C554.02 30.1035 552.953 30.0768 551.566 30.0768C550.82 30.0768 549.166 30.1301 546.606 30.2368C544.046 30.2901 540.953 30.4501 537.326 30.7168C535.406 35.4635 533.46 40.6368 531.486 46.2368C529.566 51.7835 527.913 57.1701 526.526 62.3968C525.14 67.6235 524.446 71.9701 524.446 75.4368C524.446 76.7701 524.58 77.5968 524.846 77.9168C525.166 78.2368 525.593 78.3968 526.126 78.3968C527.513 78.3968 529.273 77.3568 531.406 75.2768C533.593 73.2501 535.806 70.8768 538.046 68.1568C540.286 65.4901 542.26 63.0368 543.966 60.7968C546.046 58.0235 547.22 56.6368 547.486 56.6368C547.54 56.6368 547.566 56.6635 547.566 56.7168C547.62 56.7168 547.646 56.7435 547.646 56.7968C547.646 57.1701 546.793 58.5568 545.086 60.9568C543.38 63.4101 541.273 66.1301 538.766 69.1168C536.313 72.1035 533.806 74.7168 531.246 76.9568C528.74 79.2501 526.66 80.3968 525.006 80.3968C522.98 80.3968 521.966 78.3968 521.966 74.3968C521.966 70.1301 522.66 65.3035 524.046 59.9168C525.38 54.5835 526.953 49.3835 528.766 44.3168C530.58 39.1968 532.26 34.7968 533.806 31.1168C525.486 32.1301 520.233 32.9301 518.046 33.5168L517.326 33.6768C517.166 33.6768 517.033 33.6235 516.926 33.5168L517.006 33.5968C516.953 33.5968 516.9 33.5701 516.846 33.5168C516.74 33.4101 516.686 33.2768 516.686 33.1168C516.686 32.5835 517.433 32.1035 518.926 31.6768C520.42 31.2501 522.206 30.9035 524.286 30.6368C526.366 30.3701 528.313 30.1568 530.126 29.9968C531.993 29.8368 533.353 29.7301 534.206 29.6768C534.26 29.6235 534.34 29.5968 534.446 29.5968L537.166 23.3568C538.553 20.2635 539.566 18.1835 540.206 17.1168C540.846 16.0501 541.433 15.5168 541.966 15.5168C542.713 15.5168 543.086 15.8101 543.086 16.3968C543.086 16.5035 542.606 17.6768 541.646 19.9168C540.686 22.3168 539.406 25.4901 537.806 29.4368C539.3 29.3301 541.753 29.1968 545.166 29.0368C548.58 28.8768 551.433 28.7968 553.726 28.7968ZM557.121 52.0768C556.428 52.1301 555.601 52.3968 554.641 52.8768C553.735 53.3568 552.881 53.9168 552.081 54.5568C551.335 55.1435 550.961 55.6501 550.961 56.0768C550.961 56.1835 551.015 56.2368 551.121 56.2368H551.281C551.655 56.2368 552.375 56.1035 553.441 55.8368C554.508 55.5701 555.521 55.1701 556.481 54.6368C557.441 54.1035 557.921 53.4368 557.921 52.6368C557.921 52.5301 557.841 52.4235 557.681 52.3168C557.575 52.1568 557.388 52.0768 557.121 52.0768ZM574.641 56.7168H574.881C574.935 56.7168 574.988 56.7168 575.041 56.7168C575.095 56.7168 575.121 56.7435 575.121 56.7968C575.121 56.9568 573.921 57.7835 571.521 59.2768C569.121 60.7701 566.268 62.2101 562.961 63.5968C559.708 64.9835 556.615 65.7835 553.681 65.9968H552.961C551.095 65.9968 549.655 65.6768 548.641 65.0368C547.681 64.3968 547.015 63.5968 546.641 62.6368C546.215 61.7301 546.001 60.8235 546.001 59.9168C546.001 57.9968 546.641 56.2901 547.921 54.7968C549.255 53.2501 550.775 52.0501 552.481 51.1968C554.188 50.2901 555.681 49.8368 556.961 49.8368C557.761 49.8368 558.348 49.9701 558.721 50.2368C559.095 50.5035 559.308 50.7968 559.361 51.1168C559.468 51.4368 559.521 51.7035 559.521 51.9168C559.521 53.2501 558.695 54.5835 557.041 55.9168C555.441 57.1968 553.308 57.8368 550.641 57.8368C549.681 57.8368 549.121 58.6368 548.961 60.2368C548.961 62.8501 550.641 64.1835 554.001 64.2368C554.375 64.2368 554.748 64.2101 555.121 64.1568C558.428 63.7835 561.655 62.9035 564.801 61.5168C567.948 60.1835 570.508 58.9568 572.481 57.8368C573.441 57.3035 574.161 56.9301 574.641 56.7168ZM572.783 77.8368C573.85 77.7301 575.05 77.0901 576.383 75.9168C577.716 74.7435 578.89 73.4368 579.903 71.9968C580.916 70.5568 581.45 69.4101 581.503 68.5568V68.2368H581.423C581.21 68.2368 580.65 68.6635 579.743 69.5168C578.836 70.3701 577.85 71.3568 576.783 72.4768C575.716 73.6501 574.783 74.7435 573.983 75.7568C573.13 76.7701 572.703 77.4368 572.703 77.7568L572.783 77.8368ZM576.303 55.9168C576.303 56.1301 576.383 56.2368 576.543 56.2368C576.916 56.2368 577.85 55.8368 579.343 55.0368C580.836 54.1835 582.436 53.1968 584.143 52.0768C585.903 50.9035 587.423 49.7835 588.703 48.7168C589.983 47.6501 590.623 46.8768 590.623 46.3968C590.623 46.0768 590.463 45.9168 590.143 45.9168H589.983C589.183 45.9168 587.663 46.5301 585.423 47.7568C583.236 48.9301 581.156 50.3168 579.183 51.9168C577.263 53.4635 576.303 54.7968 576.303 55.9168ZM602.463 56.7168C602.73 56.7168 602.97 56.7435 603.183 56.7968C603.183 56.8501 602.756 57.0101 601.903 57.2768C600.463 57.7035 598.17 58.5835 595.023 59.9168C591.876 61.3035 588.276 63.3568 584.223 66.0768C584.01 69.1168 583.156 71.6501 581.663 73.6768C580.17 75.7035 578.57 77.2235 576.863 78.2368C575.156 79.2501 573.956 79.7568 573.263 79.7568C572.623 79.7568 572.09 79.5435 571.663 79.1168C571.343 78.7435 571.183 78.3168 571.183 77.8368V77.5168C571.183 76.4501 571.876 75.1968 573.263 73.7568C574.596 72.3168 576.036 70.9301 577.583 69.5968C578.65 68.6368 579.556 67.7835 580.303 67.0368C581.05 66.2901 581.423 65.7301 581.423 65.3568C581.423 64.9301 581.13 64.4235 580.543 63.8368C580.01 63.3035 579.343 62.7168 578.543 62.0768C577.423 61.2235 576.356 60.2635 575.343 59.1968C574.383 58.1835 573.903 57.0635 573.903 55.8368C573.903 53.7035 574.916 51.7568 576.943 49.9968C579.023 48.2368 581.316 46.8235 583.823 45.7568C586.383 44.6368 588.383 44.0768 589.823 44.0768C591.423 44.0768 592.303 44.7168 592.463 45.9968C592.463 46.7435 591.716 47.8368 590.223 49.2768C588.73 50.7168 586.916 52.1568 584.783 53.5968C582.703 55.0368 580.65 56.1568 578.623 56.9568C578.516 57.0101 578.436 57.0368 578.383 57.0368C577.85 57.2501 577.583 57.4635 577.583 57.6768C577.583 58.1035 578.143 58.6901 579.263 59.4368C580.01 60.0235 580.81 60.7168 581.663 61.5168C582.516 62.3168 583.21 63.2768 583.743 64.3968H583.823C583.823 64.3435 583.85 64.3168 583.903 64.3168C584.17 64.1568 584.836 63.7835 585.903 63.1968C587.29 62.4501 588.996 61.5701 591.023 60.5568C593.05 59.5435 595.05 58.6368 597.023 57.8368C599.05 57.0368 600.65 56.6368 601.823 56.6368C602.036 56.6368 602.25 56.6635 602.463 56.7168Z" fill="#51483F"/>
<defs>
<linearGradient id="paint0_linear_210_1881" x1="307.44" y1="0" x2="307.44" y2="120" gradientUnits="userSpaceOnUse">
<stop stop-color="#51483F" stop-opacity="0.5"/>
<stop offset="1" stop-color="#51483F" stop-opacity="0"/>
</linearGradient>
</defs>
</svg>
