<svg width="619" height="157" viewBox="0 0 619 157" fill="none" xmlns="http://www.w3.org/2000/svg">
<path d="M5.28703 25.4V38.2H21.567V39H3.60703V11H21.567V11.8H5.28703V24.6H17.687V25.4H5.28703ZM33.2311 38.44C35.2578 38.44 37.0444 37.88 38.5911 36.76C40.1378 35.64 40.9111 34.2 40.9111 32.44C40.9111 31.32 40.6978 30.36 40.2711 29.56C39.8444 28.7333 39.1778 28.0667 38.2711 27.56C37.3911 27.0533 36.5644 26.6667 35.7911 26.4C35.0444 26.1333 34.0311 25.84 32.7511 25.52C31.5778 25.2 30.5644 24.88 29.7111 24.56C28.8844 24.24 27.9778 23.7867 26.9911 23.2C26.0311 22.6133 25.2844 21.8533 24.7511 20.92C24.2444 19.9867 24.0044 18.92 24.0311 17.72C24.0578 15.56 24.8711 13.8667 26.4711 12.64C28.0711 11.4133 30.1911 10.8 32.8311 10.8C35.3911 10.8 37.4844 11.5867 39.1111 13.16C40.7644 14.7333 41.4178 16.5733 41.0711 18.68L40.2711 18.56C40.5911 16.72 40.0044 15.1067 38.5111 13.72C37.0444 12.3067 35.1644 11.6 32.8711 11.6C30.6578 11.6 28.8578 12.1067 27.4711 13.12C26.0844 14.1333 25.3911 15.5333 25.3911 17.32C25.3911 18.0133 25.4844 18.64 25.6711 19.2C25.8844 19.7333 26.2178 20.2133 26.6711 20.64C27.1511 21.0667 27.5644 21.4267 27.9111 21.72C28.2844 21.9867 28.8578 22.2667 29.6311 22.56C30.4311 22.8267 30.9911 23.0133 31.3111 23.12C31.6578 23.2267 32.2578 23.4 33.1111 23.64C34.4978 24.0133 35.6044 24.36 36.4311 24.68C37.2844 24.9733 38.2311 25.44 39.2711 26.08C40.3378 26.6933 41.1244 27.4933 41.6311 28.48C42.1644 29.4667 42.4311 30.64 42.4311 32C42.4044 34.1067 41.4844 35.84 39.6711 37.2C37.8578 38.56 35.7244 39.24 33.2711 39.24C30.3911 39.24 27.9511 38.4267 25.9511 36.8C23.9511 35.1733 23.1778 33.1867 23.6311 30.84L24.4311 30.96C24.0311 33.04 24.7511 34.8133 26.5911 36.28C28.4578 37.72 30.6711 38.44 33.2311 38.44ZM63.6595 18.56V18.64C63.6595 19.2267 63.6062 19.8 63.4995 20.36C63.4195 20.8933 63.1795 21.5467 62.7795 22.32C62.3795 23.0667 61.8462 23.72 61.1795 24.28C60.5129 24.8133 59.5395 25.28 58.2595 25.68C56.9795 26.08 55.4729 26.28 53.7395 26.28H48.0995V39H46.4195V11H53.6995C55.4329 11 56.9395 11.2 58.2195 11.6C59.4995 11.9733 60.4729 12.44 61.1395 13C61.8062 13.5333 62.3395 14.1733 62.7395 14.92C63.1395 15.6667 63.3929 16.32 63.4995 16.88C63.6062 17.4133 63.6595 17.9733 63.6595 18.56ZM48.0995 11.8V25.52H53.6995C55.1395 25.52 56.3929 25.36 57.4595 25.04C58.5262 24.6933 59.3395 24.28 59.8995 23.8C60.4595 23.32 60.8995 22.76 61.2195 22.12C61.5662 21.4533 61.7795 20.8933 61.8595 20.44C61.9395 19.96 61.9795 19.4667 61.9795 18.96V18.24C61.9795 17.76 61.9395 17.2933 61.8595 16.84C61.7795 16.36 61.5662 15.8 61.2195 15.16C60.8995 14.52 60.4595 13.9733 59.8995 13.52C59.3395 13.04 58.5262 12.64 57.4595 12.32C56.3929 11.9733 55.1395 11.8 53.6995 11.8H48.0995ZM68.8808 25.4V38.2H85.1608V39H67.2008V11H85.1608V11.8H68.8808V24.6H81.2808V25.4H68.8808ZM86.092 25C86.092 20.8933 87.372 17.4933 89.932 14.8C92.492 12.08 95.8787 10.72 100.092 10.72C103.799 10.72 107.025 11.8667 109.772 14.16L109.252 14.76C106.639 12.6267 103.612 11.56 100.172 11.56C96.4654 11.56 93.4787 12.7733 91.212 15.2C88.972 17.6 87.852 20.6267 87.852 24.28V25.8C87.852 29.24 89.052 32.2 91.452 34.68C93.8787 37.16 96.7854 38.4133 100.172 38.44C103.639 38.44 106.652 37.36 109.212 35.2L109.732 35.8C107.119 38.0667 103.892 39.2133 100.052 39.24C96.132 39.2133 92.8254 37.8267 90.132 35.08C87.4387 32.3067 86.092 28.9467 86.092 25ZM115.521 11V39H113.841V11H115.521ZM137.486 39L134.086 29.96H122.166L118.806 39H117.926L128.606 10.48L139.286 39H137.486ZM128.126 13.96L122.486 29.16H133.766L128.126 13.96ZM143.451 11V38.2H157.891V39H141.771V11H143.451ZM161.967 11V39H160.287V11H161.967ZM175.731 38.44C177.758 38.44 179.544 37.88 181.091 36.76C182.638 35.64 183.411 34.2 183.411 32.44C183.411 31.32 183.198 30.36 182.771 29.56C182.344 28.7333 181.678 28.0667 180.771 27.56C179.891 27.0533 179.064 26.6667 178.291 26.4C177.544 26.1333 176.531 25.84 175.251 25.52C174.078 25.2 173.064 24.88 172.211 24.56C171.384 24.24 170.478 23.7867 169.491 23.2C168.531 22.6133 167.784 21.8533 167.251 20.92C166.744 19.9867 166.504 18.92 166.531 17.72C166.558 15.56 167.371 13.8667 168.971 12.64C170.571 11.4133 172.691 10.8 175.331 10.8C177.891 10.8 179.984 11.5867 181.611 13.16C183.264 14.7333 183.918 16.5733 183.571 18.68L182.771 18.56C183.091 16.72 182.504 15.1067 181.011 13.72C179.544 12.3067 177.664 11.6 175.371 11.6C173.158 11.6 171.358 12.1067 169.971 13.12C168.584 14.1333 167.891 15.5333 167.891 17.32C167.891 18.0133 167.984 18.64 168.171 19.2C168.384 19.7333 168.718 20.2133 169.171 20.64C169.651 21.0667 170.064 21.4267 170.411 21.72C170.784 21.9867 171.358 22.2667 172.131 22.56C172.931 22.8267 173.491 23.0133 173.811 23.12C174.158 23.2267 174.758 23.4 175.611 23.64C176.998 24.0133 178.104 24.36 178.931 24.68C179.784 24.9733 180.731 25.44 181.771 26.08C182.838 26.6933 183.624 27.4933 184.131 28.48C184.664 29.4667 184.931 30.64 184.931 32C184.904 34.1067 183.984 35.84 182.171 37.2C180.358 38.56 178.224 39.24 175.771 39.24C172.891 39.24 170.451 38.4267 168.451 36.8C166.451 35.1733 165.678 33.1867 166.131 30.84L166.931 30.96C166.531 33.04 167.251 34.8133 169.091 36.28C170.958 37.72 173.171 38.44 175.731 38.44ZM196.359 11.8V39H194.679V11.8H184.879V11H206.159V11.8H196.359ZM221.001 39L217.601 29.96H205.681L202.321 39H201.441L212.121 10.48L222.801 39H221.001ZM211.641 13.96L206.001 29.16H217.281L211.641 13.96ZM238.998 25.4V38.2H255.278V39H237.318V11H255.278V11.8H238.998V24.6H251.398V25.4H238.998ZM279.391 11V39.44L260.071 12.4V39H259.271V11H261.111L278.591 35.6V11H279.391Z" fill="#51483F"/>
<path d="M9.30075 51.2275L26.7728 89.9475L43.9888 51.2275L44.5008 51.2915V51.2275H48.6608V96.0275H44.5008V53.1475L25.0448 96.7315L5.58875 52.8275V96.0275H4.30875V51.2275H9.30075ZM60.5312 51.2275V96.0275H56.3713V51.2275H60.5312ZM67.1598 73.6275C67.1598 67.0569 69.2078 61.6169 73.3038 57.3075C77.4424 52.9555 82.9038 50.7795 89.6878 50.7795C95.5331 50.7795 100.653 52.6142 105.048 56.2835L104.216 57.2435C100.034 53.8302 95.2771 52.1235 89.9438 52.1235C84.3971 52.1235 79.9384 53.9369 76.5678 57.5635C73.2398 61.1475 71.5758 65.7129 71.5758 71.2595V76.1235C71.5758 81.3289 73.3678 85.7875 76.9518 89.4995C80.5358 93.2115 84.8664 95.0675 89.9438 95.0675C95.3624 95.0675 100.098 93.3609 104.152 89.9475L104.984 90.9075C100.802 94.5342 95.6611 96.3689 89.5598 96.4115C83.2451 96.3689 77.9331 94.1502 73.6238 89.7555C69.3144 85.3182 67.1598 79.9422 67.1598 73.6275ZM146.375 96.0275H145.031C141.916 96.1129 139.676 95.5369 138.311 94.2995C136.988 93.0622 136.049 91.0995 135.495 88.4115L134.407 83.6755C133.639 80.3902 132.423 77.9795 130.759 76.4435C129.095 74.8649 126.684 74.0969 123.527 74.1395H115.655L115.719 96.0275H111.559V51.2275H124.295C127.068 51.2275 129.5 51.5262 131.591 52.1235C133.681 52.6782 135.26 53.3609 136.327 54.1715C137.436 54.9822 138.311 55.9422 138.951 57.0515C139.591 58.1609 139.996 59.1209 140.167 59.9315C140.337 60.6995 140.423 61.5102 140.423 62.3635V62.4275C140.423 63.1955 140.337 63.9849 140.167 64.7955C139.996 65.6062 139.612 66.5449 139.015 67.6115C138.46 68.6782 137.713 69.6382 136.775 70.4915C135.879 71.3022 134.62 72.0275 132.999 72.6675C131.377 73.2649 129.5 73.6062 127.367 73.6915C133.34 73.9475 137.052 77.5529 138.503 84.5075L139.655 89.4995C140.081 91.2489 140.7 92.5715 141.511 93.4675C142.321 94.3209 143.537 94.7475 145.159 94.7475H146.375V96.0275ZM136.327 63.1315V61.7875C136.327 55.6009 132.316 52.5075 124.295 52.5075H115.655V72.8595H124.295C126.897 72.8595 129.073 72.4755 130.823 71.7075C132.615 70.9395 133.852 69.9582 134.535 68.7635C135.26 67.5689 135.729 66.5449 135.943 65.6915C136.199 64.8382 136.327 63.9849 136.327 63.1315ZM168.575 96.6035H168.511C161.983 96.6035 156.521 94.4915 152.127 90.2675C147.775 86.0009 145.599 80.4755 145.599 73.6915V73.5635C145.599 66.7795 147.775 61.2755 152.127 57.0515C156.521 52.7849 161.983 50.6515 168.511 50.6515H168.575C175.103 50.6515 180.543 52.7849 184.895 57.0515C189.289 61.2755 191.487 66.7795 191.487 73.5635V73.6915C191.487 80.4755 189.289 86.0009 184.895 90.2675C180.543 94.4915 175.103 96.6035 168.575 96.6035ZM150.079 75.8035C150.079 81.6062 151.849 86.3209 155.391 89.9475C158.975 93.5315 163.348 95.3235 168.511 95.3235H168.575C173.737 95.3235 178.089 93.5315 181.631 89.9475C185.215 86.3209 187.007 81.5849 187.007 75.7395V71.4515C187.007 65.6489 185.236 60.9555 181.695 57.3715C178.153 53.7449 173.78 51.9315 168.575 51.9315H168.511C163.305 51.9315 158.932 53.7449 155.391 57.3715C151.849 60.9555 150.079 65.6489 150.079 71.4515V75.8035ZM226.984 63.4515V63.5795C226.984 64.5182 226.898 65.4355 226.728 66.3315C226.6 67.1849 226.194 68.2302 225.512 69.4675C224.872 70.7049 223.997 71.7715 222.888 72.6675C221.821 73.5209 220.242 74.2675 218.152 74.9075C216.061 75.5475 213.586 75.8675 210.728 75.8675H202.344V96.0275H198.184V51.2275H210.664C213.522 51.2275 215.997 51.5475 218.088 52.1875C220.221 52.8275 221.821 53.5955 222.888 54.4915C223.997 55.3449 224.872 56.3902 225.512 57.6275C226.194 58.8222 226.6 59.8675 226.728 60.7635C226.898 61.6169 226.984 62.5129 226.984 63.4515ZM202.344 52.5075V74.6515H210.664C212.797 74.6515 214.653 74.3955 216.232 73.8835C217.81 73.3715 219.005 72.7742 219.816 72.0915C220.626 71.3662 221.266 70.5129 221.736 69.5315C222.248 68.5502 222.546 67.6969 222.632 66.9715C222.76 66.2462 222.824 65.4782 222.824 64.6675V62.3635C222.824 61.5955 222.76 60.8702 222.632 60.1875C222.546 59.4622 222.248 58.6089 221.736 57.6275C221.266 56.6035 220.626 55.7502 219.816 55.0675C219.005 54.3849 217.81 53.7875 216.232 53.2755C214.653 52.7635 212.797 52.5075 210.664 52.5075H202.344ZM236.844 51.2275V96.0275H232.684V51.2275H236.844ZM265.552 74.2675V72.9875H282.768V89.3715C282.598 89.6275 282.299 89.9689 281.872 90.3955C281.488 90.8222 280.784 91.3982 279.76 92.1235C278.736 92.8489 277.627 93.5102 276.432 94.1075C275.238 94.7049 273.68 95.2382 271.76 95.7075C269.883 96.1342 267.92 96.3475 265.872 96.3475C259.472 96.3475 254.139 94.1929 249.872 89.8835C245.648 85.5742 243.536 80.1769 243.536 73.6915C243.536 67.1209 245.67 61.6809 249.936 57.3715C254.246 53.0195 259.942 50.8435 267.024 50.8435C272.614 50.8435 277.606 52.8062 282 56.7315L281.168 57.6915C279.248 55.9422 277.008 54.5982 274.448 53.6595C271.888 52.6782 269.499 52.1875 267.28 52.1875C261.307 52.1875 256.592 54.0009 253.136 57.6275C249.68 61.2542 247.952 65.8195 247.952 71.3235V75.8675C247.952 81.3289 249.616 85.8942 252.944 89.5635C256.315 93.1902 260.624 95.0035 265.872 95.0035H265.936C268.539 95.0035 270.886 94.5342 272.976 93.5955C275.067 92.6569 276.518 91.7395 277.328 90.8435C278.182 89.9049 278.608 89.2222 278.608 88.7955V74.2675H265.552ZM294.801 51.2275L312.273 89.9475L329.489 51.2275L330.001 51.2915V51.2275H334.161V96.0275H330.001V53.1475L310.545 96.7315L291.089 52.8275V96.0275H289.809V51.2275H294.801ZM346.031 74.2675V94.7475H371.183V96.0275H341.871V51.2275H371.183V52.5075H346.031V72.9875H365.039V74.2675H346.031ZM409.879 51.2275V96.7955L378.839 53.8515V96.0275H377.559V51.2275H381.911L408.599 88.6035V51.2275H409.879ZM433.175 52.5075V96.0275H429.079V52.5075H413.719V51.2275H448.535V52.5075H433.175ZM471.111 96.0275L465.863 82.1395H447.687L442.439 96.0275H441.031L458.247 50.3955L475.591 96.0275H471.111ZM456.775 57.7555L448.199 80.8595H465.351L456.775 57.7555ZM474.535 73.6275C474.535 67.0569 476.583 61.6169 480.679 57.3075C484.817 52.9555 490.279 50.7795 497.063 50.7795C502.908 50.7795 508.028 52.6142 512.423 56.2835L511.591 57.2435C507.409 53.8302 502.652 52.1235 497.319 52.1235C491.772 52.1235 487.313 53.9369 483.943 57.5635C480.615 61.1475 478.951 65.7129 478.951 71.2595V76.1235C478.951 81.3289 480.743 85.7875 484.327 89.4995C487.911 93.2115 492.241 95.0675 497.319 95.0675C502.737 95.0675 507.473 93.3609 511.527 89.9475L512.359 90.9075C508.177 94.5342 503.036 96.3689 496.935 96.4115C490.62 96.3689 485.308 94.1502 480.999 89.7555C476.689 85.3182 474.535 79.9422 474.535 73.6275ZM523.094 51.2275V96.0275H518.934V51.2275H523.094ZM552.762 96.6035H552.698C546.17 96.6035 540.709 94.4915 536.314 90.2675C531.962 86.0009 529.786 80.4755 529.786 73.6915V73.5635C529.786 66.7795 531.962 61.2755 536.314 57.0515C540.709 52.7849 546.17 50.6515 552.698 50.6515H552.762C559.29 50.6515 564.73 52.7849 569.082 57.0515C573.477 61.2755 575.674 66.7795 575.674 73.5635V73.6915C575.674 80.4755 573.477 86.0009 569.082 90.2675C564.73 94.4915 559.29 96.6035 552.762 96.6035ZM534.266 75.8035C534.266 81.6062 536.037 86.3209 539.578 89.9475C543.162 93.5315 547.536 95.3235 552.698 95.3235H552.762C557.925 95.3235 562.277 93.5315 565.818 89.9475C569.402 86.3209 571.194 81.5849 571.194 75.7395V71.4515C571.194 65.6489 569.424 60.9555 565.882 57.3715C562.341 53.7449 557.968 51.9315 552.762 51.9315H552.698C547.493 51.9315 543.12 53.7449 539.578 57.3715C536.037 60.9555 534.266 65.6489 534.266 71.4515V75.8035ZM552.25 48.0275L555.45 35.2275H559.098V35.4195L553.53 48.0275H552.25ZM614.691 51.2275V96.7955L583.651 53.8515V96.0275H582.371V51.2275H586.723L613.411 88.6035V51.2275H614.691Z" fill="#51483F"/>
<path d="M614.382 140.568L614.382 95L583.342 137.944L583.342 95.768L582.062 95.768L582.062 140.568L586.414 140.568L613.102 103.192L613.102 140.568L614.382 140.568Z" fill="url(#paint0_linear_282_752)" fill-opacity="0.3"/>
<path d="M552.454 95.192L552.39 95.192C545.862 95.192 540.4 97.304 536.006 101.528C531.654 105.795 529.478 111.32 529.478 118.104L529.478 118.232C529.478 125.016 531.654 130.52 536.006 134.744C540.4 139.011 545.862 141.144 552.39 141.144L552.454 141.144C558.982 141.144 564.422 139.011 568.774 134.744C573.168 130.52 575.366 125.016 575.366 118.232L575.366 118.104C575.366 111.32 573.168 105.795 568.774 101.528C564.422 97.304 558.982 95.192 552.454 95.192ZM533.958 115.992C533.958 110.189 535.728 105.475 539.27 101.848C542.854 98.264 547.227 96.472 552.39 96.472L552.454 96.472C557.616 96.472 561.968 98.264 565.51 101.848C569.094 105.475 570.886 110.211 570.886 116.056L570.886 120.344C570.886 126.147 569.115 130.84 565.574 134.424C562.032 138.051 557.659 139.864 552.454 139.864L552.39 139.864C547.184 139.864 542.811 138.051 539.27 134.424C535.728 130.84 533.958 126.147 533.958 120.344L533.958 115.992ZM551.942 143.768L555.142 156.568L558.79 156.568L558.79 156.376L553.222 143.768L551.942 143.768Z" fill="url(#paint1_linear_282_752)" fill-opacity="0.3"/>
<path d="M522.785 140.568L522.785 95.768L518.625 95.768L518.625 140.568L522.785 140.568Z" fill="url(#paint2_linear_282_752)" fill-opacity="0.3"/>
<path d="M474.226 118.168C474.226 124.739 476.274 130.179 480.37 134.488C484.509 138.84 489.97 141.016 496.754 141.016C502.599 141.016 507.719 139.181 512.114 135.512L511.282 134.552C507.101 137.965 502.343 139.672 497.01 139.672C491.463 139.672 487.005 137.859 483.634 134.232C480.306 130.648 478.642 126.083 478.642 120.536L478.642 115.672C478.642 110.467 480.434 106.008 484.018 102.296C487.602 98.584 491.933 96.728 497.01 96.728C502.429 96.728 507.165 98.4347 511.218 101.848L512.05 100.888C507.869 97.2614 502.727 95.4267 496.626 95.3841C490.311 95.4267 484.999 97.6454 480.69 102.04C476.381 106.477 474.226 111.853 474.226 118.168Z" fill="url(#paint3_linear_282_752)" fill-opacity="0.3"/>
<path d="M470.802 95.7681L465.554 109.656L447.378 109.656L442.13 95.7681L440.722 95.7681L457.938 141.4L475.282 95.7681L470.802 95.7681ZM456.466 134.04L447.89 110.936L465.042 110.936L456.466 134.04Z" fill="url(#paint4_linear_282_752)" fill-opacity="0.3"/>
<path d="M432.866 139.288L432.866 95.768L428.77 95.768L428.77 139.288L413.41 139.288L413.41 140.568L448.226 140.568L448.226 139.288L432.866 139.288Z" fill="url(#paint5_linear_282_752)" fill-opacity="0.3"/>
<path d="M409.57 140.568L409.57 95L378.53 137.944L378.53 95.7681L377.25 95.7681L377.25 140.568L381.602 140.568L408.29 103.192L408.29 140.568L409.57 140.568Z" fill="url(#paint6_linear_282_752)" fill-opacity="0.3"/>
<path d="M345.723 117.528L345.722 97.048L370.875 97.048L370.875 95.768L341.562 95.7681L341.562 140.568L370.875 140.568L370.875 139.288L345.723 139.288L345.723 118.808L364.73 118.808L364.73 117.528L345.723 117.528Z" fill="url(#paint7_linear_282_752)" fill-opacity="0.3"/>
<path d="M294.492 140.568L311.964 101.848L329.18 140.568L329.692 140.504L329.692 140.568L333.852 140.568L333.852 95.7681L329.692 95.7681L329.692 138.648L310.236 95.0641L290.78 138.968L290.78 95.7681L289.5 95.7681L289.5 140.568L294.492 140.568Z" fill="url(#paint8_linear_282_752)" fill-opacity="0.3"/>
<path d="M265.244 117.528L265.244 118.808L282.46 118.808L282.46 102.424C282.289 102.168 281.99 101.827 281.564 101.4C281.18 100.973 280.476 100.397 279.452 99.6721C278.428 98.9467 277.318 98.2854 276.124 97.6881C274.929 97.0907 273.372 96.5574 271.452 96.0881C269.574 95.6614 267.612 95.4481 265.564 95.4481C259.164 95.4481 253.83 97.6027 249.564 101.912C245.34 106.221 243.228 111.619 243.228 118.104C243.228 124.675 245.361 130.115 249.628 134.424C253.937 138.776 259.633 140.952 266.716 140.952C272.305 140.952 277.297 138.989 281.692 135.064L280.86 134.104C278.94 135.853 276.7 137.197 274.14 138.136C271.58 139.117 269.19 139.608 266.972 139.608C260.998 139.608 256.284 137.795 252.828 134.168C249.372 130.541 247.644 125.976 247.644 120.472L247.644 115.928C247.644 110.467 249.308 105.901 252.636 102.232C256.006 98.6054 260.316 96.7921 265.564 96.7921L265.628 96.7921C268.23 96.7921 270.577 97.2614 272.668 98.2001C274.758 99.1387 276.209 100.056 277.02 100.952C277.873 101.891 278.3 102.573 278.3 103L278.3 117.528L265.244 117.528Z" fill="url(#paint9_linear_282_752)" fill-opacity="0.3"/>
<path d="M236.535 140.568L236.535 95.7681L232.375 95.7681L232.375 140.568L236.535 140.568Z" fill="url(#paint10_linear_282_752)" fill-opacity="0.3"/>
<path d="M226.675 128.344L226.675 128.216C226.675 127.277 226.59 126.36 226.419 125.464C226.291 124.611 225.886 123.565 225.203 122.328C224.563 121.091 223.688 120.024 222.579 119.128C221.512 118.275 219.934 117.528 217.843 116.888C215.752 116.248 213.278 115.928 210.419 115.928L202.035 115.928L202.035 95.7681L197.875 95.7681L197.875 140.568L210.355 140.568C213.214 140.568 215.688 140.248 217.779 139.608C219.912 138.968 221.512 138.2 222.579 137.304C223.688 136.451 224.563 135.405 225.203 134.168C225.886 132.973 226.291 131.928 226.419 131.032C226.59 130.179 226.675 129.283 226.675 128.344ZM202.035 139.288L202.035 117.144L210.355 117.144C212.488 117.144 214.344 117.4 215.923 117.912C217.502 118.424 218.696 119.021 219.507 119.704C220.318 120.429 220.958 121.283 221.427 122.264C221.939 123.245 222.238 124.099 222.323 124.824C222.451 125.549 222.515 126.317 222.515 127.128L222.515 129.432C222.515 130.2 222.451 130.925 222.323 131.608C222.238 132.333 221.939 133.187 221.427 134.168C220.958 135.192 220.318 136.045 219.507 136.728C218.696 137.411 217.502 138.008 215.923 138.52C214.344 139.032 212.488 139.288 210.355 139.288L202.035 139.288Z" fill="url(#paint11_linear_282_752)" fill-opacity="0.3"/>
<path d="M168.266 95.1921L168.202 95.1921C161.674 95.1921 156.213 97.3041 151.818 101.528C147.466 105.795 145.29 111.32 145.29 118.104L145.29 118.232C145.29 125.016 147.466 130.52 151.818 134.744C156.213 139.011 161.674 141.144 168.202 141.144L168.266 141.144C174.794 141.144 180.234 139.011 184.586 134.744C188.981 130.52 191.178 125.016 191.178 118.232L191.178 118.104C191.178 111.32 188.981 105.795 184.586 101.528C180.234 97.3041 174.794 95.1921 168.266 95.1921ZM149.77 115.992C149.77 110.189 151.541 105.475 155.082 101.848C158.666 98.2641 163.039 96.4721 168.202 96.4721L168.266 96.4721C173.429 96.4721 177.781 98.2641 181.322 101.848C184.906 105.475 186.698 110.211 186.698 116.056L186.698 120.344C186.698 126.147 184.927 130.84 181.386 134.424C177.845 138.051 173.471 139.864 168.266 139.864L168.202 139.864C162.997 139.864 158.623 138.051 155.082 134.424C151.541 130.84 149.77 126.147 149.77 120.344L149.77 115.992Z" fill="url(#paint12_linear_282_752)" fill-opacity="0.3"/>
<path d="M146.066 95.7681L144.722 95.7681C141.607 95.6827 139.367 96.2587 138.002 97.4961C136.679 98.7334 135.741 100.696 135.186 103.384L134.098 108.12C133.33 111.405 132.114 113.816 130.45 115.352C128.786 116.931 126.375 117.699 123.218 117.656L115.346 117.656L115.41 95.7681L111.25 95.7681L111.25 140.568L123.986 140.568C126.759 140.568 129.191 140.269 131.282 139.672C133.373 139.117 134.951 138.435 136.018 137.624C137.127 136.813 138.002 135.853 138.642 134.744C139.282 133.635 139.687 132.675 139.858 131.864C140.029 131.096 140.114 130.285 140.114 129.432L140.114 129.368C140.114 128.6 140.029 127.811 139.858 127C139.687 126.189 139.303 125.251 138.706 124.184C138.151 123.117 137.405 122.157 136.466 121.304C135.57 120.493 134.311 119.768 132.69 119.128C131.069 118.531 129.191 118.189 127.058 118.104C133.031 117.848 136.743 114.243 138.194 107.288L139.346 102.296C139.773 100.547 140.391 99.2241 141.202 98.3281C142.013 97.4747 143.229 97.0481 144.85 97.0481L146.066 97.0481L146.066 95.7681ZM136.018 128.664L136.018 130.008C136.018 136.195 132.007 139.288 123.986 139.288L115.346 139.288L115.346 118.936L123.986 118.936C126.589 118.936 128.765 119.32 130.514 120.088C132.306 120.856 133.543 121.837 134.226 123.032C134.951 124.227 135.421 125.251 135.634 126.104C135.89 126.957 136.018 127.811 136.018 128.664Z" fill="url(#paint13_linear_282_752)" fill-opacity="0.3"/>
<path d="M66.8511 118.168C66.8511 124.739 68.8991 130.179 72.9951 134.488C77.1337 138.84 82.5951 141.016 89.3791 141.016C95.2244 141.016 100.344 139.181 104.739 135.512L103.907 134.552C99.7257 137.965 94.9684 139.672 89.6351 139.672C84.0884 139.672 79.6297 137.859 76.2591 134.232C72.9311 130.648 71.2671 126.083 71.2671 120.536L71.2671 115.672C71.2671 110.467 73.0591 106.008 76.6431 102.296C80.2271 98.5841 84.5577 96.7281 89.6351 96.7281C95.0537 96.7281 99.7897 98.4347 103.843 101.848L104.675 100.888C100.494 97.2614 95.3524 95.4267 89.2511 95.3841C82.9364 95.4267 77.6244 97.6454 73.3151 102.04C69.0057 106.477 66.8511 111.853 66.8511 118.168Z" fill="url(#paint14_linear_282_752)" fill-opacity="0.3"/>
<path d="M60.2225 140.568L60.2225 95.7681L56.0625 95.7681L56.0625 140.568L60.2225 140.568Z" fill="url(#paint15_linear_282_752)" fill-opacity="0.3"/>
<path d="M8.992 140.504L26.464 101.784L43.68 140.504L44.192 140.44L44.192 140.504L48.352 140.504L48.352 95.704L44.192 95.704L44.192 138.584L24.736 95L5.28 138.904L5.28 95.704L4 95.704L4 140.504L8.992 140.504Z" fill="url(#paint16_linear_282_752)" fill-opacity="0.3"/>
<defs>
<linearGradient id="paint0_linear_282_752" x1="598.222" y1="140.568" x2="598.222" y2="95" gradientUnits="userSpaceOnUse">
<stop stop-color="#564739" stop-opacity="0"/>
<stop offset="1" stop-color="#564739"/>
</linearGradient>
<linearGradient id="paint1_linear_282_752" x1="552.422" y1="156.568" x2="552.422" y2="95.192" gradientUnits="userSpaceOnUse">
<stop stop-color="#564739" stop-opacity="0"/>
<stop offset="1" stop-color="#564739"/>
</linearGradient>
<linearGradient id="paint2_linear_282_752" x1="520.705" y1="140.568" x2="520.705" y2="95.768" gradientUnits="userSpaceOnUse">
<stop stop-color="#564739" stop-opacity="0"/>
<stop offset="1" stop-color="#564739"/>
</linearGradient>
<linearGradient id="paint3_linear_282_752" x1="493.17" y1="141.016" x2="493.17" y2="95.3841" gradientUnits="userSpaceOnUse">
<stop stop-color="#564739" stop-opacity="0"/>
<stop offset="1" stop-color="#564739"/>
</linearGradient>
<linearGradient id="paint4_linear_282_752" x1="458.002" y1="141.4" x2="458.002" y2="95.7681" gradientUnits="userSpaceOnUse">
<stop stop-color="#564739" stop-opacity="0"/>
<stop offset="1" stop-color="#564739"/>
</linearGradient>
<linearGradient id="paint5_linear_282_752" x1="430.818" y1="140.568" x2="430.818" y2="95.768" gradientUnits="userSpaceOnUse">
<stop stop-color="#564739" stop-opacity="0"/>
<stop offset="1" stop-color="#564739"/>
</linearGradient>
<linearGradient id="paint6_linear_282_752" x1="393.41" y1="140.568" x2="393.41" y2="95" gradientUnits="userSpaceOnUse">
<stop stop-color="#564739" stop-opacity="0"/>
<stop offset="1" stop-color="#564739"/>
</linearGradient>
<linearGradient id="paint7_linear_282_752" x1="356.219" y1="140.568" x2="356.219" y2="95.768" gradientUnits="userSpaceOnUse">
<stop stop-color="#564739" stop-opacity="0"/>
<stop offset="1" stop-color="#564739"/>
</linearGradient>
<linearGradient id="paint8_linear_282_752" x1="311.676" y1="140.568" x2="311.676" y2="95.0641" gradientUnits="userSpaceOnUse">
<stop stop-color="#564739" stop-opacity="0"/>
<stop offset="1" stop-color="#564739"/>
</linearGradient>
<linearGradient id="paint9_linear_282_752" x1="262.844" y1="140.952" x2="262.844" y2="95.4481" gradientUnits="userSpaceOnUse">
<stop stop-color="#564739" stop-opacity="0"/>
<stop offset="1" stop-color="#564739"/>
</linearGradient>
<linearGradient id="paint10_linear_282_752" x1="234.455" y1="140.568" x2="234.455" y2="95.7681" gradientUnits="userSpaceOnUse">
<stop stop-color="#564739" stop-opacity="0"/>
<stop offset="1" stop-color="#564739"/>
</linearGradient>
<linearGradient id="paint11_linear_282_752" x1="212.275" y1="140.568" x2="212.275" y2="95.7681" gradientUnits="userSpaceOnUse">
<stop stop-color="#564739" stop-opacity="0"/>
<stop offset="1" stop-color="#564739"/>
</linearGradient>
<linearGradient id="paint12_linear_282_752" x1="168.234" y1="141.144" x2="168.234" y2="95.1921" gradientUnits="userSpaceOnUse">
<stop stop-color="#564739" stop-opacity="0"/>
<stop offset="1" stop-color="#564739"/>
</linearGradient>
<linearGradient id="paint13_linear_282_752" x1="128.658" y1="140.568" x2="128.658" y2="95.7598" gradientUnits="userSpaceOnUse">
<stop stop-color="#564739" stop-opacity="0"/>
<stop offset="1" stop-color="#564739"/>
</linearGradient>
<linearGradient id="paint14_linear_282_752" x1="85.7951" y1="141.016" x2="85.7951" y2="95.3841" gradientUnits="userSpaceOnUse">
<stop stop-color="#564739" stop-opacity="0"/>
<stop offset="1" stop-color="#564739"/>
</linearGradient>
<linearGradient id="paint15_linear_282_752" x1="58.1425" y1="140.568" x2="58.1425" y2="95.7681" gradientUnits="userSpaceOnUse">
<stop stop-color="#564739" stop-opacity="0"/>
<stop offset="1" stop-color="#564739"/>
</linearGradient>
<linearGradient id="paint16_linear_282_752" x1="26.176" y1="140.504" x2="26.176" y2="95" gradientUnits="userSpaceOnUse">
<stop stop-color="#564739" stop-opacity="0"/>
<stop offset="1" stop-color="#564739"/>
</linearGradient>
</defs>
</svg>
