<svg width="582" height="210" viewBox="0 0 582 210" fill="none" xmlns="http://www.w3.org/2000/svg">
<path d="M0.153503 59.7703C0.153503 55.1791 0.869568 51.1354 2.3017 47.6393C3.73382 44.1854 5.52398 41.2158 7.67218 38.7307C9.82037 36.2455 12.0317 34.1815 14.3063 32.5388C16.5809 30.8961 18.5816 29.6324 20.3086 28.7479C22.0777 27.8633 23.2571 27.3158 23.8468 27.1051L24.1627 26.9788C24.1627 26.8103 23.9732 26.5154 23.5941 26.0942C23.0465 25.5045 22.4147 24.5989 21.6986 23.3774C21.0247 22.1138 20.6877 20.471 20.6877 18.4492C20.6877 15.8377 21.3616 13.4157 22.7095 11.1833C24.0574 8.95082 25.7633 6.99217 27.8273 5.30731C29.9333 3.62246 32.1868 2.31669 34.5878 1.39002C36.9887 0.463352 39.2422 1.69912e-05 41.3482 1.69912e-05C44.718 1.69912e-05 47.4348 1.15836 49.4987 3.47503C51.5627 5.79171 52.5947 8.57172 52.5947 11.8151C52.5947 13.5842 52.3209 15.2058 51.7733 16.6801C51.2257 18.1543 50.4886 18.8915 49.5619 18.8915C48.8037 18.8915 48.4247 18.5334 48.4247 17.8174C48.4247 17.1856 48.6142 16.5116 48.9933 15.7955C49.246 15.2058 49.4777 14.5319 49.6883 13.7737C49.941 12.9734 50.0674 12.0257 50.0674 10.9305C50.0674 8.27687 49.2039 6.02338 47.4769 4.17004C45.7921 2.31669 43.5807 1.39002 40.8428 1.39002C38.2734 1.39002 35.5144 2.19033 32.5659 3.79094C29.6596 5.39156 27.1744 7.51869 25.1104 10.1723C23.0465 12.826 22.0145 15.7534 22.0145 18.9547C22.0145 20.471 22.2672 21.7136 22.7727 22.6824C23.2782 23.6091 23.8889 24.3673 24.605 24.957C25.3211 25.5045 25.995 25.9468 26.6268 26.2838C27.048 26.5365 27.4061 26.7892 27.7009 27.042C27.9958 27.2526 28.1432 27.4842 28.1432 27.737C28.1432 28.2424 27.3429 28.7268 25.7423 29.1902C19.0028 31.5068 13.5271 35.6558 9.31491 41.637C5.10277 47.6183 2.9967 53.7048 2.9967 59.8967C2.9967 62.424 3.4811 64.9723 4.44989 67.5417C5.41868 70.1532 6.97717 72.3225 9.12537 74.0495C11.2736 75.8186 14.1168 76.7031 17.655 76.7031C21.3616 76.7031 24.8998 75.8186 28.2696 74.0495C31.6814 72.2804 34.6931 70.0058 37.3046 67.2258C39.9582 64.4458 42.0433 61.4341 43.5596 58.1908C45.1181 54.9895 45.8974 51.9357 45.8974 49.0293C45.8974 46.7548 45.4551 44.6908 44.5705 42.8375C43.686 41.0263 42.633 40.1207 41.4114 40.1207H40.7164C40.4637 40.1207 40.211 40.0154 39.9582 39.8048C39.7055 39.5941 39.5792 39.2993 39.5792 38.9202C39.5792 38.4569 39.7687 38.0988 40.1478 37.8461C40.569 37.5513 41.0323 37.4038 41.5378 37.4038C43.012 37.4038 44.3599 38.5411 45.5815 40.8157C46.803 43.0481 47.4137 45.5333 47.4137 48.2712C47.4137 52.9045 45.8974 57.5589 42.8646 62.2344C39.8319 66.952 35.9988 70.8693 31.3655 73.9863C26.7742 77.1033 22.0566 78.6618 17.2127 78.6618C12.3687 78.6618 8.304 76.9348 5.01853 73.4808C1.77518 70.069 0.153503 65.4988 0.153503 59.7703ZM53.6234 57.8748C54.4658 57.7906 55.4135 57.2851 56.4665 56.3585C57.5196 55.4318 58.4463 54.3998 59.2466 53.2625C60.0469 52.1253 60.4681 51.2197 60.5102 50.5457V50.293H60.447C60.2785 50.293 59.8363 50.63 59.1202 51.3039C58.4041 51.9778 57.6249 52.7571 56.7825 53.6416C55.94 54.5683 55.2029 55.4318 54.5711 56.2321C53.8971 57.0324 53.5602 57.5589 53.5602 57.8117L53.6234 57.8748ZM56.4034 40.5629C56.4034 40.7314 56.4665 40.8157 56.5929 40.8157C56.8878 40.8157 57.6249 40.4998 58.8043 39.8679C59.9837 39.194 61.2473 38.4147 62.5952 37.5302C63.9852 36.6035 65.1857 35.719 66.1966 34.8766C67.2075 34.0341 67.713 33.4234 67.713 33.0443C67.713 32.7915 67.5866 32.6652 67.3339 32.6652H67.2075C66.5757 32.6652 65.3752 33.1496 63.6061 34.1184C61.8792 35.045 60.2364 36.1402 58.6779 37.4038C57.1616 38.6254 56.4034 39.6784 56.4034 40.5629ZM77.0639 41.1948C77.2745 41.1948 77.4641 41.2158 77.6326 41.2579C77.6326 41.3001 77.2956 41.4264 76.6216 41.637C75.4844 41.974 73.6731 42.669 71.188 43.722C68.7028 44.8172 65.8596 46.4389 62.6584 48.5871C62.4899 50.988 61.816 52.9888 60.6366 54.5894C59.4572 56.19 58.1935 57.3904 56.8456 58.1908C55.4978 58.9911 54.55 59.3912 54.0024 59.3912C53.497 59.3912 53.0758 59.2227 52.7388 58.8858C52.4861 58.5909 52.3597 58.2539 52.3597 57.8748V57.6221C52.3597 56.7797 52.9073 55.7898 54.0024 54.6526C55.0555 53.5153 56.1928 52.4201 57.4143 51.3671C58.2567 50.6089 58.9728 49.935 59.5625 49.3453C60.1522 48.7556 60.447 48.3133 60.447 48.0184C60.447 47.6815 60.2154 47.2813 59.752 46.818C59.3308 46.3968 58.8043 45.9334 58.1725 45.428C57.2879 44.754 56.4455 43.9958 55.6452 43.1534C54.887 42.3531 54.5079 41.4686 54.5079 40.4998C54.5079 38.8149 55.3082 37.2775 56.9088 35.8875C58.5516 34.4975 60.3628 33.3812 62.3425 32.5388C64.3643 31.6543 65.9439 31.212 67.0811 31.212C68.3448 31.212 69.0398 31.7174 69.1662 32.7284C69.1662 33.3181 68.5765 34.1815 67.3971 35.3188C66.2177 36.4561 64.7855 37.5934 63.1007 38.7307C61.4579 39.8679 59.8363 40.7525 58.2356 41.3843C58.1514 41.4264 58.0882 41.4475 58.0461 41.4475C57.6249 41.616 57.4143 41.7845 57.4143 41.9529C57.4143 42.2899 57.8566 42.7533 58.7411 43.343C59.3308 43.8063 59.9626 44.3539 60.6366 44.9857C61.3105 45.6175 61.8581 46.3757 62.2793 47.2602H62.3425C62.3425 47.2181 62.3635 47.1971 62.4057 47.1971C62.6163 47.0707 63.1428 46.7759 63.9852 46.3125C65.0804 45.7228 66.4283 45.0278 68.0289 44.2275C69.6295 43.4272 71.209 42.7111 72.7675 42.0793C74.3682 41.4475 75.6318 41.1316 76.5585 41.1316C76.727 41.1316 76.8954 41.1526 77.0639 41.1948ZM79.7709 52.6307C80.5291 52.6307 81.4347 52.1253 82.4877 51.1144C83.5829 50.1034 84.5306 49.0083 85.3309 47.8289C86.1733 46.6916 86.5945 45.9124 86.5945 45.4911C86.5945 45.449 86.5735 45.4069 86.5314 45.3648C86.5314 45.3648 86.5314 45.3437 86.5314 45.3016H86.4682C86.1733 45.3016 85.4362 45.7018 84.2568 46.5021C83.1195 47.3445 82.0244 48.2922 80.9713 49.3453C79.9183 50.4404 79.3918 51.4092 79.3918 52.2516V52.3148C79.3918 52.3569 79.3918 52.378 79.3918 52.378C79.3918 52.4201 79.4128 52.4622 79.455 52.5044C79.4971 52.5465 79.5392 52.5675 79.5813 52.5675C79.6656 52.6097 79.7288 52.6307 79.7709 52.6307ZM99.7996 40.942C100.768 40.942 101.59 40.9842 102.264 41.0684C102.938 41.1105 103.275 41.2369 103.275 41.4475C103.275 41.5739 103.022 41.6581 102.516 41.7002C102.053 41.7423 101.421 41.7845 100.621 41.8266C98.5992 41.8266 96.3878 42.0372 93.9869 42.4584C91.6281 42.8796 90.0485 43.8063 89.2482 45.2384C87.9846 47.8921 86.3208 50.0613 84.2568 51.7462C82.1929 53.431 80.6765 54.2735 79.7077 54.2735H79.5181C79.1391 54.2735 78.8021 54.1471 78.5072 53.8944C78.2124 53.5574 78.065 53.1783 78.065 52.7571C78.065 51.6198 78.8442 50.2087 80.4027 48.5239C82.0033 46.8812 83.962 45.4069 86.2786 44.1011C86.3208 44.1011 86.3418 44.0801 86.3418 44.038C86.7209 43.8695 87.0158 43.6799 87.2264 43.4693C87.437 43.2587 87.6476 42.8796 87.8582 42.332C88.1109 41.7845 88.4268 40.8999 88.8059 39.6784C89.3535 38.0357 89.7115 36.3297 89.88 34.5606V33.8025C89.88 32.8758 89.6694 32.4124 89.2482 32.4124H89.185C88.0477 32.4124 85.9627 34.7502 82.93 39.4257C79.8972 44.1011 76.8856 50.0192 73.8949 57.1798C70.9043 64.3405 68.7351 71.8802 67.3872 79.799C67.2187 80.81 67.0923 81.6945 67.0081 82.4527C66.9238 83.8006 66.7764 84.4745 66.5658 84.4745C66.271 84.4745 65.9972 84.306 65.7444 83.9691C65.6181 83.7163 65.5549 83.4425 65.5549 83.1477V82.895C65.5549 80.6204 66.3552 76.2398 67.9558 69.7531C69.5564 63.3085 71.4519 56.4848 73.6422 49.2821C75.8325 42.0793 77.9386 35.8243 79.9604 30.517C81.9823 25.2097 83.3933 22.556 84.1936 22.556C84.3621 22.556 84.4464 22.6403 84.4464 22.8088V22.9351C84.4464 23.1879 84.0462 24.4726 83.2459 26.7892C82.4877 29.1059 81.6032 31.8227 80.5922 34.9397C79.3286 38.6464 78.1703 42.0793 77.1172 45.2384C76.0642 48.3975 75.5377 50.1877 75.5377 50.6089C75.5798 50.6089 75.8746 50.0403 76.4222 48.903C77.1804 47.176 78.2756 44.9014 79.7077 42.0793C81.1819 39.2993 82.7404 36.751 84.3832 34.4343C86.068 32.1176 87.6055 30.9593 88.9955 30.9593C89.8379 30.9593 90.5329 31.2752 91.0805 31.907C91.6702 32.5388 91.965 33.5918 91.965 35.0661C91.965 36.2034 91.8176 37.3407 91.5228 38.4779C91.2279 39.6152 90.9752 40.5208 90.7646 41.1948C90.5961 41.7002 90.5118 41.9951 90.5118 42.0793C93.3761 41.3211 96.2404 40.942 99.1046 40.942H99.7996ZM110.051 37.5302C109.503 37.5723 108.85 37.7829 108.092 38.162C107.376 38.5411 106.702 38.9834 106.07 39.4888C105.481 39.9522 105.186 40.3523 105.186 40.6893C105.186 40.7735 105.228 40.8157 105.312 40.8157H105.439C105.733 40.8157 106.302 40.7104 107.145 40.4998C107.987 40.2892 108.787 39.9732 109.545 39.552C110.304 39.1308 110.683 38.6043 110.683 37.9725C110.683 37.8882 110.62 37.804 110.493 37.7197C110.409 37.5934 110.262 37.5302 110.051 37.5302ZM123.888 41.1948H124.077C124.119 41.1948 124.162 41.1948 124.204 41.1948C124.246 41.1948 124.267 41.2158 124.267 41.2579C124.267 41.3843 123.319 42.0372 121.424 43.2166C119.528 44.396 117.275 45.5333 114.663 46.6284C112.094 47.7236 109.651 48.3554 107.334 48.5239H106.765C105.291 48.5239 104.154 48.2712 103.354 47.7657C102.595 47.2602 102.069 46.6284 101.774 45.8702C101.437 45.1542 101.269 44.4381 101.269 43.722C101.269 42.2057 101.774 40.8578 102.785 39.6784C103.838 38.4569 105.038 37.5091 106.386 36.8352C107.734 36.1191 108.914 35.7611 109.925 35.7611C110.556 35.7611 111.02 35.8664 111.315 36.077C111.609 36.2876 111.778 36.5193 111.82 36.772C111.904 37.0247 111.946 37.2353 111.946 37.4038C111.946 38.4569 111.293 39.5099 109.988 40.5629C108.724 41.5739 107.039 42.0793 104.933 42.0793C104.175 42.0793 103.733 42.7111 103.606 43.9748C103.606 46.0387 104.933 47.0918 107.587 47.1339C107.882 47.1339 108.177 47.1128 108.471 47.0707C111.083 46.7759 113.631 46.0808 116.116 44.9857C118.602 43.9327 120.623 42.9639 122.182 42.0793C122.94 41.6581 123.509 41.3632 123.888 41.1948ZM152.495 41.1948C152.579 41.1948 152.621 41.1948 152.621 41.1948C152.663 41.2369 152.706 41.279 152.748 41.3211C152.748 41.4896 151.695 42.2899 149.589 43.722C147.525 45.1542 144.955 46.7337 141.88 48.4607C138.848 50.2298 135.794 51.7672 132.719 53.073C129.644 54.4209 127.096 55.0948 125.074 55.0948C124.526 55.0948 124 55.0106 123.494 54.8421C122.526 54.463 121.81 53.8522 121.346 53.0098C120.883 52.2095 120.651 51.2197 120.651 50.0403C120.651 47.3024 121.515 44.4381 123.242 41.4475C124.969 38.499 127.033 35.9928 129.434 33.9288C131.834 31.8649 134.046 30.8329 136.068 30.8329C137.121 30.8329 137.921 31.1699 138.469 31.8438C139.016 32.5178 139.29 33.3602 139.29 34.3711C139.29 35.382 139.037 36.3929 138.532 37.4038C138.068 38.4147 137.521 39.2572 136.889 39.9311C136.299 40.6051 135.794 40.942 135.373 40.942C135.288 40.942 135.204 40.921 135.12 40.8789C135.036 40.8367 134.972 40.7735 134.93 40.6893C134.804 40.5208 134.741 40.3523 134.741 40.1838C134.741 39.5941 135.162 38.857 136.004 37.9725C136.51 37.3828 136.994 36.7299 137.458 36.0138C137.921 35.2556 138.153 34.4343 138.153 33.5497V33.3602C138.153 32.9811 138.005 32.6441 137.71 32.3493C137.416 32.0544 137.079 31.907 136.699 31.907H136.51C134.614 31.907 132.572 33.0021 130.381 35.1925C128.191 37.3828 126.317 39.9311 124.758 42.8375C123.242 45.786 122.483 48.4186 122.483 50.7353C122.483 51.9989 122.757 52.8624 123.305 53.3257C123.852 53.7891 124.611 54.0207 125.579 54.0207C128.612 53.8101 132.319 52.5465 136.699 50.2298C141.08 47.9131 144.892 45.7228 148.135 43.6589C150.705 42.0161 152.158 41.1948 152.495 41.1948ZM169.068 41.1948C169.153 41.1948 169.195 41.1948 169.195 41.1948C169.237 41.1948 169.258 41.2158 169.258 41.2579C169.258 41.3422 168.731 41.8476 167.678 42.7743C166.625 43.701 165.299 44.733 163.698 45.8702C162.139 47.0496 160.518 48.0816 158.833 48.9662C157.148 49.8928 155.695 50.3562 154.473 50.3562H154.094C153.715 50.3562 153.378 50.3141 153.083 50.2298C151.441 49.598 150.619 48.2501 150.619 46.1862C150.619 45.1331 150.83 43.9327 151.251 42.5848C151.63 41.2369 152.115 40.0575 152.704 39.0466C153.336 37.9935 153.947 37.467 154.537 37.467C154.789 37.5091 155 37.6144 155.168 37.7829C155.337 37.9514 155.421 38.162 155.421 38.4147C155.421 38.8781 155.147 39.6573 154.6 40.7525C154.221 41.5949 153.842 42.5005 153.462 43.4693C153.083 44.4802 152.894 45.4701 152.894 46.4389C152.894 47.3656 153.147 47.9974 153.652 48.3343C154.2 48.7134 154.895 48.903 155.737 48.903C157.085 48.903 158.707 48.2712 160.602 47.0075C162.54 45.786 164.288 44.5645 165.846 43.343C167.615 41.9108 168.689 41.1948 169.068 41.1948ZM155.547 34.4343C155.042 34.1815 154.789 33.8235 154.789 33.3602V32.9811C154.789 32.4335 155.042 31.9912 155.547 31.6543C155.842 31.4858 156.137 31.4015 156.432 31.4015C156.685 31.4015 156.937 31.4647 157.19 31.5911C157.738 31.9702 158.012 32.4546 158.012 33.0443C158.012 33.4655 157.843 33.8446 157.506 34.1815C157.211 34.4764 156.853 34.6238 156.432 34.6238C156.137 34.6238 155.842 34.5606 155.547 34.4343ZM172.584 42.0161C173.385 41.3843 173.953 40.8999 174.29 40.5629C174.585 40.2681 174.733 39.9732 174.733 39.6784V39.552C174.733 39.2993 174.712 39.0676 174.669 38.857C174.627 38.7728 174.585 38.7096 174.543 38.6675C174.501 38.6254 174.438 38.6043 174.354 38.6043C173.974 38.6043 173.511 38.857 172.964 39.3625C172.416 39.8679 171.868 40.4576 171.321 41.1316C170.815 41.8055 170.373 42.4163 169.994 42.9639C169.657 43.5536 169.489 43.9116 169.489 44.038C169.489 44.0801 169.51 44.1011 169.552 44.1011C169.804 44.1011 170.815 43.4061 172.584 42.0161ZM200.005 41.1948C200.048 41.1948 200.09 41.1948 200.132 41.1948C200.174 41.1948 200.216 41.2158 200.258 41.2579C200.3 41.3001 200.321 41.3632 200.321 41.4475C200.321 41.5317 199.542 41.974 197.984 42.7743C196.467 43.6167 194.614 44.4171 192.424 45.1752C190.233 45.9755 188.127 46.3757 186.105 46.3757C183.915 46.3757 182.336 45.8071 181.367 44.6698C180.398 43.5746 179.914 41.9319 179.914 39.7416C179.914 39.2782 179.724 39.0466 179.345 39.0466H179.282C178.818 39.0466 178.208 39.3625 177.449 39.9943C176.733 40.584 176.165 41.3422 175.744 42.2689C175.196 43.4061 174.796 43.9748 174.543 43.9748C174.501 43.9748 174.459 43.9537 174.417 43.9116C174.417 43.8695 174.417 43.7852 174.417 43.6589C174.417 43.4904 174.438 43.343 174.48 43.2166V42.9639C174.48 42.9217 174.48 42.8796 174.48 42.8375C174.48 42.8375 174.459 42.8375 174.417 42.8375C174.332 42.8375 174.143 42.9428 173.848 43.1534C173.595 43.364 173.279 43.6378 172.9 43.9748C172.1 44.6487 171.237 45.3227 170.31 45.9966C169.383 46.6705 168.646 47.0075 168.098 47.0075C167.677 47.0075 167.319 46.839 167.024 46.5021C166.772 46.2072 166.645 45.8913 166.645 45.5543V45.3648C166.645 44.4802 167.088 43.3008 167.972 41.8266C168.815 40.3945 169.825 39.1098 171.005 37.9725C172.226 36.7931 173.364 36.2034 174.417 36.2034C175.133 36.2034 175.617 36.435 175.87 36.8984C176.123 37.3617 176.291 37.804 176.375 38.2252C176.417 38.3937 176.46 38.5411 176.502 38.6675C176.544 38.7517 176.586 38.7938 176.628 38.7938C176.754 38.7938 177.007 38.6464 177.386 38.3516C177.765 38.0988 178.166 37.8461 178.587 37.5934C179.008 37.3407 179.429 37.2143 179.85 37.2143C180.524 37.2143 180.967 37.5091 181.177 38.0988C181.43 38.6464 181.641 39.3204 181.809 40.1207C181.935 40.8789 182.146 41.637 182.441 42.3952C182.736 43.1955 183.199 43.8484 183.831 44.3539C184.505 44.9014 185.516 45.1752 186.864 45.1752C188.591 45.1752 190.36 44.8383 192.171 44.1643C193.982 43.5325 195.583 42.9007 196.973 42.2689C198.489 41.5528 199.5 41.1948 200.005 41.1948ZM201.979 40.4998C202.105 40.4998 202.505 40.0785 203.179 39.2361C204.064 38.2252 205.665 35.9296 207.981 32.3493C210.34 28.7689 212.572 24.9148 214.679 20.7869C216.827 16.6169 217.901 13.3946 217.901 11.1201C217.901 10.9937 217.901 10.9095 217.901 10.8673C217.901 10.7831 217.859 10.741 217.774 10.741C216.806 10.741 215.437 12.0889 213.668 14.7846C211.941 17.4383 210.172 20.5553 208.36 24.1356C206.591 27.7159 205.075 31.0856 203.811 34.2447C202.548 37.3617 201.916 39.3835 201.916 40.3102V40.3734C201.916 40.4155 201.916 40.4576 201.916 40.4998C201.916 40.4998 201.937 40.4998 201.979 40.4998ZM219.986 41.1948C220.028 41.1948 220.049 41.1948 220.049 41.1948C220.091 41.2369 220.112 41.279 220.112 41.3211C220.112 41.7423 219.438 42.7111 218.09 44.2275C216.785 45.7439 215.142 47.3866 213.162 49.1557C211.225 50.9248 209.203 52.4622 207.097 53.768C205.033 55.0738 203.222 55.7267 201.663 55.7267C201.368 55.7267 200.926 55.6213 200.336 55.4107C199.789 55.2001 199.283 54.6526 198.82 53.768C198.314 52.8835 198.062 51.4934 198.062 49.598C198.062 45.1331 199.325 39.7205 201.853 33.3602C204.422 26.9577 207.286 21.3135 210.445 16.4274C213.604 11.4992 216.132 9.03506 218.027 9.03506C218.743 9.03506 219.122 9.709 219.164 11.0569C219.164 12.8681 218.111 15.9219 216.005 20.2183C213.941 24.5147 211.583 28.7058 208.929 32.7915C206.317 36.8773 204.064 39.7837 202.168 41.5107C201.579 42.1004 201.073 43.3008 200.652 45.1121C200.231 46.9233 200.02 48.6081 200.02 50.1666V50.4825C200.02 50.7774 200.041 51.2407 200.083 51.8725C200.168 52.5044 200.357 53.073 200.652 53.5785C200.947 54.126 201.41 54.3998 202.042 54.3998C203.895 54.3998 205.98 53.5574 208.297 51.8725C210.614 50.2298 212.762 48.4396 214.742 46.5021C216.721 44.6066 218.196 43.1113 219.164 42.0161C219.67 41.4686 219.944 41.1948 219.986 41.1948ZM236.94 41.1948C237.024 41.1948 237.066 41.1948 237.066 41.1948C237.108 41.1948 237.129 41.2158 237.129 41.2579C237.129 41.3422 236.603 41.8476 235.55 42.7743C234.497 43.701 233.17 44.733 231.569 45.8702C230.011 47.0496 228.389 48.0816 226.704 48.9662C225.02 49.8928 223.566 50.3562 222.345 50.3562H221.966C221.587 50.3562 221.25 50.3141 220.955 50.2298C219.312 49.598 218.491 48.2501 218.491 46.1862C218.491 45.1331 218.701 43.9327 219.123 42.5848C219.502 41.2369 219.986 40.0575 220.576 39.0466C221.208 37.9935 221.818 37.467 222.408 37.467C222.661 37.5091 222.871 37.6144 223.04 37.7829C223.208 37.9514 223.293 38.162 223.293 38.4147C223.293 38.8781 223.019 39.6573 222.471 40.7525C222.092 41.5949 221.713 42.5005 221.334 43.4693C220.955 44.4802 220.765 45.4701 220.765 46.4389C220.765 47.3656 221.018 47.9974 221.523 48.3343C222.071 48.7134 222.766 48.903 223.608 48.903C224.956 48.903 226.578 48.2712 228.473 47.0075C230.411 45.786 232.159 44.5645 233.718 43.343C235.487 41.9108 236.561 41.1948 236.94 41.1948ZM223.419 34.4343C222.913 34.1815 222.661 33.8235 222.661 33.3602V32.9811C222.661 32.4335 222.913 31.9912 223.419 31.6543C223.714 31.4858 224.009 31.4015 224.303 31.4015C224.556 31.4015 224.809 31.4647 225.062 31.5911C225.609 31.9702 225.883 32.4546 225.883 33.0443C225.883 33.4655 225.715 33.8446 225.378 34.1815C225.083 34.4764 224.725 34.6238 224.303 34.6238C224.009 34.6238 223.714 34.5606 223.419 34.4343ZM231.421 61.7921C232.347 61.75 233.674 61.0761 235.401 59.7703C237.086 58.5067 238.624 56.9061 240.014 54.9685C241.446 53.073 242.204 51.1144 242.288 49.0925V48.903C242.288 48.229 242.056 47.6183 241.593 47.0707C241.509 47.1971 241.404 47.3234 241.277 47.4498C238.371 50.7774 235.949 53.6627 234.011 56.1057C232.074 58.5488 231.105 60.2547 231.105 61.2235C231.105 61.3077 231.105 61.392 231.105 61.4762C231.105 61.5605 231.147 61.6237 231.231 61.6658C231.273 61.75 231.337 61.7921 231.421 61.7921ZM237.992 40.0575C237.992 40.3102 238.055 40.4366 238.181 40.4366C238.266 40.4366 238.624 40.1838 239.255 39.6784C239.929 39.1729 240.645 38.5622 241.404 37.8461C242.204 37.13 242.899 36.4561 243.489 35.8243C244.078 35.1925 244.373 34.7712 244.373 34.5606C244.373 34.5185 244.352 34.4975 244.31 34.4975C244.31 34.4553 244.289 34.4132 244.247 34.3711H244.184C244.057 34.329 243.952 34.3079 243.868 34.3079C243.278 34.3079 242.52 34.6028 241.593 35.1925C240.666 35.74 239.824 36.4561 239.066 37.3407C238.35 38.2252 237.992 39.1308 237.992 40.0575ZM243.425 19.2706C243.383 19.2706 243.341 19.2495 243.299 19.2074C243.173 19.1231 243.11 19.0178 243.11 18.8915C243.11 18.4281 244.057 18.0069 245.953 17.6278C247.89 17.2487 250.291 16.9539 253.155 16.7433C256.02 16.4906 258.947 16.301 261.938 16.1746C262.233 15.5428 262.506 14.9321 262.759 14.3424C263.77 12.0257 264.676 10.046 265.476 8.40324C266.318 6.7605 267.077 5.93914 267.751 5.93914C268.34 5.93914 268.635 6.1708 268.635 6.63414C268.635 6.71838 268.256 7.66611 267.498 9.47733C266.824 11.1622 265.918 13.3736 264.781 16.1115C268.024 16.0272 270.762 15.964 272.995 15.9219C275.227 15.8798 276.364 15.8587 276.406 15.8587C277.586 15.8587 278.534 15.8798 279.25 15.9219C280.008 15.9219 280.598 15.943 281.019 15.9851C281.482 16.0272 281.798 16.0693 281.967 16.1115C282.177 16.1536 282.303 16.2168 282.346 16.301C282.388 16.3852 282.409 16.4695 282.409 16.5537V16.6801C282.409 16.7643 282.388 16.8696 282.346 16.996C282.346 17.1224 282.303 17.2487 282.219 17.3751C282.135 17.4593 282.009 17.5015 281.84 17.5015C281.714 17.5015 281.608 17.5015 281.524 17.5015C281.44 17.4593 281.356 17.4172 281.272 17.3751C281.103 17.2909 280.808 17.2066 280.387 17.1224C280.008 17.0381 279.397 16.9749 278.555 16.9328C277.754 16.8486 276.596 16.8065 275.08 16.8065C271.289 16.8065 267.729 16.9118 264.402 17.1224C262.928 20.8712 261.39 24.9991 259.79 29.5061C258.189 34.0131 256.82 38.3937 255.683 42.648C254.545 46.9443 253.977 50.4825 253.977 53.2625C253.977 54.3156 254.082 54.9685 254.293 55.2212C254.503 55.4739 254.819 55.6003 255.24 55.6003C256.336 55.6003 257.684 54.9263 259.284 53.5785C260.885 52.2306 262.485 50.651 264.086 48.8398C265.729 47.0707 267.161 45.449 268.382 43.9748C269.899 42.1214 270.762 41.1948 270.973 41.1948L271.099 41.3211C271.099 41.616 270.488 42.5848 269.267 44.2275C268.045 45.8702 266.529 47.6815 264.718 49.6612C262.907 51.6409 261.053 53.3889 259.158 54.9053C257.304 56.4217 255.725 57.1798 254.419 57.1798C252.776 57.1798 251.955 55.6003 251.955 52.4412C251.955 49.7033 252.334 46.6495 253.092 43.2798C253.85 39.9101 254.735 36.6456 255.746 33.4865C256.799 30.2853 257.768 27.5264 258.652 25.2097C254.019 32.1597 248.817 38.8781 243.046 45.3648C244.268 46.7548 244.879 48.1237 244.879 49.4716C244.879 51.1565 243.994 53.0519 242.225 55.158C240.456 57.2641 238.497 59.0964 236.349 60.6549C234.201 62.2134 232.558 62.9926 231.421 62.9926C231.126 62.9926 230.831 62.8873 230.536 62.6767C230.199 62.5082 230.031 62.108 230.031 61.4762C230.031 60.2547 231.084 58.275 233.19 55.5371C235.254 52.8413 237.823 49.7033 240.898 46.123C240.393 45.5754 239.824 45.0699 239.192 44.6066C238.35 43.9327 237.592 43.1955 236.918 42.3952C236.244 41.5949 235.907 40.584 235.907 39.3625C235.907 37.5091 236.728 35.9085 238.371 34.5606C240.014 33.2128 241.909 32.5388 244.057 32.5388C245.363 32.5388 246.016 32.939 246.016 33.7393C246.016 34.8344 245.321 36.0138 243.931 37.2775C242.541 38.5411 241.277 39.5731 240.14 40.3734C239.382 40.921 239.003 41.2369 239.003 41.3211C240.14 42.332 241.235 43.3851 242.288 44.4802C245.995 40.1838 249.596 35.7611 253.092 31.212C256.63 26.6208 259.284 22.3665 261.053 18.4492L261.369 17.2487C252.355 18.049 246.648 18.7019 244.247 19.2074C243.91 19.2916 243.72 19.3337 243.678 19.3337C243.594 19.3337 243.51 19.3127 243.425 19.2706L243.489 19.3337L243.362 19.2706H243.425ZM274.515 42.0161C275.315 41.3843 275.884 40.8999 276.221 40.5629C276.516 40.2681 276.663 39.9732 276.663 39.6784V39.552C276.663 39.2993 276.642 39.0676 276.6 38.857C276.558 38.7728 276.516 38.7096 276.474 38.6675C276.431 38.6254 276.368 38.6043 276.284 38.6043C275.905 38.6043 275.442 38.857 274.894 39.3625C274.346 39.8679 273.799 40.4576 273.251 41.1316C272.746 41.8055 272.304 42.4163 271.925 42.9639C271.588 43.5536 271.419 43.9116 271.419 44.038C271.419 44.0801 271.44 44.1011 271.482 44.1011C271.735 44.1011 272.746 43.4061 274.515 42.0161ZM301.936 41.1948C301.978 41.1948 302.02 41.1948 302.062 41.1948C302.104 41.1948 302.147 41.2158 302.189 41.2579C302.231 41.3001 302.252 41.3632 302.252 41.4475C302.252 41.5317 301.473 41.974 299.914 42.7743C298.398 43.6167 296.544 44.4171 294.354 45.1752C292.164 45.9755 290.058 46.3757 288.036 46.3757C285.846 46.3757 284.266 45.8071 283.297 44.6698C282.328 43.5746 281.844 41.9319 281.844 39.7416C281.844 39.2782 281.655 39.0466 281.275 39.0466H281.212C280.749 39.0466 280.138 39.3625 279.38 39.9943C278.664 40.584 278.095 41.3422 277.674 42.2689C277.126 43.4061 276.726 43.9748 276.474 43.9748C276.431 43.9748 276.389 43.9537 276.347 43.9116C276.347 43.8695 276.347 43.7852 276.347 43.6589C276.347 43.4904 276.368 43.343 276.41 43.2166V42.9639C276.41 42.9217 276.41 42.8796 276.41 42.8375C276.41 42.8375 276.389 42.8375 276.347 42.8375C276.263 42.8375 276.073 42.9428 275.779 43.1534C275.526 43.364 275.21 43.6378 274.831 43.9748C274.031 44.6487 273.167 45.3227 272.24 45.9966C271.314 46.6705 270.577 47.0075 270.029 47.0075C269.608 47.0075 269.25 46.839 268.955 46.5021C268.702 46.2072 268.576 45.8913 268.576 45.5543V45.3648C268.576 44.4802 269.018 43.3008 269.903 41.8266C270.745 40.3945 271.756 39.1098 272.935 37.9725C274.157 36.7931 275.294 36.2034 276.347 36.2034C277.063 36.2034 277.548 36.435 277.8 36.8984C278.053 37.3617 278.222 37.804 278.306 38.2252C278.348 38.3937 278.39 38.5411 278.432 38.6675C278.474 38.7517 278.517 38.7938 278.559 38.7938C278.685 38.7938 278.938 38.6464 279.317 38.3516C279.696 38.0988 280.096 37.8461 280.517 37.5934C280.938 37.3407 281.36 37.2143 281.781 37.2143C282.455 37.2143 282.897 37.5091 283.108 38.0988C283.36 38.6464 283.571 39.3204 283.74 40.1207C283.866 40.8789 284.077 41.637 284.371 42.3952C284.666 43.1955 285.13 43.8484 285.761 44.3539C286.435 44.9014 287.446 45.1752 288.794 45.1752C290.521 45.1752 292.29 44.8383 294.101 44.1643C295.913 43.5325 297.513 42.9007 298.903 42.2689C300.42 41.5528 301.431 41.1948 301.936 41.1948ZM323.044 37.5302C322.496 37.5723 321.843 37.7829 321.085 38.162C320.369 38.5411 319.695 38.9834 319.063 39.4888C318.474 39.9522 318.179 40.3523 318.179 40.6893C318.179 40.7735 318.221 40.8157 318.305 40.8157H318.431C318.726 40.8157 319.295 40.7104 320.137 40.4998C320.98 40.2892 321.78 39.9732 322.538 39.552C323.297 39.1308 323.676 38.6043 323.676 37.9725C323.676 37.8882 323.612 37.804 323.486 37.7197C323.402 37.5934 323.254 37.5302 323.044 37.5302ZM336.881 41.1948H337.07C337.112 41.1948 337.154 41.1948 337.197 41.1948C337.239 41.1948 337.26 41.2158 337.26 41.2579C337.26 41.3843 336.312 42.0372 334.417 43.2166C332.521 44.396 330.268 45.5333 327.656 46.6284C325.087 47.7236 322.644 48.3554 320.327 48.5239H319.758C318.284 48.5239 317.147 48.2712 316.346 47.7657C315.588 47.2602 315.062 46.6284 314.767 45.8702C314.43 45.1542 314.261 44.4381 314.261 43.722C314.261 42.2057 314.767 40.8578 315.778 39.6784C316.831 38.4569 318.031 37.5091 319.379 36.8352C320.727 36.1191 321.907 35.7611 322.917 35.7611C323.549 35.7611 324.013 35.8664 324.307 36.077C324.602 36.2876 324.771 36.5193 324.813 36.772C324.897 37.0247 324.939 37.2353 324.939 37.4038C324.939 38.4569 324.286 39.5099 322.981 40.5629C321.717 41.5739 320.032 42.0793 317.926 42.0793C317.168 42.0793 316.726 42.7111 316.599 43.9748C316.599 46.0387 317.926 47.0918 320.58 47.1339C320.875 47.1339 321.169 47.1128 321.464 47.0707C324.076 46.7759 326.624 46.0808 329.109 44.9857C331.594 43.9327 333.616 42.9639 335.175 42.0793C335.933 41.6581 336.502 41.3632 336.881 41.1948ZM362.581 41.1948C362.624 41.1948 362.645 41.2158 362.645 41.2579V41.3211H362.581C362.455 41.5317 362.055 42.1425 361.381 43.1534C360.496 44.4171 359.38 45.8492 358.032 47.4498C356.684 49.0504 355.252 50.4615 353.736 51.683C352.22 52.9466 350.83 53.5785 349.566 53.5785C348.555 53.5785 347.902 53.1994 347.607 52.4412C347.355 51.7251 347.228 51.0512 347.228 50.4194C347.228 48.4396 347.692 46.144 348.618 43.5325C349.587 40.9631 350.493 38.7517 351.335 36.8984C352.009 35.4241 352.346 34.5606 352.346 34.3079C352.346 34.1394 352.262 34.0552 352.093 34.0552C351.377 34.0552 350.156 34.8766 348.429 36.5193C346.744 38.162 344.975 39.9522 343.121 41.8898C341.605 43.4904 340.257 44.8593 339.078 45.9966C337.898 47.176 337.098 47.7657 336.677 47.7657C335.919 47.7657 335.54 47.2813 335.54 46.3125V45.9966C335.54 44.9014 335.792 43.5746 336.298 42.0161C336.761 40.4998 337.33 39.1519 338.004 37.9725C338.678 36.7931 339.309 36.2034 339.899 36.2034C340.531 36.2034 340.847 36.435 340.847 36.8984C340.847 37.109 340.699 37.5302 340.405 38.162C340.152 38.7938 339.857 39.5099 339.52 40.3102C339.015 41.3632 338.572 42.3742 338.193 43.343C337.814 44.3117 337.625 45.0068 337.625 45.428V45.4911C337.751 45.4911 338.13 45.1752 338.762 44.5434C339.394 43.9116 340.194 43.1113 341.163 42.1425C343.185 40.0364 345.354 37.9093 347.67 35.7611C349.987 33.6129 351.63 32.5388 352.599 32.5388C353.02 32.5809 353.357 32.7494 353.61 33.0443C353.904 33.297 354.052 33.634 354.052 34.0552C354.052 34.6028 353.841 35.4873 353.42 36.7088C353.041 37.8882 352.557 39.2151 351.967 40.6893C351.251 42.6269 350.577 44.5434 349.945 46.4389C349.313 48.3343 348.997 49.8507 348.997 50.988C348.997 51.4935 349.06 51.8304 349.187 51.9989C349.313 52.2095 349.44 52.3359 349.566 52.378C349.734 52.4622 349.861 52.5044 349.945 52.5044C351.167 52.5044 352.62 51.6409 354.305 49.9139C356.032 48.1869 357.653 46.4389 359.17 44.6698C360.012 43.6589 360.728 42.8164 361.318 42.1425C361.95 41.5107 362.371 41.1948 362.581 41.1948Z" fill="#51483F"/>
<path d="M17.053 130.222V67.7423H36.081L41.335 105.834L46.5535 67.7423H65.759V130.222H54.328V85.2083L47.157 130.222H35.939L28.342 85.2083V130.222H17.053ZM70.729 130.222V67.7423H82.799V130.222H70.729ZM102.324 130.79C97.8037 130.79 94.159 129.382 91.39 126.566C88.6447 123.749 87.272 119.809 87.272 114.744V85.9183C87.272 79.8596 88.4672 75.221 90.8575 72.0023C93.2715 68.7836 97.1883 67.1743 102.608 67.1743C105.566 67.1743 108.193 67.7186 110.489 68.8073C112.808 69.896 114.631 71.529 115.956 73.7063C117.281 75.86 117.944 78.5816 117.944 81.8713V92.6633H105.519V83.4333C105.519 81.5636 105.282 80.3093 104.809 79.6703C104.336 79.0076 103.602 78.6763 102.608 78.6763C101.448 78.6763 100.667 79.1023 100.265 79.9543C99.8627 80.7826 99.6615 81.895 99.6615 83.2913V114.567C99.6615 116.294 99.91 117.513 100.407 118.223C100.928 118.933 101.661 119.288 102.608 119.288C103.673 119.288 104.419 118.85 104.845 117.975C105.294 117.099 105.519 115.963 105.519 114.567V103.313H118.086V115.135C118.086 120.625 116.702 124.613 113.933 127.098C111.164 129.56 107.294 130.79 102.324 130.79ZM122.275 130.222V67.7423H141.445C144.64 67.7423 147.054 68.476 148.687 69.9433C150.32 71.387 151.409 73.4223 151.953 76.0493C152.521 78.6526 152.805 81.7175 152.805 85.2438C152.805 88.6518 152.367 91.3735 151.491 93.4088C150.639 95.4441 149.018 96.8523 146.628 97.6333C148.592 98.0356 149.965 99.0178 150.746 100.58C151.551 102.118 151.953 104.118 151.953 106.579V130.222H139.634V105.763C139.634 103.94 139.256 102.816 138.498 102.39C137.765 101.941 136.57 101.716 134.913 101.716V130.222H122.275ZM134.984 90.8883H138.001C139.729 90.8883 140.593 89.0068 140.593 85.2438C140.593 82.8061 140.404 81.2086 140.025 80.4513C139.646 79.694 138.936 79.3153 137.895 79.3153H134.984V90.8883ZM171.833 130.79C166.839 130.79 163.017 129.287 160.367 126.282C157.74 123.252 156.426 118.886 156.426 113.182V83.5043C156.426 78.1556 157.728 74.0968 160.331 71.3278C162.958 68.5588 166.792 67.1743 171.833 67.1743C176.874 67.1743 180.696 68.5588 183.3 71.3278C185.927 74.0968 187.24 78.1556 187.24 83.5043V113.182C187.24 118.886 185.915 123.252 183.264 126.282C180.637 129.287 176.827 130.79 171.833 130.79ZM171.94 119.288C173.833 119.288 174.78 117.454 174.78 113.786V83.2913C174.78 80.2146 173.857 78.6763 172.011 78.6763C169.928 78.6763 168.887 80.2501 168.887 83.3978V113.857C168.887 115.797 169.123 117.194 169.597 118.046C170.07 118.874 170.851 119.288 171.94 119.288ZM192.281 130.222V67.7423H208.789C212.244 67.7423 214.977 68.5115 216.989 70.0498C219.024 71.5881 220.48 73.7773 221.356 76.6173C222.231 79.4573 222.669 82.8416 222.669 86.7703C222.669 90.557 222.302 93.8585 221.569 96.6748C220.835 99.4675 219.521 101.633 217.628 103.171C215.758 104.71 213.096 105.479 209.641 105.479H204.564V130.222H192.281ZM204.564 94.2608H205.274C207.593 94.2608 209.013 93.61 209.534 92.3083C210.055 91.0066 210.315 89.0896 210.315 86.5573C210.315 84.1906 210.055 82.3683 209.534 81.0903C209.037 79.7886 207.842 79.1378 205.949 79.1378H204.564V94.2608ZM226.077 130.222V67.7423H238.147V130.222H226.077ZM256.004 130.79C247.081 130.79 242.62 124.4 242.62 111.62V84.6758C242.62 73.0081 247.732 67.1743 257.956 67.1743C262.169 67.1743 265.399 68.0263 267.648 69.7303C269.896 71.4106 271.446 73.872 272.298 77.1143C273.15 80.3566 273.576 84.309 273.576 88.9713H261.364V83.4333C261.364 82.0843 261.175 80.9601 260.796 80.0608C260.441 79.1378 259.684 78.6763 258.524 78.6763C257.08 78.6763 256.122 79.1615 255.649 80.1318C255.199 81.1021 254.974 82.1671 254.974 83.3268V113.608C254.974 115.289 255.187 116.661 255.613 117.726C256.063 118.768 256.927 119.288 258.205 119.288C259.53 119.288 260.406 118.768 260.832 117.726C261.281 116.661 261.506 115.265 261.506 113.537V104.627H258.169V93.8348H273.434V130.222H268.429L266.299 124.968C264.121 128.85 260.69 130.79 256.004 130.79ZM278.404 130.222V67.7423H297.432L302.686 105.834L307.905 67.7423H327.11V130.222H315.679V85.2083L308.508 130.222H297.29L289.693 85.2083V130.222H278.404ZM332.648 130.222V67.7423H357.64V79.8123H345.357V91.9888H357.143V103.739H345.357V118.046H358.457V130.222H332.648ZM362.61 130.222V67.7423H375.461L381.212 97.6688V67.7423H393.282V130.222H381.07L374.822 98.9823V130.222H362.61ZM404.181 130.222V79.7413H396.761V67.7423H424.096V79.7413H416.677V130.222H404.181ZM424.948 130.222L430.983 67.7423H452.177L458.105 130.222H446.284L445.396 120.14H437.87L437.089 130.222H424.948ZM438.758 110.165H444.438L441.704 78.3923H441.136L438.758 110.165ZM476.494 130.79C471.974 130.79 468.329 129.382 465.56 126.566C462.815 123.749 461.442 119.809 461.442 114.744V85.9183C461.442 79.8596 462.637 75.221 465.028 72.0023C467.442 68.7836 471.358 67.1743 476.778 67.1743C479.736 67.1743 482.363 67.7186 484.659 68.8073C486.978 69.896 488.801 71.529 490.126 73.7063C491.451 75.86 492.114 78.5816 492.114 81.8713V92.6633H479.689V83.4333C479.689 81.5636 479.452 80.3093 478.979 79.6703C478.506 79.0076 477.772 78.6763 476.778 78.6763C475.618 78.6763 474.837 79.1023 474.435 79.9543C474.033 80.7826 473.832 81.895 473.832 83.2913V114.567C473.832 116.294 474.08 117.513 474.577 118.223C475.098 118.933 475.831 119.288 476.778 119.288C477.843 119.288 478.589 118.85 479.015 117.975C479.464 117.099 479.689 115.963 479.689 114.567V103.313H492.256V115.135C492.256 120.625 490.872 124.613 488.103 127.098C485.334 129.56 481.464 130.79 476.494 130.79ZM495.877 130.222V67.7423H507.947V130.222H495.877ZM527.827 130.79C522.833 130.79 519.011 129.287 516.361 126.282C513.734 123.252 512.42 118.886 512.42 113.182V83.5043C512.42 78.1556 513.722 74.0968 516.325 71.3278C518.952 68.5588 522.786 67.1743 527.827 67.1743C532.868 67.1743 536.69 68.5588 539.294 71.3278C541.921 74.0968 543.234 78.1556 543.234 83.5043V113.182C543.234 118.886 541.909 123.252 539.258 126.282C536.631 129.287 532.821 130.79 527.827 130.79ZM527.934 119.288C529.827 119.288 530.774 117.454 530.774 113.786V83.2913C530.774 80.2146 529.851 78.6763 528.005 78.6763C525.922 78.6763 524.881 80.2501 524.881 83.3978V113.857C524.881 115.797 525.117 117.194 525.591 118.046C526.064 118.874 526.845 119.288 527.934 119.288ZM519.414 65.8608V57.9443L536.276 50.2053V62.5238L519.414 65.8608ZM548.275 130.222V67.7423H561.126L566.877 97.6688V67.7423H578.947V130.222H566.735L560.487 98.9823V130.222H548.275Z" fill="#51483F"/>
<path d="M548.275 129.23V191.71H561.126L566.877 161.784V191.71H578.947V129.23H566.735L560.487 160.47V129.23H548.275Z" fill="url(#paint0_linear_210_1624)" fill-opacity="0.3"/>
<path d="M527.827 128.662C522.833 128.662 519.011 130.165 516.36 133.171C513.733 136.2 512.42 140.567 512.42 146.27V175.948C512.42 181.297 513.722 185.356 516.325 188.125C518.952 190.894 522.786 192.278 527.827 192.278C532.868 192.278 536.69 190.894 539.293 188.125C541.92 185.356 543.234 181.297 543.234 175.948V146.27C543.234 140.567 541.909 136.2 539.258 133.171C536.631 130.165 532.821 128.662 527.827 128.662ZM527.933 140.164C529.827 140.164 530.773 141.998 530.773 145.667V176.161C530.773 179.238 529.85 180.776 528.004 180.776C525.922 180.776 524.88 179.202 524.88 176.055V145.596C524.88 143.655 525.117 142.259 525.59 141.407C526.064 140.578 526.845 140.164 527.933 140.164ZM519.413 193.592V201.508L536.276 209.247V196.929L519.413 193.592Z" fill="url(#paint1_linear_210_1624)" fill-opacity="0.3"/>
<path d="M495.877 129.23V191.71H507.947V129.23H495.877Z" fill="url(#paint2_linear_210_1624)" fill-opacity="0.3"/>
<path d="M476.494 128.662C471.974 128.662 468.329 130.07 465.56 132.887C462.815 135.703 461.442 139.644 461.442 144.708V173.534C461.442 179.593 462.637 184.232 465.027 187.45C467.441 190.669 471.358 192.278 476.778 192.278C479.736 192.278 482.363 191.734 484.659 190.645C486.978 189.557 488.801 187.924 490.126 185.746C491.451 183.593 492.114 180.871 492.114 177.581V166.789H479.689V176.019C479.689 177.889 479.452 179.143 478.979 179.782C478.506 180.445 477.772 180.776 476.778 180.776C475.618 180.776 474.837 180.35 474.435 179.498C474.033 178.67 473.831 177.558 473.831 176.161V144.886C473.831 143.158 474.08 141.939 474.577 141.229C475.098 140.519 475.831 140.164 476.778 140.164C477.843 140.164 478.588 140.602 479.014 141.478C479.464 142.353 479.689 143.489 479.689 144.886V156.139H492.256V144.318C492.256 138.827 490.871 134.839 488.102 132.354C485.333 129.893 481.464 128.662 476.494 128.662Z" fill="url(#paint3_linear_210_1624)" fill-opacity="0.3"/>
<path d="M424.948 129.23L430.983 191.71H452.176L458.105 129.23H446.284L445.396 139.312H437.87L437.089 129.23H424.948ZM438.758 149.288H444.438L441.704 181.06H441.136L438.758 149.288Z" fill="url(#paint4_linear_210_1624)" fill-opacity="0.3"/>
<path d="M404.18 129.23V179.711H396.761V191.71H424.096V179.711H416.676V129.23H404.18Z" fill="url(#paint5_linear_210_1624)" fill-opacity="0.3"/>
<path d="M362.61 129.23V191.71H375.461L381.212 161.784V191.71H393.282V129.23H381.07L374.822 160.47V129.23H362.61Z" fill="url(#paint6_linear_210_1624)" fill-opacity="0.3"/>
<path d="M332.648 129.23V191.71H357.64V179.64H345.357V167.464H357.143V155.713H345.357V141.407H358.456V129.23H332.648Z" fill="url(#paint7_linear_210_1624)" fill-opacity="0.3"/>
<path d="M278.404 129.23V191.71H297.432L302.686 153.619L307.905 191.71H327.11V129.23H315.679V174.244L308.508 129.23H297.29L289.693 174.244V129.23H278.404Z" fill="url(#paint8_linear_210_1624)" fill-opacity="0.3"/>
<path d="M256.004 128.662C247.081 128.662 242.62 135.052 242.62 147.832V174.777C242.62 186.444 247.732 192.278 257.956 192.278C262.169 192.278 265.399 191.426 267.648 189.722C269.896 188.042 271.446 185.581 272.298 182.338C273.15 179.096 273.576 175.144 273.576 170.481H261.364V176.019C261.364 177.368 261.175 178.492 260.796 179.392C260.441 180.315 259.684 180.776 258.524 180.776C257.08 180.776 256.122 180.291 255.649 179.321C255.199 178.35 254.974 177.285 254.974 176.126V145.844C254.974 144.164 255.187 142.791 255.613 141.726C256.063 140.685 256.927 140.164 258.205 140.164C259.53 140.164 260.406 140.685 260.832 141.726C261.281 142.791 261.506 144.188 261.506 145.915V154.826H258.169V165.618H273.434V129.23H268.429L266.299 134.484C264.121 130.603 260.69 128.662 256.004 128.662Z" fill="url(#paint9_linear_210_1624)" fill-opacity="0.3"/>
<path d="M226.077 129.23V191.71H238.147V129.23H226.077Z" fill="url(#paint10_linear_210_1624)" fill-opacity="0.3"/>
<path d="M192.281 129.23V191.71H208.789C212.244 191.71 214.977 190.941 216.989 189.403C219.024 187.864 220.48 185.675 221.356 182.835C222.231 179.995 222.669 176.611 222.669 172.682C222.669 168.896 222.302 165.594 221.569 162.778C220.835 159.985 219.521 157.82 217.628 156.281C215.758 154.743 213.096 153.974 209.641 153.974H204.564V129.23H192.281ZM204.564 165.192H205.274C207.593 165.192 209.013 165.843 209.534 167.144C210.055 168.446 210.315 170.363 210.315 172.895C210.315 175.262 210.055 177.084 209.534 178.362C209.037 179.664 207.842 180.315 205.949 180.315H204.564V165.192Z" fill="url(#paint11_linear_210_1624)" fill-opacity="0.3"/>
<path d="M171.833 128.662C166.839 128.662 163.017 130.165 160.367 133.171C157.74 136.2 156.426 140.567 156.426 146.27V175.948C156.426 181.297 157.728 185.356 160.331 188.125C162.958 190.894 166.792 192.278 171.833 192.278C176.874 192.278 180.696 190.894 183.3 188.125C185.927 185.356 187.24 181.297 187.24 175.948V146.27C187.24 140.567 185.915 136.2 183.264 133.171C180.637 130.165 176.827 128.662 171.833 128.662ZM171.94 140.164C173.833 140.164 174.78 141.998 174.78 145.667V176.161C174.78 179.238 173.857 180.776 172.011 180.776C169.928 180.776 168.887 179.202 168.887 176.055V145.596C168.887 143.655 169.123 142.259 169.597 141.407C170.07 140.578 170.851 140.164 171.94 140.164Z" fill="url(#paint12_linear_210_1624)" fill-opacity="0.3"/>
<path d="M122.275 129.23V191.71H141.445C144.64 191.71 147.054 190.977 148.687 189.509C150.32 188.066 151.409 186.03 151.953 183.403C152.521 180.8 152.805 177.735 152.805 174.209C152.805 170.801 152.367 168.079 151.491 166.044C150.639 164.008 149.018 162.6 146.628 161.819C148.592 161.417 149.965 160.435 150.746 158.873C151.551 157.334 151.953 155.335 151.953 152.873V129.23H139.634V153.69C139.634 155.512 139.256 156.636 138.498 157.062C137.765 157.512 136.57 157.737 134.913 157.737V129.23H122.275ZM134.984 168.564H138.001C139.729 168.564 140.593 170.446 140.593 174.209C140.593 176.646 140.404 178.244 140.025 179.001C139.646 179.759 138.936 180.137 137.895 180.137H134.984V168.564Z" fill="url(#paint13_linear_210_1624)" fill-opacity="0.3"/>
<path d="M102.324 128.662C97.8036 128.662 94.159 130.07 91.39 132.887C88.6446 135.703 87.272 139.644 87.272 144.708V173.534C87.272 179.593 88.4671 184.232 90.8575 187.45C93.2715 190.669 97.1883 192.278 102.608 192.278C105.566 192.278 108.193 191.734 110.489 190.645C112.808 189.557 114.631 187.924 115.956 185.746C117.281 183.593 117.944 180.871 117.944 177.581V166.789H105.519V176.019C105.519 177.889 105.282 179.143 104.809 179.782C104.336 180.445 103.602 180.776 102.608 180.776C101.448 180.776 100.667 180.35 100.265 179.498C99.8626 178.67 99.6615 177.558 99.6615 176.161V144.886C99.6615 143.158 99.91 141.939 100.407 141.229C100.928 140.519 101.661 140.164 102.608 140.164C103.673 140.164 104.418 140.602 104.844 141.478C105.294 142.353 105.519 143.489 105.519 144.886V156.139H118.086V144.318C118.086 138.827 116.701 134.839 113.932 132.354C111.163 129.893 107.294 128.662 102.324 128.662Z" fill="url(#paint14_linear_210_1624)" fill-opacity="0.3"/>
<path d="M70.729 129.23V191.71H82.799V129.23H70.729Z" fill="url(#paint15_linear_210_1624)" fill-opacity="0.3"/>
<path d="M17.053 129.23V191.71H36.081L41.335 153.619L46.5535 191.71H65.759V129.23H54.328V174.244L47.157 129.23H35.939L28.342 174.244V129.23H17.053Z" fill="url(#paint16_linear_210_1624)" fill-opacity="0.3"/>
<defs>
<linearGradient id="paint0_linear_210_1624" x1="563.611" y1="191.71" x2="563.611" y2="129.23" gradientUnits="userSpaceOnUse">
<stop stop-color="#564739" stop-opacity="0"/>
<stop offset="1" stop-color="#564739"/>
</linearGradient>
<linearGradient id="paint1_linear_210_1624" x1="527.827" y1="209.247" x2="527.827" y2="128.662" gradientUnits="userSpaceOnUse">
<stop stop-color="#564739" stop-opacity="0"/>
<stop offset="1" stop-color="#564739"/>
</linearGradient>
<linearGradient id="paint2_linear_210_1624" x1="501.912" y1="191.71" x2="501.912" y2="129.23" gradientUnits="userSpaceOnUse">
<stop stop-color="#564739" stop-opacity="0"/>
<stop offset="1" stop-color="#564739"/>
</linearGradient>
<linearGradient id="paint3_linear_210_1624" x1="476.849" y1="192.278" x2="476.849" y2="128.662" gradientUnits="userSpaceOnUse">
<stop stop-color="#564739" stop-opacity="0"/>
<stop offset="1" stop-color="#564739"/>
</linearGradient>
<linearGradient id="paint4_linear_210_1624" x1="441.527" y1="191.71" x2="441.527" y2="129.23" gradientUnits="userSpaceOnUse">
<stop stop-color="#564739" stop-opacity="0"/>
<stop offset="1" stop-color="#564739"/>
</linearGradient>
<linearGradient id="paint5_linear_210_1624" x1="410.428" y1="191.71" x2="410.428" y2="129.23" gradientUnits="userSpaceOnUse">
<stop stop-color="#564739" stop-opacity="0"/>
<stop offset="1" stop-color="#564739"/>
</linearGradient>
<linearGradient id="paint6_linear_210_1624" x1="377.946" y1="191.71" x2="377.946" y2="129.23" gradientUnits="userSpaceOnUse">
<stop stop-color="#564739" stop-opacity="0"/>
<stop offset="1" stop-color="#564739"/>
</linearGradient>
<linearGradient id="paint7_linear_210_1624" x1="345.552" y1="191.71" x2="345.552" y2="129.23" gradientUnits="userSpaceOnUse">
<stop stop-color="#564739" stop-opacity="0"/>
<stop offset="1" stop-color="#564739"/>
</linearGradient>
<linearGradient id="paint8_linear_210_1624" x1="302.757" y1="191.71" x2="302.757" y2="129.23" gradientUnits="userSpaceOnUse">
<stop stop-color="#564739" stop-opacity="0"/>
<stop offset="1" stop-color="#564739"/>
</linearGradient>
<linearGradient id="paint9_linear_210_1624" x1="258.098" y1="192.278" x2="258.098" y2="128.662" gradientUnits="userSpaceOnUse">
<stop stop-color="#564739" stop-opacity="0"/>
<stop offset="1" stop-color="#564739"/>
</linearGradient>
<linearGradient id="paint10_linear_210_1624" x1="232.112" y1="191.71" x2="232.112" y2="129.23" gradientUnits="userSpaceOnUse">
<stop stop-color="#564739" stop-opacity="0"/>
<stop offset="1" stop-color="#564739"/>
</linearGradient>
<linearGradient id="paint11_linear_210_1624" x1="207.475" y1="191.71" x2="207.475" y2="129.23" gradientUnits="userSpaceOnUse">
<stop stop-color="#564739" stop-opacity="0"/>
<stop offset="1" stop-color="#564739"/>
</linearGradient>
<linearGradient id="paint12_linear_210_1624" x1="171.833" y1="192.278" x2="171.833" y2="128.662" gradientUnits="userSpaceOnUse">
<stop stop-color="#564739" stop-opacity="0"/>
<stop offset="1" stop-color="#564739"/>
</linearGradient>
<linearGradient id="paint13_linear_210_1624" x1="137.54" y1="191.71" x2="137.54" y2="129.23" gradientUnits="userSpaceOnUse">
<stop stop-color="#564739" stop-opacity="0"/>
<stop offset="1" stop-color="#564739"/>
</linearGradient>
<linearGradient id="paint14_linear_210_1624" x1="102.679" y1="192.278" x2="102.679" y2="128.662" gradientUnits="userSpaceOnUse">
<stop stop-color="#564739" stop-opacity="0"/>
<stop offset="1" stop-color="#564739"/>
</linearGradient>
<linearGradient id="paint15_linear_210_1624" x1="76.764" y1="191.71" x2="76.764" y2="129.23" gradientUnits="userSpaceOnUse">
<stop stop-color="#564739" stop-opacity="0"/>
<stop offset="1" stop-color="#564739"/>
</linearGradient>
<linearGradient id="paint16_linear_210_1624" x1="41.406" y1="191.71" x2="41.406" y2="129.23" gradientUnits="userSpaceOnUse">
<stop stop-color="#564739" stop-opacity="0"/>
<stop offset="1" stop-color="#564739"/>
</linearGradient>
</defs>
</svg>
