<svg width="492" height="153" viewBox="0 0 492 153" fill="none" xmlns="http://www.w3.org/2000/svg">
<path d="M74.267 7V41H69.067V7H57.567V6H85.817V7H74.267ZM116.648 41H115.498C113.332 41.1 111.615 40.9 110.348 40.4C109.082 39.8667 108.182 39.15 107.648 38.25C107.115 37.3167 106.682 36.0167 106.348 34.35L105.598 30.95C105.032 28.4833 104.198 26.6833 103.098 25.55C101.998 24.3833 100.382 23.8167 98.2485 23.85H92.9485L92.9985 41H87.7985V6H98.7985C101.098 6 103.082 6.23333 104.748 6.7C106.448 7.13333 107.748 7.66666 108.648 8.3C109.548 8.9 110.248 9.63333 110.748 10.5C111.282 11.3667 111.615 12.1167 111.748 12.75C111.882 13.3833 111.948 14.0333 111.948 14.7V14.75C111.948 15.55 111.815 16.3667 111.548 17.2C111.282 18 110.798 18.9 110.098 19.9C109.398 20.8667 108.265 21.6833 106.698 22.35C105.132 23.0167 103.232 23.3833 100.998 23.45C106.432 23.65 109.698 26.5333 110.798 32.1L111.648 35.85C111.948 37.25 112.382 38.3 112.948 39C113.548 39.7 114.448 40.0333 115.648 40H116.648V41ZM106.848 15.8V13.8C106.848 9.26667 104.165 7 98.7985 7H92.9485V22.85H98.7985C100.232 22.85 101.465 22.6667 102.498 22.3C103.565 21.9 104.365 21.45 104.898 20.95C105.432 20.4167 105.848 19.8 106.148 19.1C106.482 18.3667 106.682 17.7667 106.748 17.3C106.815 16.8 106.848 16.3 106.848 15.8ZM137.494 41L133.644 30.9H120.544L116.694 41H115.594L129.294 5.35L143.044 41H137.494ZM127.094 13.55L120.944 29.9H133.244L127.094 13.55ZM142.386 41L165.186 7H144.036V6H171.886L149.036 40H170.436V41H142.386ZM187.669 41.4H187.619C182.519 41.4 178.253 39.75 174.819 36.45C171.419 33.15 169.719 28.85 169.719 23.55V23.45C169.719 18.15 171.419 13.85 174.819 10.55C178.253 7.25 182.519 5.6 187.619 5.6H187.669C192.769 5.6 197.019 7.25 200.419 10.55C203.853 13.85 205.569 18.15 205.569 23.45V23.55C205.569 28.85 203.853 33.15 200.419 36.45C197.019 39.75 192.769 41.4 187.669 41.4ZM175.419 26.65C175.419 30.8167 176.569 34.15 178.869 36.65C181.203 39.15 184.119 40.4 187.619 40.4H187.669C191.136 40.4 194.036 39.15 196.369 36.65C198.703 34.1167 199.869 30.7667 199.869 26.6V20.35C199.869 16.1833 198.703 12.85 196.369 10.35C194.069 7.85 191.169 6.6 187.669 6.6H187.619C184.119 6.6 181.203 7.85 178.869 10.35C176.569 12.85 175.419 16.1833 175.419 20.35V26.65ZM219.644 40.3C221.811 40.3 223.694 39.7333 225.294 38.6C226.928 37.4667 227.744 35.95 227.744 34.05C227.744 32.85 227.511 31.8 227.044 30.9C226.611 30 225.911 29.25 224.944 28.65C223.978 28.05 223.078 27.5833 222.244 27.25C221.444 26.9167 220.344 26.5333 218.944 26.1C217.711 25.6 216.678 25.1667 215.844 24.8C215.044 24.4333 214.061 23.9 212.894 23.2C211.761 22.5 210.861 21.7833 210.194 21.05C209.561 20.2833 209.011 19.35 208.544 18.25C208.078 17.1167 207.878 15.9 207.944 14.6C208.078 11.9 209.178 9.75 211.244 8.15C213.344 6.55 216.061 5.75 219.394 5.75C222.828 5.75 225.611 6.76666 227.744 8.8C229.878 10.8333 230.761 13.1667 230.394 15.8L229.394 15.7C229.694 13.3667 228.878 11.3 226.944 9.5C225.044 7.66666 222.561 6.75 219.494 6.75C217.194 6.75 215.294 7.28333 213.794 8.35C212.294 9.38333 211.544 10.8333 211.544 12.7C211.544 13.5333 211.728 14.3167 212.094 15.05C212.461 15.75 212.828 16.3167 213.194 16.75C213.594 17.15 214.244 17.5833 215.144 18.05C216.078 18.5167 216.728 18.8333 217.094 19C217.494 19.1333 218.244 19.3833 219.344 19.75C219.611 19.85 219.794 19.9167 219.894 19.95C220.928 20.35 221.711 20.6667 222.244 20.9C222.811 21.1 223.594 21.4333 224.594 21.9C225.628 22.3667 226.428 22.8 226.994 23.2C227.594 23.6 228.261 24.1333 228.994 24.8C229.761 25.4333 230.328 26.0833 230.694 26.75C231.094 27.4167 231.428 28.2 231.694 29.1C231.961 30 232.078 30.9667 232.044 32C231.911 34.7 230.644 36.9333 228.244 38.7C225.878 40.4333 223.094 41.3 219.894 41.3C216.261 41.3 213.194 40.25 210.694 38.15C208.194 36.05 207.161 33.5667 207.594 30.7L208.594 30.85C208.194 33.3167 209.161 35.5167 211.494 37.45C213.828 39.35 216.544 40.3 219.644 40.3Z" fill="url(#paint0_linear_286_767)"/>
<path opacity="0.6" d="M144.313 97.5857H144.264C142.663 97.5857 141.406 96.9651 140.491 95.7237C139.576 94.5151 139.119 92.8327 139.119 90.6767V90.3337C139.119 88.4717 138.613 87.0017 137.6 85.9237C136.587 84.8457 135.411 84.3067 134.072 84.3067C129.237 84.2741 125.105 82.6407 121.675 79.4067C118.278 76.1401 116.579 71.9261 116.579 66.7647V66.6667C116.579 61.5054 118.245 57.3241 121.577 54.1227C124.942 50.9214 129.123 49.3207 134.121 49.3207H134.17C139.168 49.3207 143.333 50.9214 146.665 54.1227C150.03 57.3241 151.712 61.5054 151.712 66.6667V66.7647C151.712 71.2401 150.34 75.0784 147.596 78.2797C144.852 81.4811 141.112 83.4084 136.375 84.0617C137.518 84.1924 138.58 84.7967 139.56 85.8747C140.573 86.9854 141.079 88.5861 141.079 90.6767V90.7747C141.079 92.6041 141.406 93.9924 142.059 94.9397C142.712 95.9197 143.627 96.4097 144.803 96.4097C145.914 96.3771 146.796 95.9034 147.449 94.9887C148.135 94.1067 148.478 92.9797 148.478 91.6077H149.458C149.458 93.3717 148.968 94.8091 147.988 95.9197C147.041 97.0304 145.816 97.5857 144.313 97.5857ZM118.784 67.5487C118.784 72.1547 120.27 75.9441 123.243 78.9167C126.248 81.8567 129.874 83.3267 134.121 83.3267H134.17C138.417 83.3267 142.026 81.8567 144.999 78.9167C148.004 75.9441 149.507 72.1547 149.507 67.5487V65.8827C149.507 61.2767 148.004 57.5037 144.999 54.5637C142.026 51.5911 138.417 50.1047 134.17 50.1047H134.121C129.874 50.1047 126.248 51.5911 123.243 54.5637C120.27 57.5037 118.784 61.2767 118.784 65.8827V67.5487ZM167.915 84.1107H167.866C163.783 84.1107 160.663 82.7551 158.507 80.0437C156.351 77.3324 155.273 73.9187 155.273 69.8027V49.5657H157.331V70.4397C157.331 74.0657 158.229 77.1037 160.026 79.5537C161.855 81.9711 164.534 83.1797 168.062 83.1797C168.16 83.1797 168.307 83.1797 168.503 83.1797C168.699 83.1471 168.862 83.1307 168.993 83.1307C172.39 82.8367 174.987 81.4321 176.784 78.9167C178.613 76.4014 179.528 73.3471 179.528 69.7537V49.5657H180.508V69.8027C180.508 73.9187 179.43 77.3324 177.274 80.0437C175.118 82.7551 171.998 84.1107 167.915 84.1107ZM187.394 67.2057V82.8857H207.337V83.8657H185.336V49.5657H207.337V50.5457H187.394V66.2257H202.584V67.2057H187.394ZM227.533 49.5657L241.645 80.7297L255.708 49.5657L256.198 49.6147V49.5657H258.256V83.8657H256.198V50.8397L241.008 84.4047L225.867 50.7907V83.8657H224.887V49.5657H227.533ZM284.107 83.8657L279.942 72.7917H265.34L261.224 83.8657H260.146L273.229 48.9287L286.312 83.8657H284.107ZM272.641 53.1917L265.732 71.8117H279.55L272.641 53.1917ZM314.09 83.8657H313.061C311.068 83.8984 309.598 83.4737 308.651 82.5917C307.736 81.6771 307.083 80.3051 306.691 78.4757L305.809 74.6537C305.188 72.0731 304.176 70.1621 302.771 68.9207C301.399 67.6794 299.439 67.0914 296.891 67.1567H290.325L290.374 83.8657H288.316V49.5657H297.479C299.57 49.5657 301.383 49.7944 302.918 50.2517C304.486 50.6764 305.662 51.1991 306.446 51.8197C307.263 52.4404 307.916 53.1917 308.406 54.0737C308.896 54.9231 309.19 55.6581 309.288 56.2787C309.419 56.8667 309.484 57.4874 309.484 58.1407V58.1897C309.484 58.9411 309.353 59.7251 309.092 60.5417C308.831 61.3584 308.39 62.2567 307.769 63.2367C307.148 64.1841 306.152 65.0007 304.78 65.6867C303.441 66.3401 301.824 66.7157 299.929 66.8137C304.045 67.0424 306.691 69.7701 307.867 74.9967L308.798 78.8677C309.125 80.2071 309.598 81.2197 310.219 81.9057C310.872 82.5591 311.836 82.8857 313.11 82.8857H314.09V83.8657ZM307.426 58.4347V57.8957C307.426 57.1444 307.328 56.4421 307.132 55.7887C306.969 55.1354 306.593 54.3677 306.005 53.4857C305.417 52.6037 304.388 51.9014 302.918 51.3787C301.481 50.8234 299.668 50.5457 297.479 50.5457H290.325V66.1767H297.479C299.635 66.1767 301.448 65.8664 302.918 65.2457C304.388 64.6251 305.417 63.8411 306.005 62.8937C306.593 61.9137 306.969 61.0971 307.132 60.4437C307.328 59.7577 307.426 59.0881 307.426 58.4347ZM312.38 66.7157C312.38 61.6851 313.948 57.5201 317.084 54.2207C320.22 50.8887 324.368 49.2227 329.53 49.2227C334.07 49.2227 338.023 50.6274 341.388 53.4367L340.751 54.1717C337.549 51.5584 333.842 50.2517 329.628 50.2517C325.087 50.2517 321.428 51.7381 318.652 54.7107C315.908 57.6507 314.536 61.3584 314.536 65.8337V67.6957C314.536 71.9097 316.006 75.5357 318.946 78.5737C321.918 81.6117 325.479 83.1471 329.628 83.1797C333.874 83.1797 337.566 81.8567 340.702 79.2107L341.339 79.9457C338.137 82.7224 334.185 84.1271 329.481 84.1597C324.679 84.1271 320.628 82.4284 317.329 79.0637C314.029 75.6664 312.38 71.5504 312.38 66.7157ZM365.827 83.8657L361.662 72.7917H347.06L342.944 83.8657H341.866L354.949 48.9287L368.032 83.8657H365.827ZM354.361 53.1917L347.452 71.8117H361.27L354.361 53.1917ZM394.684 49.5657V84.4047L371.017 51.2807V83.8657H370.037V49.5657H372.291L393.704 79.7007V49.5657H394.684Z" fill="white"/>
<path d="M234.951 95.0127V129.013H229.751V95.0127H218.251V94.0127H246.501V95.0127H234.951ZM261.732 129.263H261.682C257.482 129.263 254.232 127.846 251.932 125.013C249.632 122.179 248.482 118.579 248.482 114.213V94.0127H253.682V116.813C253.682 120.279 254.382 123.063 255.782 125.163C257.182 127.263 259.349 128.296 262.282 128.263C262.416 128.263 262.582 128.263 262.782 128.263C262.982 128.229 263.132 128.213 263.232 128.213C266.599 127.879 269.216 126.413 271.082 123.813C272.949 121.213 273.882 118.013 273.882 114.213V94.0127H274.882V114.213C274.882 118.579 273.749 122.179 271.482 125.013C269.216 127.846 265.966 129.263 261.732 129.263ZM299.063 112.013V128.013H317.513V129.013H293.863V94.0127H317.513V95.0127H299.063V111.013H312.763V112.013H299.063ZM330.929 128.313C333.096 128.313 334.979 127.746 336.579 126.613C338.212 125.479 339.029 123.963 339.029 122.063C339.029 120.863 338.796 119.813 338.329 118.913C337.896 118.013 337.196 117.263 336.229 116.663C335.262 116.063 334.362 115.596 333.529 115.263C332.729 114.929 331.629 114.546 330.229 114.113C328.996 113.613 327.962 113.179 327.129 112.813C326.329 112.446 325.346 111.913 324.179 111.213C323.046 110.513 322.146 109.796 321.479 109.063C320.846 108.296 320.296 107.363 319.829 106.263C319.362 105.129 319.162 103.913 319.229 102.613C319.362 99.9127 320.462 97.7627 322.529 96.1627C324.629 94.5627 327.346 93.7627 330.679 93.7627C334.112 93.7627 336.896 94.7794 339.029 96.8127C341.162 98.846 342.046 101.179 341.679 103.813L340.679 103.713C340.979 101.379 340.162 99.3127 338.229 97.5127C336.329 95.6794 333.846 94.7627 330.779 94.7627C328.479 94.7627 326.579 95.296 325.079 96.3627C323.579 97.396 322.829 98.846 322.829 100.713C322.829 101.546 323.012 102.329 323.379 103.063C323.746 103.763 324.112 104.329 324.479 104.763C324.879 105.163 325.529 105.596 326.429 106.063C327.362 106.529 328.012 106.846 328.379 107.013C328.779 107.146 329.529 107.396 330.629 107.763C330.896 107.863 331.079 107.929 331.179 107.963C332.212 108.363 332.996 108.679 333.529 108.913C334.096 109.113 334.879 109.446 335.879 109.913C336.912 110.379 337.712 110.813 338.279 111.213C338.879 111.613 339.546 112.146 340.279 112.813C341.046 113.446 341.612 114.096 341.979 114.763C342.379 115.429 342.712 116.213 342.979 117.113C343.246 118.013 343.362 118.979 343.329 120.013C343.196 122.713 341.929 124.946 339.529 126.713C337.162 128.446 334.379 129.313 331.179 129.313C327.546 129.313 324.479 128.263 321.979 126.163C319.479 124.063 318.446 121.579 318.879 118.713L319.879 118.863C319.479 121.329 320.446 123.529 322.779 125.463C325.112 127.363 327.829 128.313 330.929 128.313ZM352.501 112.013V128.013H370.951V129.013H347.301V94.0127H370.951V95.0127H352.501V111.013H366.201V112.013H352.501ZM400.373 94.0127V129.663L375.923 96.7127V129.013H374.923V94.0127H380.223L399.373 120.463V94.0127H400.373ZM404.528 111.513C404.528 106.379 406.145 102.129 409.378 98.7627C412.645 95.396 416.962 93.7127 422.328 93.7127C426.828 93.7127 430.762 95.1294 434.128 97.9627L433.478 98.7127C430.245 96.0794 426.662 94.7627 422.728 94.7627C418.895 94.7627 415.828 96.0127 413.528 98.5127C411.228 100.979 410.078 104.163 410.078 108.063V115.063C410.078 118.729 411.295 121.846 413.728 124.413C416.162 126.946 419.128 128.229 422.628 128.263C426.628 128.263 430.228 126.929 433.428 124.263L434.078 125.013C430.812 127.846 426.812 129.279 422.078 129.313C417.078 129.246 412.895 127.496 409.528 124.063C406.195 120.629 404.528 116.446 404.528 111.513ZM443.375 94.0127V129.013H438.175V94.0127H443.375ZM467.217 129.013L463.367 118.913H450.267L446.417 129.013H445.317L459.017 93.3627L472.767 129.013H467.217ZM456.817 101.563L450.667 117.913H462.967L456.817 101.563Z" fill="url(#paint1_linear_286_767)"/>
<defs>
<linearGradient id="paint0_linear_286_767" x1="145.812" y1="0" x2="145.812" y2="64" gradientUnits="userSpaceOnUse">
<stop stop-color="white"/>
<stop offset="1" stop-color="white" stop-opacity="0.2"/>
</linearGradient>
<linearGradient id="paint1_linear_286_767" x1="345.529" y1="129.006" x2="345.529" y2="88.0127" gradientUnits="userSpaceOnUse">
<stop stop-color="white"/>
<stop offset="1" stop-color="white" stop-opacity="0.2"/>
</linearGradient>
</defs>
</svg>
