<svg width="1077" height="200" viewBox="0 0 1077 200" fill="none" xmlns="http://www.w3.org/2000/svg">
<path d="M312.813 19.8C317.213 19.8 320.813 20.4667 323.613 21.8C326.48 23.0667 329.013 24.5667 331.213 26.3C332.547 27.3 333.547 27.4333 334.213 26.7C334.947 25.9 335.447 24.0667 335.713 21.2H338.013C337.88 23.8 337.78 27 337.713 30.8C337.647 34.6 337.613 39.6 337.613 45.8H335.313C335.047 42.6667 334.613 39.9333 334.013 37.6C333.48 35.2667 332.68 33.2 331.613 31.4C330.547 29.6 329.013 28 327.013 26.6C325.48 25.3333 323.747 24.3667 321.813 23.7C319.947 22.9667 318.013 22.6 316.013 22.6C312.347 22.6 309.247 23.6333 306.713 25.7C304.247 27.7 302.247 30.3667 300.713 33.7C299.247 36.9667 298.18 40.6333 297.513 44.7C296.913 48.7 296.613 52.7333 296.613 56.8C296.613 60.9333 296.947 65.0333 297.613 69.1C298.28 73.1 299.347 76.7333 300.813 80C302.347 83.2667 304.38 85.9 306.913 87.9C309.447 89.8333 312.547 90.8 316.213 90.8C318.147 90.8 320.047 90.4667 321.913 89.8C323.847 89.1333 325.58 88.1667 327.113 86.9C330.047 84.9 332.013 82.3 333.013 79.1C334.08 75.8333 334.847 71.6 335.313 66.4H337.613C337.613 72.8667 337.647 78.1 337.713 82.1C337.78 86.0333 337.88 89.3333 338.013 92H335.713C335.447 89.1333 334.98 87.3333 334.313 86.6C333.713 85.8667 332.68 85.9667 331.213 86.9C328.747 88.6333 326.113 90.1667 323.313 91.5C320.58 92.7667 317.047 93.4 312.713 93.4C305.447 93.4 299.047 91.9667 293.513 89.1C288.047 86.2333 283.78 82.1 280.713 76.7C277.713 71.3 276.213 64.8 276.213 57.2C276.213 49.7333 277.78 43.2 280.913 37.6C284.047 32 288.347 27.6333 293.813 24.5C299.347 21.3667 305.68 19.8 312.813 19.8ZM355.884 92.7C352.818 92.7 350.284 92.1333 348.284 91C346.284 89.8 344.818 88.2333 343.884 86.3C342.951 84.3667 342.484 82.3 342.484 80.1C342.484 77.3 343.118 75 344.384 73.2C345.718 71.4 347.418 69.9667 349.484 68.9C351.551 67.7667 353.718 66.8333 355.984 66.1C358.251 65.3667 360.418 64.6667 362.484 64C364.551 63.2667 366.218 62.4333 367.484 61.5C368.751 60.5 369.384 59.2333 369.384 57.7V49.4C369.384 47.9333 369.151 46.5667 368.684 45.3C368.284 43.9667 367.518 42.9 366.384 42.1C365.318 41.2333 363.818 40.8 361.884 40.8C360.684 40.8 359.518 40.9667 358.384 41.3C357.251 41.6333 356.251 42.1667 355.384 42.9C357.518 43.6333 359.084 44.7333 360.084 46.2C361.151 47.6667 361.684 49.3 361.684 51.1C361.684 53.5667 360.818 55.5333 359.084 57C357.418 58.4 355.418 59.1 353.084 59.1C350.551 59.1 348.584 58.3 347.184 56.7C345.851 55.1 345.184 53.1667 345.184 50.9C345.184 48.9 345.684 47.2333 346.684 45.9C347.684 44.5 349.151 43.2333 351.084 42.1C353.018 40.9667 355.351 40.1333 358.084 39.6C360.818 39.0667 363.718 38.8 366.784 38.8C369.918 38.8 372.784 39.1333 375.384 39.8C378.051 40.4 380.318 41.6333 382.184 43.5C383.651 45.0333 384.584 46.9 384.984 49.1C385.384 51.3 385.584 54.1 385.584 57.5V84.5C385.584 86.1667 385.718 87.3333 385.984 88C386.318 88.6 386.818 88.9 387.484 88.9C388.084 88.9 388.651 88.7333 389.184 88.4C389.718 88.0667 390.251 87.7 390.784 87.3L391.884 89C390.418 90.2 388.684 91.1333 386.684 91.8C384.684 92.4 382.518 92.7 380.184 92.7C377.518 92.7 375.418 92.3667 373.884 91.7C372.418 90.9667 371.351 90 370.684 88.8C370.084 87.6 369.751 86.2667 369.684 84.8C368.218 87.2 366.384 89.1333 364.184 90.6C361.984 92 359.218 92.7 355.884 92.7ZM364.184 85.5C365.251 85.5 366.184 85.3 366.984 84.9C367.851 84.4333 368.651 83.6667 369.384 82.6V61.8C368.851 62.7333 368.118 63.6333 367.184 64.5C366.318 65.3 365.384 66.1333 364.384 67C363.384 67.8 362.418 68.7 361.484 69.7C360.618 70.7 359.884 71.9 359.284 73.3C358.751 74.6333 358.484 76.2667 358.484 78.2C358.484 80.8 359.018 82.6667 360.084 83.8C361.151 84.9333 362.518 85.5 364.184 85.5ZM441.603 13.8V81C441.603 84 442.036 86.2333 442.903 87.7C443.836 89.1 445.403 89.8 447.603 89.8V91.9C445.536 91.7 443.47 91.6 441.403 91.6C438.403 91.6 435.57 91.7 432.903 91.9C430.236 92.1 427.736 92.4667 425.403 93V25.8C425.403 22.8 424.97 20.6 424.103 19.2C423.303 17.7333 421.736 17 419.403 17V14.9C421.536 15.1 423.603 15.2 425.603 15.2C428.67 15.2 431.536 15.1 434.203 14.9C436.87 14.6333 439.336 14.2667 441.603 13.8ZM414.703 38.8C417.636 38.8 420.17 39.2333 422.303 40.1C424.436 40.9 426.203 42.2667 427.603 44.2L426.403 45.2C425.536 44.0667 424.47 43.2333 423.203 42.7C422.003 42.1667 420.736 41.9 419.403 41.9C416.203 41.9 413.703 43.9 411.903 47.9C410.17 51.8333 409.303 57.9 409.303 66.1C409.303 71.8333 409.636 76.3667 410.303 79.7C411.036 82.9667 412.003 85.2667 413.203 86.6C414.47 87.9333 415.87 88.6 417.403 88.6C419.47 88.6 421.303 87.8333 422.903 86.3C424.57 84.7 425.436 82.6 425.503 80L425.803 84.2C424.603 87.2667 422.936 89.5667 420.803 91.1C418.736 92.6333 416.07 93.4 412.803 93.4C408.936 93.4 405.436 92.4333 402.303 90.5C399.236 88.5667 396.803 85.6 395.003 81.6C393.27 77.5333 392.403 72.2667 392.403 65.8C392.403 59.7333 393.336 54.7333 395.203 50.8C397.136 46.8 399.77 43.8 403.103 41.8C406.503 39.8 410.37 38.8 414.703 38.8ZM461.734 92.7C458.667 92.7 456.134 92.1333 454.134 91C452.134 89.8 450.667 88.2333 449.734 86.3C448.801 84.3667 448.334 82.3 448.334 80.1C448.334 77.3 448.967 75 450.234 73.2C451.567 71.4 453.267 69.9667 455.334 68.9C457.401 67.7667 459.567 66.8333 461.834 66.1C464.101 65.3667 466.267 64.6667 468.334 64C470.401 63.2667 472.067 62.4333 473.334 61.5C474.601 60.5 475.234 59.2333 475.234 57.7V49.4C475.234 47.9333 475.001 46.5667 474.534 45.3C474.134 43.9667 473.367 42.9 472.234 42.1C471.167 41.2333 469.667 40.8 467.734 40.8C466.534 40.8 465.367 40.9667 464.234 41.3C463.101 41.6333 462.101 42.1667 461.234 42.9C463.367 43.6333 464.934 44.7333 465.934 46.2C467.001 47.6667 467.534 49.3 467.534 51.1C467.534 53.5667 466.667 55.5333 464.934 57C463.267 58.4 461.267 59.1 458.934 59.1C456.401 59.1 454.434 58.3 453.034 56.7C451.701 55.1 451.034 53.1667 451.034 50.9C451.034 48.9 451.534 47.2333 452.534 45.9C453.534 44.5 455.001 43.2333 456.934 42.1C458.867 40.9667 461.201 40.1333 463.934 39.6C466.667 39.0667 469.567 38.8 472.634 38.8C475.767 38.8 478.634 39.1333 481.234 39.8C483.901 40.4 486.167 41.6333 488.034 43.5C489.501 45.0333 490.434 46.9 490.834 49.1C491.234 51.3 491.434 54.1 491.434 57.5V84.5C491.434 86.1667 491.567 87.3333 491.834 88C492.167 88.6 492.667 88.9 493.334 88.9C493.934 88.9 494.501 88.7333 495.034 88.4C495.567 88.0667 496.101 87.7 496.634 87.3L497.734 89C496.267 90.2 494.534 91.1333 492.534 91.8C490.534 92.4 488.367 92.7 486.034 92.7C483.367 92.7 481.267 92.3667 479.734 91.7C478.267 90.9667 477.201 90 476.534 88.8C475.934 87.6 475.601 86.2667 475.534 84.8C474.067 87.2 472.234 89.1333 470.034 90.6C467.834 92 465.067 92.7 461.734 92.7ZM470.034 85.5C471.101 85.5 472.034 85.3 472.834 84.9C473.701 84.4333 474.501 83.6667 475.234 82.6V61.8C474.701 62.7333 473.967 63.6333 473.034 64.5C472.167 65.3 471.234 66.1333 470.234 67C469.234 67.8 468.267 68.7 467.334 69.7C466.467 70.7 465.734 71.9 465.134 73.3C464.601 74.6333 464.334 76.2667 464.334 78.2C464.334 80.8 464.867 82.6667 465.934 83.8C467.001 84.9333 468.367 85.5 470.034 85.5ZM566.588 13.8V81C566.588 84 567.022 86.2333 567.888 87.7C568.822 89.1 570.388 89.8 572.588 89.8V91.9C570.522 91.7 568.455 91.6 566.388 91.6C563.388 91.6 560.555 91.7 557.888 91.9C555.222 92.1 552.722 92.4667 550.388 93V25.8C550.388 22.8 549.955 20.6 549.088 19.2C548.288 17.7333 546.722 17 544.388 17V14.9C546.522 15.1 548.588 15.2 550.588 15.2C553.655 15.2 556.522 15.1 559.188 14.9C561.855 14.6333 564.322 14.2667 566.588 13.8ZM539.688 38.8C542.622 38.8 545.155 39.2333 547.288 40.1C549.422 40.9 551.188 42.2667 552.588 44.2L551.388 45.2C550.522 44.0667 549.455 43.2333 548.188 42.7C546.988 42.1667 545.722 41.9 544.388 41.9C541.188 41.9 538.688 43.9 536.888 47.9C535.155 51.8333 534.288 57.9 534.288 66.1C534.288 71.8333 534.622 76.3667 535.288 79.7C536.022 82.9667 536.988 85.2667 538.188 86.6C539.455 87.9333 540.855 88.6 542.388 88.6C544.455 88.6 546.288 87.8333 547.888 86.3C549.555 84.7 550.422 82.6 550.488 80L550.788 84.2C549.588 87.2667 547.922 89.5667 545.788 91.1C543.722 92.6333 541.055 93.4 537.788 93.4C533.922 93.4 530.422 92.4333 527.288 90.5C524.222 88.5667 521.788 85.6 519.988 81.6C518.255 77.5333 517.388 72.2667 517.388 65.8C517.388 59.7333 518.322 54.7333 520.188 50.8C522.122 46.8 524.755 43.8 528.088 41.8C531.488 39.8 535.355 38.8 539.688 38.8ZM586.519 14.1C589.653 14.1 592.086 14.8 593.819 16.2C595.619 17.6 596.519 19.6333 596.519 22.3C596.519 24.9667 595.619 27 593.819 28.4C592.086 29.8 589.653 30.5 586.519 30.5C583.386 30.5 580.919 29.8 579.119 28.4C577.386 27 576.519 24.9667 576.519 22.3C576.519 19.6333 577.386 17.6 579.119 16.2C580.919 14.8 583.386 14.1 586.519 14.1ZM595.319 39.1V82.7C595.319 85.5 595.753 87.4 596.619 88.4C597.553 89.4 599.119 89.9 601.319 89.9V92C599.986 91.9333 598.019 91.8667 595.419 91.8C592.819 91.6667 590.186 91.6 587.519 91.6C584.853 91.6 582.119 91.6667 579.319 91.8C576.586 91.8667 574.519 91.9333 573.119 92V89.9C575.319 89.9 576.853 89.4 577.719 88.4C578.653 87.4 579.119 85.5 579.119 82.7V51.1C579.119 48.1 578.686 45.9 577.819 44.5C576.953 43.0333 575.386 42.3 573.119 42.3V40.2C575.253 40.4 577.319 40.5 579.319 40.5C582.319 40.5 585.153 40.4 587.819 40.2C590.553 39.9333 593.053 39.5667 595.319 39.1ZM622.321 38.8C625.254 38.8 627.787 39.1333 629.921 39.8C632.054 40.4667 633.621 41.1 634.621 41.7C636.954 43.1667 638.354 42.2333 638.821 38.9H640.921C640.787 40.8333 640.687 43.1667 640.621 45.9C640.554 48.5667 640.521 52.1667 640.521 56.7H638.421C638.154 54.2333 637.554 51.8 636.621 49.4C635.754 47 634.454 45.0333 632.721 43.5C630.987 41.9 628.721 41.1 625.921 41.1C624.121 41.1 622.587 41.6333 621.321 42.7C620.121 43.7667 619.521 45.2333 619.521 47.1C619.521 49.1 620.121 50.8667 621.321 52.4C622.521 53.9333 624.054 55.4 625.921 56.8C627.854 58.2 629.787 59.7 631.721 61.3C633.854 62.9 635.754 64.5333 637.421 66.2C639.154 67.8 640.521 69.5667 641.521 71.5C642.587 73.3667 643.121 75.6333 643.121 78.3C643.121 81.3 642.221 83.9333 640.421 86.2C638.621 88.4667 636.254 90.2333 633.321 91.5C630.387 92.7667 627.121 93.4 623.521 93.4C621.321 93.4 619.387 93.1667 617.721 92.7C616.121 92.3 614.787 91.7667 613.721 91.1C612.721 90.6333 611.821 90.2333 611.021 89.9C610.287 89.5667 609.554 89.3333 608.821 89.2C608.154 89.1333 607.587 89.4333 607.121 90.1C606.654 90.7667 606.287 91.6333 606.021 92.7H603.921C604.054 90.5667 604.154 87.9667 604.221 84.9C604.287 81.8333 604.321 77.7667 604.321 72.7H606.421C606.821 76.3 607.554 79.4667 608.621 82.2C609.754 84.9333 611.254 87.1 613.121 88.7C614.987 90.2333 617.187 91 619.721 91C620.854 91 621.887 90.8 622.821 90.4C623.821 89.9333 624.621 89.2333 625.221 88.3C625.887 87.3667 626.221 86.1667 626.221 84.7C626.221 81.7667 625.287 79.3333 623.421 77.4C621.554 75.4 619.254 73.2333 616.521 70.9C614.387 69.1 612.387 67.3333 610.521 65.6C608.721 63.8667 607.221 61.9667 606.021 59.9C604.887 57.8333 604.321 55.5 604.321 52.9C604.321 49.9 605.154 47.3667 606.821 45.3C608.554 43.1667 610.787 41.5667 613.521 40.5C616.254 39.3667 619.187 38.8 622.321 38.8ZM671.478 38.8C677.344 38.8 681.944 40.5333 685.278 44C688.611 47.4667 690.278 53.1667 690.278 61.1H658.178L658.078 59.2H676.678C676.811 55.9333 676.678 52.9333 676.278 50.2C675.878 47.4 675.211 45.1667 674.278 43.5C673.411 41.8333 672.244 41 670.778 41C668.778 41 667.078 42.4333 665.678 45.3C664.278 48.1667 663.411 53.0333 663.078 59.9L663.478 60.6C663.344 61.3333 663.278 62.1 663.278 62.9C663.278 63.6333 663.278 64.4333 663.278 65.3C663.278 69.9 663.878 73.5667 665.078 76.3C666.344 79.0333 667.911 80.9667 669.778 82.1C671.644 83.2333 673.578 83.8 675.578 83.8C676.711 83.8 677.978 83.6333 679.378 83.3C680.778 82.9667 682.244 82.2667 683.778 81.2C685.311 80.1333 686.778 78.5667 688.178 76.5L689.878 77.1C689.144 79.7 687.878 82.2667 686.078 84.8C684.344 87.2667 682.111 89.3333 679.378 91C676.644 92.6 673.344 93.4 669.478 93.4C665.078 93.4 661.144 92.5 657.678 90.7C654.211 88.8333 651.444 85.9333 649.378 82C647.378 78 646.378 72.8 646.378 66.4C646.378 60.0667 647.478 54.8667 649.678 50.8C651.878 46.7333 654.878 43.7333 658.678 41.8C662.478 39.8 666.744 38.8 671.478 38.8ZM729.764 38.8C732.697 38.8 735.031 39.1667 736.764 39.9C738.564 40.6333 739.931 41.5667 740.864 42.7C741.931 43.9667 742.697 45.6 743.164 47.6C743.697 49.6 743.964 52.3 743.964 55.7V82.7C743.964 85.5 744.397 87.4 745.264 88.4C746.197 89.4 747.764 89.9 749.964 89.9V92C748.631 91.9333 746.631 91.8667 743.964 91.8C741.364 91.6667 738.831 91.6 736.364 91.6C733.631 91.6 730.997 91.6667 728.464 91.8C725.931 91.8667 724.031 91.9333 722.764 92V89.9C724.631 89.9 725.931 89.4 726.664 88.4C727.397 87.4 727.764 85.5 727.764 82.7V50.9C727.764 49.3667 727.597 48.0667 727.264 47C726.931 45.8667 726.364 45.0333 725.564 44.5C724.764 43.9 723.631 43.6 722.164 43.6C720.631 43.6 719.197 44 717.864 44.8C716.597 45.6 715.564 46.7333 714.764 48.2C714.031 49.6 713.664 51.2 713.664 53V82.7C713.664 85.5 714.031 87.4 714.764 88.4C715.497 89.4 716.797 89.9 718.664 89.9V92C717.397 91.9333 715.564 91.8667 713.164 91.8C710.764 91.6667 708.331 91.6 705.864 91.6C703.131 91.6 700.397 91.6667 697.664 91.8C694.931 91.8667 692.864 91.9333 691.464 92V89.9C693.664 89.9 695.197 89.4 696.064 88.4C696.997 87.4 697.464 85.5 697.464 82.7V51.1C697.464 48.1 697.031 45.9 696.164 44.5C695.297 43.0333 693.731 42.3 691.464 42.3V40.2C693.597 40.4 695.664 40.5 697.664 40.5C700.664 40.5 703.497 40.4 706.164 40.2C708.897 39.9333 711.397 39.5667 713.664 39.1V47.2C715.264 44.1333 717.431 41.9667 720.164 40.7C722.964 39.4333 726.164 38.8 729.764 38.8ZM713.264 12.8C715.397 12.8 717.197 13.1333 718.664 13.8C720.131 14.4667 721.464 15.2333 722.664 16.1C723.864 16.9667 725.097 17.7333 726.364 18.4C727.631 19.0667 729.097 19.4 730.764 19.4C732.164 19.4 733.497 19 734.764 18.2C736.097 17.3333 737.331 15.9667 738.464 14.1L739.864 14.8C738.731 20.2 737.031 24.0667 734.764 26.4C732.497 28.7333 729.997 29.9 727.264 29.9C725.131 29.9 723.297 29.5667 721.764 28.9C720.297 28.2333 718.964 27.4667 717.764 26.6C716.564 25.6667 715.331 24.8667 714.064 24.2C712.797 23.5333 711.331 23.2 709.664 23.2C708.264 23.2 706.897 23.6333 705.564 24.5C704.297 25.3 703.097 26.6667 701.964 28.6L700.564 27.9C701.697 22.5 703.397 18.6333 705.664 16.3C707.997 13.9667 710.531 12.8 713.264 12.8ZM776.155 38.8C781.155 38.8 785.522 39.7 789.255 41.5C793.055 43.2333 795.989 46.1 798.055 50.1C800.189 54.1 801.255 59.4333 801.255 66.1C801.255 72.7667 800.189 78.1 798.055 82.1C795.989 86.1 793.055 89 789.255 90.8C785.522 92.5333 781.155 93.4 776.155 93.4C771.222 93.4 766.855 92.5333 763.055 90.8C759.322 89 756.389 86.1 754.255 82.1C752.122 78.1 751.055 72.7667 751.055 66.1C751.055 59.4333 752.122 54.1 754.255 50.1C756.389 46.1 759.322 43.2333 763.055 41.5C766.855 39.7 771.222 38.8 776.155 38.8ZM776.155 40.8C773.822 40.8 771.855 42.8 770.255 46.8C768.722 50.7333 767.955 57.1667 767.955 66.1C767.955 75.0333 768.722 81.5 770.255 85.5C771.855 89.4333 773.822 91.4 776.155 91.4C778.555 91.4 780.522 89.4333 782.055 85.5C783.589 81.5 784.355 75.0333 784.355 66.1C784.355 57.1667 783.589 50.7333 782.055 46.8C780.522 42.8 778.555 40.8 776.155 40.8Z" fill="#71675B"/>
<path d="M361.6 120.4C361.6 119.333 360.533 118.8 358.4 118.8C356.267 118.8 351.933 120.867 345.4 125C338.867 129 333.333 133.333 328.8 138C337.733 136.533 345.4 133.867 351.8 130C358.333 126 361.6 122.8 361.6 120.4ZM322.4 148.6C322.4 152.467 325.067 154.4 330.4 154.4C340.533 154.4 353.133 148.933 368.2 138L368.6 141C352.867 152.067 339.4 157.6 328.2 157.6C320.2 157.6 316.2 154.267 316.2 147.6C316.2 140.933 321.133 134 331 126.8C341 119.6 351.267 116 361.8 116C365.133 116 366.8 117 366.8 119C366.8 122.2 363.067 126.067 355.6 130.6C348.267 135 338.6 138.267 326.6 140.4C323.8 143.6 322.4 146.333 322.4 148.6ZM400.656 113.8C401.19 113 401.79 112.6 402.456 112.6C403.256 112.6 403.656 113 403.656 113.8C403.656 114.6 403.256 115.4 402.456 116.2C401.656 117 401.056 119.467 400.656 123.6C400.39 127.6 399.39 132.533 397.656 138.4C395.923 144.133 392.923 149.333 388.656 154C388.656 154.267 388.923 154.4 389.456 154.4C390.39 154.4 393.79 152.8 399.656 149.6L402.456 148.2C407.523 145.4 412.923 142 418.656 138L419.056 141C398.256 154.467 382.323 161.2 371.256 161.2C366.856 161.2 363.656 160.267 361.656 158.4C359.523 156.533 358.456 154.467 358.456 152.2C358.456 149.933 358.99 148.133 360.056 146.8C361.123 145.333 362.456 144.6 364.056 144.6C366.056 144.6 367.056 145.667 367.056 147.8C367.056 149.133 365.99 150.333 363.856 151.4C363.19 151.8 362.856 152.467 362.856 153.4C362.856 154.333 363.656 155.4 365.256 156.6C366.723 157.933 368.323 158.6 370.056 158.6C375.923 158.6 380.923 154.933 385.056 147.6C389.323 140.133 392.056 132.733 393.256 125.4V124.8C380.323 133.6 371.59 139.333 367.056 142L366.456 139.2C388.19 125.2 399.59 116.733 400.656 113.8ZM516.525 100L488.925 111.4L488.125 109.4C491.458 107.4 497.058 104.4 504.925 100.4C512.925 96.4 517.392 94.4 518.325 94.4C519.258 94.4 519.725 95.2 519.725 96.8C519.725 98.2667 518.658 99.3333 516.525 100ZM468.725 118.6C469.392 118.067 471.192 117.933 474.125 118.2C475.592 118.467 476.325 118.8 476.325 119.2C476.325 119.467 475.992 120 475.325 120.8C474.658 121.6 471.458 124.8 465.725 130.4C453.858 142 447.925 149.267 447.925 152.2C447.925 152.867 448.325 153.2 449.125 153.2C453.658 153.2 470.125 143.6 498.525 124.4L503.925 120C504.592 119.467 505.858 119.267 507.725 119.4C509.592 119.533 510.525 120.2 510.525 121.4C510.525 121.933 510.325 122.4 509.925 122.8C491.258 139.6 481.925 149.733 481.925 153.2C481.925 154.667 482.992 155.4 485.125 155.4C487.258 155.4 490.125 154.6 493.725 153C497.325 151.4 500.525 149.8 503.325 148.2C506.125 146.467 509.458 144.4 513.325 142C517.325 139.467 519.458 138.133 519.725 138L520.125 141C513.992 145 506.992 149 499.125 153C491.258 157 485.258 159 481.125 159C477.125 159 475.125 157.333 475.125 154C475.125 149.333 478.725 143.267 485.925 135.8C464.992 149.4 452.058 156.2 447.125 156.2C444.192 156.2 442.725 154.467 442.725 151C442.725 143.667 451.392 132.867 468.725 118.6ZM554.219 118C557.019 118 558.419 119.533 558.419 122.6C558.419 125.533 556.285 129.867 552.019 135.6C567.219 125.067 579.419 119.8 588.619 119.8C592.219 119.8 594.019 121.333 594.019 124.4C594.019 127.467 592.685 130.667 590.019 134C587.352 137.2 584.419 140 581.219 142.4C572.685 148.533 568.419 152.4 568.419 154C568.419 154.933 569.152 155.4 570.619 155.4C572.219 155.4 574.819 154.6 578.419 153C582.019 151.4 585.219 149.8 588.019 148.2C590.819 146.467 594.152 144.4 598.019 142C602.019 139.467 604.152 138.133 604.419 138L604.819 141C586.819 153 574.219 159 567.019 159C563.552 159 561.819 157.333 561.819 154C561.819 151.733 563.219 149.067 566.019 146C568.952 142.8 572.085 139.867 575.419 137.2C584.619 130.267 589.219 125.667 589.219 123.4C589.219 122.733 588.485 122.4 587.019 122.4C582.085 122.4 574.752 125.067 565.019 130.4C555.285 135.733 544.485 144.4 532.619 156.4C531.819 157.2 530.285 157.6 528.019 157.6C525.885 157.6 524.819 157 524.819 155.8C524.819 155.4 529.419 150.467 538.619 141C547.819 131.533 552.419 125.4 552.419 122.6C552.419 121.933 551.952 121.6 551.019 121.6C550.219 121.6 548.419 122.467 545.619 124.2C542.952 125.933 538.752 128.733 533.019 132.6C527.419 136.333 522.619 139.467 518.619 142L518.019 139.2C520.019 137.867 522.752 136 526.219 133.6C529.685 131.2 532.552 129.267 534.819 127.8C537.085 126.2 539.552 124.533 542.219 122.8C547.419 119.6 551.419 118 554.219 118ZM645.189 101.2C645.189 103.067 644.122 104.867 641.989 106.6C639.856 108.333 637.856 109.2 635.989 109.2C634.256 109.2 633.389 108.467 633.389 107C633.389 105.533 634.456 103.867 636.589 102C638.722 100 640.656 99 642.389 99C644.256 99 645.189 99.7333 645.189 101.2ZM628.189 122.8C610.189 139.067 601.189 149.267 601.189 153.4C601.189 154.733 602.122 155.4 603.989 155.4C605.722 155.4 608.389 154.6 611.989 153C615.589 151.4 618.789 149.8 621.589 148.2C624.389 146.467 627.722 144.4 631.589 142C635.589 139.467 637.722 138.133 637.989 138L638.389 141C632.256 145 625.256 149 617.389 153C609.522 157 603.589 159 599.589 159C595.456 159 593.389 157.333 593.389 154C593.389 151.2 595.789 147 600.589 141.4C605.389 135.667 610.189 130.667 614.989 126.4L622.189 120C622.856 119.467 624.122 119.267 625.989 119.4C627.856 119.533 628.789 120.2 628.789 121.4C628.789 121.933 628.589 122.4 628.189 122.8ZM640.183 149.8C640.183 153.267 642.649 155 647.583 155C652.649 155 659.116 153.4 666.983 150.2C674.849 146.867 682.116 142.8 688.783 138L689.183 141C682.249 146.067 674.449 150.267 665.783 153.6C657.249 156.933 649.983 158.6 643.983 158.6C635.983 158.6 631.983 155.667 631.983 149.8C631.983 143.4 636.983 136.333 646.983 128.6C656.983 120.733 666.649 116.8 675.983 116.8C680.516 116.8 682.783 118.467 682.783 121.8C682.783 124.067 681.916 126.2 680.183 128.2C678.583 130.2 676.516 131.2 673.983 131.2C671.449 131.2 670.183 130.533 670.183 129.2C670.183 127.867 670.916 126.667 672.383 125.6C673.849 124.533 675.449 124 677.183 124C679.049 123.867 679.983 123.2 679.983 122C679.983 121.333 679.583 120.733 678.783 120.2C677.983 119.533 676.983 119.2 675.783 119.2C669.383 119.2 661.849 123.067 653.183 130.8C644.516 138.4 640.183 144.733 640.183 149.8ZM693.564 155.6C703.164 155.6 712.497 150.8 721.564 141.2V141C721.564 134.6 724.631 128.6 730.764 123C730.364 121.533 729.231 120.8 727.364 120.8C717.497 120.8 708.764 124.533 701.164 132C693.564 139.333 689.764 145.8 689.764 151.4C689.764 154.2 691.031 155.6 693.564 155.6ZM724.564 117.8C731.631 117.8 735.164 120.133 735.164 124.8C735.164 128.8 732.697 133.6 727.764 139.2V140.8C727.764 145.2 729.697 147.4 733.564 147.4C735.964 147.4 738.631 146.4 741.564 144.4L751.364 138L751.764 141L742.564 146.8C738.297 149.6 734.097 151 729.964 151C725.964 151 723.297 148.933 721.964 144.8C711.297 154.267 701.164 159 691.564 159C685.831 159 682.964 156.267 682.964 150.8C682.964 143.867 687.031 136.667 695.164 129.2C703.297 121.6 713.097 117.8 724.564 117.8Z" fill="#71675B"/>
</svg>
