<svg width="1015" height="295" viewBox="0 0 1015 295" fill="none" xmlns="http://www.w3.org/2000/svg">
<path d="M376.914 150.84C379.714 150.84 382.214 151.14 384.414 151.74C386.614 152.273 388.414 152.973 389.814 153.84C391.547 154.906 392.947 156.273 394.014 157.94C395.081 159.606 395.614 161.54 395.614 163.74C395.614 166.273 394.781 168.406 393.114 170.14C391.447 171.806 389.347 172.64 386.814 172.64C384.214 172.64 382.147 171.873 380.614 170.34C379.147 168.806 378.414 166.84 378.414 164.44C378.414 162.106 379.147 160.14 380.614 158.54C382.081 156.94 383.814 155.873 385.814 155.34C385.281 154.806 384.581 154.373 383.714 154.04C382.914 153.706 381.947 153.54 380.814 153.54C378.547 153.54 376.647 154.206 375.114 155.54C373.581 156.806 372.314 158.573 371.314 160.84C370.381 163.04 369.681 165.54 369.214 168.34C368.814 171.073 368.614 173.906 368.614 176.84C368.614 181.773 369.247 185.64 370.514 188.44C371.847 191.173 373.481 193.106 375.414 194.24C377.414 195.306 379.447 195.84 381.514 195.84C382.581 195.84 383.814 195.673 385.214 195.34C386.614 195.006 388.081 194.306 389.614 193.24C391.214 192.173 392.714 190.573 394.114 188.44L395.814 189.04C395.081 191.64 393.847 194.206 392.114 196.74C390.381 199.273 388.147 201.373 385.414 203.04C382.681 204.64 379.347 205.44 375.414 205.44C371.014 205.44 367.014 204.54 363.414 202.74C359.881 200.94 357.047 198.04 354.914 194.04C352.781 190.04 351.714 184.806 351.714 178.34C351.714 172.073 352.814 166.94 355.014 162.94C357.214 158.873 360.214 155.84 364.014 153.84C367.881 151.84 372.181 150.84 376.914 150.84ZM410.917 204.74C407.85 204.74 405.317 204.173 403.317 203.04C401.317 201.84 399.85 200.273 398.917 198.34C397.983 196.406 397.517 194.34 397.517 192.14C397.517 189.34 398.15 187.04 399.417 185.24C400.75 183.44 402.45 182.006 404.517 180.94C406.583 179.806 408.75 178.873 411.017 178.14C413.283 177.406 415.45 176.706 417.517 176.04C419.583 175.306 421.25 174.473 422.517 173.54C423.783 172.54 424.417 171.273 424.417 169.74V161.44C424.417 159.973 424.183 158.606 423.717 157.34C423.317 156.006 422.55 154.94 421.417 154.14C420.35 153.273 418.85 152.84 416.917 152.84C415.717 152.84 414.55 153.006 413.417 153.34C412.283 153.673 411.283 154.206 410.417 154.94C412.55 155.673 414.117 156.773 415.117 158.24C416.183 159.706 416.717 161.34 416.717 163.14C416.717 165.606 415.85 167.573 414.117 169.04C412.45 170.44 410.45 171.14 408.117 171.14C405.583 171.14 403.617 170.34 402.217 168.74C400.883 167.14 400.217 165.206 400.217 162.94C400.217 160.94 400.717 159.273 401.717 157.94C402.717 156.54 404.183 155.273 406.117 154.14C408.05 153.006 410.383 152.173 413.117 151.64C415.85 151.106 418.75 150.84 421.817 150.84C424.95 150.84 427.817 151.173 430.417 151.84C433.083 152.44 435.35 153.673 437.217 155.54C438.683 157.073 439.617 158.94 440.017 161.14C440.417 163.34 440.617 166.14 440.617 169.54V196.54C440.617 198.206 440.75 199.373 441.017 200.04C441.35 200.64 441.85 200.94 442.517 200.94C443.117 200.94 443.683 200.773 444.217 200.44C444.75 200.106 445.283 199.74 445.817 199.34L446.917 201.04C445.45 202.24 443.717 203.173 441.717 203.84C439.717 204.44 437.55 204.74 435.217 204.74C432.55 204.74 430.45 204.406 428.917 203.74C427.45 203.006 426.383 202.04 425.717 200.84C425.117 199.64 424.783 198.306 424.717 196.84C423.25 199.24 421.417 201.173 419.217 202.64C417.017 204.04 414.25 204.74 410.917 204.74ZM419.217 197.54C420.283 197.54 421.217 197.34 422.017 196.94C422.883 196.473 423.683 195.706 424.417 194.64V173.84C423.883 174.773 423.15 175.673 422.217 176.54C421.35 177.34 420.417 178.173 419.417 179.04C418.417 179.84 417.45 180.74 416.517 181.74C415.65 182.74 414.917 183.94 414.317 185.34C413.783 186.673 413.517 188.306 413.517 190.24C413.517 192.84 414.05 194.706 415.117 195.84C416.183 196.973 417.55 197.54 419.217 197.54ZM496.661 125.84V193.04C496.661 196.04 497.094 198.273 497.961 199.74C498.894 201.14 500.461 201.84 502.661 201.84V203.94C500.594 203.74 498.527 203.64 496.461 203.64C493.461 203.64 490.627 203.74 487.961 203.94C485.294 204.14 482.794 204.506 480.461 205.04V137.84C480.461 134.84 480.027 132.64 479.161 131.24C478.361 129.773 476.794 129.04 474.461 129.04V126.94C476.594 127.14 478.661 127.24 480.661 127.24C483.727 127.24 486.594 127.14 489.261 126.94C491.927 126.673 494.394 126.306 496.661 125.84ZM469.761 150.84C472.694 150.84 475.227 151.273 477.361 152.14C479.494 152.94 481.261 154.306 482.661 156.24L481.461 157.24C480.594 156.106 479.527 155.273 478.261 154.74C477.061 154.206 475.794 153.94 474.461 153.94C471.261 153.94 468.761 155.94 466.961 159.94C465.227 163.873 464.361 169.94 464.361 178.14C464.361 183.873 464.694 188.406 465.361 191.74C466.094 195.006 467.061 197.306 468.261 198.64C469.527 199.973 470.927 200.64 472.461 200.64C474.527 200.64 476.361 199.873 477.961 198.34C479.627 196.74 480.494 194.64 480.561 192.04L480.861 196.24C479.661 199.306 477.994 201.606 475.861 203.14C473.794 204.673 471.127 205.44 467.861 205.44C463.994 205.44 460.494 204.473 457.361 202.54C454.294 200.606 451.861 197.64 450.061 193.64C448.327 189.573 447.461 184.306 447.461 177.84C447.461 171.773 448.394 166.773 450.261 162.84C452.194 158.84 454.827 155.84 458.161 153.84C461.561 151.84 465.427 150.84 469.761 150.84ZM516.817 204.74C513.75 204.74 511.217 204.173 509.217 203.04C507.217 201.84 505.75 200.273 504.817 198.34C503.884 196.406 503.417 194.34 503.417 192.14C503.417 189.34 504.05 187.04 505.317 185.24C506.65 183.44 508.35 182.006 510.417 180.94C512.484 179.806 514.65 178.873 516.917 178.14C519.184 177.406 521.35 176.706 523.417 176.04C525.484 175.306 527.15 174.473 528.417 173.54C529.684 172.54 530.317 171.273 530.317 169.74V161.44C530.317 159.973 530.084 158.606 529.617 157.34C529.217 156.006 528.45 154.94 527.317 154.14C526.25 153.273 524.75 152.84 522.817 152.84C521.617 152.84 520.45 153.006 519.317 153.34C518.184 153.673 517.184 154.206 516.317 154.94C518.45 155.673 520.017 156.773 521.017 158.24C522.084 159.706 522.617 161.34 522.617 163.14C522.617 165.606 521.75 167.573 520.017 169.04C518.35 170.44 516.35 171.14 514.017 171.14C511.484 171.14 509.517 170.34 508.117 168.74C506.784 167.14 506.117 165.206 506.117 162.94C506.117 160.94 506.617 159.273 507.617 157.94C508.617 156.54 510.084 155.273 512.017 154.14C513.95 153.006 516.284 152.173 519.017 151.64C521.75 151.106 524.65 150.84 527.717 150.84C530.85 150.84 533.717 151.173 536.317 151.84C538.984 152.44 541.25 153.673 543.117 155.54C544.584 157.073 545.517 158.94 545.917 161.14C546.317 163.34 546.517 166.14 546.517 169.54V196.54C546.517 198.206 546.65 199.373 546.917 200.04C547.25 200.64 547.75 200.94 548.417 200.94C549.017 200.94 549.584 200.773 550.117 200.44C550.65 200.106 551.184 199.74 551.717 199.34L552.817 201.04C551.35 202.24 549.617 203.173 547.617 203.84C545.617 204.44 543.45 204.74 541.117 204.74C538.45 204.74 536.35 204.406 534.817 203.74C533.35 203.006 532.284 202.04 531.617 200.84C531.017 199.64 530.684 198.306 530.617 196.84C529.15 199.24 527.317 201.173 525.117 202.64C522.917 204.04 520.15 204.74 516.817 204.74ZM525.117 197.54C526.184 197.54 527.117 197.34 527.917 196.94C528.784 196.473 529.584 195.706 530.317 194.64V173.84C529.784 174.773 529.05 175.673 528.117 176.54C527.25 177.34 526.317 178.173 525.317 179.04C524.317 179.84 523.35 180.74 522.417 181.74C521.55 182.74 520.817 183.94 520.217 185.34C519.684 186.673 519.417 188.306 519.417 190.24C519.417 192.84 519.95 194.706 521.017 195.84C522.084 196.973 523.45 197.54 525.117 197.54ZM606.822 150.84C609.089 150.84 610.889 151.34 612.222 152.34C613.556 153.273 614.522 154.506 615.122 156.04C615.722 157.506 616.022 158.973 616.022 160.44C616.022 163.173 615.222 165.373 613.622 167.04C612.089 168.706 610.056 169.54 607.522 169.54C604.856 169.54 602.822 168.94 601.422 167.74C600.022 166.473 599.322 164.806 599.322 162.74C599.322 160.673 599.756 158.973 600.622 157.64C601.556 156.306 602.689 155.173 604.022 154.24C603.022 154.106 602.056 154.24 601.122 154.64C600.056 154.906 599.056 155.406 598.122 156.14C597.189 156.873 596.389 157.74 595.722 158.74C595.056 159.74 594.522 160.84 594.122 162.04C593.789 163.173 593.622 164.34 593.622 165.54V193.74C593.622 196.94 594.322 199.106 595.722 200.24C597.189 201.373 599.489 201.94 602.622 201.94V204.04C601.089 203.973 598.822 203.906 595.822 203.84C592.822 203.706 589.722 203.64 586.522 203.64C583.656 203.64 580.756 203.706 577.822 203.84C574.956 203.906 572.822 203.973 571.422 204.04V201.94C573.622 201.94 575.156 201.44 576.022 200.44C576.956 199.44 577.422 197.54 577.422 194.74V163.14C577.422 160.14 576.989 157.94 576.122 156.54C575.256 155.073 573.689 154.34 571.422 154.34V152.24C573.556 152.44 575.622 152.54 577.622 152.54C580.622 152.54 583.456 152.44 586.122 152.24C588.856 151.973 591.356 151.606 593.622 151.14V159.34C594.422 157.606 595.456 156.106 596.722 154.84C598.056 153.573 599.556 152.606 601.222 151.94C602.956 151.206 604.822 150.84 606.822 150.84ZM640.416 150.84C645.416 150.84 649.783 151.74 653.516 153.54C657.316 155.273 660.25 158.14 662.316 162.14C664.45 166.14 665.516 171.473 665.516 178.14C665.516 184.806 664.45 190.14 662.316 194.14C660.25 198.14 657.316 201.04 653.516 202.84C649.783 204.573 645.416 205.44 640.416 205.44C635.483 205.44 631.116 204.573 627.316 202.84C623.583 201.04 620.65 198.14 618.516 194.14C616.383 190.14 615.316 184.806 615.316 178.14C615.316 171.473 616.383 166.14 618.516 162.14C620.65 158.14 623.583 155.273 627.316 153.54C631.116 151.74 635.483 150.84 640.416 150.84ZM640.416 152.84C638.083 152.84 636.116 154.84 634.516 158.84C632.983 162.773 632.216 169.206 632.216 178.14C632.216 187.073 632.983 193.54 634.516 197.54C636.116 201.473 638.083 203.44 640.416 203.44C642.816 203.44 644.783 201.473 646.316 197.54C647.85 193.54 648.616 187.073 648.616 178.14C648.616 169.206 647.85 162.773 646.316 158.84C644.783 154.84 642.816 152.84 640.416 152.84ZM688.15 150.84C691.083 150.84 693.617 151.173 695.75 151.84C697.883 152.506 699.45 153.14 700.45 153.74C702.783 155.206 704.183 154.273 704.65 150.94H706.75C706.617 152.873 706.517 155.206 706.45 157.94C706.383 160.606 706.35 164.206 706.35 168.74H704.25C703.983 166.273 703.383 163.84 702.45 161.44C701.583 159.04 700.283 157.073 698.55 155.54C696.817 153.94 694.55 153.14 691.75 153.14C689.95 153.14 688.417 153.673 687.15 154.74C685.95 155.806 685.35 157.273 685.35 159.14C685.35 161.14 685.95 162.906 687.15 164.44C688.35 165.973 689.883 167.44 691.75 168.84C693.683 170.24 695.617 171.74 697.55 173.34C699.683 174.94 701.583 176.573 703.25 178.24C704.983 179.84 706.35 181.606 707.35 183.54C708.417 185.406 708.95 187.673 708.95 190.34C708.95 193.34 708.05 195.973 706.25 198.24C704.45 200.506 702.083 202.273 699.15 203.54C696.217 204.806 692.95 205.44 689.35 205.44C687.15 205.44 685.217 205.206 683.55 204.74C681.95 204.34 680.617 203.806 679.55 203.14C678.55 202.673 677.65 202.273 676.85 201.94C676.117 201.606 675.383 201.373 674.65 201.24C673.983 201.173 673.417 201.473 672.95 202.14C672.483 202.806 672.117 203.673 671.85 204.74H669.75C669.883 202.606 669.983 200.006 670.05 196.94C670.117 193.873 670.15 189.806 670.15 184.74H672.25C672.65 188.34 673.383 191.506 674.45 194.24C675.583 196.973 677.083 199.14 678.95 200.74C680.817 202.273 683.017 203.04 685.55 203.04C686.683 203.04 687.717 202.84 688.65 202.44C689.65 201.973 690.45 201.273 691.05 200.34C691.717 199.406 692.05 198.206 692.05 196.74C692.05 193.806 691.117 191.373 689.25 189.44C687.383 187.44 685.083 185.273 682.35 182.94C680.217 181.14 678.217 179.373 676.35 177.64C674.55 175.906 673.05 174.006 671.85 171.94C670.717 169.873 670.15 167.54 670.15 164.94C670.15 161.94 670.983 159.406 672.65 157.34C674.383 155.206 676.617 153.606 679.35 152.54C682.083 151.406 685.017 150.84 688.15 150.84ZM732.832 135.94V152.24H743.632V154.24H732.832V195.14C732.832 196.806 733.132 198.006 733.732 198.74C734.332 199.406 735.232 199.74 736.432 199.74C737.432 199.74 738.466 199.406 739.532 198.74C740.666 198.073 741.699 196.94 742.632 195.34L744.232 196.34C742.966 199.073 741.199 201.273 738.932 202.94C736.732 204.606 733.832 205.44 730.232 205.44C728.032 205.44 726.066 205.14 724.332 204.54C722.666 204.006 721.266 203.173 720.132 202.04C718.666 200.573 717.699 198.773 717.232 196.64C716.832 194.44 716.632 191.606 716.632 188.14V154.24H708.632V152.24H716.632V139.74C719.766 139.74 722.632 139.44 725.232 138.84C727.899 138.24 730.432 137.273 732.832 135.94ZM778.194 150.84C780.46 150.84 782.26 151.34 783.594 152.34C784.927 153.273 785.894 154.506 786.494 156.04C787.094 157.506 787.394 158.973 787.394 160.44C787.394 163.173 786.594 165.373 784.994 167.04C783.46 168.706 781.427 169.54 778.894 169.54C776.227 169.54 774.194 168.94 772.794 167.74C771.394 166.473 770.694 164.806 770.694 162.74C770.694 160.673 771.127 158.973 771.994 157.64C772.927 156.306 774.06 155.173 775.394 154.24C774.394 154.106 773.427 154.24 772.494 154.64C771.427 154.906 770.427 155.406 769.494 156.14C768.56 156.873 767.76 157.74 767.094 158.74C766.427 159.74 765.894 160.84 765.494 162.04C765.16 163.173 764.994 164.34 764.994 165.54V193.74C764.994 196.94 765.694 199.106 767.094 200.24C768.56 201.373 770.86 201.94 773.994 201.94V204.04C772.46 203.973 770.194 203.906 767.194 203.84C764.194 203.706 761.094 203.64 757.894 203.64C755.027 203.64 752.127 203.706 749.194 203.84C746.327 203.906 744.194 203.973 742.794 204.04V201.94C744.994 201.94 746.527 201.44 747.394 200.44C748.327 199.44 748.794 197.54 748.794 194.74V163.14C748.794 160.14 748.36 157.94 747.494 156.54C746.627 155.073 745.06 154.34 742.794 154.34V152.24C744.927 152.44 746.994 152.54 748.994 152.54C751.994 152.54 754.827 152.44 757.494 152.24C760.227 151.973 762.727 151.606 764.994 151.14V159.34C765.794 157.606 766.827 156.106 768.094 154.84C769.427 153.573 770.927 152.606 772.594 151.94C774.327 151.206 776.194 150.84 778.194 150.84ZM811.788 150.84C816.788 150.84 821.154 151.74 824.888 153.54C828.688 155.273 831.621 158.14 833.688 162.14C835.821 166.14 836.888 171.473 836.888 178.14C836.888 184.806 835.821 190.14 833.688 194.14C831.621 198.14 828.688 201.04 824.888 202.84C821.154 204.573 816.788 205.44 811.788 205.44C806.854 205.44 802.488 204.573 798.688 202.84C794.954 201.04 792.021 198.14 789.888 194.14C787.754 190.14 786.688 184.806 786.688 178.14C786.688 171.473 787.754 166.14 789.888 162.14C792.021 158.14 794.954 155.273 798.688 153.54C802.488 151.74 806.854 150.84 811.788 150.84ZM811.788 152.84C809.454 152.84 807.488 154.84 805.888 158.84C804.354 162.773 803.588 169.206 803.588 178.14C803.588 187.073 804.354 193.54 805.888 197.54C807.488 201.473 809.454 203.44 811.788 203.44C814.188 203.44 816.154 201.473 817.688 197.54C819.221 193.54 819.988 187.073 819.988 178.14C819.988 169.206 819.221 162.773 817.688 158.84C816.154 154.84 814.188 152.84 811.788 152.84Z" fill="#71675B"/>
<path d="M622.314 246.707C622.314 245.641 621.247 245.107 619.114 245.107C616.98 245.107 612.647 247.174 606.114 251.307C599.58 255.307 594.047 259.641 589.514 264.307C598.447 262.841 606.114 260.174 612.514 256.307C619.047 252.307 622.314 249.107 622.314 246.707ZM583.114 274.907C583.114 278.774 585.78 280.707 591.114 280.707C601.247 280.707 613.847 275.241 628.914 264.307L629.314 267.307C613.58 278.374 600.114 283.907 588.914 283.907C580.914 283.907 576.914 280.574 576.914 273.907C576.914 267.241 581.847 260.307 591.714 253.107C601.714 245.907 611.98 242.307 622.514 242.307C625.847 242.307 627.514 243.307 627.514 245.307C627.514 248.507 623.78 252.374 616.314 256.907C608.98 261.307 599.314 264.574 587.314 266.707C584.514 269.907 583.114 272.641 583.114 274.907ZM661.37 240.107C661.903 239.307 662.503 238.907 663.17 238.907C663.97 238.907 664.37 239.307 664.37 240.107C664.37 240.907 663.97 241.707 663.17 242.507C662.37 243.307 661.77 245.774 661.37 249.907C661.103 253.907 660.103 258.841 658.37 264.707C656.637 270.441 653.637 275.641 649.37 280.307C649.37 280.574 649.637 280.707 650.17 280.707C651.103 280.707 654.503 279.107 660.37 275.907L663.17 274.507C668.237 271.707 673.637 268.307 679.37 264.307L679.77 267.307C658.97 280.774 643.037 287.507 631.97 287.507C627.57 287.507 624.37 286.574 622.37 284.707C620.237 282.841 619.17 280.774 619.17 278.507C619.17 276.241 619.703 274.441 620.77 273.107C621.837 271.641 623.17 270.907 624.77 270.907C626.77 270.907 627.77 271.974 627.77 274.107C627.77 275.441 626.703 276.641 624.57 277.707C623.903 278.107 623.57 278.774 623.57 279.707C623.57 280.641 624.37 281.707 625.97 282.907C627.437 284.241 629.037 284.907 630.77 284.907C636.637 284.907 641.637 281.241 645.77 273.907C650.037 266.441 652.77 259.041 653.97 251.707V251.107C641.037 259.907 632.303 265.641 627.77 268.307L627.17 265.507C648.903 251.507 660.303 243.041 661.37 240.107ZM777.239 226.307L749.639 237.707L748.839 235.707C752.172 233.707 757.772 230.707 765.639 226.707C773.639 222.707 778.105 220.707 779.039 220.707C779.972 220.707 780.439 221.507 780.439 223.107C780.439 224.574 779.372 225.641 777.239 226.307ZM729.439 244.907C730.105 244.374 731.905 244.241 734.839 244.507C736.305 244.774 737.039 245.107 737.039 245.507C737.039 245.774 736.705 246.307 736.039 247.107C735.372 247.907 732.172 251.107 726.439 256.707C714.572 268.307 708.639 275.574 708.639 278.507C708.639 279.174 709.039 279.507 709.839 279.507C714.372 279.507 730.839 269.907 759.239 250.707L764.639 246.307C765.305 245.774 766.572 245.574 768.439 245.707C770.305 245.841 771.239 246.507 771.239 247.707C771.239 248.241 771.039 248.707 770.639 249.107C751.972 265.907 742.639 276.041 742.639 279.507C742.639 280.974 743.705 281.707 745.839 281.707C747.972 281.707 750.839 280.907 754.439 279.307C758.039 277.707 761.239 276.107 764.039 274.507C766.839 272.774 770.172 270.707 774.039 268.307C778.039 265.774 780.172 264.441 780.439 264.307L780.839 267.307C774.705 271.307 767.705 275.307 759.839 279.307C751.972 283.307 745.972 285.307 741.839 285.307C737.839 285.307 735.839 283.641 735.839 280.307C735.839 275.641 739.439 269.574 746.639 262.107C725.705 275.707 712.772 282.507 707.839 282.507C704.905 282.507 703.439 280.774 703.439 277.307C703.439 269.974 712.105 259.174 729.439 244.907ZM814.932 244.307C817.732 244.307 819.132 245.841 819.132 248.907C819.132 251.841 816.999 256.174 812.732 261.907C827.932 251.374 840.132 246.107 849.332 246.107C852.932 246.107 854.732 247.641 854.732 250.707C854.732 253.774 853.399 256.974 850.732 260.307C848.066 263.507 845.132 266.307 841.932 268.707C833.399 274.841 829.132 278.707 829.132 280.307C829.132 281.241 829.866 281.707 831.332 281.707C832.932 281.707 835.532 280.907 839.132 279.307C842.732 277.707 845.932 276.107 848.732 274.507C851.532 272.774 854.866 270.707 858.732 268.307C862.732 265.774 864.866 264.441 865.132 264.307L865.532 267.307C847.532 279.307 834.932 285.307 827.732 285.307C824.266 285.307 822.532 283.641 822.532 280.307C822.532 278.041 823.932 275.374 826.732 272.307C829.666 269.107 832.799 266.174 836.132 263.507C845.332 256.574 849.932 251.974 849.932 249.707C849.932 249.041 849.199 248.707 847.732 248.707C842.799 248.707 835.466 251.374 825.732 256.707C815.999 262.041 805.199 270.707 793.332 282.707C792.532 283.507 790.999 283.907 788.732 283.907C786.599 283.907 785.532 283.307 785.532 282.107C785.532 281.707 790.132 276.774 799.332 267.307C808.532 257.841 813.132 251.707 813.132 248.907C813.132 248.241 812.666 247.907 811.732 247.907C810.932 247.907 809.132 248.774 806.332 250.507C803.666 252.241 799.466 255.041 793.732 258.907C788.132 262.641 783.332 265.774 779.332 268.307L778.732 265.507C780.732 264.174 783.466 262.307 786.932 259.907C790.399 257.507 793.266 255.574 795.532 254.107C797.799 252.507 800.266 250.841 802.932 249.107C808.132 245.907 812.132 244.307 814.932 244.307ZM905.903 227.507C905.903 229.374 904.836 231.174 902.703 232.907C900.569 234.641 898.569 235.507 896.703 235.507C894.969 235.507 894.103 234.774 894.103 233.307C894.103 231.841 895.169 230.174 897.303 228.307C899.436 226.307 901.369 225.307 903.103 225.307C904.969 225.307 905.903 226.041 905.903 227.507ZM888.903 249.107C870.903 265.374 861.903 275.574 861.903 279.707C861.903 281.041 862.836 281.707 864.703 281.707C866.436 281.707 869.103 280.907 872.703 279.307C876.303 277.707 879.503 276.107 882.303 274.507C885.103 272.774 888.436 270.707 892.303 268.307C896.303 265.774 898.436 264.441 898.703 264.307L899.103 267.307C892.969 271.307 885.969 275.307 878.103 279.307C870.236 283.307 864.303 285.307 860.303 285.307C856.169 285.307 854.103 283.641 854.103 280.307C854.103 277.507 856.503 273.307 861.303 267.707C866.103 261.974 870.903 256.974 875.703 252.707L882.903 246.307C883.569 245.774 884.836 245.574 886.703 245.707C888.569 245.841 889.503 246.507 889.503 247.707C889.503 248.241 889.303 248.707 888.903 249.107ZM900.896 276.107C900.896 279.574 903.363 281.307 908.296 281.307C913.363 281.307 919.83 279.707 927.696 276.507C935.563 273.174 942.83 269.107 949.496 264.307L949.896 267.307C942.963 272.374 935.163 276.574 926.496 279.907C917.963 283.241 910.696 284.907 904.696 284.907C896.696 284.907 892.696 281.974 892.696 276.107C892.696 269.707 897.696 262.641 907.696 254.907C917.696 247.041 927.363 243.107 936.696 243.107C941.23 243.107 943.496 244.774 943.496 248.107C943.496 250.374 942.63 252.507 940.896 254.507C939.296 256.507 937.23 257.507 934.696 257.507C932.163 257.507 930.896 256.841 930.896 255.507C930.896 254.174 931.63 252.974 933.096 251.907C934.563 250.841 936.163 250.307 937.896 250.307C939.763 250.174 940.696 249.507 940.696 248.307C940.696 247.641 940.296 247.041 939.496 246.507C938.696 245.841 937.696 245.507 936.496 245.507C930.096 245.507 922.563 249.374 913.896 257.107C905.23 264.707 900.896 271.041 900.896 276.107ZM954.278 281.907C963.878 281.907 973.211 277.107 982.278 267.507V267.307C982.278 260.907 985.344 254.907 991.478 249.307C991.078 247.841 989.944 247.107 988.078 247.107C978.211 247.107 969.478 250.841 961.878 258.307C954.278 265.641 950.478 272.107 950.478 277.707C950.478 280.507 951.744 281.907 954.278 281.907ZM985.278 244.107C992.344 244.107 995.878 246.441 995.878 251.107C995.878 255.107 993.411 259.907 988.478 265.507V267.107C988.478 271.507 990.411 273.707 994.278 273.707C996.678 273.707 999.344 272.707 1002.28 270.707L1012.08 264.307L1012.48 267.307L1003.28 273.107C999.011 275.907 994.811 277.307 990.678 277.307C986.678 277.307 984.011 275.241 982.678 271.107C972.011 280.574 961.878 285.307 952.278 285.307C946.544 285.307 943.678 282.574 943.678 277.107C943.678 270.174 947.744 262.974 955.878 255.507C964.011 247.907 973.811 244.107 985.278 244.107Z" fill="#71675B"/>
<path d="M134.2 89.4C135.8 89.4 137.067 89.9333 138 91C138.933 92.0667 139.4 93.3333 139.4 94.8C139.4 97.7333 137 101.2 132.2 105.2C127.533 109.2 122.8 113 118 116.6C113.333 120.067 111 122.733 111 124.6C111 125.667 111.867 126.2 113.6 126.2C119.333 126.2 128.067 122.867 139.8 116.2C144.867 113.4 150.267 110 156 106L156.4 109C151.867 111.933 146.8 114.933 141.2 118C138 120 133.333 122.267 127.2 124.8C121.067 127.467 116 128.8 112 128.8C108 128.8 106 127 106 123.4C106 119.8 108.4 115.8 113.2 111.4C118.133 107 123 103.133 127.8 99.8C132.733 96.4667 135.2 94.4 135.2 93.6C135.2 92.6667 134.067 92.2 131.8 92.2C125.667 92.2 116.333 96.0667 103.8 103.8C97.8 107.4 87.9333 115.533 74.2 128.2L25.4 175C15.1333 185 9.53328 190.467 8.59995 191.4C7.53328 192.467 5.86662 193 3.59995 193C1.19995 193 -5.53131e-05 192.533 -5.53131e-05 191.6C-5.53131e-05 189.733 36.9999 154.4 111 85.6L94.8 96.6C88.4 101.133 81.6666 105.6 74.6 110L74 107.2C98.8 90.1333 116.267 78 126.4 70.8C142.533 55.8667 151.6 48.4 153.6 48.4C154.667 48.4 155.2 49 155.2 50.2C155.2 52.0667 148.467 58.1333 135 68.4L96 106.2C112.267 95 125 89.4 134.2 89.4ZM160.873 123.6C170.473 123.6 179.807 118.8 188.873 109.2V109C188.873 102.6 191.94 96.6 198.073 91C197.673 89.5333 196.54 88.8 194.673 88.8C184.807 88.8 176.073 92.5333 168.473 100C160.873 107.333 157.073 113.8 157.073 119.4C157.073 122.2 158.34 123.6 160.873 123.6ZM191.873 85.8C198.94 85.8 202.473 88.1333 202.473 92.8C202.473 96.8 200.007 101.6 195.073 107.2V108.8C195.073 113.2 197.007 115.4 200.873 115.4C203.273 115.4 205.94 114.4 208.873 112.4L218.673 106L219.073 109L209.873 114.8C205.607 117.6 201.407 119 197.273 119C193.273 119 190.607 116.933 189.273 112.8C178.607 122.267 168.473 127 158.873 127C153.14 127 150.273 124.267 150.273 118.8C150.273 111.867 154.34 104.667 162.473 97.2C170.607 89.6 180.407 85.8 191.873 85.8ZM245.769 93.6L255.169 92.4C256.769 92.4 258.035 92.9333 258.969 94C259.902 95.0667 260.369 96.3333 260.369 97.8C260.369 100.733 258.302 103.933 254.169 107.4C250.035 110.867 245.902 114.133 241.769 117.2C237.769 120.267 235.769 122.733 235.769 124.6C235.769 125.667 236.635 126.2 238.369 126.2C244.102 126.2 252.835 122.867 264.569 116.2C269.635 113.4 275.035 110 280.769 106L281.169 109C276.635 111.933 271.569 114.933 265.969 118C262.769 120 258.102 122.267 251.969 124.8C245.835 127.467 240.769 128.8 236.769 128.8C232.769 128.8 230.769 127 230.769 123.4C230.769 119.267 232.902 115.4 237.169 111.8C241.435 108.067 245.635 105 249.769 102.6C254.035 100.067 256.169 98.1333 256.169 96.8C256.169 96.4 255.702 96.2 254.769 96.2L243.569 97.2C241.435 97.2 239.502 97 237.769 96.6C231.369 101.133 224.635 105.6 217.569 110L216.969 107.2L235.969 94C236.102 91.4667 237.702 88.9333 240.769 86.4C243.835 83.8667 246.435 82.6 248.569 82.6C250.702 82.6 251.769 83.2 251.769 84.4C251.769 85.4667 250.502 86.8667 247.969 88.6C245.435 90.3333 244.169 91.6 244.169 92.4C244.169 93.2 244.702 93.6 245.769 93.6ZM281.283 121.6C285.949 121.6 292.283 119.267 300.283 114.6C308.416 109.8 315.416 105 321.283 100.2C327.149 95.2667 330.083 92.4 330.083 91.6C330.083 90.6667 329.083 89.9333 327.083 89.4C325.216 88.8667 323.349 88.6 321.483 88.6C316.016 88.6 309.816 90.7333 302.883 95C296.083 99.2667 290.416 103.867 285.883 108.8C281.483 113.733 279.283 117.4 279.283 119.8C279.283 121 279.949 121.6 281.283 121.6ZM260.483 167C244.749 182.2 236.883 191.867 236.883 196C236.883 197.2 237.616 197.8 239.083 197.8C244.016 197.8 251.616 193 261.883 183.4C272.149 173.8 281.816 162.867 290.883 150.6C300.083 138.333 306.016 128.467 308.683 121C299.749 129.267 283.683 144.6 260.483 167ZM348.883 109C334.083 118.733 323.216 123.6 316.283 123.6C314.283 123.6 312.616 123.067 311.283 122C308.349 129.333 302.549 139.133 293.883 151.4C285.216 163.667 275.416 175 264.483 185.4C253.416 195.933 244.416 201.2 237.483 201.2C235.083 201.2 233.883 199.867 233.883 197.2C233.883 194.667 235.883 190.467 239.883 184.6C243.883 178.867 248.616 173.267 254.083 167.8C259.549 162.333 268.749 152.933 281.683 139.6C294.483 126.4 303.216 117.467 307.883 112.8C296.016 120.667 286.349 124.667 278.883 124.8C275.816 124.8 274.283 123 274.283 119.4C274.283 112.6 278.616 105.333 287.283 97.6C296.083 89.7333 307.416 85.8 321.283 85.8C326.483 85.8 330.816 86.9333 334.283 89.2L335.883 87.8C337.216 86.8667 338.416 86.4 339.483 86.4C342.683 86.4 344.283 87.2 344.283 88.8C344.283 89.2 344.149 89.5333 343.883 89.8C332.016 99.9333 322.149 108.667 314.283 116V117C314.283 119.667 315.416 121 317.683 121C320.483 121 324.949 119.4 331.083 116.2C337.349 113 343.149 109.6 348.483 106L348.883 109ZM368.456 86.6C369.123 86.0667 370.923 85.9333 373.856 86.2C375.323 86.4667 376.056 86.8 376.056 87.2C376.056 87.4667 375.723 88 375.056 88.8C374.39 89.6 371.19 92.8 365.456 98.4C353.59 110 347.656 117.267 347.656 120.2C347.656 120.867 348.056 121.2 348.856 121.2C353.39 121.2 369.856 111.6 398.256 92.4L403.656 88C404.323 87.4667 405.59 87.2667 407.456 87.4C409.323 87.5333 410.256 88.2 410.256 89.4C410.256 89.9333 410.056 90.4 409.656 90.8C390.99 107.6 381.656 117.733 381.656 121.2C381.656 122.667 382.723 123.4 384.856 123.4C386.99 123.4 389.856 122.6 393.456 121C397.056 119.4 400.256 117.8 403.056 116.2C405.856 114.467 409.19 112.4 413.056 110C417.056 107.467 419.19 106.133 419.456 106L419.856 109C413.723 113 406.723 117 398.856 121C390.99 125 384.99 127 380.856 127C376.856 127 374.856 125.333 374.856 122C374.856 117.333 378.456 111.267 385.656 103.8C364.723 117.4 351.79 124.2 346.856 124.2C343.923 124.2 342.456 122.467 342.456 119C342.456 111.667 351.123 100.867 368.456 86.6ZM460.55 88.4C460.55 87.3333 459.483 86.8 457.35 86.8C455.217 86.8 450.883 88.8667 444.35 93C437.817 97 432.283 101.333 427.75 106C436.683 104.533 444.35 101.867 450.75 98C457.283 94 460.55 90.8 460.55 88.4ZM421.35 116.6C421.35 120.467 424.017 122.4 429.35 122.4C439.483 122.4 452.083 116.933 467.15 106L467.55 109C451.817 120.067 438.35 125.6 427.15 125.6C419.15 125.6 415.15 122.267 415.15 115.6C415.15 108.933 420.083 102 429.95 94.8C439.95 87.6 450.217 84 460.75 84C464.083 84 465.75 85 465.75 87C465.75 90.2 462.017 94.0667 454.55 98.6C447.217 103 437.55 106.267 425.55 108.4C422.75 111.6 421.35 114.333 421.35 116.6Z" fill="#71675B"/>
</svg>
