<svg width="492" height="153" viewBox="0 0 492 153" fill="none" xmlns="http://www.w3.org/2000/svg">
<path d="M75.0619 7V41H71.8619V7H59.8619V6H87.0619V7H75.0619ZM116.219 41H115.169C112.736 41.0667 110.986 40.6167 109.919 39.65C108.886 38.6833 108.152 37.15 107.719 35.05L106.869 31.35C106.269 28.7833 105.319 26.9 104.019 25.7C102.719 24.4667 100.836 23.8667 98.3692 23.9H92.2192L92.2692 41H89.0192V6H98.9692C101.136 6 103.036 6.23333 104.669 6.7C106.302 7.13333 107.536 7.66666 108.369 8.3C109.236 8.93333 109.919 9.68333 110.419 10.55C110.919 11.4167 111.236 12.1667 111.369 12.8C111.503 13.4 111.569 14.0333 111.569 14.7V14.75C111.569 15.35 111.503 15.9667 111.369 16.6C111.236 17.2333 110.936 17.9667 110.469 18.8C110.036 19.6333 109.452 20.3833 108.719 21.05C108.019 21.6833 107.036 22.25 105.769 22.75C104.502 23.2167 103.036 23.4833 101.369 23.55C106.036 23.75 108.936 26.5667 110.069 32L110.969 35.9C111.302 37.2667 111.786 38.3 112.419 39C113.053 39.6667 114.003 40 115.269 40H116.219V41ZM108.369 15.3V14.25C108.369 9.41667 105.236 7 98.9692 7H92.2192V22.9H98.9692C101.002 22.9 102.702 22.6 104.069 22C105.469 21.4 106.436 20.6333 106.969 19.7C107.536 18.7667 107.902 17.9667 108.069 17.3C108.269 16.6333 108.369 15.9667 108.369 15.3ZM138.655 41L134.555 30.15H120.355L116.255 41H115.155L128.605 5.35L142.155 41H138.655ZM127.455 11.1L120.755 29.15H134.155L127.455 11.1ZM141.556 41L165.706 7H143.206V6H170.306L146.106 40H168.806V41H141.556ZM186.058 41.45H186.008C180.908 41.45 176.641 39.8 173.208 36.5C169.808 33.1667 168.108 28.85 168.108 23.55V23.45C168.108 18.15 169.808 13.85 173.208 10.55C176.641 7.21666 180.908 5.55 186.008 5.55H186.058C191.158 5.55 195.408 7.21666 198.808 10.55C202.241 13.85 203.958 18.15 203.958 23.45V23.55C203.958 28.85 202.241 33.1667 198.808 36.5C195.408 39.8 191.158 41.45 186.058 41.45ZM171.608 25.2C171.608 29.7333 172.991 33.4167 175.758 36.25C178.558 39.05 181.975 40.45 186.008 40.45H186.058C190.091 40.45 193.491 39.05 196.258 36.25C199.058 33.4167 200.458 29.7167 200.458 25.15V21.8C200.458 17.2667 199.075 13.6 196.308 10.8C193.541 7.96667 190.125 6.55 186.058 6.55H186.008C181.941 6.55 178.525 7.96667 175.758 10.8C172.991 13.6 171.608 17.2667 171.608 21.8V25.2ZM217.934 40.3C220.367 40.3 222.484 39.65 224.284 38.35C226.117 37.05 227.034 35.35 227.034 33.25C227.034 32.1833 226.834 31.2167 226.434 30.35C226.067 29.4833 225.601 28.7833 225.034 28.25C224.501 27.7167 223.751 27.2167 222.784 26.75C221.817 26.2833 220.967 25.9333 220.234 25.7C219.501 25.4667 218.534 25.1833 217.334 24.85C216.134 24.4833 215.117 24.15 214.284 23.85C213.484 23.5167 212.517 23.05 211.384 22.45C210.284 21.85 209.401 21.2167 208.734 20.55C208.067 19.85 207.501 18.9833 207.034 17.95C206.567 16.8833 206.351 15.7333 206.384 14.5C206.417 11.8 207.451 9.66667 209.484 8.1C211.517 6.53333 214.201 5.75 217.534 5.75C220.801 5.75 223.484 6.75 225.584 8.75C227.684 10.7167 228.534 13.0167 228.134 15.65L227.134 15.55C227.501 13.2167 226.734 11.1667 224.834 9.4C222.967 7.63333 220.551 6.75 217.584 6.75C214.984 6.75 212.867 7.35 211.234 8.55C209.601 9.71667 208.784 11.3667 208.784 13.5C208.784 14.4667 209.001 15.35 209.434 16.15C209.867 16.9167 210.317 17.5333 210.784 18C211.251 18.4333 212.017 18.9 213.084 19.4C214.151 19.8667 214.917 20.1833 215.384 20.35C215.851 20.4833 216.701 20.7333 217.934 21.1C218.934 21.4 219.717 21.65 220.284 21.85C220.884 22.05 221.651 22.35 222.584 22.75C223.551 23.1167 224.317 23.4833 224.884 23.85C225.484 24.2167 226.134 24.7 226.834 25.3C227.534 25.8667 228.067 26.4667 228.434 27.1C228.834 27.7333 229.167 28.4833 229.434 29.35C229.701 30.2167 229.817 31.15 229.784 32.15C229.717 34.8167 228.517 37.0167 226.184 38.75C223.884 40.45 221.184 41.3 218.084 41.3C214.451 41.3 211.384 40.2667 208.884 38.2C206.384 36.1333 205.401 33.65 205.934 30.75L206.934 30.9C206.467 33.4667 207.384 35.6833 209.684 37.55C212.017 39.3833 214.767 40.3 217.934 40.3Z" fill="url(#paint0_linear_299_87)"/>
<path opacity="0.6" d="M144.313 97.5857H144.264C142.663 97.5857 141.406 96.9651 140.491 95.7237C139.576 94.5151 139.119 92.8327 139.119 90.6767V90.3337C139.119 88.4717 138.613 87.0017 137.6 85.9237C136.587 84.8457 135.411 84.3067 134.072 84.3067C129.237 84.2741 125.105 82.6407 121.675 79.4067C118.278 76.1401 116.579 71.9261 116.579 66.7647V66.6667C116.579 61.5054 118.245 57.3241 121.577 54.1227C124.942 50.9214 129.123 49.3207 134.121 49.3207H134.17C139.168 49.3207 143.333 50.9214 146.665 54.1227C150.03 57.3241 151.712 61.5054 151.712 66.6667V66.7647C151.712 71.2401 150.34 75.0784 147.596 78.2797C144.852 81.4811 141.112 83.4084 136.375 84.0617C137.518 84.1924 138.58 84.7967 139.56 85.8747C140.573 86.9854 141.079 88.5861 141.079 90.6767V90.7747C141.079 92.6041 141.406 93.9924 142.059 94.9397C142.712 95.9197 143.627 96.4097 144.803 96.4097C145.914 96.3771 146.796 95.9034 147.449 94.9887C148.135 94.1067 148.478 92.9797 148.478 91.6077H149.458C149.458 93.3717 148.968 94.8091 147.988 95.9197C147.041 97.0304 145.816 97.5857 144.313 97.5857ZM118.784 67.5487C118.784 72.1547 120.27 75.9441 123.243 78.9167C126.248 81.8567 129.874 83.3267 134.121 83.3267H134.17C138.417 83.3267 142.026 81.8567 144.999 78.9167C148.004 75.9441 149.507 72.1547 149.507 67.5487V65.8827C149.507 61.2767 148.004 57.5037 144.999 54.5637C142.026 51.5911 138.417 50.1047 134.17 50.1047H134.121C129.874 50.1047 126.248 51.5911 123.243 54.5637C120.27 57.5037 118.784 61.2767 118.784 65.8827V67.5487ZM167.915 84.1107H167.866C163.783 84.1107 160.663 82.7551 158.507 80.0437C156.351 77.3324 155.273 73.9187 155.273 69.8027V49.5657H157.331V70.4397C157.331 74.0657 158.229 77.1037 160.026 79.5537C161.855 81.9711 164.534 83.1797 168.062 83.1797C168.16 83.1797 168.307 83.1797 168.503 83.1797C168.699 83.1471 168.862 83.1307 168.993 83.1307C172.39 82.8367 174.987 81.4321 176.784 78.9167C178.613 76.4014 179.528 73.3471 179.528 69.7537V49.5657H180.508V69.8027C180.508 73.9187 179.43 77.3324 177.274 80.0437C175.118 82.7551 171.998 84.1107 167.915 84.1107ZM187.394 67.2057V82.8857H207.337V83.8657H185.336V49.5657H207.337V50.5457H187.394V66.2257H202.584V67.2057H187.394ZM227.533 49.5657L241.645 80.7297L255.708 49.5657L256.198 49.6147V49.5657H258.256V83.8657H256.198V50.8397L241.008 84.4047L225.867 50.7907V83.8657H224.887V49.5657H227.533ZM284.107 83.8657L279.942 72.7917H265.34L261.224 83.8657H260.146L273.229 48.9287L286.312 83.8657H284.107ZM272.641 53.1917L265.732 71.8117H279.55L272.641 53.1917ZM314.09 83.8657H313.061C311.068 83.8984 309.598 83.4737 308.651 82.5917C307.736 81.6771 307.083 80.3051 306.691 78.4757L305.809 74.6537C305.188 72.0731 304.176 70.1621 302.771 68.9207C301.399 67.6794 299.439 67.0914 296.891 67.1567H290.325L290.374 83.8657H288.316V49.5657H297.479C299.57 49.5657 301.383 49.7944 302.918 50.2517C304.486 50.6764 305.662 51.1991 306.446 51.8197C307.263 52.4404 307.916 53.1917 308.406 54.0737C308.896 54.9231 309.19 55.6581 309.288 56.2787C309.419 56.8667 309.484 57.4874 309.484 58.1407V58.1897C309.484 58.9411 309.353 59.7251 309.092 60.5417C308.831 61.3584 308.39 62.2567 307.769 63.2367C307.148 64.1841 306.152 65.0007 304.78 65.6867C303.441 66.3401 301.824 66.7157 299.929 66.8137C304.045 67.0424 306.691 69.7701 307.867 74.9967L308.798 78.8677C309.125 80.2071 309.598 81.2197 310.219 81.9057C310.872 82.5591 311.836 82.8857 313.11 82.8857H314.09V83.8657ZM307.426 58.4347V57.8957C307.426 57.1444 307.328 56.4421 307.132 55.7887C306.969 55.1354 306.593 54.3677 306.005 53.4857C305.417 52.6037 304.388 51.9014 302.918 51.3787C301.481 50.8234 299.668 50.5457 297.479 50.5457H290.325V66.1767H297.479C299.635 66.1767 301.448 65.8664 302.918 65.2457C304.388 64.6251 305.417 63.8411 306.005 62.8937C306.593 61.9137 306.969 61.0971 307.132 60.4437C307.328 59.7577 307.426 59.0881 307.426 58.4347ZM312.38 66.7157C312.38 61.6851 313.948 57.5201 317.084 54.2207C320.22 50.8887 324.368 49.2227 329.53 49.2227C334.07 49.2227 338.023 50.6274 341.388 53.4367L340.751 54.1717C337.549 51.5584 333.842 50.2517 329.628 50.2517C325.087 50.2517 321.428 51.7381 318.652 54.7107C315.908 57.6507 314.536 61.3584 314.536 65.8337V67.6957C314.536 71.9097 316.006 75.5357 318.946 78.5737C321.918 81.6117 325.479 83.1471 329.628 83.1797C333.874 83.1797 337.566 81.8567 340.702 79.2107L341.339 79.9457C338.137 82.7224 334.185 84.1271 329.481 84.1597C324.679 84.1271 320.628 82.4284 317.329 79.0637C314.029 75.6664 312.38 71.5504 312.38 66.7157ZM365.827 83.8657L361.662 72.7917H347.06L342.944 83.8657H341.866L354.949 48.9287L368.032 83.8657H365.827ZM354.361 53.1917L347.452 71.8117H361.27L354.361 53.1917ZM394.684 49.5657V84.4047L371.017 51.2807V83.8657H370.037V49.5657H372.291L393.704 79.7007V49.5657H394.684Z" fill="white"/>
<path d="M236.527 95.0127V129.013H233.327V95.0127H221.327V94.0127H248.527V95.0127H236.527ZM263.534 129.263H263.484C259.318 129.263 256.101 127.863 253.834 125.063C251.601 122.263 250.484 118.746 250.484 114.513V94.0127H253.734V115.863C253.734 119.463 254.568 122.446 256.234 124.813C257.934 127.146 260.451 128.313 263.784 128.313L264.784 128.213C268.218 127.913 270.851 126.479 272.684 123.913C274.551 121.313 275.484 118.163 275.484 114.463V94.0127H276.484V114.513C276.484 118.746 275.368 122.263 273.134 125.063C270.901 127.863 267.701 129.263 263.534 129.263ZM298.676 112.013V128.013H318.326V129.013H295.426V94.0127H318.326V95.0127H298.676V111.013H313.526V112.013H298.676ZM331.807 128.313C334.24 128.313 336.357 127.663 338.157 126.363C339.99 125.063 340.907 123.363 340.907 121.263C340.907 120.196 340.707 119.229 340.307 118.363C339.94 117.496 339.473 116.796 338.907 116.263C338.373 115.729 337.623 115.229 336.657 114.763C335.69 114.296 334.84 113.946 334.107 113.713C333.373 113.479 332.407 113.196 331.207 112.863C330.007 112.496 328.99 112.163 328.157 111.863C327.357 111.529 326.39 111.063 325.257 110.463C324.157 109.863 323.273 109.229 322.607 108.563C321.94 107.863 321.373 106.996 320.907 105.963C320.44 104.896 320.223 103.746 320.257 102.513C320.29 99.8127 321.323 97.6794 323.357 96.1127C325.39 94.546 328.073 93.7627 331.407 93.7627C334.673 93.7627 337.357 94.7627 339.457 96.7627C341.557 98.7294 342.407 101.029 342.007 103.663L341.007 103.563C341.373 101.229 340.607 99.1794 338.707 97.4127C336.84 95.646 334.423 94.7627 331.457 94.7627C328.857 94.7627 326.74 95.3627 325.107 96.5627C323.473 97.7294 322.657 99.3794 322.657 101.513C322.657 102.479 322.873 103.363 323.307 104.163C323.74 104.929 324.19 105.546 324.657 106.013C325.123 106.446 325.89 106.913 326.957 107.413C328.023 107.879 328.79 108.196 329.257 108.363C329.723 108.496 330.573 108.746 331.807 109.113C332.807 109.413 333.59 109.663 334.157 109.863C334.757 110.063 335.523 110.363 336.457 110.763C337.423 111.129 338.19 111.496 338.757 111.863C339.357 112.229 340.007 112.713 340.707 113.313C341.407 113.879 341.94 114.479 342.307 115.113C342.707 115.746 343.04 116.496 343.307 117.363C343.573 118.229 343.69 119.163 343.657 120.163C343.59 122.829 342.39 125.029 340.057 126.763C337.757 128.463 335.057 129.313 331.957 129.313C328.323 129.313 325.257 128.279 322.757 126.213C320.257 124.146 319.273 121.663 319.807 118.763L320.807 118.913C320.34 121.479 321.257 123.696 323.557 125.563C325.89 127.396 328.64 128.313 331.807 128.313ZM350.844 112.013V128.013H370.494V129.013H347.594V94.0127H370.494V95.0127H350.844V111.013H365.694V112.013H350.844ZM399.685 94.0127V129.613L375.435 96.0627V129.013H374.435V94.0127H377.835L398.685 123.213V94.0127H399.685ZM403.845 111.513C403.845 106.379 405.445 102.129 408.645 98.7627C411.878 95.3627 416.145 93.6627 421.445 93.6627C426.011 93.6627 430.011 95.096 433.445 97.9627L432.795 98.7127C429.528 96.046 425.811 94.7127 421.645 94.7127C417.311 94.7127 413.828 96.1294 411.195 98.9627C408.595 101.763 407.295 105.329 407.295 109.663V113.463C407.295 117.529 408.695 121.013 411.495 123.913C414.295 126.813 417.678 128.263 421.645 128.263C425.878 128.263 429.578 126.929 432.745 124.263L433.395 125.013C430.128 127.846 426.111 129.279 421.345 129.313C416.411 129.279 412.261 127.546 408.895 124.113C405.528 120.646 403.845 116.446 403.845 111.513ZM440.742 94.0127V129.013H437.492V94.0127H440.742ZM466.18 129.013L462.08 118.163H447.88L443.78 129.013H442.68L456.13 93.3627L469.68 129.013H466.18ZM454.98 99.1127L448.28 117.163H461.68L454.98 99.1127Z" fill="url(#paint1_linear_299_87)"/>
<defs>
<linearGradient id="paint0_linear_299_87" x1="145.812" y1="0" x2="145.812" y2="64" gradientUnits="userSpaceOnUse">
<stop stop-color="white"/>
<stop offset="1" stop-color="white" stop-opacity="0.2"/>
</linearGradient>
<linearGradient id="paint1_linear_299_87" x1="345.529" y1="129.006" x2="345.529" y2="88.0127" gradientUnits="userSpaceOnUse">
<stop stop-color="white"/>
<stop offset="1" stop-color="white" stop-opacity="0.2"/>
</linearGradient>
</defs>
</svg>
