<svg width="468" height="196" viewBox="0 0 468 196" fill="none" xmlns="http://www.w3.org/2000/svg">
<path d="M24.127 102.781C17.9095 102.781 12.8965 100.844 9.08789 96.9707C5.31185 93.097 3.42383 87.6771 3.42383 80.7109V41.0625C3.42383 32.7292 5.06771 26.349 8.35547 21.9219C11.6758 17.4948 17.0632 15.2812 24.5176 15.2812C28.5866 15.2812 32.1999 16.0299 35.3574 17.5273C38.5475 19.0247 41.054 21.2708 42.877 24.2656C44.6999 27.2279 45.6113 30.9714 45.6113 35.4961V50.3398H28.5215V37.6445C28.5215 35.0729 28.196 33.3477 27.5449 32.4688C26.8939 31.5573 25.8848 31.1016 24.5176 31.1016C22.9225 31.1016 21.8483 31.6875 21.2949 32.8594C20.7415 33.9987 20.4648 35.5286 20.4648 37.4492V80.4668C20.4648 82.8431 20.8066 84.5195 21.4902 85.4961C22.2064 86.4727 23.2155 86.9609 24.5176 86.9609C25.9824 86.9609 27.0078 86.3587 27.5938 85.1543C28.2122 83.9499 28.5215 82.3874 28.5215 80.4668V64.9883H45.8066V81.248C45.8066 88.8001 43.9023 94.2852 40.0938 97.7031C36.2852 101.089 30.9629 102.781 24.127 102.781ZM62.6055 102.781C58.5365 102.781 55.4277 101.837 53.2793 99.9492C51.1634 98.0612 49.7148 95.4733 48.9336 92.1855C48.1523 88.8978 47.7617 85.1706 47.7617 81.0039C47.7617 76.5443 48.2012 72.8984 49.0801 70.0664C49.959 67.2018 51.4564 64.8581 53.5723 63.0352C55.7207 61.2122 58.6667 59.666 62.4102 58.3965L73.25 54.6855V47.166C73.25 43.2272 71.9642 41.2578 69.3926 41.2578C67.0488 41.2578 65.877 42.8529 65.877 46.043V50.4375H48.8848C48.8522 50.1771 48.8359 49.8516 48.8359 49.4609C48.8359 49.0378 48.8359 48.5658 48.8359 48.0449C48.8359 40.7533 50.5449 35.5938 53.9629 32.5664C57.4134 29.5065 62.8659 27.9766 70.3203 27.9766C74.2266 27.9766 77.7259 28.6764 80.8184 30.0762C83.9108 31.4434 86.3522 33.4779 88.1426 36.1797C89.9655 38.8815 90.877 42.2181 90.877 46.1895V102H73.4941V93.3086C72.6478 96.3685 71.248 98.7122 69.2949 100.34C67.3418 101.967 65.112 102.781 62.6055 102.781ZM69.4902 89.207C70.9225 89.207 71.8991 88.6048 72.4199 87.4004C72.9408 86.196 73.2012 84.8939 73.2012 83.4941V63.084C70.7923 64.0605 68.9206 65.2975 67.5859 66.7949C66.2513 68.2598 65.584 70.4245 65.584 73.2891V82.7129C65.584 87.0423 66.8861 89.207 69.4902 89.207ZM110.02 102.781C106.634 102.781 103.949 102.163 101.963 100.926C99.9772 99.6888 98.4961 97.9798 97.5195 95.7988C96.543 93.6178 95.8919 91.0625 95.5664 88.1328C95.2734 85.2031 95.127 82.0618 95.127 78.709V46.873C95.127 41.2415 96.1198 36.6842 98.1055 33.2012C100.124 29.7181 103.525 27.9766 108.311 27.9766C111.859 27.9766 114.577 28.7415 116.465 30.2715C118.385 31.7689 119.867 33.8685 120.908 36.5703V16.0625H138.682V102H120.908V94.2363C119.932 96.873 118.63 98.9564 117.002 100.486C115.407 102.016 113.079 102.781 110.02 102.781ZM116.709 89.1094C118.369 89.1094 119.476 88.4421 120.029 87.1074C120.615 85.7728 120.908 83.3802 120.908 79.9297V49.1191C120.908 47.3939 120.648 45.7012 120.127 44.041C119.639 42.3483 118.532 41.502 116.807 41.502C114.919 41.502 113.73 42.2995 113.242 43.8945C112.754 45.4896 112.51 47.2311 112.51 49.1191V79.9297C112.51 86.0495 113.91 89.1094 116.709 89.1094ZM156.75 102.781C152.681 102.781 149.572 101.837 147.424 99.9492C145.308 98.0612 143.859 95.4733 143.078 92.1855C142.297 88.8978 141.906 85.1706 141.906 81.0039C141.906 76.5443 142.346 72.8984 143.225 70.0664C144.104 67.2018 145.601 64.8581 147.717 63.0352C149.865 61.2122 152.811 59.666 156.555 58.3965L167.395 54.6855V47.166C167.395 43.2272 166.109 41.2578 163.537 41.2578C161.193 41.2578 160.021 42.8529 160.021 46.043V50.4375H143.029C142.997 50.1771 142.98 49.8516 142.98 49.4609C142.98 49.0378 142.98 48.5658 142.98 48.0449C142.98 40.7533 144.689 35.5938 148.107 32.5664C151.558 29.5065 157.01 27.9766 164.465 27.9766C168.371 27.9766 171.87 28.6764 174.963 30.0762C178.055 31.4434 180.497 33.4779 182.287 36.1797C184.11 38.8815 185.021 42.2181 185.021 46.1895V102H167.639V93.3086C166.792 96.3685 165.393 98.7122 163.439 100.34C161.486 101.967 159.257 102.781 156.75 102.781ZM163.635 89.207C165.067 89.207 166.044 88.6048 166.564 87.4004C167.085 86.196 167.346 84.8939 167.346 83.4941V63.084C164.937 64.0605 163.065 65.2975 161.73 66.7949C160.396 68.2598 159.729 70.4245 159.729 73.2891V82.7129C159.729 87.0423 161.031 89.207 163.635 89.207ZM225.602 102.781C222.216 102.781 219.531 102.163 217.545 100.926C215.559 99.6888 214.078 97.9798 213.102 95.7988C212.125 93.6178 211.474 91.0625 211.148 88.1328C210.855 85.2031 210.709 82.0618 210.709 78.709V46.873C210.709 41.2415 211.702 36.6842 213.688 33.2012C215.706 29.7181 219.107 27.9766 223.893 27.9766C227.441 27.9766 230.159 28.7415 232.047 30.2715C233.967 31.7689 235.449 33.8685 236.49 36.5703V16.0625H254.264V102H236.49V94.2363C235.514 96.873 234.212 98.9564 232.584 100.486C230.989 102.016 228.661 102.781 225.602 102.781ZM232.291 89.1094C233.951 89.1094 235.058 88.4421 235.611 87.1074C236.197 85.7728 236.49 83.3802 236.49 79.9297V49.1191C236.49 47.3939 236.23 45.7012 235.709 44.041C235.221 42.3483 234.114 41.502 232.389 41.502C230.501 41.502 229.312 42.2995 228.824 43.8945C228.336 45.4896 228.092 47.2311 228.092 49.1191V79.9297C228.092 86.0495 229.492 89.1094 232.291 89.1094ZM258.904 24.2656V9.71484H276.385V24.2656H258.904ZM258.904 102V28.7578H276.385V102H258.904ZM301.387 102.781C286.934 102.781 279.707 95.457 279.707 80.8086V74.998H297.285V83.5918C297.285 85.252 297.611 86.554 298.262 87.498C298.913 88.4421 299.954 88.9141 301.387 88.9141C303.926 88.9141 305.195 87.0098 305.195 83.2012C305.195 80.0111 304.528 77.6348 303.193 76.0723C301.859 74.4772 300.231 72.9473 298.311 71.4824L288.984 64.3047C286.055 62.026 283.825 59.6172 282.295 57.0781C280.765 54.5391 280 51.0072 280 46.4824C280 42.2832 280.993 38.8164 282.979 36.082C284.997 33.3477 287.65 31.3132 290.938 29.9785C294.258 28.6439 297.839 27.9766 301.68 27.9766C315.872 27.9766 322.969 35.0566 322.969 49.2168V50.584H304.902V47.8008C304.902 46.3359 304.642 44.9199 304.121 43.5527C303.633 42.1855 302.656 41.502 301.191 41.502C298.717 41.502 297.48 42.804 297.48 45.4082C297.48 48.0449 298.522 50.112 300.605 51.6094L311.445 59.5195C314.831 61.9609 317.663 64.8581 319.941 68.2109C322.253 71.5638 323.408 76.0234 323.408 81.5898C323.408 88.4909 321.439 93.748 317.5 97.3613C313.594 100.975 308.223 102.781 301.387 102.781ZM347.287 102.781C342.079 102.781 337.928 101.805 334.836 99.8516C331.743 97.8984 329.53 95.0827 328.195 91.4043C326.861 87.7259 326.193 83.2988 326.193 78.123V48.6797C326.193 41.8763 328.146 36.7331 332.053 33.25C335.959 29.7344 341.33 27.9766 348.166 27.9766C362.229 27.9766 369.26 34.8776 369.26 48.6797V54.002C369.26 60.4473 369.195 64.7767 369.064 66.9902H343.674V81.1504C343.674 82.4525 343.755 83.7383 343.918 85.0078C344.081 86.2448 344.439 87.2702 344.992 88.084C345.578 88.8978 346.506 89.3047 347.775 89.3047C349.598 89.3047 350.738 88.5234 351.193 86.9609C351.649 85.3659 351.877 83.2988 351.877 80.7598V73.7285H369.26V77.8789C369.26 83.3477 368.576 87.9375 367.209 91.6484C365.874 95.3268 363.596 98.11 360.373 99.998C357.183 101.854 352.821 102.781 347.287 102.781ZM343.576 58.2988H351.877V48.4355C351.877 45.7988 351.551 43.9108 350.9 42.7715C350.249 41.5996 349.273 41.0137 347.971 41.0137C346.571 41.0137 345.48 41.5671 344.699 42.6738C343.951 43.7806 343.576 45.7012 343.576 48.4355V58.2988ZM373.607 102V28.7578H391.088V38.084C391.739 35.2845 392.943 32.9082 394.701 30.9551C396.492 28.9694 398.965 27.9766 402.123 27.9766C407.201 27.9766 410.88 29.5391 413.158 32.6641C415.469 35.7891 416.625 40.0697 416.625 45.5059V102H399.389V47.3125C399.389 45.8802 399.096 44.5618 398.51 43.3574C397.924 42.1204 396.915 41.502 395.482 41.502C394.148 41.502 393.155 41.974 392.504 42.918C391.885 43.8294 391.495 44.985 391.332 46.3848C391.169 47.752 391.088 49.1191 391.088 50.4863V102H373.607ZM403.197 23.3379C400.691 23.3379 398.477 22.9635 396.557 22.2148C394.636 21.4661 392.878 20.7337 391.283 20.0176C389.721 19.2689 388.191 18.8945 386.693 18.8945C385.847 18.8945 385.049 19.1387 384.301 19.627C383.552 20.1152 382.852 20.9779 382.201 22.2148L374.975 18.4062C375.788 16.4206 376.667 14.6139 377.611 12.9863C378.588 11.3262 379.825 10.0078 381.322 9.03125C382.82 8.02214 384.724 7.51758 387.035 7.51758C389.444 7.51758 391.576 7.85938 393.432 8.54297C395.287 9.22656 396.964 9.91016 398.461 10.5938C399.991 11.2773 401.391 11.6191 402.66 11.6191C403.539 11.6191 404.353 11.3424 405.102 10.7891C405.85 10.2357 406.55 9.29167 407.201 7.95703L415.307 10.5938C414.525 12.7747 413.663 14.8418 412.719 16.7949C411.775 18.748 410.554 20.3268 409.057 21.5312C407.592 22.7357 405.639 23.3379 403.197 23.3379ZM442.799 102.781C428.215 102.781 420.924 95.2129 420.924 80.0762V50.6816C420.924 43.7806 422.861 38.2793 426.734 34.1777C430.608 30.0436 435.963 27.9766 442.799 27.9766C449.667 27.9766 455.038 30.0436 458.912 34.1777C462.786 38.2793 464.723 43.7806 464.723 50.6816V80.0762C464.723 95.2129 457.415 102.781 442.799 102.781ZM442.799 89.3047C444.264 89.3047 445.305 88.7839 445.924 87.7422C446.575 86.668 446.9 85.3171 446.9 83.6895V47.8984C446.9 43.6341 445.533 41.502 442.799 41.502C440.064 41.502 438.697 43.6341 438.697 47.8984V83.6895C438.697 85.3171 439.007 86.668 439.625 87.7422C440.276 88.7839 441.334 89.3047 442.799 89.3047Z" fill="#51483F"/>
<path d="M43.8 138.72C42.4133 138.827 40.76 139.36 38.84 140.32C37.0267 141.28 35.32 142.4 33.72 143.68C32.2267 144.853 31.48 145.867 31.48 146.72C31.48 146.933 31.5867 147.04 31.8 147.04H32.12C32.8667 147.04 34.3067 146.773 36.44 146.24C38.5733 145.707 40.6 144.907 42.52 143.84C44.44 142.773 45.4 141.44 45.4 139.84C45.4 139.627 45.24 139.413 44.92 139.2C44.7067 138.88 44.3333 138.72 43.8 138.72ZM78.84 148H79.32C79.4267 148 79.5333 148 79.64 148C79.7467 148 79.8 148.053 79.8 148.16C79.8 148.48 77.4 150.133 72.6 153.12C67.8 156.107 62.0933 158.987 55.48 161.76C48.9733 164.533 42.7867 166.133 36.92 166.56H35.48C31.7467 166.56 28.8667 165.92 26.84 164.64C24.92 163.36 23.5867 161.76 22.84 159.84C21.9867 158.027 21.56 156.213 21.56 154.4C21.56 150.56 22.84 147.147 25.4 144.16C28.0667 141.067 31.1067 138.667 34.52 136.96C37.9333 135.147 40.92 134.24 43.48 134.24C45.08 134.24 46.2533 134.507 47 135.04C47.7467 135.573 48.1733 136.16 48.28 136.8C48.4933 137.44 48.6 137.973 48.6 138.4C48.6 141.067 46.9467 143.733 43.64 146.4C40.44 148.96 36.1733 150.24 30.84 150.24C28.92 150.24 27.8 151.84 27.48 155.04C27.48 160.267 30.84 162.933 37.56 163.04C38.3067 163.04 39.0533 162.987 39.8 162.88C46.4133 162.133 52.8667 160.373 59.16 157.6C65.4533 154.933 70.5733 152.48 74.52 150.24C76.44 149.173 77.88 148.427 78.84 148ZM75.1237 190.24C77.2571 190.027 79.6571 188.747 82.3238 186.4C84.9904 184.053 87.3371 181.44 89.3638 178.56C91.3904 175.68 92.4571 173.387 92.5638 171.68V171.04H92.4038C91.9771 171.04 90.8571 171.893 89.0438 173.6C87.2304 175.307 85.2571 177.28 83.1237 179.52C80.9904 181.867 79.1238 184.053 77.5237 186.08C75.8171 188.107 74.9637 189.44 74.9637 190.08L75.1237 190.24ZM82.1638 146.4C82.1638 146.827 82.3238 147.04 82.6438 147.04C83.3904 147.04 85.2571 146.24 88.2438 144.64C91.2304 142.933 94.4304 140.96 97.8438 138.72C101.364 136.373 104.404 134.133 106.964 132C109.524 129.867 110.804 128.32 110.804 127.36C110.804 126.72 110.484 126.4 109.844 126.4H109.524C107.924 126.4 104.884 127.627 100.404 130.08C96.0304 132.427 91.8704 135.2 87.9238 138.4C84.0838 141.493 82.1638 144.16 82.1638 146.4ZM134.484 148C135.017 148 135.497 148.053 135.924 148.16C135.924 148.267 135.07 148.587 133.364 149.12C130.484 149.973 125.897 151.733 119.604 154.4C113.31 157.173 106.11 161.28 98.0038 166.72C97.5771 172.8 95.8704 177.867 92.8838 181.92C89.8971 185.973 86.6971 189.013 83.2838 191.04C79.8704 193.067 77.4704 194.08 76.0837 194.08C74.8037 194.08 73.7371 193.653 72.8837 192.8C72.2437 192.053 71.9237 191.2 71.9237 190.24V189.6C71.9237 187.467 73.3104 184.96 76.0837 182.08C78.7504 179.2 81.6304 176.427 84.7238 173.76C86.8571 171.84 88.6704 170.133 90.1638 168.64C91.6571 167.147 92.4038 166.027 92.4038 165.28C92.4038 164.427 91.8171 163.413 90.6438 162.24C89.5771 161.173 88.2438 160 86.6438 158.72C84.4038 157.013 82.2704 155.093 80.2438 152.96C78.3238 150.933 77.3637 148.693 77.3637 146.24C77.3637 141.973 79.3904 138.08 83.4438 134.56C87.6038 131.04 92.1904 128.213 97.2038 126.08C102.324 123.84 106.324 122.72 109.204 122.72C112.404 122.72 114.164 124 114.484 126.56C114.484 128.053 112.99 130.24 110.004 133.12C107.017 136 103.39 138.88 99.1238 141.76C94.9638 144.64 90.8571 146.88 86.8038 148.48C86.5904 148.587 86.4304 148.64 86.3238 148.64C85.2571 149.067 84.7238 149.493 84.7238 149.92C84.7238 150.773 85.8438 151.947 88.0838 153.44C89.5771 154.613 91.1771 156 92.8838 157.6C94.5904 159.2 95.9771 161.12 97.0438 163.36H97.2038C97.2038 163.253 97.2571 163.2 97.3638 163.2C97.8971 162.88 99.2304 162.133 101.364 160.96C104.137 159.467 107.55 157.707 111.604 155.68C115.657 153.653 119.657 151.84 123.604 150.24C127.657 148.64 130.857 147.84 133.204 147.84C133.63 147.84 134.057 147.893 134.484 148ZM199.874 116.48C201.367 116.48 202.114 117.013 202.114 118.08V118.56C201.9 119.733 201.1 121.013 199.714 122.4C198.434 123.787 196.78 125.013 194.754 126.08C194.007 126.4 193.207 126.987 192.354 127.84C191.5 128.587 190.647 129.387 189.794 130.24C189.047 131.093 188.3 131.84 187.554 132.48C186.914 133.013 186.434 133.28 186.114 133.28C185.9 133.28 185.74 133.227 185.634 133.12C185.634 132.907 185.634 132.693 185.634 132.48V132C185.954 130.507 187.02 128.587 188.834 126.24C190.647 123.787 192.62 121.547 194.754 119.52C196.994 117.493 198.7 116.48 199.874 116.48ZM230.114 148C230.22 148 230.274 148 230.274 148C230.38 148.107 230.434 148.16 230.434 148.16C230.434 148.267 230.434 148.373 230.434 148.48C230.434 149.44 229.1 151.84 226.434 155.68C223.874 159.52 220.674 163.68 216.834 168.16C213.1 172.747 209.314 176.747 205.474 180.16C201.634 183.573 198.54 185.28 196.194 185.28C196.087 185.28 195.767 185.227 195.234 185.12C194.7 185.013 194.114 184.693 193.474 184.16C192.834 183.627 192.247 182.827 191.714 181.76C191.18 180.693 190.914 179.2 190.914 177.28C190.914 172.267 192.3 166.24 195.074 159.2C197.954 152.267 200.354 146.88 202.274 143.04C203.127 141.227 203.554 140.213 203.554 140C203.234 140 201.634 141.493 198.754 144.48C196.087 147.253 192.887 150.4 189.154 153.92C185.42 157.547 181.74 160.693 178.114 163.36C174.487 166.133 171.5 167.52 169.154 167.52C167.767 167.52 166.487 166.88 165.314 165.6C164.14 164.32 163.554 162.453 163.554 160C163.554 157.333 164.14 154.453 165.314 151.36C166.38 148.267 167.714 145.6 169.314 143.36C170.914 141.013 172.407 139.84 173.794 139.84C174.114 139.84 174.487 139.947 174.914 140.16C175.447 140.373 175.714 140.747 175.714 141.28C175.714 141.707 175.127 143.2 173.954 145.76C172.887 148.32 171.714 151.2 170.434 154.4C169.26 157.707 168.674 160.32 168.674 162.24C168.674 163.84 169.26 164.64 170.434 164.64C172.674 164.64 176.247 162.347 181.154 157.76C186.167 153.28 191.074 148.587 195.874 143.68C198.86 140.587 201.42 138.027 203.554 136C205.794 133.867 207.234 132.8 207.874 132.8C208.087 132.907 208.3 133.013 208.514 133.12C208.727 133.227 208.887 133.387 208.994 133.6C209.42 133.813 209.634 134.187 209.634 134.72V135.04C209.634 136.32 208.247 140.267 205.474 146.88C203.234 152.533 200.994 158.507 198.754 164.8C196.514 171.2 195.394 176.213 195.394 179.84C195.394 181.333 195.98 182.08 197.154 182.08H197.634C199.34 182.08 201.9 180.373 205.314 176.96C208.834 173.547 212.46 169.653 216.194 165.28C219.927 160.907 223.127 156.96 225.794 153.44C228.46 150.027 229.794 148.267 229.794 148.16L229.954 148H230.114ZM294.08 148C294.187 148 294.24 148.053 294.24 148.16V148.32H294.08C293.76 148.853 292.747 150.4 291.04 152.96C288.8 156.16 285.973 159.787 282.56 163.84C279.147 167.893 275.52 171.467 271.68 174.56C267.84 177.76 264.32 179.36 261.12 179.36C258.56 179.36 256.907 178.4 256.16 176.48C255.52 174.667 255.2 172.96 255.2 171.36C255.2 166.347 256.373 160.533 258.72 153.92C261.173 147.413 263.467 141.813 265.6 137.12C267.307 133.387 268.16 131.2 268.16 130.56C268.16 130.133 267.947 129.92 267.52 129.92C265.707 129.92 262.613 132 258.24 136.16C253.973 140.32 249.493 144.853 244.8 149.76C240.96 153.813 237.547 157.28 234.56 160.16C231.573 163.147 229.547 164.64 228.48 164.64C226.56 164.64 225.6 163.413 225.6 160.96V160.16C225.6 157.387 226.24 154.027 227.52 150.08C228.693 146.24 230.133 142.827 231.84 139.84C233.547 136.853 235.147 135.36 236.64 135.36C238.24 135.36 239.04 135.947 239.04 137.12C239.04 137.653 238.667 138.72 237.92 140.32C237.28 141.92 236.533 143.733 235.68 145.76C234.4 148.427 233.28 150.987 232.32 153.44C231.36 155.893 230.88 157.653 230.88 158.72V158.88C231.2 158.88 232.16 158.08 233.76 156.48C235.36 154.88 237.387 152.853 239.84 150.4C244.96 145.067 250.453 139.68 256.32 134.24C262.187 128.8 266.347 126.08 268.8 126.08C269.867 126.187 270.72 126.613 271.36 127.36C272.107 128 272.48 128.853 272.48 129.92C272.48 131.307 271.947 133.547 270.88 136.64C269.92 139.627 268.693 142.987 267.2 146.72C265.387 151.627 263.68 156.48 262.08 161.28C260.48 166.08 259.68 169.92 259.68 172.8C259.68 174.08 259.84 174.933 260.16 175.36C260.48 175.893 260.8 176.213 261.12 176.32C261.547 176.533 261.867 176.64 262.08 176.64C265.173 176.64 268.853 174.453 273.12 170.08C277.493 165.707 281.6 161.28 285.44 156.8C287.573 154.24 289.387 152.107 290.88 150.4C292.48 148.8 293.547 148 294.08 148ZM336.379 148C336.592 148 336.699 148 336.699 148C336.805 148 336.859 148.053 336.859 148.16C336.859 148.373 335.525 149.653 332.859 152C330.192 154.347 326.832 156.96 322.779 159.84C318.832 162.827 314.725 165.44 310.459 167.68C306.192 170.027 302.512 171.2 299.419 171.2H298.459C297.499 171.2 296.645 171.093 295.899 170.88C291.739 169.28 289.659 165.867 289.659 160.64C289.659 157.973 290.192 154.933 291.259 151.52C292.219 148.107 293.445 145.12 294.939 142.56C296.539 139.893 298.085 138.56 299.579 138.56C300.219 138.667 300.752 138.933 301.179 139.36C301.605 139.787 301.819 140.32 301.819 140.96C301.819 142.133 301.125 144.107 299.739 146.88C298.779 149.013 297.819 151.307 296.859 153.76C295.899 156.32 295.419 158.827 295.419 161.28C295.419 163.627 296.059 165.227 297.339 166.08C298.725 167.04 300.485 167.52 302.619 167.52C306.032 167.52 310.139 165.92 314.939 162.72C319.845 159.627 324.272 156.533 328.219 153.44C332.699 149.813 335.419 148 336.379 148ZM302.139 130.88C300.859 130.24 300.219 129.333 300.219 128.16V127.2C300.219 125.813 300.859 124.693 302.139 123.84C302.885 123.413 303.632 123.2 304.379 123.2C305.019 123.2 305.659 123.36 306.299 123.68C307.685 124.64 308.379 125.867 308.379 127.36C308.379 128.427 307.952 129.387 307.099 130.24C306.352 130.987 305.445 131.36 304.379 131.36C303.632 131.36 302.885 131.2 302.139 130.88ZM408.003 148C408.216 148 408.323 148 408.323 148C408.429 148.107 408.536 148.213 408.643 148.32C408.643 148.747 405.976 150.773 400.643 154.4C395.416 158.027 388.909 162.027 381.123 166.4C373.443 170.88 365.709 174.773 357.923 178.08C350.136 181.493 343.683 183.2 338.563 183.2C337.176 183.2 335.843 182.987 334.562 182.56C332.109 181.6 330.296 180.053 329.122 177.92C327.949 175.893 327.362 173.387 327.362 170.4C327.362 163.467 329.549 156.213 333.922 148.64C338.296 141.173 343.523 134.827 349.603 129.6C355.683 124.373 361.283 121.76 366.403 121.76C369.069 121.76 371.096 122.613 372.483 124.32C373.869 126.027 374.562 128.16 374.562 130.72C374.562 133.28 373.923 135.84 372.643 138.4C371.469 140.96 370.083 143.093 368.483 144.8C366.989 146.507 365.709 147.36 364.643 147.36C364.429 147.36 364.216 147.307 364.003 147.2C363.789 147.093 363.629 146.933 363.523 146.72C363.203 146.293 363.043 145.867 363.043 145.44C363.043 143.947 364.109 142.08 366.243 139.84C367.523 138.347 368.749 136.693 369.923 134.88C371.096 132.96 371.683 130.88 371.683 128.64V128.16C371.683 127.2 371.309 126.347 370.563 125.6C369.816 124.853 368.963 124.48 368.003 124.48H367.523C362.723 124.48 357.549 127.253 352.003 132.8C346.456 138.347 341.709 144.8 337.763 152.16C333.922 159.627 332.002 166.293 332.002 172.16C332.002 175.36 332.696 177.547 334.082 178.72C335.469 179.893 337.389 180.48 339.842 180.48C347.523 179.947 356.909 176.747 368.003 170.88C379.096 165.013 388.749 159.467 396.963 154.24C403.469 150.08 407.149 148 408.003 148ZM408.693 167.36C409.866 167.36 411.306 166.453 413.013 164.64C414.826 162.827 416.426 160.373 417.813 157.28C419.199 154.187 419.893 150.773 419.893 147.04V146.24C419.893 145.707 419.786 145.12 419.573 144.48C419.359 143.733 419.039 143.093 418.613 142.56C418.293 142.027 417.759 141.76 417.013 141.76C416.053 141.76 414.719 143.147 413.013 145.92C411.413 148.587 409.973 151.627 408.693 155.04C407.413 158.56 406.773 161.493 406.773 163.84C406.773 166.08 407.413 167.253 408.693 167.36ZM451.733 147.68C452.693 147.68 453.173 147.893 453.173 148.32C453.173 148.533 452.906 148.8 452.373 149.12C451.839 149.547 450.933 149.92 449.653 150.24C448.373 150.56 446.559 150.72 444.213 150.72C438.773 150.72 434.346 149.867 430.933 148.16C427.626 146.56 425.226 145.12 423.733 143.84C422.879 143.093 422.293 142.72 421.973 142.72C421.866 142.827 421.759 142.933 421.653 143.04C421.653 143.04 421.653 143.093 421.653 143.2C422.186 144.693 422.506 146.293 422.613 148C422.613 153.973 420.853 159.147 417.333 163.52C413.813 168 410.399 170.24 407.093 170.24C403.679 170.24 401.919 167.627 401.812 162.4C401.919 158.133 402.986 153.813 405.012 149.44C407.039 145.173 409.493 141.973 412.373 139.84C412.373 139.733 412.426 139.68 412.533 139.68C413.173 139.147 413.599 138.773 413.813 138.56C414.133 138.347 414.293 138.08 414.293 137.76V137.6C414.293 137.387 414.293 137.067 414.293 136.64C414.399 136.107 414.559 135.68 414.773 135.36C414.986 134.933 415.306 134.72 415.733 134.72C416.906 134.72 418.666 135.893 421.013 138.24C423.359 140.373 426.399 142.667 430.133 145.12C433.973 147.467 438.559 148.64 443.893 148.64C446.453 148.64 448.266 148.427 449.333 148C450.186 147.787 450.986 147.68 451.733 147.68Z" fill="#51483F"/>
</svg>
