<svg width="636" height="120" viewBox="0 0 636 120" fill="none" xmlns="http://www.w3.org/2000/svg">
<path d="M115.086 102V16.0625H149.461V32.6641H132.566V49.4121H148.777V65.5742H132.566V85.252H150.584V102H115.086ZM154.297 102V16.0625H171.484V87.3516H189.16V102H154.297ZM213.48 102V16.0625H236.186C240.938 16.0625 244.698 17.1204 247.465 19.2363C250.264 21.3522 252.266 24.3633 253.471 28.2695C254.675 32.1758 255.277 36.8307 255.277 42.2344C255.277 47.4427 254.773 51.9837 253.764 55.8574C252.755 59.6986 250.948 62.6771 248.344 64.793C245.772 66.9089 242.11 67.9668 237.357 67.9668H230.375V102H213.48ZM230.375 52.5371H231.352C234.542 52.5371 236.495 51.6419 237.211 49.8516C237.927 48.0612 238.285 45.4245 238.285 41.9414C238.285 38.6862 237.927 36.1797 237.211 34.4219C236.527 32.6315 234.883 31.7363 232.279 31.7363H230.375V52.5371ZM258.746 102V16.0625H285.113C289.508 16.0625 292.828 17.0716 295.074 19.0898C297.32 21.0755 298.818 23.875 299.566 27.4883C300.348 31.069 300.738 35.2845 300.738 40.1348C300.738 44.8223 300.136 48.5658 298.932 51.3652C297.76 54.1647 295.53 56.1016 292.242 57.1758C294.944 57.7292 296.832 59.0801 297.906 61.2285C299.013 63.3444 299.566 66.0951 299.566 69.4805V102H282.623V68.3574C282.623 65.8509 282.102 64.3047 281.061 63.7188C280.051 63.1003 278.408 62.791 276.129 62.791V102H258.746ZM276.227 47.8984H280.377C282.753 47.8984 283.941 45.3105 283.941 40.1348C283.941 36.7819 283.681 34.5846 283.16 33.543C282.639 32.5013 281.663 31.9805 280.23 31.9805H276.227V47.8984ZM324.91 102.781C318.042 102.781 312.785 100.714 309.139 96.5801C305.525 92.4134 303.719 86.4076 303.719 78.5625V37.7422C303.719 30.3854 305.509 24.8027 309.09 20.9941C312.703 17.1855 317.977 15.2812 324.91 15.2812C331.844 15.2812 337.101 17.1855 340.682 20.9941C344.295 24.8027 346.102 30.3854 346.102 37.7422V78.5625C346.102 86.4076 344.279 92.4134 340.633 96.5801C337.02 100.714 331.779 102.781 324.91 102.781ZM325.057 86.9609C327.661 86.9609 328.963 84.4382 328.963 79.3926V37.4492C328.963 33.2174 327.693 31.1016 325.154 31.1016C322.29 31.1016 320.857 33.2663 320.857 37.5957V79.4902C320.857 82.1595 321.183 84.0801 321.834 85.252C322.485 86.3913 323.559 86.9609 325.057 86.9609ZM371.055 102.781C364.837 102.781 359.824 100.844 356.016 96.9707C352.24 93.097 350.352 87.6771 350.352 80.7109V41.0625C350.352 32.7292 351.995 26.349 355.283 21.9219C358.604 17.4948 363.991 15.2812 371.445 15.2812C375.514 15.2812 379.128 16.0299 382.285 17.5273C385.475 19.0247 387.982 21.2708 389.805 24.2656C391.628 27.2279 392.539 30.9714 392.539 35.4961V50.3398H375.449V37.6445C375.449 35.0729 375.124 33.3477 374.473 32.4688C373.822 31.5573 372.812 31.1016 371.445 31.1016C369.85 31.1016 368.776 31.6875 368.223 32.8594C367.669 33.9987 367.393 35.5286 367.393 37.4492V80.4668C367.393 82.8431 367.734 84.5195 368.418 85.4961C369.134 86.4727 370.143 86.9609 371.445 86.9609C372.91 86.9609 373.936 86.3587 374.521 85.1543C375.14 83.9499 375.449 82.3874 375.449 80.4668V64.9883H392.734V81.248C392.734 88.8001 390.83 94.2852 387.021 97.7031C383.213 101.089 377.891 102.781 371.055 102.781ZM396.496 102V16.0625H430.871V32.6641H413.977V49.4121H430.188V65.5742H413.977V85.252H431.994V102H396.496ZM456.117 102.781C448.272 102.781 442.608 100.828 439.125 96.9219C435.674 93.0156 433.949 86.7982 433.949 78.2695V69.8711H450.941V80.6133C450.941 82.599 451.234 84.1615 451.82 85.3008C452.439 86.4076 453.497 86.9609 454.994 86.9609C456.557 86.9609 457.631 86.5052 458.217 85.5938C458.835 84.6823 459.145 83.1849 459.145 81.1016C459.145 78.4648 458.884 76.2676 458.363 74.5098C457.842 72.7194 456.931 71.0267 455.629 69.4316C454.359 67.804 452.585 65.916 450.307 63.7676L442.592 56.4434C436.83 51.0072 433.949 44.7897 433.949 37.791C433.949 30.4668 435.642 24.8841 439.027 21.043C442.445 17.2018 447.377 15.2812 453.822 15.2812C461.7 15.2812 467.283 17.3809 470.57 21.5801C473.891 25.7793 475.551 32.1595 475.551 40.7207H458.07V34.8125C458.07 33.6406 457.729 32.7292 457.045 32.0781C456.394 31.4271 455.499 31.1016 454.359 31.1016C452.992 31.1016 451.983 31.4922 451.332 32.2734C450.714 33.0221 450.404 33.9987 450.404 35.2031C450.404 36.4076 450.73 37.7096 451.381 39.1094C452.032 40.5091 453.318 42.1204 455.238 43.9434L465.15 53.4648C467.136 55.3529 468.959 57.3548 470.619 59.4707C472.279 61.554 473.614 63.9954 474.623 66.7949C475.632 69.5618 476.137 72.9473 476.137 76.9512C476.137 85.0241 474.639 91.3555 471.645 95.9453C468.682 100.503 463.507 102.781 456.117 102.781ZM500.406 102.781C493.538 102.781 488.281 100.714 484.635 96.5801C481.021 92.4134 479.215 86.4076 479.215 78.5625V37.7422C479.215 30.3854 481.005 24.8027 484.586 20.9941C488.199 17.1855 493.473 15.2812 500.406 15.2812C507.34 15.2812 512.597 17.1855 516.178 20.9941C519.791 24.8027 521.598 30.3854 521.598 37.7422V78.5625C521.598 86.4076 519.775 92.4134 516.129 96.5801C512.516 100.714 507.275 102.781 500.406 102.781ZM500.553 86.9609C503.157 86.9609 504.459 84.4382 504.459 79.3926V37.4492C504.459 33.2174 503.189 31.1016 500.65 31.1016C497.786 31.1016 496.354 33.2663 496.354 37.5957V79.4902C496.354 82.1595 496.679 84.0801 497.33 85.252C497.981 86.3913 499.055 86.9609 500.553 86.9609Z" fill="url(#paint0_linear_210_1464)"/>
<path d="M164.56 71.48C165.52 71.48 166.667 70.84 168 69.56C169.387 68.28 170.587 66.8933 171.6 65.4C172.667 63.96 173.2 62.9733 173.2 62.44C173.2 62.3867 173.173 62.3333 173.12 62.28C173.12 62.28 173.12 62.2533 173.12 62.2H173.04C172.667 62.2 171.733 62.7067 170.24 63.72C168.8 64.7867 167.413 65.9867 166.08 67.32C164.747 68.7067 164.08 69.9333 164.08 71V71.08C164.08 71.1333 164.08 71.16 164.08 71.16C164.08 71.2133 164.107 71.2667 164.16 71.32C164.213 71.3733 164.267 71.4 164.32 71.4C164.427 71.4533 164.507 71.48 164.56 71.48ZM189.92 56.68C191.147 56.68 192.187 56.7333 193.04 56.84C193.893 56.8933 194.32 57.0533 194.32 57.32C194.32 57.48 194 57.5867 193.36 57.64C192.773 57.6933 191.973 57.7467 190.96 57.8C188.4 57.8 185.6 58.0667 182.56 58.6C179.573 59.1333 177.573 60.3067 176.56 62.12C174.96 65.48 172.853 68.2267 170.24 70.36C167.627 72.4933 165.707 73.56 164.48 73.56H164.24C163.76 73.56 163.333 73.4 162.96 73.08C162.587 72.6533 162.4 72.1733 162.4 71.64C162.4 70.2 163.387 68.4133 165.36 66.28C167.387 64.2 169.867 62.3333 172.8 60.68C172.853 60.68 172.88 60.6533 172.88 60.6C173.36 60.3867 173.733 60.1467 174 59.88C174.267 59.6133 174.533 59.1333 174.8 58.44C175.12 57.7467 175.52 56.6267 176 55.08C176.693 53 177.147 50.84 177.36 48.6V47.64C177.36 46.4667 177.093 45.88 176.56 45.88H176.48C175.04 45.88 172.4 48.84 168.56 54.76C164.72 60.68 160.907 68.1733 157.12 77.24C153.333 86.3067 150.587 95.8533 148.88 105.88C148.667 107.16 148.507 108.28 148.4 109.24C148.293 110.947 148.107 111.8 147.84 111.8C147.467 111.8 147.12 111.587 146.8 111.16C146.64 110.84 146.56 110.493 146.56 110.12V109.8C146.56 106.92 147.573 101.373 149.6 93.16C151.627 85 154.027 76.36 156.8 67.24C159.573 58.12 162.24 50.2 164.8 43.48C167.36 36.76 169.147 33.4 170.16 33.4C170.373 33.4 170.48 33.5067 170.48 33.72V33.88C170.48 34.2 169.973 35.8267 168.96 38.76C168 41.6933 166.88 45.1333 165.6 49.08C164 53.7733 162.533 58.12 161.2 62.12C159.867 66.12 159.2 68.3867 159.2 68.92C159.253 68.92 159.627 68.2 160.32 66.76C161.28 64.5733 162.667 61.6933 164.48 58.12C166.347 54.6 168.32 51.3733 170.4 48.44C172.533 45.5067 174.48 44.04 176.24 44.04C177.307 44.04 178.187 44.44 178.88 45.24C179.627 46.04 180 47.3733 180 49.24C180 50.68 179.813 52.12 179.44 53.56C179.067 55 178.747 56.1467 178.48 57C178.267 57.64 178.16 58.0133 178.16 58.12C181.787 57.16 185.413 56.68 189.04 56.68H189.92ZM197.86 58.04C198.873 57.24 199.593 56.6267 200.02 56.2C200.393 55.8267 200.58 55.4533 200.58 55.08V54.92C200.58 54.6 200.553 54.3067 200.5 54.04C200.447 53.9333 200.393 53.8533 200.34 53.8C200.287 53.7467 200.207 53.72 200.1 53.72C199.62 53.72 199.033 54.04 198.34 54.68C197.647 55.32 196.953 56.0667 196.26 56.92C195.62 57.7733 195.06 58.5467 194.58 59.24C194.153 59.9867 193.94 60.44 193.94 60.6C193.94 60.6533 193.967 60.68 194.02 60.68C194.34 60.68 195.62 59.8 197.86 58.04ZM232.58 57C232.633 57 232.687 57 232.74 57C232.793 57 232.847 57.0267 232.9 57.08C232.953 57.1333 232.98 57.2133 232.98 57.32C232.98 57.4267 231.993 57.9867 230.02 59C228.1 60.0667 225.753 61.08 222.98 62.04C220.207 63.0533 217.54 63.56 214.98 63.56C212.207 63.56 210.207 62.84 208.98 61.4C207.753 60.0133 207.14 57.9333 207.14 55.16C207.14 54.5733 206.9 54.28 206.42 54.28H206.34C205.753 54.28 204.98 54.68 204.02 55.48C203.113 56.2267 202.393 57.1867 201.86 58.36C201.167 59.8 200.66 60.52 200.34 60.52C200.287 60.52 200.233 60.4933 200.18 60.44C200.18 60.3867 200.18 60.28 200.18 60.12C200.18 59.9067 200.207 59.72 200.26 59.56V59.24C200.26 59.1867 200.26 59.1333 200.26 59.08C200.26 59.08 200.233 59.08 200.18 59.08C200.073 59.08 199.833 59.2133 199.46 59.48C199.14 59.7467 198.74 60.0933 198.26 60.52C197.247 61.3733 196.153 62.2267 194.98 63.08C193.807 63.9333 192.873 64.36 192.18 64.36C191.647 64.36 191.193 64.1467 190.82 63.72C190.5 63.3467 190.34 62.9467 190.34 62.52V62.28C190.34 61.16 190.9 59.6667 192.02 57.8C193.087 55.9867 194.367 54.36 195.86 52.92C197.407 51.4267 198.847 50.68 200.18 50.68C201.087 50.68 201.7 50.9733 202.02 51.56C202.34 52.1467 202.553 52.7067 202.66 53.24C202.713 53.4533 202.767 53.64 202.82 53.8C202.873 53.9067 202.927 53.96 202.98 53.96C203.14 53.96 203.46 53.7733 203.94 53.4C204.42 53.08 204.927 52.76 205.46 52.44C205.993 52.12 206.527 51.96 207.06 51.96C207.913 51.96 208.473 52.3333 208.74 53.08C209.06 53.7733 209.327 54.6267 209.54 55.64C209.7 56.6 209.967 57.56 210.34 58.52C210.713 59.5333 211.3 60.36 212.1 61C212.953 61.6933 214.233 62.04 215.94 62.04C218.127 62.04 220.367 61.6133 222.66 60.76C224.953 59.96 226.98 59.16 228.74 58.36C230.66 57.4533 231.94 57 232.58 57ZM230.359 78.12C231.425 78.0133 232.625 77.3733 233.959 76.2C235.292 75.0267 236.465 73.72 237.479 72.28C238.492 70.84 239.025 69.6933 239.079 68.84V68.52H238.999C238.785 68.52 238.225 68.9467 237.319 69.8C236.412 70.6533 235.425 71.64 234.359 72.76C233.292 73.9333 232.359 75.0267 231.559 76.04C230.705 77.0533 230.279 77.72 230.279 78.04L230.359 78.12ZM233.879 56.2C233.879 56.4133 233.959 56.52 234.119 56.52C234.492 56.52 235.425 56.12 236.919 55.32C238.412 54.4667 240.012 53.48 241.719 52.36C243.479 51.1867 244.999 50.0667 246.279 49C247.559 47.9333 248.199 47.16 248.199 46.68C248.199 46.36 248.039 46.2 247.719 46.2H247.559C246.759 46.2 245.239 46.8133 242.999 48.04C240.812 49.2133 238.732 50.6 236.759 52.2C234.839 53.7467 233.879 55.08 233.879 56.2ZM260.039 57C260.305 57 260.545 57.0267 260.759 57.08C260.759 57.1333 260.332 57.2933 259.479 57.56C258.039 57.9867 255.745 58.8667 252.599 60.2C249.452 61.5867 245.852 63.64 241.799 66.36C241.585 69.4 240.732 71.9333 239.239 73.96C237.745 75.9867 236.145 77.5067 234.439 78.52C232.732 79.5333 231.532 80.04 230.839 80.04C230.199 80.04 229.665 79.8267 229.239 79.4C228.919 79.0267 228.759 78.6 228.759 78.12V77.8C228.759 76.7333 229.452 75.48 230.839 74.04C232.172 72.6 233.612 71.2133 235.159 69.88C236.225 68.92 237.132 68.0667 237.879 67.32C238.625 66.5733 238.999 66.0133 238.999 65.64C238.999 65.2133 238.705 64.7067 238.119 64.12C237.585 63.5867 236.919 63 236.119 62.36C234.999 61.5067 233.932 60.5467 232.919 59.48C231.959 58.4667 231.479 57.3467 231.479 56.12C231.479 53.9867 232.492 52.04 234.519 50.28C236.599 48.52 238.892 47.1067 241.399 46.04C243.959 44.92 245.959 44.36 247.399 44.36C248.999 44.36 249.879 45 250.039 46.28C250.039 47.0267 249.292 48.12 247.799 49.56C246.305 51 244.492 52.44 242.359 53.88C240.279 55.32 238.225 56.44 236.199 57.24C236.092 57.2933 236.012 57.32 235.959 57.32C235.425 57.5333 235.159 57.7467 235.159 57.96C235.159 58.3867 235.719 58.9733 236.839 59.72C237.585 60.3067 238.385 61 239.239 61.8C240.092 62.6 240.785 63.56 241.319 64.68H241.399C241.399 64.6267 241.425 64.6 241.479 64.6C241.745 64.44 242.412 64.0667 243.479 63.48C244.865 62.7333 246.572 61.8533 248.599 60.84C250.625 59.8267 252.625 58.92 254.599 58.12C256.625 57.32 258.225 56.92 259.399 56.92C259.612 56.92 259.825 56.9467 260.039 57ZM260.346 66.68C260.933 66.68 261.653 66.2267 262.506 65.32C263.413 64.4133 264.213 63.1867 264.906 61.64C265.6 60.0933 265.946 58.3867 265.946 56.52V56.12C265.946 55.8533 265.893 55.56 265.786 55.24C265.68 54.8667 265.52 54.5467 265.306 54.28C265.146 54.0133 264.88 53.88 264.506 53.88C264.026 53.88 263.36 54.5733 262.506 55.96C261.706 57.2933 260.986 58.8133 260.346 60.52C259.706 62.28 259.386 63.7467 259.386 64.92C259.386 66.04 259.706 66.6267 260.346 66.68ZM281.866 56.84C282.346 56.84 282.586 56.9467 282.586 57.16C282.586 57.2667 282.453 57.4 282.186 57.56C281.92 57.7733 281.466 57.96 280.826 58.12C280.186 58.28 279.28 58.36 278.106 58.36C275.386 58.36 273.173 57.9333 271.466 57.08C269.813 56.28 268.613 55.56 267.866 54.92C267.44 54.5467 267.146 54.36 266.986 54.36C266.933 54.4133 266.88 54.4667 266.826 54.52C266.826 54.52 266.826 54.5467 266.826 54.6C267.093 55.3467 267.253 56.1467 267.306 57C267.306 59.9867 266.426 62.5733 264.666 64.76C262.906 67 261.2 68.12 259.546 68.12C257.84 68.12 256.96 66.8133 256.906 64.2C256.96 62.0667 257.493 59.9067 258.506 57.72C259.52 55.5867 260.746 53.9867 262.186 52.92C262.186 52.8667 262.213 52.84 262.266 52.84C262.586 52.5733 262.8 52.3867 262.906 52.28C263.066 52.1733 263.146 52.04 263.146 51.88V51.8C263.146 51.6933 263.146 51.5333 263.146 51.32C263.2 51.0533 263.28 50.84 263.386 50.68C263.493 50.4667 263.653 50.36 263.866 50.36C264.453 50.36 265.333 50.9467 266.506 52.12C267.68 53.1867 269.2 54.3333 271.066 55.56C272.986 56.7333 275.28 57.32 277.946 57.32C279.226 57.32 280.133 57.2133 280.666 57C281.093 56.8933 281.493 56.84 281.866 56.84ZM303.719 58.04C304.733 57.24 305.453 56.6267 305.879 56.2C306.253 55.8267 306.439 55.4533 306.439 55.08V54.92C306.439 54.6 306.413 54.3067 306.359 54.04C306.306 53.9333 306.253 53.8533 306.199 53.8C306.146 53.7467 306.066 53.72 305.959 53.72C305.479 53.72 304.893 54.04 304.199 54.68C303.506 55.32 302.813 56.0667 302.119 56.92C301.479 57.7733 300.919 58.5467 300.439 59.24C300.013 59.9867 299.799 60.44 299.799 60.6C299.799 60.6533 299.826 60.68 299.879 60.68C300.199 60.68 301.479 59.8 303.719 58.04ZM338.439 57C338.493 57 338.546 57 338.599 57C338.653 57 338.706 57.0267 338.759 57.08C338.813 57.1333 338.839 57.2133 338.839 57.32C338.839 57.4267 337.853 57.9867 335.879 59C333.959 60.0667 331.613 61.08 328.839 62.04C326.066 63.0533 323.399 63.56 320.839 63.56C318.066 63.56 316.066 62.84 314.839 61.4C313.613 60.0133 312.999 57.9333 312.999 55.16C312.999 54.5733 312.759 54.28 312.279 54.28H312.199C311.613 54.28 310.839 54.68 309.879 55.48C308.973 56.2267 308.253 57.1867 307.719 58.36C307.026 59.8 306.519 60.52 306.199 60.52C306.146 60.52 306.093 60.4933 306.039 60.44C306.039 60.3867 306.039 60.28 306.039 60.12C306.039 59.9067 306.066 59.72 306.119 59.56V59.24C306.119 59.1867 306.119 59.1333 306.119 59.08C306.119 59.08 306.093 59.08 306.039 59.08C305.933 59.08 305.693 59.2133 305.319 59.48C304.999 59.7467 304.599 60.0933 304.119 60.52C303.106 61.3733 302.013 62.2267 300.839 63.08C299.666 63.9333 298.733 64.36 298.039 64.36C297.506 64.36 297.053 64.1467 296.679 63.72C296.359 63.3467 296.199 62.9467 296.199 62.52V62.28C296.199 61.16 296.759 59.6667 297.879 57.8C298.946 55.9867 300.226 54.36 301.719 52.92C303.266 51.4267 304.706 50.68 306.039 50.68C306.946 50.68 307.559 50.9733 307.879 51.56C308.199 52.1467 308.413 52.7067 308.519 53.24C308.573 53.4533 308.626 53.64 308.679 53.8C308.733 53.9067 308.786 53.96 308.839 53.96C308.999 53.96 309.319 53.7733 309.799 53.4C310.279 53.08 310.786 52.76 311.319 52.44C311.853 52.12 312.386 51.96 312.919 51.96C313.773 51.96 314.333 52.3333 314.599 53.08C314.919 53.7733 315.186 54.6267 315.399 55.64C315.559 56.6 315.826 57.56 316.199 58.52C316.573 59.5333 317.159 60.36 317.959 61C318.813 61.6933 320.093 62.04 321.799 62.04C323.986 62.04 326.226 61.6133 328.519 60.76C330.813 59.96 332.839 59.16 334.599 58.36C336.519 57.4533 337.799 57 338.439 57ZM359.326 71.48C360.286 71.48 361.432 70.84 362.766 69.56C364.152 68.28 365.352 66.8933 366.366 65.4C367.432 63.96 367.966 62.9733 367.966 62.44C367.966 62.3867 367.939 62.3333 367.886 62.28C367.886 62.28 367.886 62.2533 367.886 62.2H367.806C367.432 62.2 366.499 62.7067 365.006 63.72C363.566 64.7867 362.179 65.9867 360.846 67.32C359.512 68.7067 358.846 69.9333 358.846 71V71.08C358.846 71.1333 358.846 71.16 358.846 71.16C358.846 71.2133 358.872 71.2667 358.926 71.32C358.979 71.3733 359.032 71.4 359.086 71.4C359.192 71.4533 359.272 71.48 359.326 71.48ZM384.686 56.68C385.912 56.68 386.952 56.7333 387.806 56.84C388.659 56.8933 389.086 57.0533 389.086 57.32C389.086 57.48 388.766 57.5867 388.126 57.64C387.539 57.6933 386.739 57.7467 385.726 57.8C383.166 57.8 380.366 58.0667 377.326 58.6C374.339 59.1333 372.339 60.3067 371.326 62.12C369.726 65.48 367.619 68.2267 365.006 70.36C362.392 72.4933 360.472 73.56 359.246 73.56H359.006C358.526 73.56 358.099 73.4 357.726 73.08C357.352 72.6533 357.166 72.1733 357.166 71.64C357.166 70.2 358.152 68.4133 360.126 66.28C362.152 64.2 364.632 62.3333 367.566 60.68C367.619 60.68 367.646 60.6533 367.646 60.6C368.126 60.3867 368.499 60.1467 368.766 59.88C369.032 59.6133 369.299 59.1333 369.566 58.44C369.886 57.7467 370.286 56.6267 370.766 55.08C371.459 53 371.912 50.84 372.126 48.6V47.64C372.126 46.4667 371.859 45.88 371.326 45.88H371.246C369.806 45.88 367.166 48.84 363.326 54.76C359.486 60.68 355.672 68.1733 351.886 77.24C348.099 86.3067 345.352 95.8533 343.646 105.88C343.432 107.16 343.272 108.28 343.166 109.24C343.059 110.947 342.872 111.8 342.606 111.8C342.232 111.8 341.886 111.587 341.566 111.16C341.406 110.84 341.326 110.493 341.326 110.12V109.8C341.326 106.92 342.339 101.373 344.366 93.16C346.392 85 348.792 76.36 351.566 67.24C354.339 58.12 357.006 50.2 359.566 43.48C362.126 36.76 363.912 33.4 364.926 33.4C365.139 33.4 365.246 33.5067 365.246 33.72V33.88C365.246 34.2 364.739 35.8267 363.726 38.76C362.766 41.6933 361.646 45.1333 360.366 49.08C358.766 53.7733 357.299 58.12 355.966 62.12C354.632 66.12 353.966 68.3867 353.966 68.92C354.019 68.92 354.392 68.2 355.086 66.76C356.046 64.5733 357.432 61.6933 359.246 58.12C361.112 54.6 363.086 51.3733 365.166 48.44C367.299 45.5067 369.246 44.04 371.006 44.04C372.072 44.04 372.952 44.44 373.646 45.24C374.392 46.04 374.766 47.3733 374.766 49.24C374.766 50.68 374.579 52.12 374.206 53.56C373.832 55 373.512 56.1467 373.246 57C373.032 57.64 372.926 58.0133 372.926 58.12C376.552 57.16 380.179 56.68 383.806 56.68H384.686ZM392.626 58.04C393.639 57.24 394.359 56.6267 394.786 56.2C395.159 55.8267 395.346 55.4533 395.346 55.08V54.92C395.346 54.6 395.319 54.3067 395.266 54.04C395.212 53.9333 395.159 53.8533 395.106 53.8C395.052 53.7467 394.972 53.72 394.866 53.72C394.386 53.72 393.799 54.04 393.106 54.68C392.412 55.32 391.719 56.0667 391.026 56.92C390.386 57.7733 389.826 58.5467 389.346 59.24C388.919 59.9867 388.706 60.44 388.706 60.6C388.706 60.6533 388.732 60.68 388.786 60.68C389.106 60.68 390.386 59.8 392.626 58.04ZM427.346 57C427.399 57 427.452 57 427.506 57C427.559 57 427.612 57.0267 427.666 57.08C427.719 57.1333 427.746 57.2133 427.746 57.32C427.746 57.4267 426.759 57.9867 424.786 59C422.866 60.0667 420.519 61.08 417.746 62.04C414.972 63.0533 412.306 63.56 409.746 63.56C406.972 63.56 404.972 62.84 403.746 61.4C402.519 60.0133 401.906 57.9333 401.906 55.16C401.906 54.5733 401.666 54.28 401.186 54.28H401.106C400.519 54.28 399.746 54.68 398.786 55.48C397.879 56.2267 397.159 57.1867 396.626 58.36C395.932 59.8 395.426 60.52 395.106 60.52C395.052 60.52 394.999 60.4933 394.946 60.44C394.946 60.3867 394.946 60.28 394.946 60.12C394.946 59.9067 394.972 59.72 395.026 59.56V59.24C395.026 59.1867 395.026 59.1333 395.026 59.08C395.026 59.08 394.999 59.08 394.946 59.08C394.839 59.08 394.599 59.2133 394.226 59.48C393.906 59.7467 393.506 60.0933 393.026 60.52C392.012 61.3733 390.919 62.2267 389.746 63.08C388.572 63.9333 387.639 64.36 386.946 64.36C386.412 64.36 385.959 64.1467 385.586 63.72C385.266 63.3467 385.106 62.9467 385.106 62.52V62.28C385.106 61.16 385.666 59.6667 386.786 57.8C387.852 55.9867 389.132 54.36 390.626 52.92C392.172 51.4267 393.612 50.68 394.946 50.68C395.852 50.68 396.466 50.9733 396.786 51.56C397.106 52.1467 397.319 52.7067 397.426 53.24C397.479 53.4533 397.532 53.64 397.586 53.8C397.639 53.9067 397.692 53.96 397.746 53.96C397.906 53.96 398.226 53.7733 398.706 53.4C399.186 53.08 399.692 52.76 400.226 52.44C400.759 52.12 401.292 51.96 401.826 51.96C402.679 51.96 403.239 52.3333 403.506 53.08C403.826 53.7733 404.092 54.6267 404.306 55.64C404.466 56.6 404.732 57.56 405.106 58.52C405.479 59.5333 406.066 60.36 406.866 61C407.719 61.6933 408.999 62.04 410.706 62.04C412.892 62.04 415.132 61.6133 417.426 60.76C419.719 59.96 421.746 59.16 423.506 58.36C425.426 57.4533 426.706 57 427.346 57ZM425.124 78.12C426.191 78.0133 427.391 77.3733 428.724 76.2C430.058 75.0267 431.231 73.72 432.244 72.28C433.258 70.84 433.791 69.6933 433.844 68.84V68.52H433.764C433.551 68.52 432.991 68.9467 432.084 69.8C431.178 70.6533 430.191 71.64 429.124 72.76C428.058 73.9333 427.124 75.0267 426.324 76.04C425.471 77.0533 425.044 77.72 425.044 78.04L425.124 78.12ZM428.644 56.2C428.644 56.4133 428.724 56.52 428.884 56.52C429.258 56.52 430.191 56.12 431.684 55.32C433.178 54.4667 434.778 53.48 436.484 52.36C438.244 51.1867 439.764 50.0667 441.044 49C442.324 47.9333 442.964 47.16 442.964 46.68C442.964 46.36 442.804 46.2 442.484 46.2H442.324C441.524 46.2 440.004 46.8133 437.764 48.04C435.578 49.2133 433.498 50.6 431.524 52.2C429.604 53.7467 428.644 55.08 428.644 56.2ZM454.804 57C455.071 57 455.311 57.0267 455.524 57.08C455.524 57.1333 455.098 57.2933 454.244 57.56C452.804 57.9867 450.511 58.8667 447.364 60.2C444.218 61.5867 440.618 63.64 436.564 66.36C436.351 69.4 435.498 71.9333 434.004 73.96C432.511 75.9867 430.911 77.5067 429.204 78.52C427.498 79.5333 426.298 80.04 425.604 80.04C424.964 80.04 424.431 79.8267 424.004 79.4C423.684 79.0267 423.524 78.6 423.524 78.12V77.8C423.524 76.7333 424.218 75.48 425.604 74.04C426.938 72.6 428.378 71.2133 429.924 69.88C430.991 68.92 431.898 68.0667 432.644 67.32C433.391 66.5733 433.764 66.0133 433.764 65.64C433.764 65.2133 433.471 64.7067 432.884 64.12C432.351 63.5867 431.684 63 430.884 62.36C429.764 61.5067 428.698 60.5467 427.684 59.48C426.724 58.4667 426.244 57.3467 426.244 56.12C426.244 53.9867 427.258 52.04 429.284 50.28C431.364 48.52 433.658 47.1067 436.164 46.04C438.724 44.92 440.724 44.36 442.164 44.36C443.764 44.36 444.644 45 444.804 46.28C444.804 47.0267 444.058 48.12 442.564 49.56C441.071 51 439.258 52.44 437.124 53.88C435.044 55.32 432.991 56.44 430.964 57.24C430.858 57.2933 430.778 57.32 430.724 57.32C430.191 57.5333 429.924 57.7467 429.924 57.96C429.924 58.3867 430.484 58.9733 431.604 59.72C432.351 60.3067 433.151 61 434.004 61.8C434.858 62.6 435.551 63.56 436.084 64.68H436.164C436.164 64.6267 436.191 64.6 436.244 64.6C436.511 64.44 437.178 64.0667 438.244 63.48C439.631 62.7333 441.338 61.8533 443.364 60.84C445.391 59.8267 447.391 58.92 449.364 58.12C451.391 57.32 452.991 56.92 454.164 56.92C454.378 56.92 454.591 56.9467 454.804 57ZM455.112 66.68C455.699 66.68 456.419 66.2267 457.272 65.32C458.179 64.4133 458.979 63.1867 459.672 61.64C460.365 60.0933 460.712 58.3867 460.712 56.52V56.12C460.712 55.8533 460.659 55.56 460.552 55.24C460.445 54.8667 460.285 54.5467 460.072 54.28C459.912 54.0133 459.645 53.88 459.272 53.88C458.792 53.88 458.125 54.5733 457.272 55.96C456.472 57.2933 455.752 58.8133 455.112 60.52C454.472 62.28 454.152 63.7467 454.152 64.92C454.152 66.04 454.472 66.6267 455.112 66.68ZM476.632 56.84C477.112 56.84 477.352 56.9467 477.352 57.16C477.352 57.2667 477.219 57.4 476.952 57.56C476.685 57.7733 476.232 57.96 475.592 58.12C474.952 58.28 474.045 58.36 472.872 58.36C470.152 58.36 467.939 57.9333 466.232 57.08C464.579 56.28 463.379 55.56 462.632 54.92C462.205 54.5467 461.912 54.36 461.752 54.36C461.699 54.4133 461.645 54.4667 461.592 54.52C461.592 54.52 461.592 54.5467 461.592 54.6C461.859 55.3467 462.019 56.1467 462.072 57C462.072 59.9867 461.192 62.5733 459.432 64.76C457.672 67 455.965 68.12 454.312 68.12C452.605 68.12 451.725 66.8133 451.672 64.2C451.725 62.0667 452.259 59.9067 453.272 57.72C454.285 55.5867 455.512 53.9867 456.952 52.92C456.952 52.8667 456.979 52.84 457.032 52.84C457.352 52.5733 457.565 52.3867 457.672 52.28C457.832 52.1733 457.912 52.04 457.912 51.88V51.8C457.912 51.6933 457.912 51.5333 457.912 51.32C457.965 51.0533 458.045 50.84 458.152 50.68C458.259 50.4667 458.419 50.36 458.632 50.36C459.219 50.36 460.099 50.9467 461.272 52.12C462.445 53.1867 463.965 54.3333 465.832 55.56C467.752 56.7333 470.045 57.32 472.712 57.32C473.992 57.32 474.899 57.2133 475.432 57C475.859 56.8933 476.259 56.84 476.632 56.84Z" fill="white"/>
<defs>
<linearGradient id="paint0_linear_210_1464" x1="318" y1="0" x2="318" y2="120" gradientUnits="userSpaceOnUse">
<stop stop-color="white" stop-opacity="0.5"/>
<stop offset="1" stop-color="white" stop-opacity="0"/>
</linearGradient>
</defs>
</svg>
