<svg width="317" height="135" viewBox="0 0 317 135" fill="none" xmlns="http://www.w3.org/2000/svg">
<path d="M122.893 15.852C123.621 15.852 124.193 15.8693 124.609 15.904C125.025 15.904 125.319 15.9387 125.493 16.008C125.701 16.0427 125.822 16.0947 125.857 16.164C125.926 16.2333 125.961 16.3027 125.961 16.372C125.961 16.4413 125.943 16.5453 125.909 16.684C125.909 16.788 125.874 16.892 125.805 16.996C125.77 17.1 125.683 17.152 125.545 17.152C125.475 17.152 125.406 17.152 125.337 17.152C125.267 17.1173 125.198 17.0827 125.129 17.048C125.025 17.0133 124.851 16.9613 124.609 16.892C124.401 16.8227 124.054 16.7707 123.569 16.736C123.083 16.7013 122.39 16.684 121.489 16.684C121.003 16.684 119.929 16.7187 118.265 16.788C116.601 16.8227 114.59 16.9267 112.233 17.1C110.985 20.1853 109.719 23.548 108.437 27.188C107.189 30.7933 106.114 34.2947 105.213 37.692C104.311 41.0893 103.861 43.9147 103.861 46.168C103.861 47.0347 103.947 47.572 104.121 47.78C104.329 47.988 104.606 48.092 104.953 48.092C105.854 48.092 106.998 47.416 108.385 46.064C109.806 44.7467 111.245 43.204 112.701 41.436C114.157 39.7027 115.439 38.108 116.549 36.652C117.901 34.8493 118.663 33.948 118.837 33.948C118.871 33.948 118.889 33.9653 118.889 34C118.923 34 118.941 34.0173 118.941 34.052C118.941 34.2947 118.386 35.196 117.277 36.756C116.167 38.3507 114.798 40.1187 113.169 42.06C111.574 44.0013 109.945 45.7 108.281 47.156C106.651 48.6467 105.299 49.392 104.225 49.392C102.907 49.392 102.249 48.092 102.249 45.492C102.249 42.7187 102.699 39.5813 103.601 36.08C104.467 32.6133 105.49 29.2333 106.669 25.94C107.847 22.612 108.939 19.752 109.945 17.36C104.537 18.0187 101.122 18.5387 99.7007 18.92L99.2327 19.024C99.1287 19.024 99.042 18.9893 98.9727 18.92L99.0247 18.972C98.99 18.972 98.9554 18.9547 98.9207 18.92C98.8514 18.8507 98.8167 18.764 98.8167 18.66C98.8167 18.3133 99.302 18.0013 100.273 17.724C101.243 17.4467 102.405 17.2213 103.757 17.048C105.109 16.8747 106.374 16.736 107.553 16.632C108.766 16.528 109.65 16.4587 110.205 16.424C110.239 16.3893 110.291 16.372 110.361 16.372L112.129 12.316C113.03 10.3053 113.689 8.95333 114.105 8.26C114.521 7.56666 114.902 7.22 115.249 7.22C115.734 7.22 115.977 7.41066 115.977 7.792C115.977 7.86133 115.665 8.624 115.041 10.08C114.417 11.64 113.585 13.7027 112.545 16.268C113.515 16.1987 115.11 16.112 117.329 16.008C119.547 15.904 121.402 15.852 122.893 15.852ZM117.195 40.604C117.195 40.6387 117.213 40.656 117.247 40.656C117.317 40.656 117.611 40.3093 118.131 39.616C118.651 38.9573 119.293 38.0907 120.055 37.016C121.13 35.4907 122.291 33.8787 123.539 32.18C124.822 30.4813 126.001 29.0253 127.075 27.812C128.185 26.564 128.999 25.94 129.519 25.94C129.831 25.94 130.022 26.252 130.091 26.876C130.091 27.0147 130.074 27.188 130.039 27.396C130.005 27.708 129.987 28.2453 129.987 29.008C129.987 30.984 130.421 32.5267 131.287 33.636C132.154 34.7453 133.246 35.3 134.563 35.3C135.465 35.3 136.366 35.1787 137.267 34.936C138.169 34.728 138.949 34.52 139.607 34.312C140.231 34.104 140.647 34 140.855 34C141.167 34 141.341 34.0867 141.375 34.26C141.375 34.3987 140.942 34.6067 140.075 34.884C139.243 35.196 138.238 35.4733 137.059 35.716C135.881 35.9933 134.823 36.132 133.887 36.132C132.466 36.132 131.322 35.8027 130.455 35.144C129.623 34.52 129.017 33.7227 128.635 32.752C128.289 31.7813 128.115 30.828 128.115 29.892C128.115 29.0947 128.219 28.3667 128.427 27.708C128.289 27.708 127.769 28.2973 126.867 29.476C126.001 30.6547 124.978 32.0933 123.799 33.792C122.101 36.184 120.454 38.4373 118.859 40.552C117.265 42.7013 116.259 43.776 115.843 43.776C115.774 43.776 115.687 43.7587 115.583 43.724C115.479 43.6893 115.393 43.6373 115.323 43.568C115.115 43.36 115.011 42.9787 115.011 42.424C115.011 41.488 115.306 40.0667 115.895 38.16C116.45 36.2533 117.074 34.5027 117.767 32.908C118.495 31.3133 119.067 30.516 119.483 30.516H119.587C119.761 30.5507 119.899 30.6373 120.003 30.776C120.107 30.88 120.159 31.0013 120.159 31.14V31.244C120.159 31.6253 119.951 32.4053 119.535 33.584C119.154 34.7627 118.738 35.976 118.287 37.224C117.975 38.0907 117.715 38.836 117.507 39.46C117.299 40.084 117.195 40.4653 117.195 40.604ZM142.646 34.676C143.304 34.156 143.772 33.7573 144.05 33.48C144.292 33.2373 144.414 32.9947 144.414 32.752V32.648C144.414 32.44 144.396 32.2493 144.362 32.076C144.327 32.0067 144.292 31.9547 144.258 31.92C144.223 31.8853 144.171 31.868 144.102 31.868C143.79 31.868 143.408 32.076 142.958 32.492C142.507 32.908 142.056 33.3933 141.606 33.948C141.19 34.5027 140.826 35.0053 140.514 35.456C140.236 35.9413 140.098 36.236 140.098 36.34C140.098 36.3747 140.115 36.392 140.15 36.392C140.358 36.392 141.19 35.82 142.646 34.676ZM165.214 34C165.248 34 165.283 34 165.318 34C165.352 34 165.387 34.0173 165.422 34.052C165.456 34.0867 165.474 34.1387 165.474 34.208C165.474 34.2773 164.832 34.6413 163.55 35.3C162.302 35.9933 160.776 36.652 158.974 37.276C157.171 37.9347 155.438 38.264 153.774 38.264C151.971 38.264 150.671 37.796 149.874 36.86C149.076 35.9587 148.678 34.6067 148.678 32.804C148.678 32.4227 148.522 32.232 148.21 32.232H148.158C147.776 32.232 147.274 32.492 146.65 33.012C146.06 33.4973 145.592 34.1213 145.246 34.884C144.795 35.82 144.466 36.288 144.258 36.288C144.223 36.288 144.188 36.2707 144.154 36.236C144.154 36.2013 144.154 36.132 144.154 36.028C144.154 35.8893 144.171 35.768 144.206 35.664V35.456C144.206 35.4213 144.206 35.3867 144.206 35.352C144.206 35.352 144.188 35.352 144.154 35.352C144.084 35.352 143.928 35.4387 143.686 35.612C143.478 35.7853 143.218 36.0107 142.906 36.288C142.247 36.8427 141.536 37.3973 140.774 37.952C140.011 38.5067 139.404 38.784 138.954 38.784C138.607 38.784 138.312 38.6453 138.07 38.368C137.862 38.1253 137.758 37.8653 137.758 37.588V37.432C137.758 36.704 138.122 35.7333 138.85 34.52C139.543 33.3413 140.375 32.284 141.346 31.348C142.351 30.3773 143.287 29.892 144.154 29.892C144.743 29.892 145.142 30.0827 145.35 30.464C145.558 30.8453 145.696 31.2093 145.766 31.556C145.8 31.6947 145.835 31.816 145.87 31.92C145.904 31.9893 145.939 32.024 145.974 32.024C146.078 32.024 146.286 31.9027 146.598 31.66C146.91 31.452 147.239 31.244 147.586 31.036C147.932 30.828 148.279 30.724 148.626 30.724C149.18 30.724 149.544 30.9667 149.718 31.452C149.926 31.9027 150.099 32.4573 150.238 33.116C150.342 33.74 150.515 34.364 150.758 34.988C151 35.6467 151.382 36.184 151.902 36.6C152.456 37.0507 153.288 37.276 154.398 37.276C155.819 37.276 157.275 36.9987 158.766 36.444C160.256 35.924 161.574 35.404 162.718 34.884C163.966 34.2947 164.798 34 165.214 34ZM157.322 69.88C159.783 69.88 162.297 68.2507 164.862 64.992C167.462 61.7333 168.849 57.972 169.022 53.708C168.987 51.5587 168.554 49.4787 167.722 47.468C167.687 47.468 167.011 48.144 165.694 49.496C164.411 50.848 162.955 52.5467 161.326 54.592C159.697 56.6373 158.241 58.7867 156.958 61.04C155.675 63.2933 155.034 65.3387 155.034 67.176C155.034 68.8747 155.797 69.776 157.322 69.88ZM182.178 34.104C182.178 34.1387 181.953 34.3467 181.502 34.728C181.051 35.144 180.445 35.6813 179.682 36.34C178.365 37.4493 176.891 38.6973 175.262 40.084C173.667 41.5053 172.263 42.788 171.05 43.932C169.871 45.1107 169.265 45.8907 169.23 46.272C169.23 46.376 169.317 46.6533 169.49 47.104C169.733 47.7627 170.01 48.6987 170.322 49.912C170.669 51.1253 170.842 52.5293 170.842 54.124C170.842 57.2787 170.079 60.156 168.554 62.756C167.029 65.3907 165.226 67.488 163.146 69.048C161.066 70.608 159.177 71.388 157.478 71.388C157.305 71.388 156.941 71.3187 156.386 71.18C155.797 71.0413 155.242 70.6947 154.722 70.14C154.202 69.5853 153.942 68.7013 153.942 67.488C153.942 65.3733 154.618 63.1373 155.97 60.78C157.287 58.4227 158.813 56.204 160.546 54.124C162.245 52.044 163.753 50.2933 165.07 48.872C166.526 47.3467 167.254 46.4627 167.254 46.22C167.254 45.8733 167.098 45.2493 166.786 44.348C166.509 43.6547 166.249 42.8747 166.006 42.008C165.798 41.176 165.694 40.3787 165.694 39.616C165.694 38.4373 166.041 37.38 166.734 36.444C167.427 35.508 168.259 34.5893 169.23 33.688C172.003 30.8453 173.39 29.3373 173.39 29.164L173.338 29.112H173.286C172.593 29.112 171.657 29.4933 170.478 30.256C169.299 30.984 168.138 31.7987 166.994 32.7C165.885 33.5667 165.018 34.26 164.394 34.78L163.822 35.248C163.787 35.248 163.735 35.2307 163.666 35.196C163.631 35.1613 163.597 35.1267 163.562 35.092C163.562 35.0573 163.545 35.0227 163.51 34.988V34.936C163.51 34.624 164.151 33.9133 165.434 32.804C166.751 31.66 168.225 30.568 169.854 29.528C171.483 28.488 172.749 27.968 173.65 27.968C174.482 27.968 174.915 28.28 174.95 28.904C174.95 29.7013 174.534 30.6027 173.702 31.608C172.87 32.5787 171.934 33.5667 170.894 34.572C169.889 35.5427 168.987 36.4787 168.19 37.38C167.427 38.2813 167.046 39.0787 167.046 39.772C167.046 40.2573 167.185 40.8987 167.462 41.696C167.739 42.528 168.017 43.2733 168.294 43.932C168.606 44.5907 168.814 44.92 168.918 44.92C168.953 44.92 169.178 44.712 169.594 44.296C170.495 43.464 171.813 42.2333 173.546 40.604C175.279 39.0093 176.995 37.5013 178.694 36.08C180.393 34.6933 181.519 34 182.074 34C182.143 34 182.178 34.0347 182.178 34.104ZM181.334 40.292C181.716 40.292 182.184 39.9973 182.738 39.408C183.328 38.8187 183.848 38.0213 184.298 37.016C184.749 36.0107 184.974 34.9013 184.974 33.688V33.428C184.974 33.2547 184.94 33.064 184.87 32.856C184.801 32.6133 184.697 32.4053 184.558 32.232C184.454 32.0587 184.281 31.972 184.038 31.972C183.726 31.972 183.293 32.4227 182.738 33.324C182.218 34.1907 181.75 35.1787 181.334 36.288C180.918 37.432 180.71 38.3853 180.71 39.148C180.71 39.876 180.918 40.2573 181.334 40.292ZM195.322 33.896C195.634 33.896 195.79 33.9653 195.79 34.104C195.79 34.1733 195.704 34.26 195.53 34.364C195.357 34.5027 195.062 34.624 194.646 34.728C194.23 34.832 193.641 34.884 192.878 34.884C191.11 34.884 189.672 34.6067 188.562 34.052C187.488 33.532 186.708 33.064 186.222 32.648C185.945 32.4053 185.754 32.284 185.65 32.284C185.616 32.3187 185.581 32.3533 185.546 32.388C185.546 32.388 185.546 32.4053 185.546 32.44C185.72 32.9253 185.824 33.4453 185.858 34C185.858 35.9413 185.286 37.6227 184.142 39.044C182.998 40.5 181.889 41.228 180.814 41.228C179.705 41.228 179.133 40.3787 179.098 38.68C179.133 37.2933 179.48 35.8893 180.138 34.468C180.797 33.0813 181.594 32.0413 182.53 31.348C182.53 31.3133 182.548 31.296 182.582 31.296C182.79 31.1227 182.929 31.0013 182.998 30.932C183.102 30.8627 183.154 30.776 183.154 30.672V30.62C183.154 30.5507 183.154 30.4467 183.154 30.308C183.189 30.1347 183.241 29.996 183.31 29.892C183.38 29.7533 183.484 29.684 183.622 29.684C184.004 29.684 184.576 30.0653 185.338 30.828C186.101 31.5213 187.089 32.2667 188.302 33.064C189.55 33.8267 191.041 34.208 192.774 34.208C193.606 34.208 194.196 34.1387 194.542 34C194.82 33.9307 195.08 33.896 195.322 33.896ZM192.947 47.728C193.64 47.6587 194.42 47.2427 195.287 46.48C196.154 45.7173 196.916 44.868 197.575 43.932C198.234 42.996 198.58 42.2507 198.615 41.696V41.488H198.563C198.424 41.488 198.06 41.7653 197.471 42.32C196.882 42.8747 196.24 43.516 195.547 44.244C194.854 45.0067 194.247 45.7173 193.727 46.376C193.172 47.0347 192.895 47.468 192.895 47.676L192.947 47.728ZM195.235 33.48C195.235 33.6187 195.287 33.688 195.391 33.688C195.634 33.688 196.24 33.428 197.211 32.908C198.182 32.3533 199.222 31.712 200.331 30.984C201.475 30.2213 202.463 29.4933 203.295 28.8C204.127 28.1067 204.543 27.604 204.543 27.292C204.543 27.084 204.439 26.98 204.231 26.98H204.127C203.607 26.98 202.619 27.3787 201.163 28.176C199.742 28.9387 198.39 29.84 197.107 30.88C195.859 31.8853 195.235 32.752 195.235 33.48ZM212.239 34C212.412 34 212.568 34.0173 212.707 34.052C212.707 34.0867 212.43 34.1907 211.875 34.364C210.939 34.6413 209.448 35.2133 207.403 36.08C205.358 36.9813 203.018 38.316 200.383 40.084C200.244 42.06 199.69 43.7067 198.719 45.024C197.748 46.3413 196.708 47.3293 195.599 47.988C194.49 48.6467 193.71 48.976 193.259 48.976C192.843 48.976 192.496 48.8373 192.219 48.56C192.011 48.3173 191.907 48.04 191.907 47.728V47.52C191.907 46.8267 192.358 46.012 193.259 45.076C194.126 44.14 195.062 43.2387 196.067 42.372C196.76 41.748 197.35 41.1933 197.835 40.708C198.32 40.2227 198.563 39.8587 198.563 39.616C198.563 39.3387 198.372 39.0093 197.991 38.628C197.644 38.2813 197.211 37.9 196.691 37.484C195.963 36.9293 195.27 36.3053 194.611 35.612C193.987 34.9533 193.675 34.2253 193.675 33.428C193.675 32.0413 194.334 30.776 195.651 29.632C197.003 28.488 198.494 27.5693 200.123 26.876C201.787 26.148 203.087 25.784 204.023 25.784C205.063 25.784 205.635 26.2 205.739 27.032C205.739 27.5173 205.254 28.228 204.283 29.164C203.312 30.1 202.134 31.036 200.747 31.972C199.395 32.908 198.06 33.636 196.743 34.156C196.674 34.1907 196.622 34.208 196.587 34.208C196.24 34.3467 196.067 34.4853 196.067 34.624C196.067 34.9013 196.431 35.2827 197.159 35.768C197.644 36.1493 198.164 36.6 198.719 37.12C199.274 37.64 199.724 38.264 200.071 38.992H200.123C200.123 38.9573 200.14 38.94 200.175 38.94C200.348 38.836 200.782 38.5933 201.475 38.212C202.376 37.7267 203.486 37.1547 204.803 36.496C206.12 35.8373 207.42 35.248 208.703 34.728C210.02 34.208 211.06 33.948 211.823 33.948C211.962 33.948 212.1 33.9653 212.239 34Z" fill="white"/>
<path opacity="0.2" d="M31.2936 102.934H31.2416C28.8149 102.934 26.9949 102.119 25.7816 100.49C24.6029 98.8951 24.0136 96.7631 24.0136 94.0937V92.5857C24.0136 90.9217 23.6842 89.6044 23.0256 88.6337C22.4016 87.6977 21.6042 87.2297 20.6336 87.2297C15.5376 87.1257 11.2389 85.3751 7.73757 81.9777C4.2709 78.5457 2.53757 74.1257 2.53757 68.7177V68.6137C2.53757 63.1364 4.30557 58.6991 7.84157 55.3017C11.4122 51.9044 15.8496 50.2057 21.1536 50.2057H21.2056C26.5096 50.2057 30.9296 51.9044 34.4656 55.3017C38.0362 58.6991 39.8216 63.1364 39.8216 68.6137V68.7177C39.8216 73.3977 38.4522 77.3844 35.7136 80.6777C32.9749 83.9711 29.3176 86.0337 24.7416 86.8657C26.5096 87.0391 28.0869 87.7324 29.4736 88.9457C30.8602 90.1591 31.5536 92.0311 31.5536 94.5617V94.6137C31.5536 96.4857 31.8136 97.8551 32.3336 98.7217C32.8882 99.5884 33.6162 99.9524 34.5176 99.8137C35.3842 99.6751 36.0949 99.1204 36.6496 98.1497C37.2042 97.2137 37.4816 96.0524 37.4816 94.6657H38.5216C38.5216 97.3697 37.8456 99.4151 36.4936 100.802C35.1416 102.223 33.4082 102.934 31.2936 102.934ZM11.6896 74.0737C11.6896 77.8871 12.5736 80.8684 14.3416 83.0177C16.1096 85.1671 18.3802 86.2417 21.1536 86.2417H21.2056C23.9789 86.2417 26.2322 85.1671 27.9656 83.0177C29.7336 80.8684 30.6176 77.8871 30.6176 74.0737V63.2577C30.6176 59.4444 29.7336 56.4631 27.9656 54.3137C26.2322 52.1644 23.9789 51.0897 21.2056 51.0897H21.1536C18.3802 51.0897 16.1096 52.1644 14.3416 54.3137C12.5736 56.4631 11.6896 59.4444 11.6896 63.2577V74.0737ZM57.5532 87.1257H57.5012C53.0985 87.1257 49.6492 85.6177 47.1532 82.6017C44.6918 79.5857 43.4612 75.7377 43.4612 71.0577V50.4657H51.7812V75.6337C51.7812 78.9617 52.3012 81.5444 53.3412 83.3817C54.4158 85.2191 56.1492 86.1204 58.5412 86.0857L59.4772 85.9817C62.9092 85.5657 65.5958 84.0057 67.5372 81.3017C69.5132 78.5631 70.5012 75.1657 70.5012 71.1097V50.4657H71.5412V71.0577C71.5412 75.7724 70.3278 79.6377 67.9012 82.6537C65.4745 85.6351 62.0252 87.1257 57.5532 87.1257ZM85.0693 69.1857V85.8257H102.489V86.8657H76.7493V50.4657H102.489V51.5057H85.0693V68.1457H97.6013V69.1857H85.0693ZM130.544 50.4657L141.152 74.9577L151.344 50.4657H159.924V86.8657H151.604V52.5457L137.044 87.4377L122.276 51.8697V86.8657H121.236V50.4657H130.544ZM182.401 86.8657L178.709 77.4537H166.801L163.109 86.8657H162.017L176.577 49.7897L191.241 86.8657H182.401ZM172.781 61.9577L167.217 76.4137H178.293L172.781 61.9577ZM225.794 86.8657L224.494 86.9177C222.241 87.0217 220.386 86.9524 218.93 86.7097C217.509 86.4671 216.365 85.9817 215.498 85.2537C214.631 84.4911 213.99 83.6417 213.574 82.7057C213.193 81.7697 212.846 80.4871 212.534 78.8577L211.91 75.7897C211.355 73.3631 210.662 71.6124 209.83 70.5377C208.998 69.4284 207.663 68.8911 205.826 68.9257H201.666L201.718 86.8657H193.398V50.4657H206.398C208.929 50.4657 211.13 50.6911 213.002 51.1417C214.874 51.5924 216.295 52.1471 217.266 52.8057C218.237 53.4297 219.017 54.1924 219.606 55.0937C220.195 55.9951 220.559 56.7751 220.698 57.4337C220.837 58.0577 220.906 58.7337 220.906 59.4617V59.5137C220.906 60.1724 220.837 60.8311 220.698 61.4897C220.559 62.1137 220.213 62.8591 219.658 63.7257C219.138 64.5924 218.445 65.3551 217.578 66.0137C216.746 66.6377 215.533 67.1924 213.938 67.6777C212.343 68.1631 210.489 68.4231 208.374 68.4577V68.5097C211.875 68.5791 214.579 69.3764 216.486 70.9017C218.427 72.3924 219.675 74.6631 220.23 77.7137L220.958 81.5097C221.27 82.9657 221.686 84.0577 222.206 84.7857C222.761 85.5137 223.627 85.8604 224.806 85.8257H225.794V86.8657ZM212.742 61.3337V57.9017C212.742 57.1391 212.673 56.4631 212.534 55.8737C212.43 55.2497 212.187 54.5737 211.806 53.8457C211.459 53.1177 210.818 52.5457 209.882 52.1297C208.981 51.7137 207.819 51.5057 206.398 51.5057H201.666V67.8857H206.398C210.627 67.8857 212.742 65.7017 212.742 61.3337ZM224.432 68.6657C224.432 63.3271 226.148 58.9071 229.58 55.4057C233.047 51.9044 237.605 50.1537 243.256 50.1537C247.693 50.1537 251.68 51.6271 255.216 54.5737L254.54 55.3537C251.247 52.6844 247.693 51.3497 243.88 51.3497C240.621 51.3497 238.056 52.3897 236.184 54.4697C234.312 56.5151 233.376 59.2537 233.376 62.6857V74.7497C233.376 78.0084 234.364 80.6951 236.34 82.8097C238.316 84.9244 240.795 85.9991 243.776 86.0337C247.624 86.0337 251.195 84.6644 254.488 81.9257L255.164 82.7057C251.801 85.6524 247.676 87.1431 242.788 87.1777C237.484 87.0737 233.099 85.2537 229.632 81.7177C226.165 78.1471 224.432 73.7964 224.432 68.6657ZM275.969 86.8657L272.277 77.4537H260.369L256.677 86.8657H255.585L270.145 49.7897L284.809 86.8657H275.969ZM266.349 61.9577L260.785 76.4137H271.861L266.349 61.9577ZM313.693 50.4657V87.5937L288.005 54.1577V86.8657H286.965V50.4657H295.337L312.653 73.8657V50.4657H313.693Z" fill="white"/>
<path d="M100.007 85.8647C100.735 85.8647 101.307 85.882 101.723 85.9167C102.139 85.9167 102.434 85.9514 102.607 86.0207C102.815 86.0554 102.936 86.1074 102.971 86.1767C103.04 86.246 103.075 86.3154 103.075 86.3847C103.075 86.454 103.058 86.558 103.023 86.6967C103.023 86.8007 102.988 86.9047 102.919 87.0087C102.884 87.1127 102.798 87.1647 102.659 87.1647C102.59 87.1647 102.52 87.1647 102.451 87.1647C102.382 87.13 102.312 87.0954 102.243 87.0607C102.139 87.026 101.966 86.974 101.723 86.9047C101.515 86.8354 101.168 86.7834 100.683 86.7487C100.198 86.714 99.5042 86.6967 98.6029 86.6967C98.1175 86.6967 97.0429 86.7314 95.3789 86.8007C93.7149 86.8354 91.7042 86.9394 89.3469 87.1127C88.0989 90.198 86.8335 93.5607 85.5509 97.2007C84.3029 100.806 83.2282 104.307 82.3269 107.705C81.4255 111.102 80.9749 113.927 80.9749 116.181C80.9749 117.047 81.0615 117.585 81.2349 117.793C81.4429 118.001 81.7202 118.105 82.0669 118.105C82.9682 118.105 84.1122 117.429 85.4989 116.077C86.9202 114.759 88.3589 113.217 89.8149 111.449C91.2709 109.715 92.5535 108.121 93.6629 106.665C95.0149 104.862 95.7775 103.961 95.9509 103.961C95.9855 103.961 96.0029 103.978 96.0029 104.013C96.0375 104.013 96.0549 104.03 96.0549 104.065C96.0549 104.307 95.5002 105.209 94.3909 106.769C93.2815 108.363 91.9122 110.131 90.2829 112.073C88.6882 114.014 87.0589 115.713 85.3949 117.169C83.7655 118.659 82.4135 119.405 81.3389 119.405C80.0215 119.405 79.3629 118.105 79.3629 115.505C79.3629 112.731 79.8135 109.594 80.7149 106.093C81.5815 102.626 82.6042 99.246 83.7829 95.9527C84.9615 92.6247 86.0535 89.7647 87.0589 87.3727C81.6509 88.0314 78.2362 88.5514 76.8149 88.9327L76.3469 89.0367C76.2429 89.0367 76.1562 89.002 76.0869 88.9327L76.1389 88.9847C76.1042 88.9847 76.0695 88.9674 76.0349 88.9327C75.9655 88.8634 75.9309 88.7767 75.9309 88.6727C75.9309 88.326 76.4162 88.014 77.3869 87.7367C78.3575 87.4594 79.5189 87.234 80.8709 87.0607C82.2229 86.8874 83.4882 86.7487 84.6669 86.6447C85.8802 86.5407 86.7642 86.4714 87.3189 86.4367C87.3535 86.402 87.4055 86.3847 87.4749 86.3847L89.2429 82.3287C90.1442 80.318 90.8029 78.966 91.2189 78.2727C91.6349 77.5794 92.0162 77.2327 92.3629 77.2327C92.8482 77.2327 93.0909 77.4234 93.0909 77.8047C93.0909 77.874 92.7789 78.6367 92.1549 80.0927C91.5309 81.6527 90.6989 83.7154 89.6589 86.2807C90.6295 86.2114 92.2242 86.1247 94.4429 86.0207C96.6615 85.9167 98.5162 85.8647 100.007 85.8647ZM115.058 104.013C115.092 104.013 115.11 104.013 115.11 104.013C115.144 104.047 115.162 104.065 115.162 104.065C115.162 104.099 115.162 104.134 115.162 104.169C115.162 104.481 114.728 105.261 113.862 106.509C113.03 107.757 111.99 109.109 110.742 110.565C109.528 112.055 108.298 113.355 107.05 114.465C105.802 115.574 104.796 116.129 104.034 116.129C103.999 116.129 103.895 116.111 103.722 116.077C103.548 116.042 103.358 115.938 103.15 115.765C102.942 115.591 102.751 115.331 102.578 114.985C102.404 114.638 102.318 114.153 102.318 113.529C102.318 111.899 102.768 109.941 103.67 107.653C104.606 105.399 105.386 103.649 106.01 102.401C106.287 101.811 106.426 101.482 106.426 101.413C106.322 101.413 105.802 101.898 104.866 102.869C103.999 103.77 102.959 104.793 101.746 105.937C100.532 107.115 99.3363 108.138 98.1576 109.005C96.979 109.906 96.0083 110.357 95.2456 110.357C94.795 110.357 94.379 110.149 93.9976 109.733C93.6163 109.317 93.4256 108.71 93.4256 107.913C93.4256 107.046 93.6163 106.11 93.9976 105.105C94.3443 104.099 94.7776 103.233 95.2976 102.505C95.8176 101.742 96.303 101.361 96.7536 101.361C96.8576 101.361 96.979 101.395 97.1176 101.465C97.291 101.534 97.3776 101.655 97.3776 101.829C97.3776 101.967 97.187 102.453 96.8056 103.285C96.459 104.117 96.0776 105.053 95.6616 106.093C95.2803 107.167 95.0896 108.017 95.0896 108.641C95.0896 109.161 95.2803 109.421 95.6616 109.421C96.3896 109.421 97.551 108.675 99.1456 107.185C100.775 105.729 102.37 104.203 103.93 102.609C104.9 101.603 105.732 100.771 106.426 100.113C107.154 99.4194 107.622 99.0727 107.83 99.0727C107.899 99.1074 107.968 99.142 108.038 99.1767C108.107 99.2114 108.159 99.2634 108.194 99.3327C108.332 99.402 108.402 99.5234 108.402 99.6967V99.8007C108.402 100.217 107.951 101.499 107.05 103.649C106.322 105.486 105.594 107.427 104.866 109.473C104.138 111.553 103.774 113.182 103.774 114.361C103.774 114.846 103.964 115.089 104.346 115.089H104.502C105.056 115.089 105.888 114.534 106.998 113.425C108.142 112.315 109.32 111.05 110.534 109.629C111.747 108.207 112.787 106.925 113.654 105.781C114.52 104.671 114.954 104.099 114.954 104.065L115.006 104.013H115.058ZM130.223 100.997C129.772 101.031 129.235 101.205 128.611 101.517C128.021 101.829 127.467 102.193 126.947 102.609C126.461 102.99 126.219 103.319 126.219 103.597C126.219 103.666 126.253 103.701 126.323 103.701H126.427C126.669 103.701 127.137 103.614 127.831 103.441C128.524 103.267 129.183 103.007 129.807 102.661C130.431 102.314 130.743 101.881 130.743 101.361C130.743 101.291 130.691 101.222 130.587 101.153C130.517 101.049 130.396 100.997 130.223 100.997ZM141.611 104.013H141.767C141.801 104.013 141.836 104.013 141.871 104.013C141.905 104.013 141.923 104.03 141.923 104.065C141.923 104.169 141.143 104.706 139.583 105.677C138.023 106.647 136.168 107.583 134.019 108.485C131.904 109.386 129.893 109.906 127.987 110.045H127.519C126.305 110.045 125.369 109.837 124.711 109.421C124.087 109.005 123.653 108.485 123.411 107.861C123.133 107.271 122.995 106.682 122.995 106.093C122.995 104.845 123.411 103.735 124.243 102.765C125.109 101.759 126.097 100.979 127.207 100.425C128.316 99.8354 129.287 99.5407 130.119 99.5407C130.639 99.5407 131.02 99.6274 131.263 99.8007C131.505 99.974 131.644 100.165 131.679 100.373C131.748 100.581 131.783 100.754 131.783 100.893C131.783 101.759 131.245 102.626 130.171 103.493C129.131 104.325 127.744 104.741 126.011 104.741C125.387 104.741 125.023 105.261 124.919 106.301C124.919 107.999 126.011 108.866 128.195 108.901C128.437 108.901 128.68 108.883 128.923 108.849C131.072 108.606 133.169 108.034 135.215 107.133C137.26 106.266 138.924 105.469 140.207 104.741C140.831 104.394 141.299 104.151 141.611 104.013ZM139.363 117.741C140.056 117.671 140.836 117.255 141.703 116.493C142.569 115.73 143.332 114.881 143.991 113.945C144.649 113.009 144.996 112.263 145.031 111.709V111.501H144.979C144.84 111.501 144.476 111.778 143.887 112.333C143.297 112.887 142.656 113.529 141.963 114.257C141.269 115.019 140.663 115.73 140.143 116.389C139.588 117.047 139.311 117.481 139.311 117.689L139.363 117.741ZM141.651 103.493C141.651 103.631 141.703 103.701 141.807 103.701C142.049 103.701 142.656 103.441 143.627 102.921C144.597 102.366 145.637 101.725 146.747 100.997C147.891 100.234 148.879 99.506 149.711 98.8127C150.543 98.1194 150.959 97.6167 150.959 97.3047C150.959 97.0967 150.855 96.9927 150.647 96.9927H150.543C150.023 96.9927 149.035 97.3914 147.579 98.1887C146.157 98.9514 144.805 99.8527 143.523 100.893C142.275 101.898 141.651 102.765 141.651 103.493ZM158.655 104.013C158.828 104.013 158.984 104.03 159.123 104.065C159.123 104.099 158.845 104.203 158.291 104.377C157.355 104.654 155.864 105.226 153.819 106.093C151.773 106.994 149.433 108.329 146.799 110.097C146.66 112.073 146.105 113.719 145.135 115.037C144.164 116.354 143.124 117.342 142.015 118.001C140.905 118.659 140.125 118.989 139.675 118.989C139.259 118.989 138.912 118.85 138.635 118.573C138.427 118.33 138.323 118.053 138.323 117.741V117.533C138.323 116.839 138.773 116.025 139.675 115.089C140.541 114.153 141.477 113.251 142.483 112.385C143.176 111.761 143.765 111.206 144.251 110.721C144.736 110.235 144.979 109.871 144.979 109.629C144.979 109.351 144.788 109.022 144.407 108.641C144.06 108.294 143.627 107.913 143.107 107.497C142.379 106.942 141.685 106.318 141.027 105.625C140.403 104.966 140.091 104.238 140.091 103.441C140.091 102.054 140.749 100.789 142.067 99.6447C143.419 98.5007 144.909 97.582 146.539 96.8887C148.203 96.1607 149.503 95.7967 150.439 95.7967C151.479 95.7967 152.051 96.2127 152.155 97.0447C152.155 97.53 151.669 98.2407 150.699 99.1767C149.728 100.113 148.549 101.049 147.163 101.985C145.811 102.921 144.476 103.649 143.159 104.169C143.089 104.203 143.037 104.221 143.003 104.221C142.656 104.359 142.483 104.498 142.483 104.637C142.483 104.914 142.847 105.295 143.575 105.781C144.06 106.162 144.58 106.613 145.135 107.133C145.689 107.653 146.14 108.277 146.487 109.005H146.539C146.539 108.97 146.556 108.953 146.591 108.953C146.764 108.849 147.197 108.606 147.891 108.225C148.792 107.739 149.901 107.167 151.219 106.509C152.536 105.85 153.836 105.261 155.119 104.741C156.436 104.221 157.476 103.961 158.239 103.961C158.377 103.961 158.516 103.978 158.655 104.013ZM163.639 100.997C163.188 101.031 162.651 101.205 162.027 101.517C161.437 101.829 160.883 102.193 160.363 102.609C159.877 102.99 159.635 103.319 159.635 103.597C159.635 103.666 159.669 103.701 159.739 103.701H159.843C160.085 103.701 160.553 103.614 161.247 103.441C161.94 103.267 162.599 103.007 163.223 102.661C163.847 102.314 164.159 101.881 164.159 101.361C164.159 101.291 164.107 101.222 164.003 101.153C163.933 101.049 163.812 100.997 163.639 100.997ZM175.027 104.013H175.183C175.217 104.013 175.252 104.013 175.287 104.013C175.321 104.013 175.339 104.03 175.339 104.065C175.339 104.169 174.559 104.706 172.999 105.677C171.439 106.647 169.584 107.583 167.435 108.485C165.32 109.386 163.309 109.906 161.403 110.045H160.935C159.721 110.045 158.785 109.837 158.127 109.421C157.503 109.005 157.069 108.485 156.827 107.861C156.549 107.271 156.411 106.682 156.411 106.093C156.411 104.845 156.827 103.735 157.659 102.765C158.525 101.759 159.513 100.979 160.623 100.425C161.732 99.8354 162.703 99.5407 163.535 99.5407C164.055 99.5407 164.436 99.6274 164.679 99.8007C164.921 99.974 165.06 100.165 165.095 100.373C165.164 100.581 165.199 100.754 165.199 100.893C165.199 101.759 164.661 102.626 163.587 103.493C162.547 104.325 161.16 104.741 159.427 104.741C158.803 104.741 158.439 105.261 158.335 106.301C158.335 107.999 159.427 108.866 161.611 108.901C161.853 108.901 162.096 108.883 162.339 108.849C164.488 108.606 166.585 108.034 168.631 107.133C170.676 106.266 172.34 105.469 173.623 104.741C174.247 104.394 174.715 104.151 175.027 104.013ZM195.139 104.013C195.174 104.013 195.191 104.03 195.191 104.065V104.117H195.139C195.035 104.29 194.706 104.793 194.151 105.625C193.423 106.665 192.504 107.843 191.395 109.161C190.286 110.478 189.107 111.639 187.859 112.645C186.611 113.685 185.467 114.205 184.427 114.205C183.595 114.205 183.058 113.893 182.815 113.269C182.607 112.679 182.503 112.125 182.503 111.605C182.503 109.975 182.884 108.086 183.647 105.937C184.444 103.822 185.19 102.002 185.883 100.477C186.438 99.2634 186.715 98.5527 186.715 98.3447C186.715 98.206 186.646 98.1367 186.507 98.1367C185.918 98.1367 184.912 98.8127 183.491 100.165C182.104 101.517 180.648 102.99 179.123 104.585C177.875 105.902 176.766 107.029 175.795 107.965C174.824 108.935 174.166 109.421 173.819 109.421C173.195 109.421 172.883 109.022 172.883 108.225V107.965C172.883 107.063 173.091 105.971 173.507 104.689C173.888 103.441 174.356 102.331 174.911 101.361C175.466 100.39 175.986 99.9047 176.471 99.9047C176.991 99.9047 177.251 100.095 177.251 100.477C177.251 100.65 177.13 100.997 176.887 101.517C176.679 102.037 176.436 102.626 176.159 103.285C175.743 104.151 175.379 104.983 175.067 105.781C174.755 106.578 174.599 107.15 174.599 107.497V107.549C174.703 107.549 175.015 107.289 175.535 106.769C176.055 106.249 176.714 105.59 177.511 104.793C179.175 103.059 180.96 101.309 182.867 99.5407C184.774 97.7727 186.126 96.8887 186.923 96.8887C187.27 96.9234 187.547 97.062 187.755 97.3047C187.998 97.5127 188.119 97.79 188.119 98.1367C188.119 98.5874 187.946 99.3154 187.599 100.321C187.287 101.291 186.888 102.383 186.403 103.597C185.814 105.191 185.259 106.769 184.739 108.329C184.219 109.889 183.959 111.137 183.959 112.073C183.959 112.489 184.011 112.766 184.115 112.905C184.219 113.078 184.323 113.182 184.427 113.217C184.566 113.286 184.67 113.321 184.739 113.321C185.744 113.321 186.94 112.61 188.327 111.189C189.748 109.767 191.083 108.329 192.331 106.873C193.024 106.041 193.614 105.347 194.099 104.793C194.619 104.273 194.966 104.013 195.139 104.013ZM217.362 104.013C217.431 104.013 217.466 104.013 217.466 104.013C217.501 104.047 217.535 104.082 217.57 104.117C217.57 104.255 216.703 104.914 214.97 106.093C213.271 107.271 211.157 108.571 208.626 109.993C206.13 111.449 203.617 112.714 201.086 113.789C198.555 114.898 196.458 115.453 194.794 115.453C194.343 115.453 193.91 115.383 193.494 115.245C192.697 114.933 192.107 114.43 191.726 113.737C191.345 113.078 191.154 112.263 191.154 111.293C191.154 109.039 191.865 106.682 193.286 104.221C194.707 101.794 196.406 99.7314 198.382 98.0327C200.358 96.334 202.178 95.4847 203.842 95.4847C204.709 95.4847 205.367 95.762 205.818 96.3167C206.269 96.8714 206.494 97.5647 206.494 98.3967C206.494 99.2287 206.286 100.061 205.87 100.893C205.489 101.725 205.038 102.418 204.518 102.973C204.033 103.527 203.617 103.805 203.27 103.805C203.201 103.805 203.131 103.787 203.062 103.753C202.993 103.718 202.941 103.666 202.906 103.597C202.802 103.458 202.75 103.319 202.75 103.181C202.75 102.695 203.097 102.089 203.79 101.361C204.206 100.875 204.605 100.338 204.986 99.7487C205.367 99.1247 205.558 98.4487 205.558 97.7207V97.5647C205.558 97.2527 205.437 96.9754 205.194 96.7327C204.951 96.49 204.674 96.3687 204.362 96.3687H204.206C202.646 96.3687 200.965 97.27 199.162 99.0727C197.359 100.875 195.817 102.973 194.534 105.365C193.286 107.791 192.662 109.958 192.662 111.865C192.662 112.905 192.887 113.615 193.338 113.997C193.789 114.378 194.413 114.569 195.21 114.569C197.706 114.395 200.757 113.355 204.362 111.449C207.967 109.542 211.105 107.739 213.774 106.041C215.889 104.689 217.085 104.013 217.362 104.013ZM229.962 104.013C230.032 104.013 230.066 104.013 230.066 104.013C230.101 104.013 230.118 104.03 230.118 104.065C230.118 104.134 229.685 104.55 228.818 105.313C227.952 106.075 226.86 106.925 225.542 107.861C224.26 108.831 222.925 109.681 221.538 110.409C220.152 111.171 218.956 111.553 217.95 111.553H217.638C217.326 111.553 217.049 111.518 216.806 111.449C215.454 110.929 214.778 109.819 214.778 108.121C214.778 107.254 214.952 106.266 215.298 105.157C215.61 104.047 216.009 103.077 216.494 102.245C217.014 101.378 217.517 100.945 218.002 100.945C218.21 100.979 218.384 101.066 218.522 101.205C218.661 101.343 218.73 101.517 218.73 101.725C218.73 102.106 218.505 102.747 218.054 103.649C217.742 104.342 217.43 105.087 217.118 105.885C216.806 106.717 216.65 107.531 216.65 108.329C216.65 109.091 216.858 109.611 217.274 109.889C217.725 110.201 218.297 110.357 218.99 110.357C220.1 110.357 221.434 109.837 222.994 108.797C224.589 107.791 226.028 106.786 227.31 105.781C228.766 104.602 229.65 104.013 229.962 104.013ZM218.834 98.4487C218.418 98.2407 218.21 97.946 218.21 97.5647V97.2527C218.21 96.802 218.418 96.438 218.834 96.1607C219.077 96.022 219.32 95.9527 219.562 95.9527C219.77 95.9527 219.978 96.0047 220.186 96.1087C220.637 96.4207 220.862 96.8194 220.862 97.3047C220.862 97.6514 220.724 97.9634 220.446 98.2407C220.204 98.4834 219.909 98.6047 219.562 98.6047C219.32 98.6047 219.077 98.5527 218.834 98.4487ZM231.816 104.689C232.475 104.169 232.943 103.77 233.22 103.493C233.463 103.25 233.584 103.007 233.584 102.765V102.661C233.584 102.453 233.567 102.262 233.532 102.089C233.497 102.019 233.463 101.967 233.428 101.933C233.393 101.898 233.341 101.881 233.272 101.881C232.96 101.881 232.579 102.089 232.128 102.505C231.677 102.921 231.227 103.406 230.776 103.961C230.36 104.515 229.996 105.018 229.684 105.469C229.407 105.954 229.268 106.249 229.268 106.353C229.268 106.387 229.285 106.405 229.32 106.405C229.528 106.405 230.36 105.833 231.816 104.689ZM254.384 104.013C254.419 104.013 254.453 104.013 254.488 104.013C254.523 104.013 254.557 104.03 254.592 104.065C254.627 104.099 254.644 104.151 254.644 104.221C254.644 104.29 254.003 104.654 252.72 105.313C251.472 106.006 249.947 106.665 248.144 107.289C246.341 107.947 244.608 108.277 242.944 108.277C241.141 108.277 239.841 107.809 239.044 106.873C238.247 105.971 237.848 104.619 237.848 102.817C237.848 102.435 237.692 102.245 237.38 102.245H237.328C236.947 102.245 236.444 102.505 235.82 103.025C235.231 103.51 234.763 104.134 234.416 104.897C233.965 105.833 233.636 106.301 233.428 106.301C233.393 106.301 233.359 106.283 233.324 106.249C233.324 106.214 233.324 106.145 233.324 106.041C233.324 105.902 233.341 105.781 233.376 105.677V105.469C233.376 105.434 233.376 105.399 233.376 105.365C233.376 105.365 233.359 105.365 233.324 105.365C233.255 105.365 233.099 105.451 232.856 105.625C232.648 105.798 232.388 106.023 232.076 106.301C231.417 106.855 230.707 107.41 229.944 107.965C229.181 108.519 228.575 108.797 228.124 108.797C227.777 108.797 227.483 108.658 227.24 108.381C227.032 108.138 226.928 107.878 226.928 107.601V107.445C226.928 106.717 227.292 105.746 228.02 104.533C228.713 103.354 229.545 102.297 230.516 101.361C231.521 100.39 232.457 99.9047 233.324 99.9047C233.913 99.9047 234.312 100.095 234.52 100.477C234.728 100.858 234.867 101.222 234.936 101.569C234.971 101.707 235.005 101.829 235.04 101.933C235.075 102.002 235.109 102.037 235.144 102.037C235.248 102.037 235.456 101.915 235.768 101.673C236.08 101.465 236.409 101.257 236.756 101.049C237.103 100.841 237.449 100.737 237.796 100.737C238.351 100.737 238.715 100.979 238.888 101.465C239.096 101.915 239.269 102.47 239.408 103.129C239.512 103.753 239.685 104.377 239.928 105.001C240.171 105.659 240.552 106.197 241.072 106.613C241.627 107.063 242.459 107.289 243.568 107.289C244.989 107.289 246.445 107.011 247.936 106.457C249.427 105.937 250.744 105.417 251.888 104.897C253.136 104.307 253.968 104.013 254.384 104.013Z" fill="white"/>
</svg>
