<svg width="302" height="135" viewBox="0 0 302 135" fill="none" xmlns="http://www.w3.org/2000/svg">
<path d="M110.893 15.852C111.621 15.852 112.193 15.8693 112.609 15.904C113.025 15.904 113.319 15.9387 113.493 16.008C113.701 16.0427 113.822 16.0947 113.857 16.164C113.926 16.2333 113.961 16.3027 113.961 16.372C113.961 16.4413 113.943 16.5453 113.909 16.684C113.909 16.788 113.874 16.892 113.805 16.996C113.77 17.1 113.683 17.152 113.545 17.152C113.475 17.152 113.406 17.152 113.337 17.152C113.267 17.1173 113.198 17.0827 113.129 17.048C113.025 17.0133 112.851 16.9613 112.609 16.892C112.401 16.8227 112.054 16.7707 111.569 16.736C111.083 16.7013 110.39 16.684 109.489 16.684C109.003 16.684 107.929 16.7187 106.265 16.788C104.601 16.8227 102.59 16.9267 100.233 17.1C98.9847 20.1853 97.7194 23.548 96.4367 27.188C95.1887 30.7933 94.114 34.2947 93.2127 37.692C92.3114 41.0893 91.8607 43.9147 91.8607 46.168C91.8607 47.0347 91.9474 47.572 92.1207 47.78C92.3287 47.988 92.606 48.092 92.9527 48.092C93.854 48.092 94.998 47.416 96.3847 46.064C97.806 44.7467 99.2447 43.204 100.701 41.436C102.157 39.7027 103.439 38.108 104.549 36.652C105.901 34.8493 106.663 33.948 106.837 33.948C106.871 33.948 106.889 33.9653 106.889 34C106.923 34 106.941 34.0173 106.941 34.052C106.941 34.2947 106.386 35.196 105.277 36.756C104.167 38.3507 102.798 40.1187 101.169 42.06C99.574 44.0013 97.9447 45.7 96.2807 47.156C94.6514 48.6467 93.2994 49.392 92.2247 49.392C90.9074 49.392 90.2487 48.092 90.2487 45.492C90.2487 42.7187 90.6994 39.5813 91.6007 36.08C92.4674 32.6133 93.49 29.2333 94.6687 25.94C95.8474 22.612 96.9394 19.752 97.9447 17.36C92.5367 18.0187 89.122 18.5387 87.7007 18.92L87.2327 19.024C87.1287 19.024 87.042 18.9893 86.9727 18.92L87.0247 18.972C86.99 18.972 86.9554 18.9547 86.9207 18.92C86.8514 18.8507 86.8167 18.764 86.8167 18.66C86.8167 18.3133 87.302 18.0013 88.2727 17.724C89.2434 17.4467 90.4047 17.2213 91.7567 17.048C93.1087 16.8747 94.374 16.736 95.5527 16.632C96.766 16.528 97.65 16.4587 98.2047 16.424C98.2394 16.3893 98.2914 16.372 98.3607 16.372L100.129 12.316C101.03 10.3053 101.689 8.95333 102.105 8.26C102.521 7.56666 102.902 7.22 103.249 7.22C103.734 7.22 103.977 7.41066 103.977 7.792C103.977 7.86133 103.665 8.624 103.041 10.08C102.417 11.64 101.585 13.7027 100.545 16.268C101.515 16.1987 103.11 16.112 105.329 16.008C107.547 15.904 109.402 15.852 110.893 15.852ZM105.195 40.604C105.195 40.6387 105.213 40.656 105.247 40.656C105.317 40.656 105.611 40.3093 106.131 39.616C106.651 38.9573 107.293 38.0907 108.055 37.016C109.13 35.4907 110.291 33.8787 111.539 32.18C112.822 30.4813 114.001 29.0253 115.075 27.812C116.185 26.564 116.999 25.94 117.519 25.94C117.831 25.94 118.022 26.252 118.091 26.876C118.091 27.0147 118.074 27.188 118.039 27.396C118.005 27.708 117.987 28.2453 117.987 29.008C117.987 30.984 118.421 32.5267 119.287 33.636C120.154 34.7453 121.246 35.3 122.563 35.3C123.465 35.3 124.366 35.1787 125.267 34.936C126.169 34.728 126.949 34.52 127.607 34.312C128.231 34.104 128.647 34 128.855 34C129.167 34 129.341 34.0867 129.375 34.26C129.375 34.3987 128.942 34.6067 128.075 34.884C127.243 35.196 126.238 35.4733 125.059 35.716C123.881 35.9933 122.823 36.132 121.887 36.132C120.466 36.132 119.322 35.8027 118.455 35.144C117.623 34.52 117.017 33.7227 116.635 32.752C116.289 31.7813 116.115 30.828 116.115 29.892C116.115 29.0947 116.219 28.3667 116.427 27.708C116.289 27.708 115.769 28.2973 114.867 29.476C114.001 30.6547 112.978 32.0933 111.799 33.792C110.101 36.184 108.454 38.4373 106.859 40.552C105.265 42.7013 104.259 43.776 103.843 43.776C103.774 43.776 103.687 43.7587 103.583 43.724C103.479 43.6893 103.393 43.6373 103.323 43.568C103.115 43.36 103.011 42.9787 103.011 42.424C103.011 41.488 103.306 40.0667 103.895 38.16C104.45 36.2533 105.074 34.5027 105.767 32.908C106.495 31.3133 107.067 30.516 107.483 30.516H107.587C107.761 30.5507 107.899 30.6373 108.003 30.776C108.107 30.88 108.159 31.0013 108.159 31.14V31.244C108.159 31.6253 107.951 32.4053 107.535 33.584C107.154 34.7627 106.738 35.976 106.287 37.224C105.975 38.0907 105.715 38.836 105.507 39.46C105.299 40.084 105.195 40.4653 105.195 40.604ZM130.646 34.676C131.304 34.156 131.772 33.7573 132.05 33.48C132.292 33.2373 132.414 32.9947 132.414 32.752V32.648C132.414 32.44 132.396 32.2493 132.362 32.076C132.327 32.0067 132.292 31.9547 132.258 31.92C132.223 31.8853 132.171 31.868 132.102 31.868C131.79 31.868 131.408 32.076 130.958 32.492C130.507 32.908 130.056 33.3933 129.606 33.948C129.19 34.5027 128.826 35.0053 128.514 35.456C128.236 35.9413 128.098 36.236 128.098 36.34C128.098 36.3747 128.115 36.392 128.15 36.392C128.358 36.392 129.19 35.82 130.646 34.676ZM153.214 34C153.248 34 153.283 34 153.318 34C153.352 34 153.387 34.0173 153.422 34.052C153.456 34.0867 153.474 34.1387 153.474 34.208C153.474 34.2773 152.832 34.6413 151.55 35.3C150.302 35.9933 148.776 36.652 146.974 37.276C145.171 37.9347 143.438 38.264 141.774 38.264C139.971 38.264 138.671 37.796 137.874 36.86C137.076 35.9587 136.678 34.6067 136.678 32.804C136.678 32.4227 136.522 32.232 136.21 32.232H136.158C135.776 32.232 135.274 32.492 134.65 33.012C134.06 33.4973 133.592 34.1213 133.246 34.884C132.795 35.82 132.466 36.288 132.258 36.288C132.223 36.288 132.188 36.2707 132.154 36.236C132.154 36.2013 132.154 36.132 132.154 36.028C132.154 35.8893 132.171 35.768 132.206 35.664V35.456C132.206 35.4213 132.206 35.3867 132.206 35.352C132.206 35.352 132.188 35.352 132.154 35.352C132.084 35.352 131.928 35.4387 131.686 35.612C131.478 35.7853 131.218 36.0107 130.906 36.288C130.247 36.8427 129.536 37.3973 128.774 37.952C128.011 38.5067 127.404 38.784 126.954 38.784C126.607 38.784 126.312 38.6453 126.07 38.368C125.862 38.1253 125.758 37.8653 125.758 37.588V37.432C125.758 36.704 126.122 35.7333 126.85 34.52C127.543 33.3413 128.375 32.284 129.346 31.348C130.351 30.3773 131.287 29.892 132.154 29.892C132.743 29.892 133.142 30.0827 133.35 30.464C133.558 30.8453 133.696 31.2093 133.766 31.556C133.8 31.6947 133.835 31.816 133.87 31.92C133.904 31.9893 133.939 32.024 133.974 32.024C134.078 32.024 134.286 31.9027 134.598 31.66C134.91 31.452 135.239 31.244 135.586 31.036C135.932 30.828 136.279 30.724 136.626 30.724C137.18 30.724 137.544 30.9667 137.718 31.452C137.926 31.9027 138.099 32.4573 138.238 33.116C138.342 33.74 138.515 34.364 138.758 34.988C139 35.6467 139.382 36.184 139.902 36.6C140.456 37.0507 141.288 37.276 142.398 37.276C143.819 37.276 145.275 36.9987 146.766 36.444C148.256 35.924 149.574 35.404 150.718 34.884C151.966 34.2947 152.798 34 153.214 34ZM145.322 69.88C147.783 69.88 150.297 68.2507 152.862 64.992C155.462 61.7333 156.849 57.972 157.022 53.708C156.987 51.5587 156.554 49.4787 155.722 47.468C155.687 47.468 155.011 48.144 153.694 49.496C152.411 50.848 150.955 52.5467 149.326 54.592C147.697 56.6373 146.241 58.7867 144.958 61.04C143.675 63.2933 143.034 65.3387 143.034 67.176C143.034 68.8747 143.797 69.776 145.322 69.88ZM170.178 34.104C170.178 34.1387 169.953 34.3467 169.502 34.728C169.051 35.144 168.445 35.6813 167.682 36.34C166.365 37.4493 164.891 38.6973 163.262 40.084C161.667 41.5053 160.263 42.788 159.05 43.932C157.871 45.1107 157.265 45.8907 157.23 46.272C157.23 46.376 157.317 46.6533 157.49 47.104C157.733 47.7627 158.01 48.6987 158.322 49.912C158.669 51.1253 158.842 52.5293 158.842 54.124C158.842 57.2787 158.079 60.156 156.554 62.756C155.029 65.3907 153.226 67.488 151.146 69.048C149.066 70.608 147.177 71.388 145.478 71.388C145.305 71.388 144.941 71.3187 144.386 71.18C143.797 71.0413 143.242 70.6947 142.722 70.14C142.202 69.5853 141.942 68.7013 141.942 67.488C141.942 65.3733 142.618 63.1373 143.97 60.78C145.287 58.4227 146.813 56.204 148.546 54.124C150.245 52.044 151.753 50.2933 153.07 48.872C154.526 47.3467 155.254 46.4627 155.254 46.22C155.254 45.8733 155.098 45.2493 154.786 44.348C154.509 43.6547 154.249 42.8747 154.006 42.008C153.798 41.176 153.694 40.3787 153.694 39.616C153.694 38.4373 154.041 37.38 154.734 36.444C155.427 35.508 156.259 34.5893 157.23 33.688C160.003 30.8453 161.39 29.3373 161.39 29.164L161.338 29.112H161.286C160.593 29.112 159.657 29.4933 158.478 30.256C157.299 30.984 156.138 31.7987 154.994 32.7C153.885 33.5667 153.018 34.26 152.394 34.78L151.822 35.248C151.787 35.248 151.735 35.2307 151.666 35.196C151.631 35.1613 151.597 35.1267 151.562 35.092C151.562 35.0573 151.545 35.0227 151.51 34.988V34.936C151.51 34.624 152.151 33.9133 153.434 32.804C154.751 31.66 156.225 30.568 157.854 29.528C159.483 28.488 160.749 27.968 161.65 27.968C162.482 27.968 162.915 28.28 162.95 28.904C162.95 29.7013 162.534 30.6027 161.702 31.608C160.87 32.5787 159.934 33.5667 158.894 34.572C157.889 35.5427 156.987 36.4787 156.19 37.38C155.427 38.2813 155.046 39.0787 155.046 39.772C155.046 40.2573 155.185 40.8987 155.462 41.696C155.739 42.528 156.017 43.2733 156.294 43.932C156.606 44.5907 156.814 44.92 156.918 44.92C156.953 44.92 157.178 44.712 157.594 44.296C158.495 43.464 159.813 42.2333 161.546 40.604C163.279 39.0093 164.995 37.5013 166.694 36.08C168.393 34.6933 169.519 34 170.074 34C170.143 34 170.178 34.0347 170.178 34.104ZM169.334 40.292C169.716 40.292 170.184 39.9973 170.738 39.408C171.328 38.8187 171.848 38.0213 172.298 37.016C172.749 36.0107 172.974 34.9013 172.974 33.688V33.428C172.974 33.2547 172.94 33.064 172.87 32.856C172.801 32.6133 172.697 32.4053 172.558 32.232C172.454 32.0587 172.281 31.972 172.038 31.972C171.726 31.972 171.293 32.4227 170.738 33.324C170.218 34.1907 169.75 35.1787 169.334 36.288C168.918 37.432 168.71 38.3853 168.71 39.148C168.71 39.876 168.918 40.2573 169.334 40.292ZM183.322 33.896C183.634 33.896 183.79 33.9653 183.79 34.104C183.79 34.1733 183.704 34.26 183.53 34.364C183.357 34.5027 183.062 34.624 182.646 34.728C182.23 34.832 181.641 34.884 180.878 34.884C179.11 34.884 177.672 34.6067 176.562 34.052C175.488 33.532 174.708 33.064 174.222 32.648C173.945 32.4053 173.754 32.284 173.65 32.284C173.616 32.3187 173.581 32.3533 173.546 32.388C173.546 32.388 173.546 32.4053 173.546 32.44C173.72 32.9253 173.824 33.4453 173.858 34C173.858 35.9413 173.286 37.6227 172.142 39.044C170.998 40.5 169.889 41.228 168.814 41.228C167.705 41.228 167.133 40.3787 167.098 38.68C167.133 37.2933 167.48 35.8893 168.138 34.468C168.797 33.0813 169.594 32.0413 170.53 31.348C170.53 31.3133 170.548 31.296 170.582 31.296C170.79 31.1227 170.929 31.0013 170.998 30.932C171.102 30.8627 171.154 30.776 171.154 30.672V30.62C171.154 30.5507 171.154 30.4467 171.154 30.308C171.189 30.1347 171.241 29.996 171.31 29.892C171.38 29.7533 171.484 29.684 171.622 29.684C172.004 29.684 172.576 30.0653 173.338 30.828C174.101 31.5213 175.089 32.2667 176.302 33.064C177.55 33.8267 179.041 34.208 180.774 34.208C181.606 34.208 182.196 34.1387 182.542 34C182.82 33.9307 183.08 33.896 183.322 33.896ZM180.947 47.728C181.64 47.6587 182.42 47.2427 183.287 46.48C184.154 45.7173 184.916 44.868 185.575 43.932C186.234 42.996 186.58 42.2507 186.615 41.696V41.488H186.563C186.424 41.488 186.06 41.7653 185.471 42.32C184.882 42.8747 184.24 43.516 183.547 44.244C182.854 45.0067 182.247 45.7173 181.727 46.376C181.172 47.0347 180.895 47.468 180.895 47.676L180.947 47.728ZM183.235 33.48C183.235 33.6187 183.287 33.688 183.391 33.688C183.634 33.688 184.24 33.428 185.211 32.908C186.182 32.3533 187.222 31.712 188.331 30.984C189.475 30.2213 190.463 29.4933 191.295 28.8C192.127 28.1067 192.543 27.604 192.543 27.292C192.543 27.084 192.439 26.98 192.231 26.98H192.127C191.607 26.98 190.619 27.3787 189.163 28.176C187.742 28.9387 186.39 29.84 185.107 30.88C183.859 31.8853 183.235 32.752 183.235 33.48ZM200.239 34C200.412 34 200.568 34.0173 200.707 34.052C200.707 34.0867 200.43 34.1907 199.875 34.364C198.939 34.6413 197.448 35.2133 195.403 36.08C193.358 36.9813 191.018 38.316 188.383 40.084C188.244 42.06 187.69 43.7067 186.719 45.024C185.748 46.3413 184.708 47.3293 183.599 47.988C182.49 48.6467 181.71 48.976 181.259 48.976C180.843 48.976 180.496 48.8373 180.219 48.56C180.011 48.3173 179.907 48.04 179.907 47.728V47.52C179.907 46.8267 180.358 46.012 181.259 45.076C182.126 44.14 183.062 43.2387 184.067 42.372C184.76 41.748 185.35 41.1933 185.835 40.708C186.32 40.2227 186.563 39.8587 186.563 39.616C186.563 39.3387 186.372 39.0093 185.991 38.628C185.644 38.2813 185.211 37.9 184.691 37.484C183.963 36.9293 183.27 36.3053 182.611 35.612C181.987 34.9533 181.675 34.2253 181.675 33.428C181.675 32.0413 182.334 30.776 183.651 29.632C185.003 28.488 186.494 27.5693 188.123 26.876C189.787 26.148 191.087 25.784 192.023 25.784C193.063 25.784 193.635 26.2 193.739 27.032C193.739 27.5173 193.254 28.228 192.283 29.164C191.312 30.1 190.134 31.036 188.747 31.972C187.395 32.908 186.06 33.636 184.743 34.156C184.674 34.1907 184.622 34.208 184.587 34.208C184.24 34.3467 184.067 34.4853 184.067 34.624C184.067 34.9013 184.431 35.2827 185.159 35.768C185.644 36.1493 186.164 36.6 186.719 37.12C187.274 37.64 187.724 38.264 188.071 38.992H188.123C188.123 38.9573 188.14 38.94 188.175 38.94C188.348 38.836 188.782 38.5933 189.475 38.212C190.376 37.7267 191.486 37.1547 192.803 36.496C194.12 35.8373 195.42 35.248 196.703 34.728C198.02 34.208 199.06 33.948 199.823 33.948C199.962 33.948 200.1 33.9653 200.239 34Z" fill="white"/>
<path opacity="0.2" d="M48.1273 96.6138L41.0179 91.9419C40.2054 92.1619 39.3675 92.272 38.5042 92.272C35.0172 92.272 32.3512 91.2394 30.5062 89.1743C28.678 87.1092 27.764 84.0962 27.764 80.1353V58.5278C27.764 54.6854 28.7034 51.7655 30.5823 49.7681C32.4782 47.7707 35.2119 46.772 38.7835 46.772C42.3551 46.772 45.0804 47.7707 46.9593 49.7681C48.8551 51.7655 49.803 54.6854 49.803 58.5278V80.1353C49.803 83.8254 48.9736 86.7284 47.3148 88.8442L51.1488 91.2817L48.1273 96.6138ZM38.7835 84.0454C39.4267 84.0454 39.8838 83.8084 40.1546 83.3345C40.4424 82.8605 40.6201 82.2765 40.6878 81.5825C40.7724 80.8885 40.8148 80.2199 40.8148 79.5767V58.6802C40.8148 57.7323 40.6793 56.8859 40.4085 56.1411C40.1546 55.3794 39.596 54.9985 38.7327 54.9985C37.8525 54.9985 37.277 55.3709 37.0062 56.1157C36.7353 56.8436 36.5999 57.6899 36.5999 58.6548V79.7544C36.5999 80.3468 36.6338 80.9816 36.7015 81.6587C36.7861 82.3188 36.9808 82.8859 37.2855 83.3599C37.5902 83.8169 38.0895 84.0454 38.7835 84.0454ZM63.3627 92.272C59.6387 92.272 56.8965 91.231 55.1361 89.1489C53.3757 87.05 52.4955 83.9692 52.4955 79.9067V47.1782H61.1791V79.5513C61.1791 80.2961 61.2214 81.0155 61.306 81.7095C61.3907 82.3866 61.5853 82.9451 61.89 83.3853C62.1947 83.8254 62.6856 84.0454 63.3627 84.0454C64.0567 84.0454 64.556 83.8338 64.8607 83.4106C65.1654 82.9705 65.3516 82.4035 65.4193 81.7095C65.5039 81.0155 65.5462 80.2961 65.5462 79.5513V47.1782H74.2298V79.9067C74.2298 83.9692 73.3496 87.05 71.5892 89.1489C69.8288 91.231 67.0866 92.272 63.3627 92.272ZM76.6176 91.8657V47.1782H94.4926V55.811H85.7074V64.52H94.1371V72.9243H85.7074V83.1567H95.0766V91.8657H76.6176ZM108.155 91.8657V47.1782H121.764L125.522 74.4224L129.254 47.1782H142.991V91.8657H134.815V59.6704L129.686 91.8657H121.663L116.229 59.6704V91.8657H108.155ZM144.693 91.8657L149.009 47.1782H164.168L168.408 91.8657H159.953L159.318 84.6548H153.935L153.376 91.8657H144.693ZM154.57 77.52H158.632L156.677 54.7954H156.271L154.57 77.52ZM170.11 91.8657V47.1782H183.821C186.106 47.1782 187.833 47.703 189.001 48.7524C190.169 49.785 190.947 51.2407 191.336 53.1196C191.743 54.9816 191.946 57.1737 191.946 59.6958C191.946 62.1333 191.633 64.0799 191.006 65.5356C190.397 66.9914 189.238 67.9985 187.528 68.5571C188.933 68.8449 189.915 69.5474 190.473 70.6646C191.049 71.7648 191.336 73.1951 191.336 74.9556V91.8657H182.526V74.3716C182.526 73.0682 182.255 72.2642 181.713 71.9595C181.189 71.6379 180.334 71.4771 179.149 71.4771V91.8657H170.11ZM179.2 63.7329H181.358C182.594 63.7329 183.211 62.3872 183.211 59.6958C183.211 57.9523 183.076 56.8097 182.805 56.2681C182.534 55.7264 182.027 55.4556 181.282 55.4556H179.2V63.7329ZM204.261 92.272C201.028 92.272 198.421 91.2648 196.441 89.2505C194.477 87.2362 193.496 84.4178 193.496 80.7954V60.1782C193.496 55.8449 194.351 52.5272 196.06 50.2251C197.787 47.923 200.588 46.772 204.464 46.772C206.58 46.772 208.459 47.1613 210.101 47.9399C211.76 48.7186 213.063 49.8866 214.011 51.4438C214.959 52.9842 215.433 54.9308 215.433 57.2837V65.0024H206.546V58.4009C206.546 57.0636 206.377 56.1665 206.039 55.7095C205.7 55.2355 205.175 54.9985 204.464 54.9985C203.635 54.9985 203.076 55.3032 202.789 55.9126C202.501 56.505 202.357 57.3006 202.357 58.2993V80.6685C202.357 81.9041 202.535 82.7759 202.89 83.2837C203.263 83.7915 203.787 84.0454 204.464 84.0454C205.226 84.0454 205.759 83.7323 206.064 83.106C206.386 82.4797 206.546 81.6672 206.546 80.6685V72.6196H215.535V81.0747C215.535 85.0018 214.545 87.854 212.564 89.6313C210.584 91.3918 207.816 92.272 204.261 92.272ZM216.272 91.8657L220.589 47.1782H235.747L239.987 91.8657H231.532L230.897 84.6548H225.514L224.956 91.8657H216.272ZM226.149 77.52H230.212L228.256 54.7954H227.85L226.149 77.52ZM241.689 91.8657V47.1782H250.881L254.994 68.5825V47.1782H263.627V91.8657H254.892L250.424 69.522V91.8657H241.689Z" fill="white"/>
<path d="M88.0066 85.8647C88.7346 85.8647 89.3066 85.882 89.7226 85.9167C90.1386 85.9167 90.4333 85.9514 90.6066 86.0207C90.8146 86.0554 90.936 86.1074 90.9706 86.1767C91.04 86.246 91.0746 86.3154 91.0746 86.3847C91.0746 86.454 91.0573 86.558 91.0226 86.6967C91.0226 86.8007 90.988 86.9047 90.9186 87.0087C90.884 87.1127 90.7973 87.1647 90.6586 87.1647C90.5893 87.1647 90.52 87.1647 90.4506 87.1647C90.3813 87.13 90.312 87.0954 90.2426 87.0607C90.1386 87.026 89.9653 86.974 89.7226 86.9047C89.5146 86.8354 89.168 86.7834 88.6826 86.7487C88.1973 86.714 87.504 86.6967 86.6026 86.6967C86.1173 86.6967 85.0426 86.7314 83.3786 86.8007C81.7146 86.8354 79.704 86.9394 77.3466 87.1127C76.0986 90.198 74.8333 93.5607 73.5506 97.2007C72.3026 100.806 71.228 104.307 70.3266 107.705C69.4253 111.102 68.9746 113.927 68.9746 116.181C68.9746 117.047 69.0613 117.585 69.2346 117.793C69.4426 118.001 69.72 118.105 70.0666 118.105C70.968 118.105 72.112 117.429 73.4986 116.077C74.92 114.759 76.3586 113.217 77.8146 111.449C79.2706 109.715 80.5533 108.121 81.6626 106.665C83.0146 104.862 83.7773 103.961 83.9506 103.961C83.9853 103.961 84.0026 103.978 84.0026 104.013C84.0373 104.013 84.0546 104.03 84.0546 104.065C84.0546 104.307 83.5 105.209 82.3906 106.769C81.2813 108.363 79.912 110.131 78.2826 112.073C76.688 114.014 75.0586 115.713 73.3946 117.169C71.7653 118.659 70.4133 119.405 69.3386 119.405C68.0213 119.405 67.3626 118.105 67.3626 115.505C67.3626 112.731 67.8133 109.594 68.7146 106.093C69.5813 102.626 70.604 99.246 71.7826 95.9527C72.9613 92.6247 74.0533 89.7647 75.0586 87.3727C69.6506 88.0314 66.236 88.5514 64.8146 88.9327L64.3466 89.0367C64.2426 89.0367 64.156 89.002 64.0866 88.9327L64.1386 88.9847C64.104 88.9847 64.0693 88.9674 64.0346 88.9327C63.9653 88.8634 63.9306 88.7767 63.9306 88.6727C63.9306 88.326 64.416 88.014 65.3866 87.7367C66.3573 87.4594 67.5186 87.234 68.8706 87.0607C70.2226 86.8874 71.488 86.7487 72.6666 86.6447C73.88 86.5407 74.764 86.4714 75.3186 86.4367C75.3533 86.402 75.4053 86.3847 75.4746 86.3847L77.2426 82.3287C78.144 80.318 78.8026 78.966 79.2186 78.2727C79.6346 77.5794 80.016 77.2327 80.3626 77.2327C80.848 77.2327 81.0906 77.4234 81.0906 77.8047C81.0906 77.874 80.7786 78.6367 80.1546 80.0927C79.5306 81.6527 78.6986 83.7154 77.6586 86.2807C78.6293 86.2114 80.224 86.1247 82.4426 86.0207C84.6613 85.9167 86.516 85.8647 88.0066 85.8647ZM103.057 104.013C103.092 104.013 103.109 104.013 103.109 104.013C103.144 104.047 103.161 104.065 103.161 104.065C103.161 104.099 103.161 104.134 103.161 104.169C103.161 104.481 102.728 105.261 101.861 106.509C101.029 107.757 99.9894 109.109 98.7414 110.565C97.528 112.055 96.2974 113.355 95.0494 114.465C93.8014 115.574 92.796 116.129 92.0334 116.129C91.9987 116.129 91.8947 116.111 91.7214 116.077C91.548 116.042 91.3574 115.938 91.1494 115.765C90.9414 115.591 90.7507 115.331 90.5774 114.985C90.404 114.638 90.3174 114.153 90.3174 113.529C90.3174 111.899 90.768 109.941 91.6694 107.653C92.6054 105.399 93.3854 103.649 94.0094 102.401C94.2867 101.811 94.4254 101.482 94.4254 101.413C94.3214 101.413 93.8014 101.898 92.8654 102.869C91.9987 103.77 90.9587 104.793 89.7454 105.937C88.532 107.115 87.336 108.138 86.1574 109.005C84.9787 109.906 84.008 110.357 83.2454 110.357C82.7947 110.357 82.3787 110.149 81.9974 109.733C81.616 109.317 81.4254 108.71 81.4254 107.913C81.4254 107.046 81.616 106.11 81.9974 105.105C82.344 104.099 82.7774 103.233 83.2974 102.505C83.8174 101.742 84.3027 101.361 84.7534 101.361C84.8574 101.361 84.9787 101.395 85.1174 101.465C85.2907 101.534 85.3774 101.655 85.3774 101.829C85.3774 101.967 85.1867 102.453 84.8054 103.285C84.4587 104.117 84.0774 105.053 83.6614 106.093C83.28 107.167 83.0894 108.017 83.0894 108.641C83.0894 109.161 83.28 109.421 83.6614 109.421C84.3894 109.421 85.5507 108.675 87.1454 107.185C88.7747 105.729 90.3694 104.203 91.9294 102.609C92.9 101.603 93.732 100.771 94.4254 100.113C95.1534 99.4194 95.6214 99.0727 95.8294 99.0727C95.8987 99.1074 95.968 99.142 96.0374 99.1767C96.1067 99.2114 96.1587 99.2634 96.1934 99.3327C96.332 99.402 96.4014 99.5234 96.4014 99.6967V99.8007C96.4014 100.217 95.9507 101.499 95.0494 103.649C94.3214 105.486 93.5934 107.427 92.8654 109.473C92.1374 111.553 91.7734 113.182 91.7734 114.361C91.7734 114.846 91.964 115.089 92.3454 115.089H92.5014C93.056 115.089 93.888 114.534 94.9974 113.425C96.1414 112.315 97.32 111.05 98.5334 109.629C99.7467 108.207 100.787 106.925 101.653 105.781C102.52 104.671 102.953 104.099 102.953 104.065L103.005 104.013H103.057ZM118.222 100.997C117.772 101.031 117.234 101.205 116.61 101.517C116.021 101.829 115.466 102.193 114.946 102.609C114.461 102.99 114.218 103.319 114.218 103.597C114.218 103.666 114.253 103.701 114.322 103.701H114.426C114.669 103.701 115.137 103.614 115.83 103.441C116.524 103.267 117.182 103.007 117.806 102.661C118.43 102.314 118.742 101.881 118.742 101.361C118.742 101.291 118.69 101.222 118.586 101.153C118.517 101.049 118.396 100.997 118.222 100.997ZM129.61 104.013H129.766C129.801 104.013 129.836 104.013 129.87 104.013C129.905 104.013 129.922 104.03 129.922 104.065C129.922 104.169 129.142 104.706 127.582 105.677C126.022 106.647 124.168 107.583 122.018 108.485C119.904 109.386 117.893 109.906 115.986 110.045H115.518C114.305 110.045 113.369 109.837 112.71 109.421C112.086 109.005 111.653 108.485 111.41 107.861C111.133 107.271 110.994 106.682 110.994 106.093C110.994 104.845 111.41 103.735 112.242 102.765C113.109 101.759 114.097 100.979 115.206 100.425C116.316 99.8354 117.286 99.5407 118.118 99.5407C118.638 99.5407 119.02 99.6274 119.262 99.8007C119.505 99.974 119.644 100.165 119.678 100.373C119.748 100.581 119.782 100.754 119.782 100.893C119.782 101.759 119.245 102.626 118.17 103.493C117.13 104.325 115.744 104.741 114.01 104.741C113.386 104.741 113.022 105.261 112.918 106.301C112.918 107.999 114.01 108.866 116.194 108.901C116.437 108.901 116.68 108.883 116.922 108.849C119.072 108.606 121.169 108.034 123.214 107.133C125.26 106.266 126.924 105.469 128.206 104.741C128.83 104.394 129.298 104.151 129.61 104.013ZM127.363 117.741C128.056 117.671 128.836 117.255 129.703 116.493C130.569 115.73 131.332 114.881 131.991 113.945C132.649 113.009 132.996 112.263 133.031 111.709V111.501H132.979C132.84 111.501 132.476 111.778 131.887 112.333C131.297 112.887 130.656 113.529 129.963 114.257C129.269 115.019 128.663 115.73 128.143 116.389C127.588 117.047 127.311 117.481 127.311 117.689L127.363 117.741ZM129.651 103.493C129.651 103.631 129.703 103.701 129.807 103.701C130.049 103.701 130.656 103.441 131.627 102.921C132.597 102.366 133.637 101.725 134.747 100.997C135.891 100.234 136.879 99.506 137.711 98.8127C138.543 98.1194 138.959 97.6167 138.959 97.3047C138.959 97.0967 138.855 96.9927 138.647 96.9927H138.543C138.023 96.9927 137.035 97.3914 135.579 98.1887C134.157 98.9514 132.805 99.8527 131.523 100.893C130.275 101.898 129.651 102.765 129.651 103.493ZM146.655 104.013C146.828 104.013 146.984 104.03 147.123 104.065C147.123 104.099 146.845 104.203 146.291 104.377C145.355 104.654 143.864 105.226 141.819 106.093C139.773 106.994 137.433 108.329 134.799 110.097C134.66 112.073 134.105 113.719 133.135 115.037C132.164 116.354 131.124 117.342 130.015 118.001C128.905 118.659 128.125 118.989 127.675 118.989C127.259 118.989 126.912 118.85 126.635 118.573C126.427 118.33 126.323 118.053 126.323 117.741V117.533C126.323 116.839 126.773 116.025 127.675 115.089C128.541 114.153 129.477 113.251 130.483 112.385C131.176 111.761 131.765 111.206 132.251 110.721C132.736 110.235 132.979 109.871 132.979 109.629C132.979 109.351 132.788 109.022 132.407 108.641C132.06 108.294 131.627 107.913 131.107 107.497C130.379 106.942 129.685 106.318 129.027 105.625C128.403 104.966 128.091 104.238 128.091 103.441C128.091 102.054 128.749 100.789 130.067 99.6447C131.419 98.5007 132.909 97.582 134.539 96.8887C136.203 96.1607 137.503 95.7967 138.439 95.7967C139.479 95.7967 140.051 96.2127 140.155 97.0447C140.155 97.53 139.669 98.2407 138.699 99.1767C137.728 100.113 136.549 101.049 135.163 101.985C133.811 102.921 132.476 103.649 131.159 104.169C131.089 104.203 131.037 104.221 131.003 104.221C130.656 104.359 130.483 104.498 130.483 104.637C130.483 104.914 130.847 105.295 131.575 105.781C132.06 106.162 132.58 106.613 133.135 107.133C133.689 107.653 134.14 108.277 134.487 109.005H134.539C134.539 108.97 134.556 108.953 134.591 108.953C134.764 108.849 135.197 108.606 135.891 108.225C136.792 107.739 137.901 107.167 139.219 106.509C140.536 105.85 141.836 105.261 143.119 104.741C144.436 104.221 145.476 103.961 146.239 103.961C146.377 103.961 146.516 103.978 146.655 104.013ZM151.638 100.997C151.188 101.031 150.65 101.205 150.026 101.517C149.437 101.829 148.882 102.193 148.362 102.609C147.877 102.99 147.634 103.319 147.634 103.597C147.634 103.666 147.669 103.701 147.738 103.701H147.842C148.085 103.701 148.553 103.614 149.246 103.441C149.94 103.267 150.598 103.007 151.222 102.661C151.846 102.314 152.158 101.881 152.158 101.361C152.158 101.291 152.106 101.222 152.002 101.153C151.933 101.049 151.812 100.997 151.638 100.997ZM163.026 104.013H163.182C163.217 104.013 163.252 104.013 163.286 104.013C163.321 104.013 163.338 104.03 163.338 104.065C163.338 104.169 162.558 104.706 160.998 105.677C159.438 106.647 157.584 107.583 155.434 108.485C153.32 109.386 151.309 109.906 149.402 110.045H148.934C147.721 110.045 146.785 109.837 146.126 109.421C145.502 109.005 145.069 108.485 144.826 107.861C144.549 107.271 144.41 106.682 144.41 106.093C144.41 104.845 144.826 103.735 145.658 102.765C146.525 101.759 147.513 100.979 148.622 100.425C149.732 99.8354 150.702 99.5407 151.534 99.5407C152.054 99.5407 152.436 99.6274 152.678 99.8007C152.921 99.974 153.06 100.165 153.094 100.373C153.164 100.581 153.198 100.754 153.198 100.893C153.198 101.759 152.661 102.626 151.586 103.493C150.546 104.325 149.16 104.741 147.426 104.741C146.802 104.741 146.438 105.261 146.334 106.301C146.334 107.999 147.426 108.866 149.61 108.901C149.853 108.901 150.096 108.883 150.338 108.849C152.488 108.606 154.585 108.034 156.63 107.133C158.676 106.266 160.34 105.469 161.622 104.741C162.246 104.394 162.714 104.151 163.026 104.013ZM183.139 104.013C183.173 104.013 183.191 104.03 183.191 104.065V104.117H183.139C183.035 104.29 182.705 104.793 182.151 105.625C181.423 106.665 180.504 107.843 179.395 109.161C178.285 110.478 177.107 111.639 175.859 112.645C174.611 113.685 173.467 114.205 172.427 114.205C171.595 114.205 171.057 113.893 170.815 113.269C170.607 112.679 170.503 112.125 170.503 111.605C170.503 109.975 170.884 108.086 171.647 105.937C172.444 103.822 173.189 102.002 173.883 100.477C174.437 99.2634 174.715 98.5527 174.715 98.3447C174.715 98.206 174.645 98.1367 174.507 98.1367C173.917 98.1367 172.912 98.8127 171.491 100.165C170.104 101.517 168.648 102.99 167.123 104.585C165.875 105.902 164.765 107.029 163.795 107.965C162.824 108.935 162.165 109.421 161.819 109.421C161.195 109.421 160.883 109.022 160.883 108.225V107.965C160.883 107.063 161.091 105.971 161.507 104.689C161.888 103.441 162.356 102.331 162.911 101.361C163.465 100.39 163.985 99.9047 164.471 99.9047C164.991 99.9047 165.251 100.095 165.251 100.477C165.251 100.65 165.129 100.997 164.887 101.517C164.679 102.037 164.436 102.626 164.159 103.285C163.743 104.151 163.379 104.983 163.067 105.781C162.755 106.578 162.599 107.15 162.599 107.497V107.549C162.703 107.549 163.015 107.289 163.535 106.769C164.055 106.249 164.713 105.59 165.511 104.793C167.175 103.059 168.96 101.309 170.867 99.5407C172.773 97.7727 174.125 96.8887 174.923 96.8887C175.269 96.9234 175.547 97.062 175.755 97.3047C175.997 97.5127 176.119 97.79 176.119 98.1367C176.119 98.5874 175.945 99.3154 175.599 100.321C175.287 101.291 174.888 102.383 174.403 103.597C173.813 105.191 173.259 106.769 172.739 108.329C172.219 109.889 171.959 111.137 171.959 112.073C171.959 112.489 172.011 112.766 172.115 112.905C172.219 113.078 172.323 113.182 172.427 113.217C172.565 113.286 172.669 113.321 172.739 113.321C173.744 113.321 174.94 112.61 176.327 111.189C177.748 109.767 179.083 108.329 180.331 106.873C181.024 106.041 181.613 105.347 182.099 104.793C182.619 104.273 182.965 104.013 183.139 104.013ZM205.362 104.013C205.431 104.013 205.466 104.013 205.466 104.013C205.5 104.047 205.535 104.082 205.57 104.117C205.57 104.255 204.703 104.914 202.97 106.093C201.271 107.271 199.156 108.571 196.626 109.993C194.13 111.449 191.616 112.714 189.086 113.789C186.555 114.898 184.458 115.453 182.794 115.453C182.343 115.453 181.91 115.383 181.494 115.245C180.696 114.933 180.107 114.43 179.726 113.737C179.344 113.078 179.154 112.263 179.154 111.293C179.154 109.039 179.864 106.682 181.286 104.221C182.707 101.794 184.406 99.7314 186.382 98.0327C188.358 96.334 190.178 95.4847 191.842 95.4847C192.708 95.4847 193.367 95.762 193.818 96.3167C194.268 96.8714 194.494 97.5647 194.494 98.3967C194.494 99.2287 194.286 100.061 193.87 100.893C193.488 101.725 193.038 102.418 192.518 102.973C192.032 103.527 191.616 103.805 191.27 103.805C191.2 103.805 191.131 103.787 191.062 103.753C190.992 103.718 190.94 103.666 190.906 103.597C190.802 103.458 190.75 103.319 190.75 103.181C190.75 102.695 191.096 102.089 191.79 101.361C192.206 100.875 192.604 100.338 192.986 99.7487C193.367 99.1247 193.558 98.4487 193.558 97.7207V97.5647C193.558 97.2527 193.436 96.9754 193.194 96.7327C192.951 96.49 192.674 96.3687 192.362 96.3687H192.206C190.646 96.3687 188.964 97.27 187.162 99.0727C185.359 100.875 183.816 102.973 182.534 105.365C181.286 107.791 180.662 109.958 180.662 111.865C180.662 112.905 180.887 113.615 181.338 113.997C181.788 114.378 182.412 114.569 183.21 114.569C185.706 114.395 188.756 113.355 192.362 111.449C195.967 109.542 199.104 107.739 201.774 106.041C203.888 104.689 205.084 104.013 205.362 104.013ZM217.962 104.013C218.031 104.013 218.066 104.013 218.066 104.013C218.101 104.013 218.118 104.03 218.118 104.065C218.118 104.134 217.685 104.55 216.818 105.313C215.951 106.075 214.859 106.925 213.542 107.861C212.259 108.831 210.925 109.681 209.538 110.409C208.151 111.171 206.955 111.553 205.95 111.553H205.638C205.326 111.553 205.049 111.518 204.806 111.449C203.454 110.929 202.778 109.819 202.778 108.121C202.778 107.254 202.951 106.266 203.298 105.157C203.61 104.047 204.009 103.077 204.494 102.245C205.014 101.378 205.517 100.945 206.002 100.945C206.21 100.979 206.383 101.066 206.522 101.205C206.661 101.343 206.73 101.517 206.73 101.725C206.73 102.106 206.505 102.747 206.054 103.649C205.742 104.342 205.43 105.087 205.118 105.885C204.806 106.717 204.65 107.531 204.65 108.329C204.65 109.091 204.858 109.611 205.274 109.889C205.725 110.201 206.297 110.357 206.99 110.357C208.099 110.357 209.434 109.837 210.994 108.797C212.589 107.791 214.027 106.786 215.31 105.781C216.766 104.602 217.65 104.013 217.962 104.013ZM206.834 98.4487C206.418 98.2407 206.21 97.946 206.21 97.5647V97.2527C206.21 96.802 206.418 96.438 206.834 96.1607C207.077 96.022 207.319 95.9527 207.562 95.9527C207.77 95.9527 207.978 96.0047 208.186 96.1087C208.637 96.4207 208.862 96.8194 208.862 97.3047C208.862 97.6514 208.723 97.9634 208.446 98.2407C208.203 98.4834 207.909 98.6047 207.562 98.6047C207.319 98.6047 207.077 98.5527 206.834 98.4487ZM219.816 104.689C220.474 104.169 220.942 103.77 221.22 103.493C221.462 103.25 221.584 103.007 221.584 102.765V102.661C221.584 102.453 221.566 102.262 221.532 102.089C221.497 102.019 221.462 101.967 221.428 101.933C221.393 101.898 221.341 101.881 221.272 101.881C220.96 101.881 220.578 102.089 220.128 102.505C219.677 102.921 219.226 103.406 218.776 103.961C218.36 104.515 217.996 105.018 217.684 105.469C217.406 105.954 217.268 106.249 217.268 106.353C217.268 106.387 217.285 106.405 217.32 106.405C217.528 106.405 218.36 105.833 219.816 104.689ZM242.384 104.013C242.418 104.013 242.453 104.013 242.488 104.013C242.522 104.013 242.557 104.03 242.592 104.065C242.626 104.099 242.644 104.151 242.644 104.221C242.644 104.29 242.002 104.654 240.72 105.313C239.472 106.006 237.946 106.665 236.144 107.289C234.341 107.947 232.608 108.277 230.944 108.277C229.141 108.277 227.841 107.809 227.044 106.873C226.246 105.971 225.848 104.619 225.848 102.817C225.848 102.435 225.692 102.245 225.38 102.245H225.328C224.946 102.245 224.444 102.505 223.82 103.025C223.23 103.51 222.762 104.134 222.416 104.897C221.965 105.833 221.636 106.301 221.428 106.301C221.393 106.301 221.358 106.283 221.324 106.249C221.324 106.214 221.324 106.145 221.324 106.041C221.324 105.902 221.341 105.781 221.376 105.677V105.469C221.376 105.434 221.376 105.399 221.376 105.365C221.376 105.365 221.358 105.365 221.324 105.365C221.254 105.365 221.098 105.451 220.856 105.625C220.648 105.798 220.388 106.023 220.076 106.301C219.417 106.855 218.706 107.41 217.944 107.965C217.181 108.519 216.574 108.797 216.124 108.797C215.777 108.797 215.482 108.658 215.24 108.381C215.032 108.138 214.928 107.878 214.928 107.601V107.445C214.928 106.717 215.292 105.746 216.02 104.533C216.713 103.354 217.545 102.297 218.516 101.361C219.521 100.39 220.457 99.9047 221.324 99.9047C221.913 99.9047 222.312 100.095 222.52 100.477C222.728 100.858 222.866 101.222 222.936 101.569C222.97 101.707 223.005 101.829 223.04 101.933C223.074 102.002 223.109 102.037 223.144 102.037C223.248 102.037 223.456 101.915 223.768 101.673C224.08 101.465 224.409 101.257 224.756 101.049C225.102 100.841 225.449 100.737 225.796 100.737C226.35 100.737 226.714 100.979 226.888 101.465C227.096 101.915 227.269 102.47 227.408 103.129C227.512 103.753 227.685 104.377 227.928 105.001C228.17 105.659 228.552 106.197 229.072 106.613C229.626 107.063 230.458 107.289 231.568 107.289C232.989 107.289 234.445 107.011 235.936 106.457C237.426 105.937 238.744 105.417 239.888 104.897C241.136 104.307 241.968 104.013 242.384 104.013Z" fill="white"/>
</svg>
