<svg width="940" height="280" viewBox="0 0 940 280" fill="none" xmlns="http://www.w3.org/2000/svg">
<path d="M281.673 190.821C273.47 190.821 267.643 188.721 264.193 184.522C260.775 180.323 259.066 174.154 259.066 166.016V143.458C259.066 137.338 259.717 132.244 261.019 128.175C262.321 124.106 264.6 121.062 267.855 119.044C271.11 117.025 275.635 116.016 281.429 116.016C285.466 116.016 289.079 116.733 292.269 118.165C295.492 119.597 298.031 121.697 299.886 124.464C301.742 127.231 302.669 130.616 302.669 134.62V145.802H284.847V135.548C284.847 133.855 284.603 132.439 284.115 131.3C283.626 130.128 282.569 129.542 280.941 129.542C278.076 129.542 276.644 131.576 276.644 135.645V171.143C276.644 172.641 276.97 174.024 277.621 175.294C278.272 176.531 279.346 177.149 280.843 177.149C282.373 177.149 283.431 176.547 284.017 175.343C284.636 174.106 284.945 172.673 284.945 171.046V158.741H302.669V171.534C302.669 175.57 301.758 179.037 299.935 181.934C298.145 184.799 295.671 186.996 292.513 188.526C289.356 190.056 285.742 190.821 281.673 190.821ZM320.103 190.821C316.034 190.821 312.925 189.877 310.777 187.989C308.661 186.101 307.212 183.513 306.431 180.225C305.65 176.938 305.259 173.21 305.259 169.044C305.259 164.584 305.699 160.938 306.578 158.106C307.457 155.242 308.954 152.898 311.07 151.075C313.218 149.252 316.164 147.706 319.908 146.436L330.748 142.725V135.206C330.748 131.267 329.462 129.298 326.89 129.298C324.546 129.298 323.375 130.893 323.375 134.083V138.477H306.382C306.35 138.217 306.333 137.891 306.333 137.501C306.333 137.078 306.333 136.606 306.333 136.085C306.333 128.793 308.042 123.634 311.46 120.606C314.911 117.546 320.363 116.016 327.818 116.016C331.724 116.016 335.223 116.716 338.316 118.116C341.408 119.483 343.85 121.518 345.64 124.219C347.463 126.921 348.375 130.258 348.375 134.229V190.04H330.992V181.348C330.145 184.408 328.746 186.752 326.792 188.38C324.839 190.007 322.61 190.821 320.103 190.821ZM326.988 177.247C328.42 177.247 329.397 176.645 329.917 175.44C330.438 174.236 330.699 172.934 330.699 171.534V151.124C328.29 152.1 326.418 153.337 325.083 154.835C323.749 156.3 323.082 158.464 323.082 161.329V170.753C323.082 175.082 324.384 177.247 326.988 177.247ZM367.517 190.821C364.132 190.821 361.446 190.203 359.46 188.966C357.475 187.729 355.994 186.02 355.017 183.839C354.041 181.658 353.389 179.102 353.064 176.173C352.771 173.243 352.625 170.102 352.625 166.749V134.913C352.625 129.281 353.617 124.724 355.603 121.241C357.621 117.758 361.023 116.016 365.808 116.016C369.356 116.016 372.074 116.781 373.962 118.311C375.883 119.809 377.364 121.908 378.406 124.61V104.102H396.179V190.04H378.406V182.276C377.429 184.913 376.127 186.996 374.5 188.526C372.904 190.056 370.577 190.821 367.517 190.821ZM374.207 177.149C375.867 177.149 376.973 176.482 377.527 175.147C378.113 173.813 378.406 171.42 378.406 167.969V137.159C378.406 135.434 378.145 133.741 377.625 132.081C377.136 130.388 376.029 129.542 374.304 129.542C372.416 129.542 371.228 130.339 370.74 131.934C370.251 133.529 370.007 135.271 370.007 137.159V167.969C370.007 174.089 371.407 177.149 374.207 177.149ZM414.248 190.821C410.179 190.821 407.07 189.877 404.921 187.989C402.806 186.101 401.357 183.513 400.576 180.225C399.794 176.938 399.404 173.21 399.404 169.044C399.404 164.584 399.843 160.938 400.722 158.106C401.601 155.242 403.098 152.898 405.214 151.075C407.363 149.252 410.309 147.706 414.052 146.436L424.892 142.725V135.206C424.892 131.267 423.606 129.298 421.035 129.298C418.691 129.298 417.519 130.893 417.519 134.083V138.477H400.527C400.494 138.217 400.478 137.891 400.478 137.501C400.478 137.078 400.478 136.606 400.478 136.085C400.478 128.793 402.187 123.634 405.605 120.606C409.056 117.546 414.508 116.016 421.962 116.016C425.869 116.016 429.368 116.716 432.46 118.116C435.553 119.483 437.994 121.518 439.785 124.219C441.608 126.921 442.519 130.258 442.519 134.229V190.04H425.136V181.348C424.29 184.408 422.89 186.752 420.937 188.38C418.984 190.007 416.754 190.821 414.248 190.821ZM421.132 177.247C422.565 177.247 423.541 176.645 424.062 175.44C424.583 174.236 424.843 172.934 424.843 171.534V151.124C422.434 152.1 420.563 153.337 419.228 154.835C417.893 156.3 417.226 158.464 417.226 161.329V170.753C417.226 175.082 418.528 177.247 421.132 177.247ZM468.695 190.04V116.798H486.468V124.952C487.315 122.12 488.812 119.906 490.96 118.311C493.109 116.716 495.811 115.919 499.066 115.919V130.518C497.634 130.518 495.925 130.681 493.939 131.007C491.953 131.3 490.212 131.723 488.714 132.276C487.217 132.797 486.468 133.383 486.468 134.034V190.04H468.695ZM522.652 190.821C508.069 190.821 500.777 183.253 500.777 168.116V138.721C500.777 131.82 502.714 126.319 506.587 122.218C510.461 118.083 515.816 116.016 522.652 116.016C529.52 116.016 534.891 118.083 538.765 122.218C542.639 126.319 544.576 131.82 544.576 138.721V168.116C544.576 183.253 537.268 190.821 522.652 190.821ZM522.652 177.344C524.117 177.344 525.158 176.824 525.777 175.782C526.428 174.708 526.753 173.357 526.753 171.729V135.938C526.753 131.674 525.386 129.542 522.652 129.542C519.917 129.542 518.55 131.674 518.55 135.938V171.729C518.55 173.357 518.86 174.708 519.478 175.782C520.129 176.824 521.187 177.344 522.652 177.344ZM569.138 190.821C554.685 190.821 547.458 183.497 547.458 168.848V163.038H565.037V171.632C565.037 173.292 565.362 174.594 566.013 175.538C566.664 176.482 567.706 176.954 569.138 176.954C571.677 176.954 572.947 175.05 572.947 171.241C572.947 168.051 572.279 165.675 570.945 164.112C569.61 162.517 567.983 160.987 566.062 159.522L556.736 152.344C553.806 150.066 551.576 147.657 550.046 145.118C548.516 142.579 547.751 139.047 547.751 134.522C547.751 130.323 548.744 126.856 550.73 124.122C552.748 121.387 555.401 119.353 558.689 118.018C562.009 116.684 565.59 116.016 569.431 116.016C583.624 116.016 590.72 123.096 590.72 137.257V138.624H572.654V135.841C572.654 134.376 572.393 132.96 571.873 131.593C571.384 130.225 570.408 129.542 568.943 129.542C566.469 129.542 565.232 130.844 565.232 133.448C565.232 136.085 566.274 138.152 568.357 139.649L579.197 147.559C582.582 150.001 585.414 152.898 587.693 156.251C590.004 159.604 591.16 164.063 591.16 169.63C591.16 176.531 589.19 181.788 585.251 185.401C581.345 189.014 575.974 190.821 569.138 190.821ZM609.57 190.821C604.85 190.821 601.66 189.828 600 187.843C598.372 185.824 597.558 182.748 597.558 178.614V132.96H592.626V119.63H597.558V104.102H614.55V119.63H619.482V132.96H614.55V174.512C614.55 175.717 614.746 176.563 615.136 177.052C615.527 177.54 616.276 177.784 617.382 177.784C618.164 177.784 618.863 177.719 619.482 177.589V189.503C619.091 189.633 617.871 189.877 615.82 190.235C613.769 190.626 611.686 190.821 609.57 190.821ZM623.097 190.04V116.798H640.871V124.952C641.717 122.12 643.214 119.906 645.363 118.311C647.511 116.716 650.213 115.919 653.468 115.919V130.518C652.036 130.518 650.327 130.681 648.341 131.007C646.356 131.3 644.614 131.723 643.117 132.276C641.619 132.797 640.871 133.383 640.871 134.034V190.04H623.097ZM677.054 190.821C662.471 190.821 655.179 183.253 655.179 168.116V138.721C655.179 131.82 657.116 126.319 660.99 122.218C664.863 118.083 670.218 116.016 677.054 116.016C683.923 116.016 689.294 118.083 693.167 122.218C697.041 126.319 698.978 131.82 698.978 138.721V168.116C698.978 183.253 691.67 190.821 677.054 190.821ZM677.054 177.344C678.519 177.344 679.561 176.824 680.179 175.782C680.83 174.708 681.156 173.357 681.156 171.729V135.938C681.156 131.674 679.789 129.542 677.054 129.542C674.32 129.542 672.953 131.674 672.953 135.938V171.729C672.953 173.357 673.262 174.708 673.88 175.782C674.531 176.824 675.589 177.344 677.054 177.344Z" fill="#51483F"/>
<path d="M529.68 222.72C528.293 222.827 526.64 223.36 524.72 224.32C522.907 225.28 521.2 226.4 519.6 227.68C518.107 228.853 517.36 229.867 517.36 230.72C517.36 230.933 517.467 231.04 517.68 231.04H518C518.747 231.04 520.187 230.773 522.32 230.24C524.453 229.707 526.48 228.907 528.4 227.84C530.32 226.773 531.28 225.44 531.28 223.84C531.28 223.627 531.12 223.413 530.8 223.2C530.587 222.88 530.213 222.72 529.68 222.72ZM564.72 232H565.2C565.307 232 565.413 232 565.52 232C565.627 232 565.68 232.053 565.68 232.16C565.68 232.48 563.28 234.133 558.48 237.12C553.68 240.107 547.973 242.987 541.36 245.76C534.853 248.533 528.667 250.133 522.8 250.56H521.36C517.627 250.56 514.747 249.92 512.72 248.64C510.8 247.36 509.467 245.76 508.72 243.84C507.867 242.027 507.44 240.213 507.44 238.4C507.44 234.56 508.72 231.147 511.28 228.16C513.947 225.067 516.987 222.667 520.4 220.96C523.813 219.147 526.8 218.24 529.36 218.24C530.96 218.24 532.133 218.507 532.88 219.04C533.627 219.573 534.053 220.16 534.16 220.8C534.373 221.44 534.48 221.973 534.48 222.4C534.48 225.067 532.827 227.733 529.52 230.4C526.32 232.96 522.053 234.24 516.72 234.24C514.8 234.24 513.68 235.84 513.36 239.04C513.36 244.267 516.72 246.933 523.44 247.04C524.187 247.04 524.933 246.987 525.68 246.88C532.293 246.133 538.747 244.373 545.04 241.6C551.333 238.933 556.453 236.48 560.4 234.24C562.32 233.173 563.76 232.427 564.72 232ZM561.004 274.24C563.137 274.027 565.537 272.747 568.204 270.4C570.87 268.053 573.217 265.44 575.244 262.56C577.27 259.68 578.337 257.387 578.444 255.68V255.04H578.284C577.857 255.04 576.737 255.893 574.924 257.6C573.11 259.307 571.137 261.28 569.004 263.52C566.87 265.867 565.004 268.053 563.404 270.08C561.697 272.107 560.844 273.44 560.844 274.08L561.004 274.24ZM568.044 230.4C568.044 230.827 568.204 231.04 568.524 231.04C569.27 231.04 571.137 230.24 574.124 228.64C577.11 226.933 580.31 224.96 583.724 222.72C587.244 220.373 590.284 218.133 592.844 216C595.404 213.867 596.684 212.32 596.684 211.36C596.684 210.72 596.364 210.4 595.724 210.4H595.404C593.804 210.4 590.764 211.627 586.284 214.08C581.91 216.427 577.75 219.2 573.804 222.4C569.964 225.493 568.044 228.16 568.044 230.4ZM620.364 232C620.897 232 621.377 232.053 621.804 232.16C621.804 232.267 620.95 232.587 619.244 233.12C616.364 233.973 611.777 235.733 605.484 238.4C599.19 241.173 591.99 245.28 583.884 250.72C583.457 256.8 581.75 261.867 578.764 265.92C575.777 269.973 572.577 273.013 569.164 275.04C565.75 277.067 563.35 278.08 561.964 278.08C560.684 278.08 559.617 277.653 558.764 276.8C558.124 276.053 557.804 275.2 557.804 274.24V273.6C557.804 271.467 559.19 268.96 561.964 266.08C564.63 263.2 567.51 260.427 570.604 257.76C572.737 255.84 574.55 254.133 576.044 252.64C577.537 251.147 578.284 250.027 578.284 249.28C578.284 248.427 577.697 247.413 576.524 246.24C575.457 245.173 574.124 244 572.524 242.72C570.284 241.013 568.15 239.093 566.124 236.96C564.204 234.933 563.244 232.693 563.244 230.24C563.244 225.973 565.27 222.08 569.324 218.56C573.484 215.04 578.07 212.213 583.084 210.08C588.204 207.84 592.204 206.72 595.084 206.72C598.284 206.72 600.044 208 600.364 210.56C600.364 212.053 598.87 214.24 595.884 217.12C592.897 220 589.27 222.88 585.004 225.76C580.844 228.64 576.737 230.88 572.684 232.48C572.47 232.587 572.31 232.64 572.204 232.64C571.137 233.067 570.604 233.493 570.604 233.92C570.604 234.773 571.724 235.947 573.964 237.44C575.457 238.613 577.057 240 578.764 241.6C580.47 243.2 581.857 245.12 582.924 247.36H583.084C583.084 247.253 583.137 247.2 583.244 247.2C583.777 246.88 585.11 246.133 587.244 244.96C590.017 243.467 593.43 241.707 597.484 239.68C601.537 237.653 605.537 235.84 609.484 234.24C613.537 232.64 616.737 231.84 619.084 231.84C619.51 231.84 619.937 231.893 620.364 232ZM685.754 200.48C687.247 200.48 687.994 201.013 687.994 202.08V202.56C687.78 203.733 686.98 205.013 685.594 206.4C684.314 207.787 682.66 209.013 680.634 210.08C679.887 210.4 679.087 210.987 678.234 211.84C677.38 212.587 676.527 213.387 675.674 214.24C674.927 215.093 674.18 215.84 673.434 216.48C672.794 217.013 672.314 217.28 671.994 217.28C671.78 217.28 671.62 217.227 671.514 217.12C671.514 216.907 671.514 216.693 671.514 216.48V216C671.834 214.507 672.9 212.587 674.714 210.24C676.527 207.787 678.5 205.547 680.634 203.52C682.874 201.493 684.58 200.48 685.754 200.48ZM715.994 232C716.1 232 716.154 232 716.154 232C716.26 232.107 716.314 232.16 716.314 232.16C716.314 232.267 716.314 232.373 716.314 232.48C716.314 233.44 714.98 235.84 712.314 239.68C709.754 243.52 706.554 247.68 702.714 252.16C698.98 256.747 695.194 260.747 691.354 264.16C687.514 267.573 684.42 269.28 682.074 269.28C681.967 269.28 681.647 269.227 681.114 269.12C680.58 269.013 679.994 268.693 679.354 268.16C678.714 267.627 678.127 266.827 677.594 265.76C677.06 264.693 676.794 263.2 676.794 261.28C676.794 256.267 678.18 250.24 680.954 243.2C683.834 236.267 686.234 230.88 688.154 227.04C689.007 225.227 689.434 224.213 689.434 224C689.114 224 687.514 225.493 684.634 228.48C681.967 231.253 678.767 234.4 675.034 237.92C671.3 241.547 667.62 244.693 663.994 247.36C660.367 250.133 657.38 251.52 655.034 251.52C653.647 251.52 652.367 250.88 651.194 249.6C650.02 248.32 649.434 246.453 649.434 244C649.434 241.333 650.02 238.453 651.194 235.36C652.26 232.267 653.594 229.6 655.194 227.36C656.794 225.013 658.287 223.84 659.674 223.84C659.994 223.84 660.367 223.947 660.794 224.16C661.327 224.373 661.594 224.747 661.594 225.28C661.594 225.707 661.007 227.2 659.834 229.76C658.767 232.32 657.594 235.2 656.314 238.4C655.14 241.707 654.554 244.32 654.554 246.24C654.554 247.84 655.14 248.64 656.314 248.64C658.554 248.64 662.127 246.347 667.034 241.76C672.047 237.28 676.954 232.587 681.754 227.68C684.74 224.587 687.3 222.027 689.434 220C691.674 217.867 693.114 216.8 693.754 216.8C693.967 216.907 694.18 217.013 694.394 217.12C694.607 217.227 694.767 217.387 694.874 217.6C695.3 217.813 695.514 218.187 695.514 218.72V219.04C695.514 220.32 694.127 224.267 691.354 230.88C689.114 236.533 686.874 242.507 684.634 248.8C682.394 255.2 681.274 260.213 681.274 263.84C681.274 265.333 681.86 266.08 683.034 266.08H683.514C685.22 266.08 687.78 264.373 691.194 260.96C694.714 257.547 698.34 253.653 702.074 249.28C705.807 244.907 709.007 240.96 711.674 237.44C714.34 234.027 715.674 232.267 715.674 232.16L715.834 232H715.994ZM779.96 232C780.067 232 780.12 232.053 780.12 232.16V232.32H779.96C779.64 232.853 778.627 234.4 776.92 236.96C774.68 240.16 771.853 243.787 768.44 247.84C765.027 251.893 761.4 255.467 757.56 258.56C753.72 261.76 750.2 263.36 747 263.36C744.44 263.36 742.787 262.4 742.04 260.48C741.4 258.667 741.08 256.96 741.08 255.36C741.08 250.347 742.253 244.533 744.6 237.92C747.053 231.413 749.347 225.813 751.48 221.12C753.187 217.387 754.04 215.2 754.04 214.56C754.04 214.133 753.827 213.92 753.4 213.92C751.587 213.92 748.493 216 744.12 220.16C739.853 224.32 735.373 228.853 730.68 233.76C726.84 237.813 723.427 241.28 720.44 244.16C717.453 247.147 715.427 248.64 714.36 248.64C712.44 248.64 711.48 247.413 711.48 244.96V244.16C711.48 241.387 712.12 238.027 713.4 234.08C714.573 230.24 716.013 226.827 717.72 223.84C719.427 220.853 721.027 219.36 722.52 219.36C724.12 219.36 724.92 219.947 724.92 221.12C724.92 221.653 724.547 222.72 723.8 224.32C723.16 225.92 722.413 227.733 721.56 229.76C720.28 232.427 719.16 234.987 718.2 237.44C717.24 239.893 716.76 241.653 716.76 242.72V242.88C717.08 242.88 718.04 242.08 719.64 240.48C721.24 238.88 723.267 236.853 725.72 234.4C730.84 229.067 736.333 223.68 742.2 218.24C748.067 212.8 752.227 210.08 754.68 210.08C755.747 210.187 756.6 210.613 757.24 211.36C757.987 212 758.36 212.853 758.36 213.92C758.36 215.307 757.827 217.547 756.76 220.64C755.8 223.627 754.573 226.987 753.08 230.72C751.267 235.627 749.56 240.48 747.96 245.28C746.36 250.08 745.56 253.92 745.56 256.8C745.56 258.08 745.72 258.933 746.04 259.36C746.36 259.893 746.68 260.213 747 260.32C747.427 260.533 747.747 260.64 747.96 260.64C751.053 260.64 754.733 258.453 759 254.08C763.373 249.707 767.48 245.28 771.32 240.8C773.453 238.24 775.267 236.107 776.76 234.4C778.36 232.8 779.427 232 779.96 232ZM822.259 232C822.472 232 822.579 232 822.579 232C822.685 232 822.739 232.053 822.739 232.16C822.739 232.373 821.405 233.653 818.739 236C816.072 238.347 812.712 240.96 808.659 243.84C804.712 246.827 800.605 249.44 796.339 251.68C792.072 254.027 788.392 255.2 785.299 255.2H784.339C783.379 255.2 782.525 255.093 781.779 254.88C777.619 253.28 775.539 249.867 775.539 244.64C775.539 241.973 776.072 238.933 777.139 235.52C778.099 232.107 779.325 229.12 780.819 226.56C782.419 223.893 783.965 222.56 785.459 222.56C786.099 222.667 786.632 222.933 787.059 223.36C787.485 223.787 787.699 224.32 787.699 224.96C787.699 226.133 787.005 228.107 785.619 230.88C784.659 233.013 783.699 235.307 782.739 237.76C781.779 240.32 781.299 242.827 781.299 245.28C781.299 247.627 781.939 249.227 783.219 250.08C784.605 251.04 786.365 251.52 788.499 251.52C791.912 251.52 796.019 249.92 800.819 246.72C805.725 243.627 810.152 240.533 814.099 237.44C818.579 233.813 821.299 232 822.259 232ZM788.019 214.88C786.739 214.24 786.099 213.333 786.099 212.16V211.2C786.099 209.813 786.739 208.693 788.019 207.84C788.765 207.413 789.512 207.2 790.259 207.2C790.899 207.2 791.539 207.36 792.179 207.68C793.565 208.64 794.259 209.867 794.259 211.36C794.259 212.427 793.832 213.387 792.979 214.24C792.232 214.987 791.325 215.36 790.259 215.36C789.512 215.36 788.765 215.2 788.019 214.88ZM893.882 232C894.096 232 894.202 232 894.202 232C894.309 232.107 894.416 232.213 894.522 232.32C894.522 232.747 891.856 234.773 886.522 238.4C881.296 242.027 874.789 246.027 867.002 250.4C859.322 254.88 851.589 258.773 843.802 262.08C836.016 265.493 829.562 267.2 824.442 267.2C823.056 267.2 821.722 266.987 820.442 266.56C817.989 265.6 816.176 264.053 815.002 261.92C813.829 259.893 813.242 257.387 813.242 254.4C813.242 247.467 815.429 240.213 819.802 232.64C824.176 225.173 829.402 218.827 835.482 213.6C841.562 208.373 847.162 205.76 852.282 205.76C854.949 205.76 856.976 206.613 858.362 208.32C859.749 210.027 860.442 212.16 860.442 214.72C860.442 217.28 859.802 219.84 858.522 222.4C857.349 224.96 855.962 227.093 854.362 228.8C852.869 230.507 851.589 231.36 850.522 231.36C850.309 231.36 850.096 231.307 849.882 231.2C849.669 231.093 849.509 230.933 849.402 230.72C849.082 230.293 848.922 229.867 848.922 229.44C848.922 227.947 849.989 226.08 852.122 223.84C853.402 222.347 854.629 220.693 855.802 218.88C856.976 216.96 857.562 214.88 857.562 212.64V212.16C857.562 211.2 857.189 210.347 856.442 209.6C855.696 208.853 854.842 208.48 853.882 208.48H853.402C848.602 208.48 843.429 211.253 837.882 216.8C832.336 222.347 827.589 228.8 823.642 236.16C819.802 243.627 817.882 250.293 817.882 256.16C817.882 259.36 818.576 261.547 819.962 262.72C821.349 263.893 823.269 264.48 825.722 264.48C833.402 263.947 842.789 260.747 853.882 254.88C864.976 249.013 874.629 243.467 882.842 238.24C889.349 234.08 893.029 232 893.882 232ZM894.572 251.36C895.746 251.36 897.186 250.453 898.892 248.64C900.706 246.827 902.306 244.373 903.692 241.28C905.079 238.187 905.772 234.773 905.772 231.04V230.24C905.772 229.707 905.666 229.12 905.452 228.48C905.239 227.733 904.919 227.093 904.492 226.56C904.172 226.027 903.639 225.76 902.892 225.76C901.932 225.76 900.599 227.147 898.892 229.92C897.292 232.587 895.852 235.627 894.572 239.04C893.292 242.56 892.652 245.493 892.652 247.84C892.652 250.08 893.292 251.253 894.572 251.36ZM937.612 231.68C938.572 231.68 939.052 231.893 939.052 232.32C939.052 232.533 938.786 232.8 938.252 233.12C937.719 233.547 936.812 233.92 935.532 234.24C934.252 234.56 932.439 234.72 930.092 234.72C924.652 234.72 920.226 233.867 916.812 232.16C913.506 230.56 911.106 229.12 909.612 227.84C908.759 227.093 908.172 226.72 907.852 226.72C907.746 226.827 907.639 226.933 907.532 227.04C907.532 227.04 907.532 227.093 907.532 227.2C908.066 228.693 908.386 230.293 908.492 232C908.492 237.973 906.732 243.147 903.212 247.52C899.692 252 896.279 254.24 892.972 254.24C889.559 254.24 887.799 251.627 887.692 246.4C887.799 242.133 888.866 237.813 890.892 233.44C892.919 229.173 895.372 225.973 898.252 223.84C898.252 223.733 898.306 223.68 898.412 223.68C899.052 223.147 899.479 222.773 899.692 222.56C900.012 222.347 900.172 222.08 900.172 221.76V221.6C900.172 221.387 900.172 221.067 900.172 220.64C900.279 220.107 900.439 219.68 900.652 219.36C900.866 218.933 901.186 218.72 901.612 218.72C902.786 218.72 904.546 219.893 906.892 222.24C909.239 224.373 912.279 226.667 916.012 229.12C919.852 231.467 924.439 232.64 929.772 232.64C932.332 232.64 934.146 232.427 935.212 232C936.066 231.787 936.866 231.68 937.612 231.68Z" fill="#51483F"/>
<path d="M35.9999 89.96C37.9199 89.96 40.2132 88.68 42.8799 86.12C45.6532 83.56 48.0532 80.7867 50.0799 77.8C52.2132 74.92 53.2799 72.9467 53.2799 71.88C53.2799 71.7733 53.2266 71.6667 53.1199 71.56C53.1199 71.56 53.1199 71.5067 53.1199 71.4H52.9599C52.2132 71.4 50.3466 72.4133 47.3599 74.44C44.4799 76.5733 41.7066 78.9733 39.0399 81.64C36.3732 84.4133 35.0399 86.8667 35.0399 89V89.16C35.0399 89.2667 35.0399 89.32 35.0399 89.32C35.0399 89.4267 35.0932 89.5333 35.1999 89.64C35.3065 89.7467 35.4132 89.8 35.5199 89.8C35.7332 89.9067 35.8932 89.96 35.9999 89.96ZM86.7199 60.36C89.1732 60.36 91.2532 60.4667 92.9599 60.68C94.6666 60.7867 95.5199 61.1067 95.5199 61.64C95.5199 61.96 94.8799 62.1733 93.5999 62.28C92.4266 62.3867 90.8266 62.4933 88.7999 62.6C83.6799 62.6 78.0799 63.1333 71.9999 64.2C66.0266 65.2667 62.0266 67.6133 59.9999 71.24C56.7999 77.96 52.5865 83.4533 47.3599 87.72C42.1332 91.9867 38.2932 94.12 35.8399 94.12H35.3599C34.3999 94.12 33.5465 93.8 32.7999 93.16C32.0532 92.3067 31.6799 91.3467 31.6799 90.28C31.6799 87.4 33.6532 83.8267 37.5999 79.56C41.6532 75.4 46.6132 71.6667 52.4799 68.36C52.5866 68.36 52.6399 68.3067 52.6399 68.2C53.5999 67.7733 54.3466 67.2933 54.8799 66.76C55.4132 66.2267 55.9466 65.2667 56.4799 63.88C57.1199 62.4933 57.9199 60.2533 58.8799 57.16C60.2666 53 61.1732 48.68 61.5999 44.2V42.28C61.5999 39.9333 61.0666 38.76 59.9999 38.76H59.8399C56.9599 38.76 51.6799 44.68 43.9999 56.52C36.3199 68.36 28.6932 83.3467 21.1199 101.48C13.5465 119.613 8.05321 138.707 4.63988 158.76C4.21321 161.32 3.89321 163.56 3.67988 165.48C3.46655 168.893 3.09322 170.6 2.55988 170.6C1.81321 170.6 1.11988 170.173 0.479882 169.32C0.159881 168.68 -0.000119209 167.987 -0.000119209 167.24V166.6C-0.000119209 160.84 2.02655 149.747 6.07988 133.32C10.1332 117 14.9332 99.72 20.4799 81.48C26.0265 63.24 31.3599 47.4 36.4799 33.96C41.5999 20.52 45.1732 13.8 47.1999 13.8C47.6266 13.8 47.8399 14.0133 47.8399 14.44V14.76C47.8399 15.4 46.8266 18.6533 44.7999 24.52C42.8799 30.3867 40.6399 37.2667 38.0799 45.16C34.8799 54.5467 31.9465 63.24 29.2799 71.24C26.6132 79.24 25.2799 83.7733 25.2799 84.84C25.3865 84.84 26.1332 83.4 27.5199 80.52C29.4399 76.1467 32.2132 70.3867 35.8399 63.24C39.5732 56.2 43.5199 49.7467 47.6799 43.88C51.9466 38.0133 55.8399 35.08 59.3599 35.08C61.4932 35.08 63.2532 35.88 64.6399 37.48C66.1332 39.08 66.8799 41.7467 66.8799 45.48C66.8799 48.36 66.5066 51.24 65.7599 54.12C65.0132 57 64.3732 59.2933 63.8399 61C63.4132 62.28 63.1999 63.0267 63.1999 63.24C70.4532 61.32 77.7066 60.36 84.9599 60.36H86.7199ZM94.7599 80.36C95.9332 80.36 97.3732 79.4533 99.0799 77.64C100.893 75.8267 102.493 73.3733 103.88 70.28C105.267 67.1867 105.96 63.7733 105.96 60.04V59.24C105.96 58.7067 105.853 58.12 105.64 57.48C105.427 56.7333 105.107 56.0933 104.68 55.56C104.36 55.0267 103.827 54.76 103.08 54.76C102.12 54.76 100.787 56.1467 99.0799 58.92C97.4799 61.5867 96.0399 64.6267 94.7599 68.04C93.4799 71.56 92.8399 74.4933 92.8399 76.84C92.8399 79.08 93.4799 80.2533 94.7599 80.36ZM137.8 60.68C138.76 60.68 139.24 60.8933 139.24 61.32C139.24 61.5333 138.973 61.8 138.44 62.12C137.907 62.5467 137 62.92 135.72 63.24C134.44 63.56 132.627 63.72 130.28 63.72C124.84 63.72 120.413 62.8667 117 61.16C113.693 59.56 111.293 58.12 109.8 56.84C108.947 56.0933 108.36 55.72 108.04 55.72C107.933 55.8267 107.827 55.9333 107.72 56.04C107.72 56.04 107.72 56.0933 107.72 56.2C108.253 57.6933 108.573 59.2933 108.68 61C108.68 66.9733 106.92 72.1467 103.4 76.52C99.8799 81 96.4665 83.24 93.1599 83.24C89.7465 83.24 87.9865 80.6267 87.8799 75.4C87.9865 71.1333 89.0532 66.8133 91.0799 62.44C93.1065 58.1733 95.5599 54.9733 98.4399 52.84C98.4399 52.7333 98.4932 52.68 98.5999 52.68C99.2399 52.1467 99.6665 51.7733 99.8799 51.56C100.2 51.3467 100.36 51.08 100.36 50.76V50.6C100.36 50.3867 100.36 50.0667 100.36 49.64C100.467 49.1067 100.627 48.68 100.84 48.36C101.053 47.9333 101.373 47.72 101.8 47.72C102.973 47.72 104.733 48.8933 107.08 51.24C109.427 53.3733 112.467 55.6667 116.2 58.12C120.04 60.4667 124.627 61.64 129.96 61.64C132.52 61.64 134.333 61.4267 135.4 61C136.253 60.7867 137.053 60.68 137.8 60.68ZM136.091 81.32C136.091 81.4267 136.144 81.48 136.251 81.48C136.464 81.48 137.371 80.4133 138.971 78.28C140.571 76.2533 142.544 73.5867 144.891 70.28C148.198 65.5867 151.771 60.6267 155.611 55.4C159.558 50.1733 163.184 45.6933 166.491 41.96C169.904 38.12 172.411 36.2 174.011 36.2C174.971 36.2 175.558 37.16 175.771 39.08C175.771 39.5067 175.718 40.04 175.611 40.68C175.504 41.64 175.451 43.2933 175.451 45.64C175.451 51.72 176.784 56.4667 179.451 59.88C182.118 63.2933 185.478 65 189.531 65C192.304 65 195.078 64.6267 197.851 63.88C200.624 63.24 203.024 62.6 205.051 61.96C206.971 61.32 208.251 61 208.891 61C209.851 61 210.384 61.2667 210.491 61.8C210.491 62.2267 209.158 62.8667 206.491 63.72C203.931 64.68 200.838 65.5333 197.211 66.28C193.584 67.1333 190.331 67.56 187.451 67.56C183.078 67.56 179.558 66.5467 176.891 64.52C174.331 62.6 172.464 60.1467 171.291 57.16C170.224 54.1733 169.691 51.24 169.691 48.36C169.691 45.9067 170.011 43.6667 170.651 41.64C170.224 41.64 168.624 43.4533 165.851 47.08C163.184 50.7067 160.038 55.1333 156.411 60.36C151.184 67.72 146.118 74.6533 141.211 81.16C136.304 87.7733 133.211 91.08 131.931 91.08C131.718 91.08 131.451 91.0267 131.131 90.92C130.811 90.8133 130.544 90.6533 130.331 90.44C129.691 89.8 129.371 88.6267 129.371 86.92C129.371 84.04 130.278 79.6667 132.091 73.8C133.798 67.9333 135.718 62.5467 137.851 57.64C140.091 52.7333 141.851 50.28 143.131 50.28H143.451C143.984 50.3867 144.411 50.6533 144.731 51.08C145.051 51.4 145.211 51.7733 145.211 52.2V52.52C145.211 53.6933 144.571 56.0933 143.291 59.72C142.118 63.3467 140.838 67.08 139.451 70.92C138.491 73.5867 137.691 75.88 137.051 77.8C136.411 79.72 136.091 80.8933 136.091 81.32ZM215.52 169.8C217.44 169.16 219.147 165.267 220.64 158.12C222.133 151.08 223.307 143.24 224.16 134.6C225.013 125.96 225.44 119.507 225.44 115.24C225.44 112.893 225.227 111.72 224.8 111.72C224.267 111.72 223.413 113.96 222.24 118.44C221.067 122.92 219.84 128.253 218.56 134.44C217.387 140.733 216.32 146.76 215.36 152.52C214.507 158.387 214.08 162.6 214.08 165.16C214.08 168.04 214.507 169.587 215.36 169.8H215.52ZM223.84 62.76C225.12 60.9467 225.76 58.9733 225.76 56.84V56.2C225.76 53 225.12 51.4 223.84 51.4H223.68C221.973 51.4 219.733 53.2667 216.96 57C214.293 60.6267 211.84 64.5733 209.6 68.84C207.467 73.2133 206.4 76.36 206.4 78.28V78.44C206.4 78.5467 206.453 78.6 206.56 78.6C206.667 78.7067 206.773 78.76 206.88 78.76C208.16 78.44 209.227 77.8 210.08 76.84C215.093 72.5733 219.68 67.88 223.84 62.76ZM273.92 61.8C273.92 62.9733 272.053 65.3733 268.32 69C264.693 72.6267 260.32 76.6267 255.2 81C250.08 85.3733 245.12 89.5333 240.32 93.48C236.8 96.4667 233.867 98.92 231.52 100.84C229.28 102.867 228.053 104.093 227.84 104.52C228.267 106.867 228.48 109.267 228.48 111.72V113.96C228.48 118.867 228.213 124.68 227.68 131.4C227.147 138.12 226.293 144.68 225.12 151.08C223.947 157.48 222.453 162.813 220.64 167.08C218.827 171.453 216.693 173.64 214.24 173.64H213.92C211.573 173.64 210.347 169.853 210.24 162.28C210.24 151.293 213.227 134.493 219.2 111.88C225.28 89.2667 234.72 64.7333 247.52 38.28L246.56 39.72C244.533 42.7067 240.96 47.6667 235.84 54.6C230.72 61.5333 225.227 68.1467 219.36 74.44C213.6 80.7333 209.013 83.88 205.6 83.88C202.933 83.88 201.6 81.96 201.6 78.12C201.6 74.6 202.773 70.28 205.12 65.16C207.36 60.1467 210.133 55.72 213.44 51.88C216.853 47.9333 220.107 45.96 223.2 45.96C225.333 45.96 226.773 46.7067 227.52 48.2C228.373 49.6933 228.96 51.1333 229.28 52.52C229.387 53.0533 229.493 53.48 229.6 53.8C229.707 54.12 229.867 54.28 230.08 54.28C230.613 54.28 231.84 53 233.76 50.44C235.787 47.88 238.027 44.8933 240.48 41.48C243.573 37.1067 246.507 33.1067 249.28 29.48C252.16 25.8533 254.133 24.04 255.2 24.04C255.413 24.04 255.68 24.0933 256 24.2C256.427 24.3067 256.8 24.4667 257.12 24.68C257.547 24.8933 257.76 25.1067 257.76 25.32L255.68 30.28C253.227 36.04 249.867 44.04 245.6 54.28C241.333 64.52 237.387 74.2267 233.76 83.4C230.133 92.5733 228.32 97.7467 228.32 98.92C229.387 98.92 232.693 96.5733 238.24 91.88C243.893 87.2933 249.76 82.2267 255.84 76.68C262.027 71.24 266.88 66.92 270.4 63.72L273.6 60.84C273.707 60.84 273.76 60.8933 273.76 61C273.867 61.1067 273.92 61.2133 273.92 61.32C273.92 61.5333 273.92 61.6933 273.92 61.8ZM335.087 61C335.194 61 335.247 61 335.247 61C335.354 61.1067 335.407 61.16 335.407 61.16C335.407 61.2667 335.407 61.3733 335.407 61.48C335.407 62.44 334.074 64.84 331.407 68.68C328.847 72.52 325.647 76.68 321.807 81.16C318.074 85.7467 314.287 89.7467 310.447 93.16C306.607 96.5733 303.514 98.28 301.167 98.28C301.061 98.28 300.741 98.2267 300.207 98.12C299.674 98.0133 299.087 97.6933 298.447 97.16C297.807 96.6267 297.221 95.8267 296.687 94.76C296.154 93.6933 295.887 92.2 295.887 90.28C295.887 85.2667 297.274 79.24 300.047 72.2C302.927 65.2667 305.327 59.88 307.247 56.04C308.101 54.2267 308.527 53.2133 308.527 53C308.207 53 306.607 54.4933 303.727 57.48C301.061 60.2533 297.861 63.4 294.127 66.92C290.394 70.5467 286.714 73.6933 283.087 76.36C279.461 79.1333 276.474 80.52 274.127 80.52C272.741 80.52 271.461 79.88 270.287 78.6C269.114 77.32 268.527 75.4533 268.527 73C268.527 70.3333 269.114 67.4533 270.287 64.36C271.354 61.2667 272.687 58.6 274.287 56.36C275.887 54.0133 277.381 52.84 278.767 52.84C279.087 52.84 279.461 52.9467 279.887 53.16C280.421 53.3733 280.687 53.7467 280.687 54.28C280.687 54.7067 280.101 56.2 278.927 58.76C277.861 61.32 276.687 64.2 275.407 67.4C274.234 70.7067 273.647 73.32 273.647 75.24C273.647 76.84 274.234 77.64 275.407 77.64C277.647 77.64 281.221 75.3467 286.127 70.76C291.141 66.28 296.047 61.5867 300.847 56.68C303.834 53.5867 306.394 51.0267 308.527 49C310.767 46.8667 312.207 45.8 312.847 45.8C313.061 45.9067 313.274 46.0133 313.487 46.12C313.701 46.2267 313.861 46.3867 313.967 46.6C314.394 46.8133 314.607 47.1867 314.607 47.72V48.04C314.607 49.32 313.221 53.2667 310.447 59.88C308.207 65.5333 305.967 71.5067 303.727 77.8C301.487 84.2 300.367 89.2133 300.367 92.84C300.367 94.3333 300.954 95.08 302.127 95.08H302.607C304.314 95.08 306.874 93.3733 310.287 89.96C313.807 86.5467 317.434 82.6533 321.167 78.28C324.901 73.9067 328.101 69.96 330.767 66.44C333.434 63.0267 334.767 61.2667 334.767 61.16L334.927 61H335.087ZM353.774 51.72C352.387 51.8267 350.734 52.36 348.814 53.32C347 54.28 345.294 55.4 343.694 56.68C342.2 57.8533 341.454 58.8667 341.454 59.72C341.454 59.9333 341.56 60.04 341.774 60.04H342.094C342.84 60.04 344.28 59.7733 346.414 59.24C348.547 58.7067 350.574 57.9067 352.494 56.84C354.414 55.7733 355.374 54.44 355.374 52.84C355.374 52.6267 355.214 52.4133 354.894 52.2C354.68 51.88 354.307 51.72 353.774 51.72ZM388.814 61H389.294C389.4 61 389.507 61 389.614 61C389.72 61 389.774 61.0533 389.774 61.16C389.774 61.48 387.374 63.1333 382.574 66.12C377.774 69.1067 372.067 71.9867 365.454 74.76C358.947 77.5333 352.76 79.1333 346.894 79.56H345.454C341.72 79.56 338.84 78.92 336.814 77.64C334.894 76.36 333.56 74.76 332.814 72.84C331.96 71.0267 331.534 69.2133 331.534 67.4C331.534 63.56 332.814 60.1467 335.374 57.16C338.04 54.0667 341.08 51.6667 344.494 49.96C347.907 48.1467 350.894 47.24 353.454 47.24C355.054 47.24 356.227 47.5067 356.974 48.04C357.72 48.5733 358.147 49.16 358.254 49.8C358.467 50.44 358.574 50.9733 358.574 51.4C358.574 54.0667 356.92 56.7333 353.614 59.4C350.414 61.96 346.147 63.24 340.814 63.24C338.894 63.24 337.774 64.84 337.454 68.04C337.454 73.2667 340.814 75.9333 347.534 76.04C348.28 76.04 349.027 75.9867 349.774 75.88C356.387 75.1333 362.84 73.3733 369.134 70.6C375.427 67.9333 380.547 65.48 384.494 63.24C386.414 62.1733 387.854 61.4267 388.814 61Z" fill="#51483F"/>
</svg>
